<svg width="418" height="245" viewBox="0 0 418 245" fill="none" xmlns="http://www.w3.org/2000/svg">
<g filter="url(#filter0_d_1226_485)">
<rect x="30" y="20" width="358" height="185" fill="#FFD143"/>
</g>
<path opacity="0.5" fill-rule="evenodd" clip-rule="evenodd" d="M126.206 20C124.988 28.5218 117.526 52.4858 86.7836 63.3559C56.9566 73.9024 37.3075 70.2754 30.0008 66.8667L30.0008 39.8019C30.1071 28.8474 39.0202 20 49.9998 20L126.206 20Z" fill="#FFC000"/>
<path opacity="0.5" fill-rule="evenodd" clip-rule="evenodd" d="M387.999 106.339V185C387.999 196.021 379.085 204.96 368.074 205H226.073C232.499 186.5 259.34 149.5 315.298 149.5C371.249 149.5 387.077 120.73 387.999 106.339Z" fill="#FFC000"/>
<path d="M64.248 91.18C63.58 91.18 62.99 91.042 62.478 90.766C61.966 90.49 61.564 90.104 61.272 89.608C60.984 89.108 60.84 88.522 60.84 87.85V82.366L61.92 82.36V87.76C61.92 88.168 61.988 88.524 62.124 88.828C62.264 89.128 62.448 89.378 62.676 89.578C62.904 89.778 63.154 89.928 63.426 90.028C63.702 90.124 63.976 90.172 64.248 90.172C64.524 90.172 64.8 90.122 65.076 90.022C65.352 89.922 65.602 89.774 65.826 89.578C66.054 89.378 66.236 89.126 66.372 88.822C66.508 88.518 66.576 88.164 66.576 87.76V82.36H67.656V87.85C67.656 88.518 67.51 89.102 67.218 89.602C66.93 90.102 66.53 90.49 66.018 90.766C65.506 91.042 64.916 91.18 64.248 91.18ZM72.3121 91.18C71.7041 91.18 71.1921 91.03 70.7761 90.73C70.3601 90.426 70.0441 90.016 69.8281 89.5C69.6161 88.98 69.5101 88.398 69.5101 87.754C69.5101 87.102 69.6161 86.518 69.8281 86.002C70.0441 85.486 70.3601 85.08 70.7761 84.784C71.1961 84.488 71.7101 84.34 72.3181 84.34C72.9181 84.34 73.4341 84.49 73.8661 84.79C74.3021 85.086 74.6361 85.492 74.8681 86.008C75.1001 86.524 75.2161 87.106 75.2161 87.754C75.2161 88.402 75.1001 88.984 74.8681 89.5C74.6361 90.016 74.3021 90.426 73.8661 90.73C73.4341 91.03 72.9161 91.18 72.3121 91.18ZM69.3301 93.88V84.52H70.2841V89.29H70.4041V93.88H69.3301ZM72.1801 90.202C72.6081 90.202 72.9621 90.094 73.2421 89.878C73.5221 89.662 73.7321 89.37 73.8721 89.002C74.0121 88.63 74.0821 88.214 74.0821 87.754C74.0821 87.298 74.0121 86.886 73.8721 86.518C73.7361 86.15 73.5241 85.858 73.2361 85.642C72.9521 85.426 72.5901 85.318 72.1501 85.318C71.7301 85.318 71.3821 85.422 71.1061 85.63C70.8301 85.834 70.6241 86.12 70.4881 86.488C70.3521 86.852 70.2841 87.274 70.2841 87.754C70.2841 88.226 70.3501 88.648 70.4821 89.02C70.6181 89.388 70.8261 89.678 71.1061 89.89C71.3861 90.098 71.7441 90.202 72.1801 90.202ZM79.0754 91.18C78.4714 91.18 77.9534 91.03 77.5214 90.73C77.0894 90.426 76.7554 90.016 76.5194 89.5C76.2874 88.984 76.1714 88.402 76.1714 87.754C76.1714 87.106 76.2874 86.524 76.5194 86.008C76.7554 85.492 77.0894 85.086 77.5214 84.79C77.9534 84.49 78.4694 84.34 79.0694 84.34C79.6814 84.34 80.1954 84.488 80.6114 84.784C81.0274 85.08 81.3414 85.486 81.5534 86.002C81.7694 86.518 81.8774 87.102 81.8774 87.754C81.8774 88.398 81.7694 88.98 81.5534 89.5C81.3414 90.016 81.0274 90.426 80.6114 90.73C80.1954 91.03 79.6834 91.18 79.0754 91.18ZM79.2074 90.202C79.6434 90.202 80.0014 90.098 80.2814 89.89C80.5614 89.678 80.7674 89.388 80.8994 89.02C81.0354 88.648 81.1034 88.226 81.1034 87.754C81.1034 87.274 81.0354 86.852 80.8994 86.488C80.7674 86.12 80.5634 85.834 80.2874 85.63C80.0114 85.422 79.6614 85.318 79.2374 85.318C78.7974 85.318 78.4334 85.426 78.1454 85.642C77.8614 85.858 77.6494 86.15 77.5094 86.518C77.3734 86.886 77.3054 87.298 77.3054 87.754C77.3054 88.214 77.3754 88.63 77.5154 89.002C77.6554 89.37 77.8654 89.662 78.1454 89.878C78.4294 90.094 78.7834 90.202 79.2074 90.202ZM81.1034 91V86.23H80.9834V82.36H82.0574V91H81.1034ZM85.5804 91.18C85.0964 91.18 84.6904 91.092 84.3624 90.916C84.0384 90.736 83.7924 90.5 83.6244 90.208C83.4604 89.916 83.3784 89.596 83.3784 89.248C83.3784 88.908 83.4424 88.614 83.5704 88.366C83.7024 88.114 83.8864 87.906 84.1224 87.742C84.3584 87.574 84.6404 87.442 84.9684 87.346C85.2764 87.262 85.6204 87.19 86.0004 87.13C86.3844 87.066 86.7724 87.008 87.1644 86.956C87.5564 86.904 87.9224 86.854 88.2624 86.806L87.8784 87.028C87.8904 86.452 87.7744 86.026 87.5304 85.75C87.2904 85.474 86.8744 85.336 86.2824 85.336C85.8904 85.336 85.5464 85.426 85.2504 85.606C84.9584 85.782 84.7524 86.07 84.6324 86.47L83.6184 86.164C83.7744 85.596 84.0764 85.15 84.5244 84.826C84.9724 84.502 85.5624 84.34 86.2944 84.34C86.8824 84.34 87.3864 84.446 87.8064 84.658C88.2304 84.866 88.5344 85.182 88.7184 85.606C88.8104 85.806 88.8684 86.024 88.8924 86.26C88.9164 86.492 88.9284 86.736 88.9284 86.992V91H87.9804V89.446L88.2024 89.59C87.9584 90.114 87.6164 90.51 87.1764 90.778C86.7404 91.046 86.2084 91.18 85.5804 91.18ZM85.7424 90.286C86.1264 90.286 86.4584 90.218 86.7384 90.082C87.0224 89.942 87.2504 89.76 87.4224 89.536C87.5944 89.308 87.7064 89.06 87.7584 88.792C87.8184 88.592 87.8504 88.37 87.8544 88.126C87.8624 87.878 87.8664 87.688 87.8664 87.556L88.2384 87.718C87.8904 87.766 87.5484 87.812 87.2124 87.856C86.8764 87.9 86.5584 87.948 86.2584 88C85.9584 88.048 85.6884 88.106 85.4484 88.174C85.2724 88.23 85.1064 88.302 84.9504 88.39C84.7984 88.478 84.6744 88.592 84.5784 88.732C84.4864 88.868 84.4404 89.038 84.4404 89.242C84.4404 89.418 84.4844 89.586 84.5724 89.746C84.6644 89.906 84.8044 90.036 84.9924 90.136C85.1844 90.236 85.4344 90.286 85.7424 90.286ZM94.1064 91C93.7224 91.076 93.3424 91.106 92.9664 91.09C92.5944 91.078 92.2624 91.004 91.9704 90.868C91.6784 90.728 91.4564 90.512 91.3044 90.22C91.1764 89.964 91.1064 89.706 91.0944 89.446C91.0864 89.182 91.0824 88.884 91.0824 88.552V82.72H92.1504V88.504C92.1504 88.768 92.1524 88.994 92.1564 89.182C92.1644 89.37 92.2064 89.532 92.2824 89.668C92.4264 89.924 92.6544 90.074 92.9664 90.118C93.2824 90.162 93.6624 90.15 94.1064 90.082V91ZM89.7684 85.402V84.52H94.1064V85.402H89.7684ZM97.9605 91.18C97.3245 91.18 96.7685 91.04 96.2925 90.76C95.8205 90.476 95.4525 90.082 95.1885 89.578C94.9245 89.07 94.7925 88.478 94.7925 87.802C94.7925 87.094 94.9225 86.482 95.1825 85.966C95.4425 85.446 95.8045 85.046 96.2685 84.766C96.7365 84.482 97.2845 84.34 97.9125 84.34C98.5645 84.34 99.1185 84.49 99.5745 84.79C100.035 85.09 100.379 85.518 100.607 86.074C100.839 86.63 100.939 87.292 100.907 88.06H99.8265V87.676C99.8145 86.88 99.6525 86.286 99.3405 85.894C99.0285 85.498 98.5645 85.3 97.9485 85.3C97.2885 85.3 96.7865 85.512 96.4425 85.936C96.0985 86.36 95.9265 86.968 95.9265 87.76C95.9265 88.524 96.0985 89.116 96.4425 89.536C96.7865 89.956 97.2765 90.166 97.9125 90.166C98.3405 90.166 98.7125 90.068 99.0285 89.872C99.3445 89.676 99.5925 89.394 99.7725 89.026L100.799 89.38C100.547 89.952 100.167 90.396 99.6585 90.712C99.1545 91.024 98.5885 91.18 97.9605 91.18ZM95.5665 88.06V87.202H100.355V88.06H95.5665ZM104.786 91.18C104.182 91.18 103.664 91.03 103.232 90.73C102.8 90.426 102.466 90.016 102.23 89.5C101.998 88.984 101.882 88.402 101.882 87.754C101.882 87.106 101.998 86.524 102.23 86.008C102.466 85.492 102.8 85.086 103.232 84.79C103.664 84.49 104.18 84.34 104.78 84.34C105.392 84.34 105.906 84.488 106.322 84.784C106.738 85.08 107.052 85.486 107.264 86.002C107.48 86.518 107.588 87.102 107.588 87.754C107.588 88.398 107.48 88.98 107.264 89.5C107.052 90.016 106.738 90.426 106.322 90.73C105.906 91.03 105.394 91.18 104.786 91.18ZM104.918 90.202C105.354 90.202 105.712 90.098 105.992 89.89C106.272 89.678 106.478 89.388 106.61 89.02C106.746 88.648 106.814 88.226 106.814 87.754C106.814 87.274 106.746 86.852 106.61 86.488C106.478 86.12 106.274 85.834 105.998 85.63C105.722 85.422 105.372 85.318 104.948 85.318C104.508 85.318 104.144 85.426 103.856 85.642C103.572 85.858 103.36 86.15 103.22 86.518C103.084 86.886 103.016 87.298 103.016 87.754C103.016 88.214 103.086 88.63 103.226 89.002C103.366 89.37 103.576 89.662 103.856 89.878C104.14 90.094 104.494 90.202 104.918 90.202ZM106.814 91V86.23H106.694V82.36H107.768V91H106.814ZM111.852 91V82.36H112.824L116.088 89.242L119.334 82.36H120.318V90.994H119.304V84.706L116.37 91H115.8L112.866 84.706V91H111.852ZM124.76 91.18C124.116 91.18 123.56 91.034 123.092 90.742C122.628 90.45 122.27 90.046 122.018 89.53C121.766 89.014 121.64 88.422 121.64 87.754C121.64 87.074 121.768 86.478 122.024 85.966C122.28 85.454 122.642 85.056 123.11 84.772C123.578 84.484 124.128 84.34 124.76 84.34C125.408 84.34 125.966 84.486 126.434 84.778C126.902 85.066 127.26 85.468 127.508 85.984C127.76 86.496 127.886 87.086 127.886 87.754C127.886 88.43 127.76 89.026 127.508 89.542C127.256 90.054 126.896 90.456 126.428 90.748C125.96 91.036 125.404 91.18 124.76 91.18ZM124.76 90.166C125.432 90.166 125.932 89.942 126.26 89.494C126.588 89.046 126.752 88.466 126.752 87.754C126.752 87.022 126.586 86.44 126.254 86.008C125.922 85.572 125.424 85.354 124.76 85.354C124.308 85.354 123.936 85.456 123.644 85.66C123.352 85.864 123.134 86.146 122.99 86.506C122.846 86.866 122.774 87.282 122.774 87.754C122.774 88.482 122.942 89.066 123.278 89.506C123.614 89.946 124.108 90.166 124.76 90.166ZM133.821 91V87.754C133.821 87.446 133.793 87.15 133.737 86.866C133.685 86.582 133.591 86.328 133.455 86.104C133.323 85.876 133.143 85.696 132.915 85.564C132.691 85.432 132.407 85.366 132.063 85.366C131.795 85.366 131.551 85.412 131.331 85.504C131.115 85.592 130.929 85.728 130.773 85.912C130.617 86.096 130.495 86.328 130.407 86.608C130.323 86.884 130.281 87.21 130.281 87.586L129.579 87.37C129.579 86.742 129.691 86.204 129.915 85.756C130.143 85.304 130.461 84.958 130.869 84.718C131.281 84.474 131.765 84.352 132.321 84.352C132.741 84.352 133.099 84.418 133.395 84.55C133.691 84.682 133.937 84.858 134.133 85.078C134.329 85.294 134.483 85.538 134.595 85.81C134.707 86.078 134.785 86.352 134.829 86.632C134.877 86.908 134.901 87.17 134.901 87.418V91H133.821ZM129.201 91V84.52H130.161V86.254H130.281V91H129.201ZM138.947 91.18C138.343 91.18 137.825 91.03 137.393 90.73C136.961 90.426 136.627 90.016 136.391 89.5C136.159 88.984 136.043 88.402 136.043 87.754C136.043 87.106 136.159 86.524 136.391 86.008C136.627 85.492 136.961 85.086 137.393 84.79C137.825 84.49 138.341 84.34 138.941 84.34C139.553 84.34 140.067 84.488 140.483 84.784C140.899 85.08 141.213 85.486 141.425 86.002C141.641 86.518 141.749 87.102 141.749 87.754C141.749 88.398 141.641 88.98 141.425 89.5C141.213 90.016 140.899 90.426 140.483 90.73C140.067 91.03 139.555 91.18 138.947 91.18ZM139.079 90.202C139.515 90.202 139.873 90.098 140.153 89.89C140.433 89.678 140.639 89.388 140.771 89.02C140.907 88.648 140.975 88.226 140.975 87.754C140.975 87.274 140.907 86.852 140.771 86.488C140.639 86.12 140.435 85.834 140.159 85.63C139.883 85.422 139.533 85.318 139.109 85.318C138.669 85.318 138.305 85.426 138.017 85.642C137.733 85.858 137.521 86.15 137.381 86.518C137.245 86.886 137.177 87.298 137.177 87.754C137.177 88.214 137.247 88.63 137.387 89.002C137.527 89.37 137.737 89.662 138.017 89.878C138.301 90.094 138.655 90.202 139.079 90.202ZM140.975 91V86.23H140.855V82.36H141.929V91H140.975ZM145.452 91.18C144.968 91.18 144.562 91.092 144.234 90.916C143.91 90.736 143.664 90.5 143.496 90.208C143.332 89.916 143.25 89.596 143.25 89.248C143.25 88.908 143.314 88.614 143.442 88.366C143.574 88.114 143.758 87.906 143.994 87.742C144.23 87.574 144.512 87.442 144.84 87.346C145.148 87.262 145.492 87.19 145.872 87.13C146.256 87.066 146.644 87.008 147.036 86.956C147.428 86.904 147.794 86.854 148.134 86.806L147.75 87.028C147.762 86.452 147.646 86.026 147.402 85.75C147.162 85.474 146.746 85.336 146.154 85.336C145.762 85.336 145.418 85.426 145.122 85.606C144.83 85.782 144.624 86.07 144.504 86.47L143.49 86.164C143.646 85.596 143.948 85.15 144.396 84.826C144.844 84.502 145.434 84.34 146.166 84.34C146.754 84.34 147.258 84.446 147.678 84.658C148.102 84.866 148.406 85.182 148.59 85.606C148.682 85.806 148.74 86.024 148.764 86.26C148.788 86.492 148.8 86.736 148.8 86.992V91H147.852V89.446L148.074 89.59C147.83 90.114 147.488 90.51 147.048 90.778C146.612 91.046 146.08 91.18 145.452 91.18ZM145.614 90.286C145.998 90.286 146.33 90.218 146.61 90.082C146.894 89.942 147.122 89.76 147.294 89.536C147.466 89.308 147.578 89.06 147.63 88.792C147.69 88.592 147.722 88.37 147.726 88.126C147.734 87.878 147.738 87.688 147.738 87.556L148.11 87.718C147.762 87.766 147.42 87.812 147.084 87.856C146.748 87.9 146.43 87.948 146.13 88C145.83 88.048 145.56 88.106 145.32 88.174C145.144 88.23 144.978 88.302 144.822 88.39C144.67 88.478 144.546 88.592 144.45 88.732C144.358 88.868 144.312 89.038 144.312 89.242C144.312 89.418 144.356 89.586 144.444 89.746C144.536 89.906 144.676 90.036 144.864 90.136C145.056 90.236 145.306 90.286 145.614 90.286ZM150.896 93.88L152.15 90.472L152.168 91.48L149.336 84.52H150.458L152.678 90.118H152.294L154.376 84.52H155.462L151.934 93.88H150.896Z" fill="white" fill-opacity="0.1"/>
<path d="M168.454 158V154.754C168.454 154.446 168.426 154.15 168.37 153.866C168.318 153.582 168.224 153.328 168.088 153.104C167.956 152.876 167.776 152.696 167.548 152.564C167.324 152.432 167.04 152.366 166.696 152.366C166.428 152.366 166.184 152.412 165.964 152.504C165.748 152.592 165.562 152.728 165.406 152.912C165.25 153.096 165.128 153.328 165.04 153.608C164.956 153.884 164.914 154.21 164.914 154.586L164.212 154.37C164.212 153.742 164.324 153.204 164.548 152.756C164.776 152.304 165.094 151.958 165.502 151.718C165.914 151.474 166.398 151.352 166.954 151.352C167.374 151.352 167.732 151.418 168.028 151.55C168.324 151.682 168.57 151.858 168.766 152.078C168.962 152.294 169.116 152.538 169.228 152.81C169.34 153.078 169.418 153.352 169.462 153.632C169.51 153.908 169.534 154.17 169.534 154.418V158H168.454ZM163.834 158V149.36H164.794V154.13H164.914V158H163.834ZM173.854 158.18C173.21 158.18 172.654 158.034 172.186 157.742C171.722 157.45 171.364 157.046 171.112 156.53C170.86 156.014 170.734 155.422 170.734 154.754C170.734 154.074 170.862 153.478 171.118 152.966C171.374 152.454 171.736 152.056 172.204 151.772C172.672 151.484 173.222 151.34 173.854 151.34C174.502 151.34 175.06 151.486 175.528 151.778C175.996 152.066 176.354 152.468 176.602 152.984C176.854 153.496 176.98 154.086 176.98 154.754C176.98 155.43 176.854 156.026 176.602 156.542C176.35 157.054 175.99 157.456 175.522 157.748C175.054 158.036 174.498 158.18 173.854 158.18ZM173.854 157.166C174.526 157.166 175.026 156.942 175.354 156.494C175.682 156.046 175.846 155.466 175.846 154.754C175.846 154.022 175.68 153.44 175.348 153.008C175.016 152.572 174.518 152.354 173.854 152.354C173.402 152.354 173.03 152.456 172.738 152.66C172.446 152.864 172.228 153.146 172.084 153.506C171.94 153.866 171.868 154.282 171.868 154.754C171.868 155.482 172.036 156.066 172.372 156.506C172.708 156.946 173.202 157.166 173.854 157.166ZM180.761 158.168C180.345 158.168 179.987 158.102 179.687 157.97C179.391 157.838 179.145 157.662 178.949 157.442C178.753 157.222 178.599 156.978 178.487 156.71C178.375 156.442 178.295 156.168 178.247 155.888C178.203 155.608 178.181 155.346 178.181 155.102V151.52H179.261V154.766C179.261 155.07 179.289 155.364 179.345 155.648C179.401 155.932 179.495 156.188 179.627 156.416C179.763 156.644 179.943 156.824 180.167 156.956C180.395 157.088 180.679 157.154 181.019 157.154C181.287 157.154 181.531 157.108 181.751 157.016C181.971 156.924 182.159 156.788 182.315 156.608C182.471 156.424 182.591 156.192 182.675 155.912C182.759 155.632 182.801 155.306 182.801 154.934L183.503 155.15C183.503 155.774 183.389 156.312 183.161 156.764C182.937 157.216 182.619 157.564 182.207 157.808C181.799 158.048 181.317 158.168 180.761 158.168ZM182.921 158V156.266H182.801V151.52H183.875V158H182.921ZM185.555 158V151.52H186.509V153.086L186.353 152.882C186.429 152.682 186.527 152.498 186.647 152.33C186.771 152.162 186.909 152.024 187.061 151.916C187.229 151.78 187.419 151.676 187.631 151.604C187.843 151.532 188.059 151.49 188.279 151.478C188.499 151.462 188.705 151.476 188.897 151.52V152.522C188.673 152.462 188.427 152.446 188.159 152.474C187.891 152.502 187.643 152.6 187.415 152.768C187.207 152.916 187.045 153.096 186.929 153.308C186.817 153.52 186.739 153.75 186.695 153.998C186.651 154.242 186.629 154.492 186.629 154.748V158H185.555ZM192.245 158.174C191.473 158.174 190.839 158.006 190.343 157.67C189.851 157.33 189.549 156.856 189.437 156.248L190.529 156.074C190.617 156.426 190.819 156.706 191.135 156.914C191.451 157.118 191.843 157.22 192.311 157.22C192.755 157.22 193.103 157.128 193.355 156.944C193.607 156.76 193.733 156.51 193.733 156.194C193.733 156.01 193.691 155.862 193.607 155.75C193.523 155.634 193.349 155.526 193.085 155.426C192.825 155.326 192.431 155.206 191.903 155.066C191.331 154.914 190.881 154.756 190.553 154.592C190.225 154.428 189.991 154.238 189.851 154.022C189.711 153.806 189.641 153.544 189.641 153.236C189.641 152.856 189.745 152.524 189.953 152.24C190.161 151.952 190.451 151.73 190.823 151.574C191.199 151.418 191.635 151.34 192.131 151.34C192.623 151.34 193.063 151.418 193.451 151.574C193.839 151.73 194.151 151.952 194.387 152.24C194.627 152.524 194.769 152.856 194.813 153.236L193.721 153.434C193.669 153.086 193.501 152.812 193.217 152.612C192.937 152.412 192.575 152.306 192.131 152.294C191.711 152.278 191.369 152.352 191.105 152.516C190.845 152.68 190.715 152.902 190.715 153.182C190.715 153.338 190.763 153.472 190.859 153.584C190.959 153.696 191.141 153.802 191.405 153.902C191.673 154.002 192.061 154.116 192.569 154.244C193.141 154.388 193.591 154.546 193.919 154.718C194.251 154.886 194.487 155.086 194.627 155.318C194.767 155.546 194.837 155.828 194.837 156.164C194.837 156.788 194.607 157.28 194.147 157.64C193.687 157.996 193.053 158.174 192.245 158.174Z" fill="white" fill-opacity="0.1"/>
<g clip-path="url(#clip0_1226_485)">
<path d="M303.279 115.557H256.198V119.595H303.279V115.557Z" fill="#7C563E"/>
<path d="M302.98 119.604H350.061V115.565H302.98V119.604Z" fill="#7C563E"/>
<path d="M256.198 117.282V115.557H350.057V118.55L256.198 117.282Z" fill="#CCC1B9"/>
<path d="M316.211 105.837H347.793V104.933H316.211V105.837Z" fill="#8B5C38"/>
<path d="M316.227 111.364H347.675V105.835H316.227V111.364Z" fill="#B0865D"/>
<path d="M290.052 104.933H258.47V105.837H290.052V104.933Z" fill="#8B5C38"/>
<path d="M290.029 105.837H258.582V111.366H290.029V105.837Z" fill="#B0865D"/>
<path d="M290.49 104.135H257.086V104.933H290.49V104.135Z" fill="#D1B79F"/>
<path d="M258.582 107.034V104.933H347.672V108.584L258.582 107.034Z" fill="#CCC1B9"/>
<path d="M259.235 104.933H258.47V106.612H259.235V104.933Z" fill="#B0865D"/>
<path d="M260.292 104.933H259.527V106.612H260.292V104.933Z" fill="#B0865D"/>
<path d="M263.115 104.933H262.351V106.612H263.115V104.933Z" fill="#B0865D"/>
<path d="M264.184 104.933H263.419V106.612H264.184V104.933Z" fill="#B0865D"/>
<path d="M267.006 104.933H266.241V106.612H267.006V104.933Z" fill="#B0865D"/>
<path d="M268.064 104.933H267.299V106.612H268.064V104.933Z" fill="#B0865D"/>
<path d="M270.887 104.933H270.122V106.612H270.887V104.933Z" fill="#B0865D"/>
<path d="M271.955 104.933H271.19V106.612H271.955V104.933Z" fill="#B0865D"/>
<path d="M274.778 104.933H274.014V106.612H274.778V104.933Z" fill="#B0865D"/>
<path d="M275.836 104.933H275.071V106.612H275.836V104.933Z" fill="#B0865D"/>
<path d="M278.67 104.933H277.905V106.612H278.67V104.933Z" fill="#B0865D"/>
<path d="M279.728 104.933H278.963V106.612H279.728V104.933Z" fill="#B0865D"/>
<path d="M282.55 104.933H281.785V106.612H282.55V104.933Z" fill="#B0865D"/>
<path d="M283.618 104.933H282.854V106.612H283.618V104.933Z" fill="#B0865D"/>
<path d="M286.442 104.933H285.677V106.612H286.442V104.933Z" fill="#B0865D"/>
<path d="M287.499 104.933H286.734V106.612H287.499V104.933Z" fill="#B0865D"/>
<path d="M315.763 104.927H349.167V104.129H315.763V104.927Z" fill="#D1B79F"/>
<path d="M347.021 106.608H347.786V104.929H347.021V106.608Z" fill="#B0865D"/>
<path d="M345.966 106.608H346.73V104.929H345.966V106.608Z" fill="#B0865D"/>
<path d="M343.138 106.608H343.902V104.929H343.138V106.608Z" fill="#B0865D"/>
<path d="M342.071 106.608H342.836V104.929H342.071V106.608Z" fill="#B0865D"/>
<path d="M339.256 106.608H340.021V104.929H339.256V106.608Z" fill="#B0865D"/>
<path d="M338.188 106.608H338.953V104.929H338.188V106.608Z" fill="#B0865D"/>
<path d="M335.361 106.608H336.126V104.929H335.361V106.608Z" fill="#B0865D"/>
<path d="M334.305 106.608H335.07V104.929H334.305V106.608Z" fill="#B0865D"/>
<path d="M331.477 106.608H332.242V104.929H331.477V106.608Z" fill="#B0865D"/>
<path d="M330.411 106.608H331.176V104.929H330.411V106.608Z" fill="#B0865D"/>
<path d="M327.584 106.608H328.349V104.929H327.584V106.608Z" fill="#B0865D"/>
<path d="M326.528 106.608H327.293V104.929H326.528V106.608Z" fill="#B0865D"/>
<path d="M323.7 106.608H324.465V104.929H323.7V106.608Z" fill="#B0865D"/>
<path d="M322.634 106.608H323.398V104.929H322.634V106.608Z" fill="#B0865D"/>
<path d="M319.817 106.608H320.582V104.929H319.817V106.608Z" fill="#B0865D"/>
<path d="M318.751 106.608H319.516V104.929H318.751V106.608Z" fill="#B0865D"/>
<path d="M300.894 94.7198C300.894 94.7198 301.322 94.6142 301.817 94.2503C302.312 93.8864 301.513 92.2781 301.693 91.2333C301.873 90.2003 302.953 88.5568 303.121 88.7564C303.29 88.9559 303.695 89.4607 303.268 89.5311C302.84 89.6016 302.199 90.5994 302.357 90.8694C302.514 91.1394 303.099 91.8085 303.121 91.609C303.144 91.4094 303.459 91.339 303.459 91.339C303.459 91.339 302.694 89.2611 303.808 89.2964C304.91 89.3316 304.19 91.2685 304.19 91.2685C304.19 91.2685 304.437 91.5855 304.527 91.7264C304.617 91.8672 305.022 91.9494 305.416 92.4307C305.798 92.912 307.035 100.343 307.035 100.343H300.265L300.894 94.7198Z" fill="#142023"/>
<path d="M261.585 124.526H256.197V169.24H261.585V124.526Z" fill="#BC9875"/>
<path d="M257.086 168.172C256.917 168.172 256.782 168.031 256.782 167.855V125.441C256.782 125.265 256.917 125.124 257.086 125.124C257.255 125.124 257.39 125.265 257.39 125.441V167.843C257.401 168.019 257.255 168.172 257.086 168.172Z" fill="#B0865D"/>
<path d="M258.312 168.172C258.144 168.172 258.009 168.031 258.009 167.855V125.441C258.009 125.265 258.144 125.124 258.312 125.124C258.481 125.124 258.616 125.265 258.616 125.441V167.843C258.616 168.019 258.481 168.172 258.312 168.172Z" fill="#B0865D"/>
<path d="M259.526 168.172C259.358 168.172 259.223 168.031 259.223 167.855V125.441C259.223 125.265 259.358 125.124 259.526 125.124C259.695 125.124 259.83 125.265 259.83 125.441V167.843C259.83 168.019 259.695 168.172 259.526 168.172Z" fill="#B0865D"/>
<path d="M260.753 168.172C260.584 168.172 260.449 168.031 260.449 167.855V125.441C260.449 125.265 260.584 125.124 260.753 125.124C260.922 125.124 261.057 125.265 261.057 125.441V167.843C261.057 168.019 260.922 168.172 260.753 168.172Z" fill="#B0865D"/>
<path d="M261.597 169.475H256.243C256.007 169.475 255.815 169.275 255.815 169.029V168.993C255.815 168.747 256.007 168.547 256.243 168.547H261.597C261.833 168.547 262.024 168.747 262.024 168.993V169.029C262.024 169.275 261.833 169.475 261.597 169.475Z" fill="#BC9875"/>
<path d="M262.44 169.475H255.343V170.508H262.44V169.475Z" fill="#B0865D"/>
<path d="M261.596 124.526H256.197C255.984 124.526 255.804 124.338 255.804 124.115V124.079C255.804 123.856 255.984 123.669 256.197 123.669H261.596C261.81 123.669 261.99 123.856 261.99 124.079V124.115C261.978 124.338 261.81 124.526 261.596 124.526Z" fill="#BC9875"/>
<path d="M262.304 122.788H255.376V123.669H262.304V122.788Z" fill="#B0865D"/>
<path d="M279.277 124.526H273.89V169.24H279.277V124.526Z" fill="#BC9875"/>
<path d="M274.79 168.16C274.621 168.16 274.486 168.019 274.486 167.843V125.441C274.486 125.265 274.621 125.124 274.79 125.124C274.959 125.124 275.094 125.265 275.094 125.441V167.843C275.094 168.019 274.959 168.16 274.79 168.16Z" fill="#B0865D"/>
<path d="M276.005 168.16C275.836 168.16 275.701 168.019 275.701 167.843V125.441C275.701 125.265 275.836 125.124 276.005 125.124C276.174 125.124 276.309 125.265 276.309 125.441V167.843C276.309 168.019 276.174 168.16 276.005 168.16Z" fill="#B0865D"/>
<path d="M277.23 168.16C277.062 168.16 276.927 168.019 276.927 167.843V125.441C276.927 125.265 277.062 125.124 277.23 125.124C277.399 125.124 277.534 125.265 277.534 125.441V167.843C277.534 168.019 277.388 168.16 277.23 168.16Z" fill="#B0865D"/>
<path d="M278.445 168.16C278.277 168.16 278.142 168.019 278.142 167.843V125.441C278.142 125.265 278.277 125.124 278.445 125.124C278.614 125.124 278.749 125.265 278.749 125.441V167.843C278.749 168.019 278.614 168.16 278.445 168.16Z" fill="#B0865D"/>
<path d="M279.289 169.463H273.935C273.699 169.463 273.508 169.263 273.508 169.017V168.982C273.508 168.735 273.699 168.536 273.935 168.536H279.289C279.525 168.536 279.716 168.735 279.716 168.982V169.017C279.716 169.263 279.525 169.463 279.289 169.463Z" fill="#BC9875"/>
<path d="M280.132 169.463H273.035V170.496H280.132V169.463Z" fill="#B0865D"/>
<path d="M279.288 124.526H273.89C273.676 124.526 273.496 124.338 273.496 124.115V124.079C273.496 123.856 273.676 123.669 273.89 123.669H279.288C279.502 123.669 279.682 123.856 279.682 124.079V124.115C279.682 124.338 279.502 124.526 279.288 124.526Z" fill="#BC9875"/>
<path d="M280.009 122.788H273.081V123.669H280.009V122.788Z" fill="#B0865D"/>
<path d="M296.968 124.514H291.581V169.228H296.968V124.514Z" fill="#BC9875"/>
<path d="M292.481 168.16C292.313 168.16 292.178 168.019 292.178 167.843V125.441C292.178 125.265 292.313 125.124 292.481 125.124C292.65 125.124 292.785 125.265 292.785 125.441V167.843C292.785 168.019 292.65 168.16 292.481 168.16Z" fill="#B0865D"/>
<path d="M293.696 168.16C293.528 168.16 293.393 168.019 293.393 167.843V125.441C293.393 125.265 293.528 125.124 293.696 125.124C293.865 125.124 294 125.265 294 125.441V167.843C294 168.019 293.865 168.16 293.696 168.16Z" fill="#B0865D"/>
<path d="M294.922 168.16C294.753 168.16 294.618 168.019 294.618 167.843V125.441C294.618 125.265 294.753 125.124 294.922 125.124C295.091 125.124 295.226 125.265 295.226 125.441V167.843C295.226 168.019 295.091 168.16 294.922 168.16Z" fill="#B0865D"/>
<path d="M296.137 168.16C295.968 168.16 295.833 168.019 295.833 167.843V125.441C295.833 125.265 295.968 125.124 296.137 125.124C296.305 125.124 296.44 125.265 296.44 125.441V167.843C296.44 168.019 296.305 168.16 296.137 168.16Z" fill="#B0865D"/>
<path d="M296.98 169.463H291.637C291.401 169.463 291.21 169.263 291.21 169.017V168.982C291.21 168.735 291.401 168.536 291.637 168.536H296.991C297.227 168.536 297.418 168.735 297.418 168.982V169.017C297.418 169.263 297.216 169.463 296.98 169.463Z" fill="#BC9875"/>
<path d="M297.824 169.463H290.727V170.496H297.824V169.463Z" fill="#B0865D"/>
<path d="M296.98 124.514H291.581C291.367 124.514 291.188 124.326 291.188 124.103V124.068C291.188 123.845 291.367 123.657 291.581 123.657H296.98C297.194 123.657 297.373 123.845 297.373 124.068V124.103C297.373 124.338 297.194 124.514 296.98 124.514Z" fill="#BC9875"/>
<path d="M297.701 122.788H290.772V123.669H297.701V122.788Z" fill="#B0865D"/>
<path d="M303.279 120.006H256.198V122.8H303.279V120.006Z" fill="#BC9875"/>
<path d="M303.279 119.607H255.579V120.006H303.279V119.607Z" fill="#D1B79F"/>
<path d="M259.223 115.557H257.086V119.595H259.223V115.557Z" fill="#B0865D"/>
<path d="M264.869 115.557H262.732V119.595H264.869V115.557Z" fill="#B0865D"/>
<path d="M270.504 115.557H268.367V119.595H270.504V115.557Z" fill="#B0865D"/>
<path d="M276.151 115.557H274.014V119.595H276.151V115.557Z" fill="#B0865D"/>
<path d="M281.785 115.557H279.648V119.595H281.785V115.557Z" fill="#B0865D"/>
<path d="M287.42 115.557H285.283V119.595H287.42V115.557Z" fill="#B0865D"/>
<path d="M298.701 115.557H296.564V119.595H298.701V115.557Z" fill="#B0865D"/>
<path d="M293.067 115.557H290.93V119.595H293.067V115.557Z" fill="#B0865D"/>
<path d="M304.347 115.557H302.21V119.595H304.347V115.557Z" fill="#B0865D"/>
<path d="M303.133 113.972H253.544V115.557H303.133V113.972Z" fill="#B0865D"/>
<path d="M303.177 113.174H252.97V113.972H303.177V113.174Z" fill="#BC9875"/>
<path d="M303.189 113.233H252.97L252.093 111.953H303.189V113.233Z" fill="#B0865D"/>
<path d="M303.189 111.366H252.093V111.965H303.189V111.366Z" fill="#D1B79F"/>
<path d="M280.717 105.802V106.729H277.545V107.656H273.316V108.584H269.222V109.511H263.261V110.439H256.637V111.366H290.075V110.439V109.511V108.584V107.656V106.729V105.802H280.717Z" fill="#BC9875"/>
<path d="M303.133 101.247H288.196V101.916H303.133V101.247Z" fill="#BC9875"/>
<path d="M303.256 101.916H302.998H288.522V104.135H302.998H303.256H317.732V101.916H303.256Z" fill="#7C563E"/>
<path d="M303.144 100.343H290.029V101.247H303.144V100.343Z" fill="#D1B79F"/>
<path d="M290.839 101.916H290.074V103.595H290.839V101.916Z" fill="#B0865D"/>
<path d="M291.897 101.916H291.132V103.595H291.897V101.916Z" fill="#B0865D"/>
<path d="M294.922 101.916H294.157V103.595H294.922V101.916Z" fill="#B0865D"/>
<path d="M295.99 101.916H295.226V103.595H295.99V101.916Z" fill="#B0865D"/>
<path d="M299.016 101.916H298.251V103.595H299.016V101.916Z" fill="#B0865D"/>
<path d="M300.084 101.916H299.319V103.595H300.084V101.916Z" fill="#B0865D"/>
<path d="M344.667 169.238H350.055V124.524H344.667V169.238Z" fill="#BC9875"/>
<path d="M349.156 168.172C349.325 168.172 349.46 168.031 349.46 167.855V125.441C349.46 125.265 349.325 125.124 349.156 125.124C348.988 125.124 348.853 125.265 348.853 125.441V167.843C348.853 168.019 348.999 168.172 349.156 168.172Z" fill="#B0865D"/>
<path d="M347.941 168.172C348.11 168.172 348.245 168.031 348.245 167.855V125.441C348.245 125.265 348.11 125.124 347.941 125.124C347.773 125.124 347.638 125.265 347.638 125.441V167.843C347.638 168.019 347.773 168.172 347.941 168.172Z" fill="#B0865D"/>
<path d="M346.727 168.172C346.895 168.172 347.03 168.031 347.03 167.855V125.441C347.03 125.265 346.895 125.124 346.727 125.124C346.558 125.124 346.423 125.265 346.423 125.441V167.843C346.423 168.019 346.558 168.172 346.727 168.172Z" fill="#B0865D"/>
<path d="M345.501 168.172C345.67 168.172 345.805 168.031 345.805 167.855V125.441C345.805 125.265 345.67 125.124 345.501 125.124C345.332 125.124 345.197 125.265 345.197 125.441V167.843C345.197 168.019 345.332 168.172 345.501 168.172Z" fill="#B0865D"/>
<path d="M344.657 169.475H350.011C350.247 169.475 350.438 169.275 350.438 169.029V168.993C350.438 168.747 350.247 168.547 350.011 168.547H344.657C344.421 168.547 344.229 168.747 344.229 168.993V169.029C344.229 169.275 344.421 169.475 344.657 169.475Z" fill="#BC9875"/>
<path d="M343.812 170.508H350.909V169.475H343.812V170.508Z" fill="#B0865D"/>
<path d="M344.657 124.526H350.056C350.27 124.526 350.45 124.338 350.45 124.115V124.079C350.45 123.856 350.27 123.669 350.056 123.669H344.657C344.444 123.669 344.264 123.856 344.264 124.079V124.115C344.275 124.338 344.444 124.526 344.657 124.526Z" fill="#BC9875"/>
<path d="M343.946 123.676H350.874V122.796H343.946V123.676Z" fill="#B0865D"/>
<path d="M326.972 169.229H332.359V124.515H326.972V169.229Z" fill="#BC9875"/>
<path d="M331.465 168.16C331.634 168.16 331.768 168.019 331.768 167.843V125.441C331.768 125.265 331.634 125.124 331.465 125.124C331.296 125.124 331.161 125.265 331.161 125.441V167.843C331.161 168.019 331.296 168.16 331.465 168.16Z" fill="#B0865D"/>
<path d="M330.25 168.16C330.419 168.16 330.554 168.019 330.554 167.843V125.441C330.554 125.265 330.419 125.124 330.25 125.124C330.081 125.124 329.946 125.265 329.946 125.441V167.843C329.946 168.019 330.081 168.16 330.25 168.16Z" fill="#B0865D"/>
<path d="M329.024 168.16C329.193 168.16 329.328 168.019 329.328 167.843V125.441C329.328 125.265 329.193 125.124 329.024 125.124C328.856 125.124 328.721 125.265 328.721 125.441V167.843C328.721 168.019 328.867 168.16 329.024 168.16Z" fill="#B0865D"/>
<path d="M327.81 168.16C327.978 168.16 328.113 168.019 328.113 167.843V125.441C328.113 125.265 327.978 125.124 327.81 125.124C327.641 125.124 327.506 125.265 327.506 125.441V167.843C327.506 168.019 327.641 168.16 327.81 168.16Z" fill="#B0865D"/>
<path d="M326.966 169.463H332.32C332.556 169.463 332.747 169.263 332.747 169.017V168.982C332.747 168.735 332.556 168.536 332.32 168.536H326.966C326.73 168.536 326.539 168.735 326.539 168.982V169.017C326.527 169.263 326.73 169.463 326.966 169.463Z" fill="#BC9875"/>
<path d="M326.117 170.511H333.214V169.478H326.117V170.511Z" fill="#B0865D"/>
<path d="M326.966 124.525H332.365C332.578 124.525 332.758 124.338 332.758 124.115V124.079C332.758 123.856 332.578 123.669 332.365 123.669H326.966C326.752 123.669 326.572 123.856 326.572 124.079V124.115C326.572 124.338 326.752 124.525 326.966 124.525Z" fill="#BC9875"/>
<path d="M326.25 123.668H333.179V122.787H326.25V123.668Z" fill="#B0865D"/>
<path d="M309.276 169.233H314.663V124.519H309.276V169.233Z" fill="#BC9875"/>
<path d="M313.772 168.16C313.941 168.16 314.076 168.019 314.076 167.843V125.441C314.076 125.265 313.941 125.124 313.772 125.124C313.604 125.124 313.469 125.265 313.469 125.441V167.843C313.469 168.019 313.604 168.16 313.772 168.16Z" fill="#B0865D"/>
<path d="M312.558 168.16C312.726 168.16 312.861 168.019 312.861 167.843V125.441C312.861 125.265 312.726 125.124 312.558 125.124C312.389 125.124 312.254 125.265 312.254 125.441V167.843C312.254 168.019 312.389 168.16 312.558 168.16Z" fill="#B0865D"/>
<path d="M311.332 168.16C311.501 168.16 311.636 168.019 311.636 167.843V125.441C311.636 125.265 311.501 125.124 311.332 125.124C311.163 125.124 311.028 125.265 311.028 125.441V167.843C311.028 168.019 311.163 168.16 311.332 168.16Z" fill="#B0865D"/>
<path d="M310.117 168.16C310.286 168.16 310.421 168.019 310.421 167.843V125.441C310.421 125.265 310.286 125.124 310.117 125.124C309.948 125.124 309.813 125.265 309.813 125.441V167.843C309.813 168.019 309.948 168.16 310.117 168.16Z" fill="#B0865D"/>
<path d="M309.274 169.463H314.627C314.863 169.463 315.055 169.263 315.055 169.017V168.982C315.055 168.735 314.863 168.536 314.627 168.536H309.274C309.037 168.536 308.846 168.735 308.846 168.982V169.017C308.835 169.263 309.037 169.463 309.274 169.463Z" fill="#BC9875"/>
<path d="M308.421 170.503H315.518V169.47H308.421V170.503Z" fill="#B0865D"/>
<path d="M309.274 124.514H314.672C314.886 124.514 315.066 124.326 315.066 124.103V124.068C315.066 123.845 314.886 123.657 314.672 123.657H309.274C309.06 123.657 308.88 123.845 308.88 124.068V124.103C308.88 124.338 309.06 124.514 309.274 124.514Z" fill="#BC9875"/>
<path d="M308.554 123.659H315.482V122.779H308.554V123.659Z" fill="#B0865D"/>
<path d="M302.98 122.791H350.061V119.997H302.98V122.791Z" fill="#BC9875"/>
<path d="M302.979 120H350.679V119.601H302.979V120Z" fill="#D1B79F"/>
<path d="M347.022 119.604H349.159V115.565H347.022V119.604Z" fill="#B0865D"/>
<path d="M341.389 119.604H343.526V115.565H341.389V119.604Z" fill="#B0865D"/>
<path d="M335.746 119.604H337.883V115.565H335.746V119.604Z" fill="#B0865D"/>
<path d="M330.101 119.604H332.238V115.565H330.101V119.604Z" fill="#B0865D"/>
<path d="M324.468 119.604H326.605V115.565H324.468V119.604Z" fill="#B0865D"/>
<path d="M318.825 119.604H320.962V115.565H318.825V119.604Z" fill="#B0865D"/>
<path d="M307.549 119.604H309.686V115.565H307.549V119.604Z" fill="#B0865D"/>
<path d="M313.192 119.604H315.329V115.565H313.192V119.604Z" fill="#B0865D"/>
<path d="M301.905 119.604H304.042V115.565H301.905V119.604Z" fill="#B0865D"/>
<path d="M303.119 115.562H352.708V113.977H303.119V115.562Z" fill="#B0865D"/>
<path d="M303.075 113.981H353.282V113.253H303.075V113.981Z" fill="#BC9875"/>
<path d="M303.065 113.233H353.284L354.162 111.953H303.065V113.233Z" fill="#B0865D"/>
<path d="M303.07 111.954H354.166V111.356H303.07V111.954Z" fill="#D1B79F"/>
<path d="M342.993 110.439V109.511H337.032V108.584H332.938V107.656H328.709V106.729H325.537V105.802H316.18V106.729V107.656V108.584V109.511V110.439V111.366H349.618V110.439H342.993Z" fill="#BC9875"/>
<path d="M303.119 101.92H318.056V101.251H303.119V101.92Z" fill="#BC9875"/>
<path d="M303.116 101.25H316.23V100.346H303.116V101.25Z" fill="#D1B79F"/>
<path d="M315.416 103.596H316.181V101.917H315.416V103.596Z" fill="#B0865D"/>
<path d="M314.36 103.596H315.125V101.917H314.36V103.596Z" fill="#B0865D"/>
<path d="M311.325 103.596H312.09V101.917H311.325V103.596Z" fill="#B0865D"/>
<path d="M310.269 103.596H311.034V101.917H310.269V103.596Z" fill="#B0865D"/>
<path d="M307.233 103.596H307.998V101.917H307.233V103.596Z" fill="#B0865D"/>
<path d="M306.167 103.596H306.932V101.917H306.167V103.596Z" fill="#B0865D"/>
<path d="M297.206 97.9716C297.206 97.9716 298.038 97.7955 297.712 96.5277C297.386 95.2598 295.867 94.2855 295.676 93.8512C295.474 93.4168 294.799 90.4233 293.944 90.2472C293.089 90.0829 293.629 91.9377 293.742 92.0668C293.854 92.1959 294.068 93.8042 293.831 94.1446C293.595 94.4851 293.168 94.5438 293.269 95.6472C293.325 96.3046 292.887 96.7977 292.887 96.8916C292.887 96.9972 293.067 99.1925 293.179 99.3568C293.292 99.5212 293.528 100.061 293.528 100.061L293.854 99.3568L293.472 99.0164C293.472 99.0164 293.314 97.3729 293.55 97.1733C293.786 96.9738 294.821 97.0677 294.922 97.232C295.035 97.4316 297.206 97.9716 297.206 97.9716Z" fill="#374245"/>
<path d="M299.309 100.343C299.309 100.343 299.208 98.4647 299.028 97.7016C298.837 96.9268 298.218 95.8234 298.263 94.9899C298.308 94.1564 298.915 93.6516 299.028 93.0764C299.129 92.5129 299.332 90.2355 299.714 90.2355C300.096 90.2355 300.288 92.2077 300.468 92.6421C300.647 93.0764 300.906 93.546 301.199 94.5203C301.491 95.4947 301.873 95.7294 301.817 96.9268C301.761 98.136 301.671 98.8051 301.637 99.3099C301.604 99.8147 301.671 100.343 301.671 100.343H299.309Z" fill="#374245"/>
<path d="M299.039 90.9281C299.039 91.6207 299.331 92.1725 299.691 92.1725C300.051 92.1725 300.344 91.609 300.344 90.9281C300.344 90.2355 300.445 89.6838 299.691 89.6838C299.039 89.6838 299.039 90.2355 299.039 90.9281Z" fill="#374245"/>
<path d="M303.256 86.209H302.919V100.143H303.256V86.209Z" fill="#142023"/>
<path d="M303.088 86.3851C302.357 86.3851 301.761 85.716 301.761 84.8825C301.761 84.049 302.357 83.3799 303.088 83.3799C303.819 83.3799 304.415 84.049 304.415 84.8825C304.415 85.716 303.83 86.3851 303.088 86.3851ZM303.088 83.7438C302.537 83.7438 302.098 84.2603 302.098 84.8942C302.098 85.5281 302.548 86.0447 303.088 86.0447C303.639 86.0447 304.078 85.5281 304.078 84.8942C304.078 84.2603 303.639 83.7438 303.088 83.7438Z" fill="#374245"/>
<path d="M302.57 82.7929C302.57 83.3446 302.807 83.8025 303.088 83.8025C303.369 83.8025 303.605 83.3564 303.605 82.7929C303.605 82.2294 303.369 81.7833 303.088 81.7833C302.807 81.7951 302.57 82.2412 302.57 82.7929Z" fill="#374245"/>
<path d="M302.616 82.382C302.616 82.382 302.312 82.429 302.211 82.2647C302.109 82.1003 302.154 81.5955 301.986 81.5603C301.828 81.5251 300.591 80.4333 300.591 80.4333C300.591 80.4333 300.242 81.349 300.67 82.1707C301.097 82.9925 301.75 83.3447 302.627 83.2038C303.493 83.0629 302.616 82.382 302.616 82.382Z" fill="#374245"/>
<path d="M303.538 82.382C303.538 82.382 303.841 82.429 303.943 82.2647C304.044 82.1003 303.999 81.5955 304.168 81.5603C304.325 81.5251 305.562 80.4333 305.562 80.4333C305.562 80.4333 305.911 81.349 305.483 82.1707C305.056 82.9925 304.404 83.3447 303.526 83.2038C302.672 83.0629 303.538 82.382 303.538 82.382Z" fill="#374245"/>
<path d="M302.817 81.619C302.817 81.8185 302.941 81.9829 303.087 81.9829C303.234 81.9829 303.357 81.8185 303.357 81.619C303.357 81.4194 303.245 81.2551 303.087 81.2551C302.941 81.2551 302.817 81.4194 302.817 81.619Z" fill="#374245"/>
<path d="M356.973 170.508H249.573V180.333H356.973V170.508Z" fill="#7C563E"/>
<path d="M297.228 95.5533C297.228 95.5533 297.858 97.2438 296.036 97.0207C295.383 96.9386 294.157 96.6216 294.045 96.7977C293.989 96.9033 293.539 96.8329 293.55 97.1968C293.55 97.1968 294.169 97.0325 294.495 97.1146C294.585 97.1381 295.395 97.4668 295.586 97.5255C295.788 97.5842 296.092 98.1946 296.103 98.3003C296.126 98.406 296.204 98.9225 296.261 99.122C296.317 99.3216 295.856 100.343 295.856 100.343H297.79C297.79 100.343 297.667 99.3216 297.79 99.1103C297.914 98.8873 297.858 97.4903 297.779 96.8681C297.678 96.1403 297.228 95.5533 297.228 95.5533Z" fill="#142023"/>
<path d="M294.675 95.2012C294.45 95.4595 294.54 96.786 294.731 97.2673C294.922 97.7486 295.08 99.0516 295.091 99.2629C295.102 99.4625 294.967 100.355 294.967 100.355H295.484C295.484 100.355 295.383 99.3568 295.406 99.2042C295.428 99.0634 295.518 98.0303 295.484 97.6664C295.451 97.3025 296.036 96.3868 295.653 95.6473C295.259 94.9077 294.675 95.2012 294.675 95.2012Z" fill="#374245"/>
<path d="M294.539 92.1138C294.584 91.5503 294.483 90.8929 294.483 90.8342L293.482 90.6581C293.415 91.1747 293.662 91.9847 293.741 92.0668C293.853 92.196 294.067 93.8042 293.831 94.1447C293.73 94.2855 293.595 94.3912 293.471 94.5438C293.685 94.4264 293.887 94.4499 294.067 94.626C294.258 94.8255 294.09 95.5768 294.292 95.5416C294.697 95.4712 294.764 94.0742 294.641 93.7103C294.517 93.3464 294.494 92.689 294.539 92.1138Z" fill="#142023"/>
<path d="M293.583 90.1181C293.336 90.1064 293.055 90.3529 292.999 90.4468C292.942 90.5408 292.841 91.656 292.875 91.8555C292.909 92.0551 292.875 92.466 292.875 92.736C292.875 93.006 292.852 93.2994 293.1 93.2994C293.347 93.2994 293.606 93.2173 293.73 92.9121C293.853 92.6186 293.921 92.2899 294.101 92.0903C294.281 91.8908 294.584 90.9047 294.438 90.5642C294.303 90.2238 294.022 90.1416 293.583 90.1181Z" fill="#374245"/>
<path d="M299.455 96.3281C299.601 95.929 299.927 95.7059 300.017 95.7999C300.152 95.9172 300.073 97.3377 300.073 97.9481C300.073 98.3472 300.219 98.9107 300.343 99.439C300.456 99.9203 300.546 100.39 300.546 100.39L299.691 100.343V99.8029C299.691 99.8029 299.792 98.6055 299.691 98.1594C299.601 97.7251 299.353 96.6216 299.455 96.3281Z" fill="#142023"/>
<path d="M309.251 97.9716C309.251 97.9716 308.419 97.7955 308.745 96.5277C309.071 95.2598 310.589 94.2855 310.78 93.8512C310.983 93.4168 311.658 90.4233 312.513 90.2472C313.367 90.0829 312.827 91.9377 312.715 92.0668C312.603 92.1959 312.389 93.8042 312.625 94.1446C312.861 94.4851 313.289 94.5438 313.187 95.6472C313.131 96.3046 313.57 96.7977 313.57 96.8916C313.57 96.9972 313.39 99.1925 313.277 99.3568C313.165 99.5212 312.929 100.061 312.929 100.061L312.603 99.3568L312.985 99.0164C312.985 99.0164 313.142 97.3729 312.906 97.1733C312.67 96.9738 311.635 97.0677 311.534 97.232C311.433 97.4316 309.251 97.9716 309.251 97.9716Z" fill="#374245"/>
<path d="M307.159 100.343C307.159 100.343 307.26 98.4647 307.44 97.7016C307.632 96.9268 308.25 95.8234 308.205 94.9899C308.16 94.1564 307.553 93.6516 307.44 93.0764C307.339 92.5129 307.137 90.2355 306.754 90.2355C306.372 90.2355 306.181 92.2077 306.001 92.6421C305.821 93.0764 305.562 93.546 305.27 94.5203C304.977 95.4947 304.595 95.7294 304.651 96.9268C304.707 98.136 304.797 98.8051 304.831 99.3099C304.865 99.8147 304.797 100.343 304.797 100.343H307.159Z" fill="#374245"/>
<path d="M307.418 90.9281C307.418 91.6207 307.125 92.1725 306.765 92.1725C306.405 92.1725 306.113 91.609 306.113 90.9281C306.113 90.2355 306.012 89.6838 306.765 89.6838C307.418 89.6838 307.418 90.2355 307.418 90.9281Z" fill="#374245"/>
<path d="M309.24 95.5533C309.24 95.5533 308.61 97.2438 310.432 97.0207C311.085 96.9386 312.311 96.6216 312.423 96.7977C312.479 96.9033 312.929 96.8329 312.918 97.1968C312.918 97.1968 312.299 97.0325 311.973 97.1146C311.883 97.1381 311.073 97.4668 310.882 97.5255C310.68 97.5842 310.376 98.1946 310.365 98.3003C310.342 98.406 310.264 98.9225 310.207 99.122C310.151 99.3216 310.612 100.343 310.612 100.343H308.678C308.678 100.343 308.802 99.3216 308.678 99.1103C308.554 98.899 308.61 97.4903 308.689 96.8681C308.779 96.1403 309.24 95.5533 309.24 95.5533Z" fill="#142023"/>
<path d="M311.782 95.2012C312.007 95.4595 311.917 96.786 311.726 97.2673C311.535 97.7486 311.377 99.0516 311.366 99.2629C311.355 99.4625 311.49 100.355 311.49 100.355H310.984C310.984 100.355 311.085 99.3568 311.062 99.2042C311.04 99.0634 310.95 98.0303 310.984 97.6664C311.017 97.3025 310.432 96.3868 310.815 95.6473C311.208 94.9077 311.782 95.2012 311.782 95.2012Z" fill="#374245"/>
<path d="M311.917 92.1138C311.872 91.5503 311.973 90.8929 311.973 90.8342L312.974 90.6581C313.042 91.1747 312.794 91.9847 312.715 92.0668C312.603 92.196 312.389 93.8042 312.625 94.1447C312.727 94.2855 312.862 94.3912 312.985 94.5438C312.772 94.4264 312.569 94.4499 312.389 94.626C312.198 94.8255 312.367 95.5768 312.164 95.5416C311.759 95.4712 311.692 94.0742 311.816 93.7103C311.939 93.3464 311.962 92.689 311.917 92.1138Z" fill="#142023"/>
<path d="M312.873 90.1181C313.12 90.1064 313.401 90.3529 313.458 90.4468C313.514 90.5408 313.615 91.656 313.581 91.8555C313.548 92.0551 313.581 92.466 313.581 92.736C313.581 93.006 313.604 93.2994 313.357 93.2994C313.109 93.2994 312.85 93.2173 312.727 92.9121C312.603 92.6186 312.535 92.2899 312.355 92.0903C312.176 91.8908 311.872 90.9047 312.018 90.5642C312.153 90.2238 312.434 90.1416 312.873 90.1181Z" fill="#374245"/>
<path d="M307.002 96.3281C306.856 95.929 306.53 95.7059 306.44 95.7999C306.305 95.9172 306.384 97.3377 306.384 97.9481C306.384 98.3472 306.237 98.9107 306.114 99.439C306.001 99.9203 305.911 100.39 305.911 100.39L306.766 100.343V99.8029C306.766 99.8029 306.665 98.6055 306.766 98.1594C306.867 97.7251 307.103 96.6216 307.002 96.3281Z" fill="#142023"/>
<path d="M303.256 104.135H302.997H290.029V111.366H302.997H303.256H316.224V104.135H303.256Z" fill="#B0865D"/>
<path d="M315.111 105.309H291.154V110.192H315.111V105.309Z" fill="#BC9875"/>
<path d="M303.111 101.916H302.346V103.595H303.111V101.916Z" fill="#B0865D"/>
<path d="M304.179 101.916H303.414V103.595H304.179V101.916Z" fill="#B0865D"/>
<path d="M253.544 114.453V113.972H352.711V114.817L253.544 114.453Z" fill="#CCC1B9"/>
<path d="M316.225 103.289L329.474 111.366H316.225V103.289Z" fill="#CCC1B9"/>
<path d="M256.198 124.526H261.597L261.608 168.536H260.45C260.45 168.536 260.753 128.599 260.135 127.061C259.37 125.195 256.198 124.526 256.198 124.526Z" fill="#DFD8D3"/>
<path d="M273.879 124.526H279.278L279.289 168.536H278.142C278.142 168.536 278.445 128.599 277.827 127.061C277.062 125.195 273.879 124.526 273.879 124.526Z" fill="#DFD8D3"/>
<path d="M291.57 124.526H296.969L296.98 168.536H295.833C295.833 168.536 296.137 128.599 295.518 127.061C294.753 125.195 291.57 124.526 291.57 124.526Z" fill="#DFD8D3"/>
<path d="M309.263 124.526H314.661L314.673 168.536H313.525C313.525 168.536 313.829 128.599 313.21 127.061C312.446 125.195 309.263 124.526 309.263 124.526Z" fill="#DFD8D3"/>
<path d="M326.954 124.526H332.353L332.364 168.536H331.217C331.217 168.536 331.52 128.599 330.902 127.061C330.126 125.195 326.954 124.526 326.954 124.526Z" fill="#DFD8D3"/>
<path d="M344.646 124.526H350.045L350.056 168.536H348.909C348.909 168.536 349.213 128.599 348.594 127.061C347.818 125.195 344.646 124.526 344.646 124.526Z" fill="#DFD8D3"/>
<path d="M249.573 180.333H356.973V170.508L249.573 180.333Z" fill="#7C563E"/>
</g>
<defs>
<filter id="filter0_d_1226_485" x="0" y="0" width="418" height="245" filterUnits="userSpaceOnUse" color-interpolation-filters="sRGB">
<feFlood flood-opacity="0" result="BackgroundImageFix"/>
<feColorMatrix in="SourceAlpha" type="matrix" values="0 0 0 0 0 0 0 0 0 0 0 0 0 0 0 0 0 0 127 0" result="hardAlpha"/>
<feOffset dy="10"/>
<feGaussianBlur stdDeviation="15"/>
<feColorMatrix type="matrix" values="0 0 0 0 1 0 0 0 0 0.819608 0 0 0 0 0.262745 0 0 0 0.4 0"/>
<feBlend mode="normal" in2="BackgroundImageFix" result="effect1_dropShadow_1226_485"/>
<feBlend mode="normal" in="SourceGraphic" in2="effect1_dropShadow_1226_485" result="shape"/>
</filter>
<clipPath id="clip0_1226_485">
<rect width="107.4" height="99.9" fill="white" transform="translate(249.573 80.4333)"/>
</clipPath>
</defs>
</svg>
