<svg width="418" height="245" viewBox="0 0 418 245" fill="none" xmlns="http://www.w3.org/2000/svg">
<path d="M66.73 66.3C65.6767 66.3 64.7267 66.1167 63.88 65.75C63.04 65.3833 62.3467 64.86 61.8 64.18C61.26 63.4933 60.9167 62.68 60.77 61.74L63.27 61.36C63.4833 62.2133 63.92 62.8733 64.58 63.34C65.2467 63.8067 66.0133 64.04 66.88 64.04C67.3933 64.04 67.8767 63.96 68.33 63.8C68.7833 63.64 69.15 63.4067 69.43 63.1C69.7167 62.7933 69.86 62.4167 69.86 61.97C69.86 61.77 69.8267 61.5867 69.76 61.42C69.6933 61.2467 69.5933 61.0933 69.46 60.96C69.3333 60.8267 69.1667 60.7067 68.96 60.6C68.76 60.4867 68.5267 60.39 68.26 60.31L64.54 59.21C64.22 59.1167 63.8733 58.9933 63.5 58.84C63.1333 58.68 62.7833 58.4633 62.45 58.19C62.1233 57.91 61.8533 57.5567 61.64 57.13C61.4333 56.6967 61.33 56.1633 61.33 55.53C61.33 54.6033 61.5633 53.8267 62.03 53.2C62.5033 52.5667 63.1367 52.0933 63.93 51.78C64.73 51.4667 65.6167 51.3133 66.59 51.32C67.5767 51.3267 68.4567 51.4967 69.23 51.83C70.0033 52.1567 70.65 52.6333 71.17 53.26C71.69 53.8867 72.0567 54.6433 72.27 55.53L69.68 55.98C69.5733 55.4733 69.3667 55.0433 69.06 54.69C68.76 54.33 68.39 54.0567 67.95 53.87C67.5167 53.6833 67.0533 53.5833 66.56 53.57C66.08 53.5633 65.6333 53.6367 65.22 53.79C64.8133 53.9367 64.4833 54.15 64.23 54.43C63.9833 54.71 63.86 55.0367 63.86 55.41C63.86 55.7633 63.9667 56.0533 64.18 56.28C64.3933 56.5 64.6567 56.6767 64.97 56.81C65.29 56.9367 65.6133 57.0433 65.94 57.13L68.52 57.85C68.8733 57.9433 69.27 58.07 69.71 58.23C70.15 58.39 70.5733 58.6133 70.98 58.9C71.3867 59.1867 71.72 59.5633 71.98 60.03C72.2467 60.4967 72.38 61.09 72.38 61.81C72.38 62.5567 72.2233 63.2133 71.91 63.78C71.6033 64.34 71.1867 64.8067 70.66 65.18C70.1333 65.5533 69.53 65.8333 68.85 66.02C68.1767 66.2067 67.47 66.3 66.73 66.3ZM82.0145 66V60.8C82.0145 60.46 81.9912 60.0833 81.9445 59.67C81.8979 59.2567 81.7879 58.86 81.6145 58.48C81.4479 58.0933 81.1945 57.7767 80.8545 57.53C80.5212 57.2833 80.0679 57.16 79.4945 57.16C79.1879 57.16 78.8845 57.21 78.5845 57.31C78.2845 57.41 78.0112 57.5833 77.7645 57.83C77.5245 58.07 77.3312 58.4033 77.1845 58.83C77.0379 59.25 76.9645 59.79 76.9645 60.45L75.5345 59.84C75.5345 58.92 75.7112 58.0867 76.0645 57.34C76.4245 56.5933 76.9512 56 77.6445 55.56C78.3379 55.1133 79.1912 54.89 80.2045 54.89C81.0045 54.89 81.6645 55.0233 82.1845 55.29C82.7045 55.5567 83.1179 55.8967 83.4245 56.31C83.7312 56.7233 83.9579 57.1633 84.1045 57.63C84.2512 58.0967 84.3445 58.54 84.3845 58.96C84.4312 59.3733 84.4545 59.71 84.4545 59.97V66H82.0145ZM74.5245 66V51.6H76.6745V59.18H76.9645V66H74.5245ZM90.0841 66.3C89.3041 66.3 88.6441 66.1533 88.1041 65.86C87.5641 65.56 87.1541 65.1633 86.8741 64.67C86.6007 64.1767 86.4641 63.6333 86.4641 63.04C86.4641 62.52 86.5507 62.0533 86.7241 61.64C86.8974 61.22 87.1641 60.86 87.5241 60.56C87.8841 60.2533 88.3507 60.0033 88.9241 59.81C89.3574 59.67 89.8641 59.5433 90.4441 59.43C91.0307 59.3167 91.6641 59.2133 92.3441 59.12C93.0307 59.02 93.7474 58.9133 94.4941 58.8L93.6341 59.29C93.6407 58.5433 93.4741 57.9933 93.1341 57.64C92.7941 57.2867 92.2207 57.11 91.4141 57.11C90.9274 57.11 90.4574 57.2233 90.0041 57.45C89.5507 57.6767 89.2341 58.0667 89.0541 58.62L86.8541 57.93C87.1207 57.0167 87.6274 56.2833 88.3741 55.73C89.1274 55.1767 90.1407 54.9 91.4141 54.9C92.3741 54.9 93.2174 55.0567 93.9441 55.37C94.6774 55.6833 95.2207 56.1967 95.5741 56.91C95.7674 57.29 95.8841 57.68 95.9241 58.08C95.9641 58.4733 95.9841 58.9033 95.9841 59.37V66H93.8741V63.66L94.2241 64.04C93.7374 64.82 93.1674 65.3933 92.5141 65.76C91.8674 66.12 91.0574 66.3 90.0841 66.3ZM90.5641 64.38C91.1107 64.38 91.5774 64.2833 91.9641 64.09C92.3507 63.8967 92.6574 63.66 92.8841 63.38C93.1174 63.1 93.2741 62.8367 93.3541 62.59C93.4807 62.2833 93.5507 61.9333 93.5641 61.54C93.5841 61.14 93.5941 60.8167 93.5941 60.57L94.3341 60.79C93.6074 60.9033 92.9841 61.0033 92.4641 61.09C91.9441 61.1767 91.4974 61.26 91.1241 61.34C90.7507 61.4133 90.4207 61.4967 90.1341 61.59C89.8541 61.69 89.6174 61.8067 89.4241 61.94C89.2307 62.0733 89.0807 62.2267 88.9741 62.4C88.8741 62.5733 88.8241 62.7767 88.8241 63.01C88.8241 63.2767 88.8907 63.5133 89.0241 63.72C89.1574 63.92 89.3507 64.08 89.6041 64.2C89.8641 64.32 90.1841 64.38 90.5641 64.38ZM98.5875 66V55.2H100.718V57.83L100.458 57.49C100.591 57.13 100.768 56.8033 100.988 56.51C101.214 56.21 101.484 55.9633 101.798 55.77C102.064 55.59 102.358 55.45 102.678 55.35C103.004 55.2433 103.338 55.18 103.678 55.16C104.018 55.1333 104.348 55.1467 104.668 55.2V57.45C104.348 57.3567 103.978 57.3267 103.558 57.36C103.144 57.3933 102.771 57.51 102.438 57.71C102.104 57.89 101.831 58.12 101.618 58.4C101.411 58.68 101.258 59 101.158 59.36C101.058 59.7133 101.008 60.0967 101.008 60.51V66H98.5875ZM111.29 66.3C110.197 66.3 109.237 66.0633 108.41 65.59C107.584 65.1167 106.937 64.46 106.47 63.62C106.01 62.78 105.78 61.8133 105.78 60.72C105.78 59.54 106.007 58.5167 106.46 57.65C106.914 56.7767 107.544 56.1 108.35 55.62C109.157 55.14 110.09 54.9 111.15 54.9C112.27 54.9 113.22 55.1633 114 55.69C114.787 56.21 115.37 56.9467 115.75 57.9C116.13 58.8533 116.274 59.9767 116.18 61.27H113.79V60.39C113.784 59.2167 113.577 58.36 113.17 57.82C112.764 57.28 112.124 57.01 111.25 57.01C110.264 57.01 109.53 57.3167 109.05 57.93C108.57 58.5367 108.33 59.4267 108.33 60.6C108.33 61.6933 108.57 62.54 109.05 63.14C109.53 63.74 110.23 64.04 111.15 64.04C111.744 64.04 112.254 63.91 112.68 63.65C113.114 63.3833 113.447 63 113.68 62.5L116.06 63.22C115.647 64.1933 115.007 64.95 114.14 65.49C113.28 66.03 112.33 66.3 111.29 66.3ZM107.57 61.27V59.45H115V61.27H107.57ZM122.742 66.3C121.748 66.3 120.882 66.05 120.142 65.55C119.402 65.05 118.828 64.37 118.422 63.51C118.015 62.65 117.812 61.68 117.812 60.6C117.812 59.5067 118.015 58.5333 118.422 57.68C118.835 56.82 119.418 56.1433 120.172 55.65C120.925 55.15 121.812 54.9 122.832 54.9C123.858 54.9 124.718 55.15 125.412 55.65C126.112 56.1433 126.642 56.82 127.002 57.68C127.362 58.54 127.542 59.5133 127.542 60.6C127.542 61.6733 127.362 62.6433 127.002 63.51C126.642 64.37 126.105 65.05 125.392 65.55C124.678 66.05 123.795 66.3 122.742 66.3ZM123.112 64.14C123.758 64.14 124.278 63.9933 124.672 63.7C125.072 63.4 125.362 62.9833 125.542 62.45C125.728 61.9167 125.822 61.3 125.822 60.6C125.822 59.8933 125.728 59.2767 125.542 58.75C125.362 58.2167 125.078 57.8033 124.692 57.51C124.305 57.21 123.805 57.06 123.192 57.06C122.545 57.06 122.012 57.22 121.592 57.54C121.172 57.8533 120.862 58.28 120.662 58.82C120.462 59.3533 120.362 59.9467 120.362 60.6C120.362 61.26 120.458 61.86 120.652 62.4C120.852 62.9333 121.155 63.3567 121.562 63.67C121.968 63.9833 122.485 64.14 123.112 64.14ZM125.822 66V58.42H125.522V51.6H127.952V66H125.822ZM134.759 66V51.6H140.709C140.849 51.6 141.029 51.6067 141.249 51.62C141.469 51.6267 141.673 51.6467 141.859 51.68C142.693 51.8067 143.379 52.0833 143.919 52.51C144.466 52.9367 144.869 53.4767 145.129 54.13C145.396 54.7767 145.529 55.4967 145.529 56.29C145.529 57.0767 145.396 57.7967 145.129 58.45C144.863 59.0967 144.456 59.6333 143.909 60.06C143.369 60.4867 142.686 60.7633 141.859 60.89C141.673 60.9167 141.466 60.9367 141.239 60.95C141.019 60.9633 140.843 60.97 140.709 60.97H137.169V66H134.759ZM137.169 58.72H140.609C140.743 58.72 140.893 58.7133 141.059 58.7C141.226 58.6867 141.379 58.66 141.519 58.62C141.919 58.52 142.233 58.3433 142.459 58.09C142.693 57.8367 142.856 57.55 142.949 57.23C143.049 56.91 143.099 56.5967 143.099 56.29C143.099 55.9833 143.049 55.67 142.949 55.35C142.856 55.0233 142.693 54.7333 142.459 54.48C142.233 54.2267 141.919 54.05 141.519 53.95C141.379 53.91 141.226 53.8867 141.059 53.88C140.893 53.8667 140.743 53.86 140.609 53.86H137.169V58.72ZM147.533 66V55.2H149.663V57.83L149.403 57.49C149.536 57.13 149.713 56.8033 149.933 56.51C150.159 56.21 150.429 55.9633 150.743 55.77C151.009 55.59 151.303 55.45 151.623 55.35C151.949 55.2433 152.283 55.18 152.623 55.16C152.963 55.1333 153.293 55.1467 153.613 55.2V57.45C153.293 57.3567 152.923 57.3267 152.503 57.36C152.089 57.3933 151.716 57.51 151.383 57.71C151.049 57.89 150.776 58.12 150.563 58.4C150.356 58.68 150.203 59 150.103 59.36C150.003 59.7133 149.953 60.0967 149.953 60.51V66H147.533ZM160.096 66.3C159.016 66.3 158.072 66.0567 157.266 65.57C156.459 65.0833 155.832 64.4133 155.386 63.56C154.946 62.7 154.726 61.7133 154.726 60.6C154.726 59.4667 154.952 58.4733 155.406 57.62C155.859 56.7667 156.489 56.1 157.296 55.62C158.102 55.14 159.036 54.9 160.096 54.9C161.182 54.9 162.129 55.1433 162.936 55.63C163.742 56.1167 164.369 56.79 164.816 57.65C165.262 58.5033 165.486 59.4867 165.486 60.6C165.486 61.72 165.259 62.71 164.806 63.57C164.359 64.4233 163.732 65.0933 162.926 65.58C162.119 66.06 161.176 66.3 160.096 66.3ZM160.096 64.04C161.056 64.04 161.769 63.72 162.236 63.08C162.702 62.44 162.936 61.6133 162.936 60.6C162.936 59.5533 162.699 58.72 162.226 58.1C161.752 57.4733 161.042 57.16 160.096 57.16C159.449 57.16 158.916 57.3067 158.496 57.6C158.082 57.8867 157.776 58.29 157.576 58.81C157.376 59.3233 157.276 59.92 157.276 60.6C157.276 61.6467 157.512 62.4833 157.986 63.11C158.466 63.73 159.169 64.04 160.096 64.04ZM166.089 70.8V68.54H166.599C167.186 68.54 167.602 68.4033 167.849 68.13C168.096 67.8567 168.219 67.4533 168.219 66.92V55.2H170.619V68C170.619 68.8733 170.362 69.5567 169.849 70.05C169.342 70.55 168.636 70.8 167.729 70.8H166.089ZM168.219 53.56V51.35H170.619V53.56H168.219ZM178.361 66.3C177.267 66.3 176.307 66.0633 175.481 65.59C174.654 65.1167 174.007 64.46 173.541 63.62C173.081 62.78 172.851 61.8133 172.851 60.72C172.851 59.54 173.077 58.5167 173.531 57.65C173.984 56.7767 174.614 56.1 175.421 55.62C176.227 55.14 177.161 54.9 178.221 54.9C179.341 54.9 180.291 55.1633 181.071 55.69C181.857 56.21 182.441 56.9467 182.821 57.9C183.201 58.8533 183.344 59.9767 183.251 61.27H180.861V60.39C180.854 59.2167 180.647 58.36 180.241 57.82C179.834 57.28 179.194 57.01 178.321 57.01C177.334 57.01 176.601 57.3167 176.121 57.93C175.641 58.5367 175.401 59.4267 175.401 60.6C175.401 61.6933 175.641 62.54 176.121 63.14C176.601 63.74 177.301 64.04 178.221 64.04C178.814 64.04 179.324 63.91 179.751 63.65C180.184 63.3833 180.517 63 180.751 62.5L183.131 63.22C182.717 64.1933 182.077 64.95 181.211 65.49C180.351 66.03 179.401 66.3 178.361 66.3ZM174.641 61.27V59.45H182.071V61.27H174.641ZM190.172 66.3C189.059 66.3 188.109 66.0533 187.322 65.56C186.535 65.06 185.932 64.38 185.512 63.52C185.099 62.66 184.889 61.6867 184.882 60.6C184.889 59.4933 185.105 58.5133 185.532 57.66C185.965 56.8 186.579 56.1267 187.372 55.64C188.165 55.1467 189.109 54.9 190.202 54.9C191.429 54.9 192.465 55.21 193.312 55.83C194.165 56.4433 194.722 57.2833 194.982 58.35L192.582 59C192.395 58.42 192.085 57.97 191.652 57.65C191.219 57.3233 190.725 57.16 190.172 57.16C189.545 57.16 189.029 57.31 188.622 57.61C188.215 57.9033 187.915 58.31 187.722 58.83C187.529 59.35 187.432 59.94 187.432 60.6C187.432 61.6267 187.662 62.4567 188.122 63.09C188.582 63.7233 189.265 64.04 190.172 64.04C190.812 64.04 191.315 63.8933 191.682 63.6C192.055 63.3067 192.335 62.8833 192.522 62.33L194.982 62.88C194.649 63.98 194.065 64.8267 193.232 65.42C192.399 66.0067 191.379 66.3 190.172 66.3ZM203.316 66C202.603 66.1333 201.903 66.19 201.216 66.17C200.536 66.1567 199.926 66.0333 199.386 65.8C198.846 65.56 198.436 65.1833 198.156 64.67C197.909 64.2033 197.779 63.7267 197.766 63.24C197.753 62.7533 197.746 62.2033 197.746 61.59V52.2H200.146V61.45C200.146 61.8833 200.149 62.2633 200.156 62.59C200.169 62.9167 200.239 63.1833 200.366 63.39C200.606 63.79 200.989 64.0133 201.516 64.06C202.043 64.1067 202.643 64.08 203.316 63.98V66ZM195.786 57.09V55.2H203.316V57.09H195.786ZM209.808 66.3C208.475 66.3 207.392 66 206.558 65.4C205.725 64.8 205.218 63.9567 205.038 62.87L207.498 62.49C207.625 63.0233 207.905 63.4433 208.338 63.75C208.772 64.0567 209.318 64.21 209.978 64.21C210.558 64.21 211.005 64.0967 211.318 63.87C211.638 63.6367 211.798 63.32 211.798 62.92C211.798 62.6733 211.738 62.4767 211.618 62.33C211.505 62.1767 211.252 62.03 210.858 61.89C210.465 61.75 209.862 61.5733 209.048 61.36C208.142 61.12 207.422 60.8633 206.888 60.59C206.355 60.31 205.972 59.98 205.738 59.6C205.505 59.22 205.388 58.76 205.388 58.22C205.388 57.5467 205.565 56.96 205.918 56.46C206.272 55.96 206.765 55.5767 207.398 55.31C208.032 55.0367 208.778 54.9 209.638 54.9C210.478 54.9 211.222 55.03 211.868 55.29C212.522 55.55 213.048 55.92 213.448 56.4C213.848 56.88 214.095 57.4433 214.188 58.09L211.728 58.53C211.668 58.07 211.458 57.7067 211.098 57.44C210.745 57.1733 210.272 57.0233 209.678 56.99C209.112 56.9567 208.655 57.0433 208.308 57.25C207.962 57.45 207.788 57.7333 207.788 58.1C207.788 58.3067 207.858 58.4833 207.998 58.63C208.138 58.7767 208.418 58.9233 208.838 59.07C209.265 59.2167 209.898 59.3967 210.738 59.61C211.598 59.83 212.285 60.0833 212.798 60.37C213.318 60.65 213.692 60.9867 213.918 61.38C214.152 61.7733 214.268 62.25 214.268 62.81C214.268 63.8967 213.872 64.75 213.078 65.37C212.292 65.99 211.202 66.3 209.808 66.3Z" fill="white"/>
<path d="M60.073 90.9667L62.965 82.3267H64.453L67.345 90.9667H66.235L63.529 82.9507H63.865L61.183 90.9667H60.073ZM61.465 88.9447V87.9427H65.953V88.9447H61.465ZM71.1608 91.1467C70.5048 91.1467 69.9468 91.0007 69.4868 90.7087C69.0308 90.4127 68.6828 90.0067 68.4428 89.4907C68.2028 88.9747 68.0788 88.3867 68.0708 87.7267C68.0788 87.0507 68.2048 86.4567 68.4488 85.9447C68.6968 85.4287 69.0508 85.0267 69.5108 84.7387C69.9708 84.4507 70.5248 84.3067 71.1728 84.3067C71.8568 84.3067 72.4448 84.4747 72.9368 84.8107C73.4328 85.1467 73.7648 85.6067 73.9328 86.1907L72.8768 86.5087C72.7408 86.1327 72.5188 85.8407 72.2108 85.6327C71.9068 85.4247 71.5568 85.3207 71.1608 85.3207C70.7168 85.3207 70.3508 85.4247 70.0628 85.6327C69.7748 85.8367 69.5608 86.1207 69.4208 86.4847C69.2808 86.8447 69.2088 87.2587 69.2048 87.7267C69.2128 88.4467 69.3788 89.0287 69.7028 89.4727C70.0308 89.9127 70.5168 90.1327 71.1608 90.1327C71.5848 90.1327 71.9368 90.0367 72.2168 89.8447C72.4968 89.6487 72.7088 89.3667 72.8528 88.9987L73.9328 89.2807C73.7088 89.8847 73.3588 90.3467 72.8828 90.6667C72.4068 90.9867 71.8328 91.1467 71.1608 91.1467ZM78.7754 90.9667C78.3914 91.0427 78.0114 91.0727 77.6354 91.0567C77.2634 91.0447 76.9314 90.9707 76.6394 90.8347C76.3474 90.6947 76.1254 90.4787 75.9734 90.1867C75.8454 89.9307 75.7754 89.6727 75.7634 89.4127C75.7554 89.1487 75.7514 88.8507 75.7514 88.5187V82.6867H76.8194V88.4707C76.8194 88.7347 76.8214 88.9607 76.8254 89.1487C76.8334 89.3367 76.8754 89.4987 76.9514 89.6347C77.0954 89.8907 77.3234 90.0407 77.6354 90.0847C77.9514 90.1287 78.3314 90.1167 78.7754 90.0487V90.9667ZM74.4374 85.3687V84.4867H78.7754V85.3687H74.4374ZM80.211 83.3407V82.2367H81.279V83.3407H80.211ZM80.211 90.9667V84.4867H81.279V90.9667H80.211ZM84.8313 90.9667L82.4793 84.4867H83.5593L85.3773 89.6047L87.1893 84.4867H88.2753L85.9233 90.9667H84.8313ZM91.9341 91.1467C91.2981 91.1467 90.7421 91.0067 90.2661 90.7267C89.7941 90.4427 89.4261 90.0487 89.1621 89.5447C88.8981 89.0367 88.7661 88.4447 88.7661 87.7687C88.7661 87.0607 88.8961 86.4487 89.1561 85.9327C89.4161 85.4127 89.7781 85.0127 90.2421 84.7327C90.7101 84.4487 91.2581 84.3067 91.8861 84.3067C92.5381 84.3067 93.0921 84.4567 93.5481 84.7567C94.0081 85.0567 94.3521 85.4847 94.5801 86.0407C94.8121 86.5967 94.9121 87.2587 94.8801 88.0267H93.8001V87.6427C93.7881 86.8467 93.6261 86.2527 93.3141 85.8607C93.0021 85.4647 92.5381 85.2667 91.9221 85.2667C91.2621 85.2667 90.7601 85.4787 90.4161 85.9027C90.0721 86.3267 89.9001 86.9347 89.9001 87.7267C89.9001 88.4907 90.0721 89.0827 90.4161 89.5027C90.7601 89.9227 91.2501 90.1327 91.8861 90.1327C92.3141 90.1327 92.6861 90.0347 93.0021 89.8387C93.3181 89.6427 93.5661 89.3607 93.7461 88.9927L94.7721 89.3467C94.5201 89.9187 94.1401 90.3627 93.6321 90.6787C93.1281 90.9907 92.5621 91.1467 91.9341 91.1467ZM89.5401 88.0267V87.1687H94.3281V88.0267H89.5401Z" fill="white" fill-opacity="0.1"/>
<g filter="url(#filter0_d_1226_373)">
<rect x="30" y="20" width="358" height="185" fill="#8AC53E"/>
</g>
<path opacity="0.1" fill-rule="evenodd" clip-rule="evenodd" d="M126.206 20C124.988 28.5218 117.526 52.4858 86.7836 63.3559C56.9566 73.9024 37.3075 70.2754 30.0008 66.8667L30.0008 39.8019C30.1071 28.8474 39.0202 20 49.9998 20L126.206 20Z" fill="#006838"/>
<path opacity="0.1" fill-rule="evenodd" clip-rule="evenodd" d="M387.999 106.339V185C387.999 196.037 379.058 204.987 368.024 205H226.073C232.499 186.5 259.34 149.5 315.298 149.5C371.249 149.5 387.077 120.73 387.999 106.339Z" fill="#006838"/>
<g clip-path="url(#clip0_1226_373)">
<path d="M294.779 171.209C295.35 168.692 293.845 166.172 291.417 165.58C288.99 164.988 286.558 166.548 285.987 169.065C285.416 171.582 286.921 174.102 289.349 174.694C291.777 175.287 294.208 173.726 294.779 171.209Z" fill="#7DBD41"/>
<path d="M286.932 166.912C288.702 165.356 290.455 165.194 291.889 165.72C290.131 166.363 288.875 168.093 288.875 170.13C288.875 172.167 290.137 173.904 291.889 174.54C291.421 174.714 290.918 174.812 290.388 174.812C286.899 174.812 284.337 170.715 286.932 166.912Z" fill="#64992B"/>
<path d="M285.369 169.737C286.067 169.737 286.737 169.852 287.368 170.055C290.003 170.917 291.923 173.435 292.007 176.427H282.729H278.727C278.833 172.717 281.763 169.737 285.369 169.737Z" fill="#7DBD41"/>
<path d="M285.369 169.737C286.067 169.737 286.737 169.852 287.368 170.055C284.733 170.917 282.813 173.435 282.729 176.427H278.727C278.833 172.717 281.763 169.737 285.369 169.737Z" fill="#64992B"/>
<path d="M294.864 168.544C295.567 168.544 296.243 168.649 296.885 168.828C293.636 169.742 291.23 172.787 291.174 176.433H287.133C287.2 172.063 290.633 168.544 294.864 168.544Z" fill="#64992B"/>
<path d="M296.884 168.834C300.133 169.748 302.539 172.792 302.595 176.438H291.174C291.235 172.787 293.636 169.742 296.884 168.834Z" fill="#7DBD41"/>
<path d="M323.679 129.578C323.361 129.549 323.115 129.272 323.143 128.959L323.149 128.907C323.177 128.595 323.456 128.363 323.78 128.392H323.785L323.947 126.424C324.042 125.313 323.177 124.318 322.033 124.214C320.888 124.109 319.872 124.937 319.783 126.048L319.621 128.016H319.649C319.967 128.045 320.213 128.323 320.185 128.635L320.179 128.687C320.151 129 319.872 129.231 319.548 129.202H319.521L318.577 140.511L322.741 140.881L323.685 129.573L323.679 129.578Z" fill="#CE974E"/>
<path d="M302.211 118.444L301.547 126.407L301.446 127.588L300.503 138.896L303.746 139.185L304.69 127.877H304.701C305.019 127.906 305.304 127.674 305.332 127.362L305.337 127.31C305.365 126.997 305.125 126.719 304.801 126.69H304.79L304.952 124.723C305.047 123.612 306.057 122.784 307.202 122.888C308.346 122.992 309.206 123.982 309.116 125.099L308.954 127.067H308.926C308.608 127.038 308.324 127.269 308.296 127.582L308.29 127.634C308.262 127.946 308.508 128.224 308.826 128.253H308.854L307.91 139.562L311.159 139.851L312.103 128.542H312.119C312.438 128.571 312.722 128.34 312.75 128.027L312.756 127.975C312.784 127.663 312.544 127.385 312.22 127.356H312.203L312.365 125.388C312.46 124.277 313.47 123.45 314.615 123.554C315.759 123.658 316.619 124.648 316.529 125.765L316.367 127.732H316.351C316.033 127.703 315.748 127.935 315.72 128.247L315.714 128.299C315.686 128.612 315.932 128.89 316.25 128.919H316.267L315.324 140.227L318.572 140.516L319.521 129.208H319.549C319.867 129.237 320.152 129.005 320.18 128.693L320.186 128.641C320.214 128.328 319.968 128.051 319.65 128.022H319.622L319.784 126.054C319.879 124.943 320.889 124.115 322.033 124.219C323.178 124.323 324.043 125.313 323.948 126.43L323.786 128.398H323.781C323.462 128.369 323.178 128.6 323.15 128.913L323.144 128.965C323.116 129.277 323.362 129.555 323.68 129.584H323.686L322.742 140.893L325.991 141.182L326.934 129.874L326.968 129.879C327.286 129.908 327.571 129.677 327.599 129.364L327.604 129.312C327.632 129 327.387 128.722 327.068 128.693L327.035 128.687L327.197 126.719C327.292 125.608 328.302 124.781 329.446 124.885C330.591 124.989 331.45 125.979 331.361 127.096L331.199 129.063C330.881 129.034 330.596 129.266 330.574 129.578L330.568 129.63C330.541 129.943 330.781 130.221 331.104 130.25L330.161 141.564L333.404 141.853L335.107 121.401L302.211 118.444Z" fill="#EFB867"/>
<path d="M333.136 105.902C332.818 105.873 332.578 105.596 332.6 105.283L332.606 105.231C332.633 104.919 332.913 104.693 333.231 104.716L333.393 102.748C333.488 101.637 332.622 100.642 331.478 100.538C330.334 100.433 329.318 101.261 329.228 102.372L329.066 104.34L329.1 104.346C329.418 104.375 329.664 104.652 329.636 104.965L329.63 105.017C329.602 105.329 329.323 105.561 328.999 105.532L328.966 105.526L328.023 116.835L324.774 116.545L325.717 105.237H325.712C325.393 105.208 325.148 104.93 325.176 104.618L325.181 104.566C325.209 104.253 325.488 104.022 325.812 104.05H325.818L325.98 102.083C326.074 100.972 325.209 99.9762 324.065 99.872C322.921 99.7678 321.905 100.595 321.815 101.707L321.653 103.674H321.681C321.999 103.703 322.245 103.981 322.217 104.294L322.212 104.346C322.184 104.658 321.905 104.89 321.581 104.861H321.553L320.609 116.169L317.361 115.88L318.304 104.571H318.287C317.969 104.542 317.724 104.265 317.751 103.952L317.757 103.9C317.785 103.587 318.064 103.356 318.388 103.385H318.405L318.566 101.417C318.661 100.306 317.796 99.3106 316.652 99.2064C315.507 99.1023 314.491 99.9299 314.402 101.041L314.24 103.009H314.257C314.575 103.038 314.821 103.315 314.793 103.628L314.787 103.68C314.759 103.993 314.48 104.224 314.157 104.195H314.14L313.196 115.504L309.948 115.214L310.891 103.906H310.863C310.545 103.877 310.299 103.599 310.327 103.287L310.333 103.234C310.361 102.922 310.64 102.69 310.964 102.719H310.991L311.153 100.752C311.248 99.6405 310.383 98.6451 309.239 98.5409C308.094 98.4367 307.078 99.2643 306.989 100.375L306.827 102.343H306.838C307.156 102.372 307.402 102.65 307.374 102.962L307.369 103.015C307.341 103.327 307.062 103.559 306.738 103.53H306.727L305.783 114.838L302.54 114.549L335.43 117.494L332.187 117.205L333.136 105.902Z" fill="#CE974E"/>
<path d="M336.524 105.017L336.468 105.011L337.132 97.0478L304.242 94.1021L303.578 102.065L303.533 102.06C303.215 102.031 302.931 102.262 302.903 102.575L302.897 102.627C302.869 102.939 303.115 103.217 303.433 103.246L303.478 103.252L302.534 114.56L305.777 114.85L306.721 103.541H306.732C307.05 103.57 307.335 103.339 307.363 103.026L307.368 102.974C307.396 102.662 307.156 102.384 306.832 102.355H306.821L306.983 100.387C307.078 99.2759 308.088 98.4483 309.233 98.5525C310.377 98.6567 311.242 99.6463 311.147 100.763L310.986 102.731H310.958C310.639 102.702 310.355 102.934 310.327 103.246L310.321 103.298C310.293 103.611 310.539 103.888 310.857 103.917H310.885L309.942 115.226L313.191 115.515L314.134 104.207H314.151C314.469 104.236 314.754 104.004 314.781 103.692L314.787 103.64C314.815 103.327 314.569 103.049 314.251 103.02H314.234L314.396 101.053C314.491 99.9415 315.502 99.1139 316.646 99.2181C317.79 99.3222 318.65 100.312 318.561 101.429L318.399 103.397H318.382C318.064 103.368 317.779 103.599 317.751 103.912L317.746 103.964C317.718 104.276 317.963 104.554 318.281 104.583H318.298L317.355 115.891L320.604 116.181L321.547 104.872H321.575C321.893 104.901 322.178 104.67 322.206 104.357L322.211 104.305C322.239 103.993 321.994 103.715 321.675 103.686H321.648L321.809 101.718C321.904 100.607 322.915 99.7794 324.059 99.8836C325.203 99.9878 326.069 100.977 325.974 102.094L325.812 104.062H325.806C325.488 104.033 325.203 104.265 325.175 104.577L325.17 104.629C325.142 104.942 325.382 105.22 325.706 105.248H325.711L324.768 116.557L328.017 116.846L328.96 105.538L328.994 105.544C329.312 105.573 329.597 105.341 329.624 105.029L329.63 104.976C329.658 104.664 329.412 104.386 329.094 104.357L329.061 104.351L329.223 102.384C329.317 101.273 330.328 100.445 331.472 100.549C332.616 100.653 333.482 101.643 333.387 102.76L333.225 104.728C332.907 104.699 332.622 104.93 332.6 105.243L332.594 105.295C332.566 105.607 332.806 105.885 333.13 105.914L332.187 117.222L335.43 117.512L336.373 106.203L336.429 106.209C336.747 106.238 337.032 106.007 337.06 105.694L337.065 105.642C337.082 105.324 336.842 105.046 336.524 105.017Z" fill="#EFB867"/>
<path d="M335.156 81.6651C334.838 81.6361 334.598 81.3583 334.621 81.0458L334.626 80.9937C334.654 80.6812 334.933 80.4555 335.251 80.4787L335.413 78.511C335.508 77.3998 334.643 76.4044 333.498 76.3002C332.354 76.196 331.338 77.0236 331.249 78.1348L331.087 80.1025L331.12 80.1083C331.439 80.1372 331.684 80.415 331.656 80.7275L331.651 80.7796C331.623 81.0921 331.344 81.3236 331.02 81.2947L330.987 81.2889L330.043 92.5973L326.794 92.308L327.738 80.9995H327.732C327.414 80.9706 327.168 80.6928 327.196 80.3803L327.202 80.3282C327.23 80.0157 327.509 79.7842 327.833 79.8131H327.838L328 77.8454C328.095 76.7343 327.23 75.7388 326.085 75.6347C324.941 75.5305 323.925 76.3581 323.836 77.4693L323.674 79.437H323.702C324.02 79.4659 324.266 79.7437 324.238 80.0562L324.232 80.1083C324.204 80.4208 323.925 80.6523 323.601 80.6234H323.573L322.63 91.9318L319.381 91.6424L320.325 80.334H320.308C319.99 80.3051 319.744 80.0273 319.772 79.7147L319.778 79.6627C319.805 79.3501 320.085 79.1187 320.408 79.1476H320.425L320.587 77.1799C320.682 76.0687 319.817 75.0733 318.672 74.9691C317.528 74.865 316.512 75.6925 316.423 76.8037L316.261 78.7714H316.278C316.596 78.8003 316.841 79.0781 316.813 79.3907L316.808 79.4427C316.78 79.7553 316.501 79.9868 316.177 79.9578H316.16L315.217 91.2663L311.968 90.9769L312.911 79.6684H312.884C312.565 79.6395 312.32 79.3617 312.348 79.0492L312.353 78.9971C312.381 78.6846 312.66 78.4531 312.984 78.482H313.012L313.174 76.5144C313.269 75.4032 312.403 74.4078 311.259 74.3036C310.115 74.1994 309.099 75.027 309.01 76.1382L308.848 78.1059H308.859C309.177 78.1348 309.423 78.4126 309.395 78.7251L309.389 78.7772C309.361 79.0897 309.082 79.3212 308.758 79.2923H308.747L307.804 90.6007L304.561 90.3114L337.451 93.2571L334.207 92.9677L335.156 81.6651Z" fill="#CE974E"/>
<path d="M338.544 80.7738L338.489 80.768L339.153 72.8046L306.263 69.8589L305.599 77.8223L305.554 77.8165C305.236 77.7875 304.951 78.019 304.923 78.3315L304.918 78.3836C304.89 78.6961 305.13 78.9739 305.453 79.0029L305.498 79.0087L304.555 90.3171L307.798 90.6065L308.741 79.298H308.752C309.071 79.327 309.355 79.0955 309.383 78.783L309.389 78.7309C309.417 78.4184 309.171 78.1406 308.853 78.1116H308.842L309.004 76.1439C309.099 75.0328 310.109 74.2052 311.253 74.3093C312.398 74.4135 313.263 75.4032 313.168 76.5201L313.006 78.4878H312.978C312.66 78.4589 312.375 78.6904 312.347 79.0029L312.342 79.055C312.314 79.3675 312.56 79.6453 312.878 79.6742H312.906L311.962 90.9827L315.211 91.272L316.154 79.9636H316.171C316.489 79.9925 316.774 79.761 316.802 79.4485L316.808 79.3964C316.835 79.0839 316.595 78.8061 316.272 78.7772H316.255L316.417 76.8095C316.512 75.6983 317.522 74.8707 318.666 74.9749C319.811 75.0791 320.676 76.0687 320.581 77.1857L320.419 79.1533H320.402C320.084 79.1244 319.8 79.3559 319.772 79.6684L319.766 79.7205C319.738 80.033 319.984 80.3108 320.302 80.3397H320.319L319.375 91.6482L322.624 91.9376L323.568 80.6291H323.595C323.914 80.6581 324.198 80.4266 324.226 80.114L324.232 80.062C324.26 79.7494 324.02 79.4716 323.696 79.4427H323.668L323.83 77.475C323.925 76.3638 324.935 75.5363 326.08 75.6404C327.224 75.7446 328.089 76.7342 327.994 77.8512L327.832 79.8189H327.827C327.509 79.79 327.224 80.0214 327.196 80.334L327.19 80.386C327.162 80.6986 327.408 80.9764 327.726 81.0053H327.732L326.788 92.3137L330.037 92.6031L330.981 81.2947L331.014 81.3004C331.332 81.3294 331.617 81.0979 331.645 80.7854L331.651 80.7333C331.678 80.4208 331.433 80.143 331.115 80.114L331.081 80.1083L331.243 78.1406C331.338 77.0294 332.348 76.2018 333.493 76.306C334.637 76.4101 335.497 77.3998 335.407 78.5167L335.245 80.4844C334.927 80.4555 334.643 80.687 334.62 80.9995L334.615 81.0516C334.587 81.3641 334.827 81.6419 335.151 81.6708L334.207 92.9793L337.45 93.2687L338.394 81.9602L338.45 81.966C338.768 81.9949 339.052 81.7634 339.08 81.4509L339.086 81.3988C339.103 81.0805 338.863 80.8027 338.544 80.7738Z" fill="#EFB867"/>
<path d="M337.378 68.8345L333.694 68.5047L334.475 59.1523H334.47C334.107 59.1176 333.834 58.8051 333.861 58.4521L333.867 58.3942C333.895 58.0412 334.219 57.7807 334.582 57.8097H334.587L334.771 55.5758C334.877 54.3141 333.901 53.1856 332.6 53.0699C332.438 53.0525 332.276 53.0583 332.12 53.0756C331.964 53.093 331.813 53.1219 331.668 53.1682C331.523 53.2145 331.383 53.2724 331.249 53.3419C330.585 53.7007 330.11 54.3604 330.049 55.1475L329.865 57.3814H329.898C330.261 57.4161 330.534 57.7287 330.507 58.0817L330.501 58.1396C330.473 58.4926 330.149 58.753 329.786 58.7241H329.753L328.971 68.0764L325.287 67.7465L326.069 58.3942H326.052C325.689 58.3595 325.416 58.047 325.444 57.6939L325.449 57.6361C325.477 57.283 325.801 57.0226 326.164 57.0515H326.18L326.365 54.8176C326.471 53.556 325.494 52.4275 324.193 52.3117C322.893 52.196 321.743 53.1335 321.637 54.3952L321.452 56.6291H321.475C321.837 56.6638 322.111 56.9763 322.083 57.3293L322.066 57.3988C322.038 57.7518 321.715 58.0122 321.352 57.9833H321.33L320.548 67.3356L316.864 67.0057L317.645 57.6534H317.617C317.255 57.6187 316.981 57.3062 317.009 56.9532L317.014 56.8953C317.042 56.5423 317.366 56.2818 317.729 56.3108H317.757L317.941 54.0769C317.98 53.6023 317.869 53.1509 317.645 52.7573C317.573 52.63 317.483 52.5027 317.383 52.3927C316.987 51.9413 316.423 51.6288 315.77 51.5709C314.955 51.4957 314.207 51.8372 313.727 52.4101C313.442 52.7516 313.252 53.1798 313.213 53.6544L313.029 55.8883H313.04C313.403 55.923 313.676 56.2355 313.648 56.5886L313.643 56.6464C313.615 56.9995 313.291 57.2599 312.928 57.2309H312.917L312.136 66.5833L308.457 66.2534L337.378 68.8345L338.16 59.4822L337.378 68.8345Z" fill="#CE974E"/>
<path d="M338.311 58.1453L338.272 58.1396L338.88 50.8302L309.964 48.2374L309.356 55.5468H309.306C308.943 55.5121 308.619 55.7783 308.591 56.1313L308.586 56.1892C308.558 56.5422 308.831 56.8548 309.194 56.8895L309.244 56.8953L308.463 66.2476L312.142 66.5775L312.923 57.2252H312.934C313.297 57.2599 313.621 56.9937 313.649 56.6406L313.654 56.5828C313.682 56.2297 313.409 55.9172 313.046 55.8825H313.035L313.219 53.6486C313.258 53.174 313.442 52.7458 313.732 52.4043C314.207 51.8314 314.961 51.4957 315.776 51.5651C316.423 51.623 316.992 51.9355 317.389 52.3869C317.489 52.5027 317.573 52.6242 317.651 52.7515C317.874 53.1393 317.986 53.5965 317.947 54.0711L317.763 56.305H317.735C317.372 56.2702 317.048 56.5365 317.02 56.8895L317.015 56.9474C316.987 57.3004 317.26 57.6129 317.623 57.6476H317.651L316.87 67L320.554 67.3298L321.33 57.9775H321.352C321.715 58.0122 322.039 57.746 322.067 57.393L322.072 57.3351C322.1 56.9821 321.827 56.6696 321.464 56.6348H321.441L321.626 54.4009C321.732 53.1393 322.882 52.2018 324.182 52.3175C325.483 52.4332 326.46 53.5618 326.354 54.8234L326.17 57.0573H326.153C325.79 57.0226 325.466 57.2888 325.438 57.6418L325.433 57.6997C325.405 58.0527 325.678 58.3653 326.041 58.4H326.058L325.276 67.7523L328.961 68.0822L329.742 58.7299H329.776C330.138 58.7646 330.462 58.4984 330.49 58.1453L330.496 58.0875C330.524 57.7344 330.25 57.4219 329.887 57.3872H329.854L330.038 55.1533C330.105 54.3662 330.579 53.7007 331.238 53.3476C331.372 53.2782 331.512 53.2145 331.657 53.174C331.802 53.1277 331.953 53.0988 332.109 53.0814C332.265 53.0641 332.427 53.0641 332.589 53.0756C333.89 53.1914 334.867 54.3199 334.76 55.5816L334.576 57.8155H334.571C334.208 57.7807 333.884 58.047 333.856 58.4L333.851 58.4579C333.823 58.8109 334.096 59.1234 334.459 59.1581H334.465L333.683 68.5105L337.367 68.8403L338.149 59.488L338.188 59.4938C338.551 59.5285 338.875 59.2623 338.902 58.9093L338.908 58.8514C338.947 58.4926 338.674 58.1801 338.311 58.1453Z" fill="#EFB867"/>
<path d="M333.987 145.94L299.122 142.816L296.255 177.21L331.12 180.334L333.987 145.94Z" fill="#FFD895"/>
<path d="M314.126 152.66L311.963 178.613L315.405 178.921L317.569 152.969L314.126 152.66Z" fill="#EFB867"/>
<path d="M306.265 151.958L304.102 177.91L307.544 178.219L309.707 152.266L306.265 151.958Z" fill="#EFB867"/>
<path d="M321.988 153.367L319.825 179.319L323.268 179.628L325.431 153.675L321.988 153.367Z" fill="#EFB867"/>
<path d="M329.845 154.071L327.682 180.024L331.119 180.332L333.282 154.379L329.845 154.071Z" fill="#EFB867"/>
<path d="M298.419 151.253L296.256 177.205L299.693 177.513L301.856 151.561L298.419 151.253Z" fill="#EFB867"/>
<path d="M333.985 145.939L299.118 142.814L298.415 151.252L301.848 151.559L302.021 149.469C302.122 148.289 303.193 147.415 304.405 147.525C305.622 147.635 306.532 148.688 306.431 149.869L306.258 151.958L309.702 152.265L309.875 150.175C309.976 148.995 311.047 148.121 312.259 148.231C313.476 148.341 314.386 149.394 314.285 150.575L314.112 152.664L317.556 152.971L317.729 150.882C317.83 149.701 318.902 148.827 320.113 148.937C321.33 149.047 322.24 150.1 322.139 151.281L321.966 153.37L325.41 153.677L325.583 151.588C325.684 150.407 326.756 149.533 327.967 149.643C329.184 149.753 330.094 150.806 329.993 151.987L329.82 154.076L333.253 154.383L333.985 145.939Z" fill="#EFB867"/>
<path d="M301.882 151.565L298.354 151.246C298.024 151.217 297.734 151.472 297.706 151.813V151.825C297.678 152.166 297.924 152.467 298.253 152.496L301.781 152.815C302.111 152.843 302.401 152.589 302.429 152.247V152.236C302.457 151.9 302.211 151.599 301.882 151.565Z" fill="#EFB867"/>
<path d="M309.73 152.271L306.241 151.958C305.9 151.929 305.599 152.172 305.571 152.502L305.566 152.554C305.538 152.884 305.794 153.179 306.135 153.208L309.624 153.521C309.964 153.55 310.266 153.306 310.294 152.977L310.299 152.925C310.327 152.595 310.07 152.299 309.73 152.271Z" fill="#EFB867"/>
<path d="M317.601 152.977L314.112 152.664C313.772 152.635 313.47 152.878 313.442 153.208L313.437 153.26C313.409 153.59 313.666 153.885 314.006 153.914L317.495 154.227C317.835 154.256 318.137 154.013 318.165 153.683L318.17 153.631C318.193 153.301 317.941 153.006 317.601 152.977Z" fill="#EFB867"/>
<path d="M325.472 153.683L321.983 153.37C321.643 153.341 321.341 153.584 321.313 153.914L321.308 153.966C321.28 154.296 321.537 154.591 321.877 154.62L325.366 154.933C325.706 154.962 326.008 154.719 326.036 154.389L326.041 154.337C326.064 154.007 325.807 153.712 325.472 153.683Z" fill="#EFB867"/>
<path d="M333.359 154.389L329.831 154.07C329.502 154.041 329.212 154.296 329.184 154.638V154.649C329.156 154.991 329.402 155.292 329.731 155.32L333.259 155.639C333.588 155.668 333.878 155.413 333.906 155.072V155.06C333.934 154.719 333.689 154.418 333.359 154.389Z" fill="#EFB867"/>
<path opacity="0.58" d="M334.219 141.917L333.399 141.842L334.152 132.802L334.342 130.533L334.398 130.539C334.716 130.568 335.001 130.337 335.029 130.024L335.034 129.972C335.062 129.659 334.816 129.382 334.498 129.353L334.442 129.347L335.107 121.383V121.366C336.005 121.366 336.77 120.712 336.843 119.821L336.871 119.485L336.876 119.445C336.949 118.553 336.307 117.772 335.419 117.61L335.431 117.494L336.374 106.186L336.43 106.192C336.748 106.221 337.033 105.989 337.061 105.677L337.066 105.625C337.094 105.312 336.848 105.034 336.53 105.005L336.474 105L337.139 97.0362V97.0188C338.037 97.0188 338.802 96.3649 338.875 95.4736L338.891 95.2711L338.908 95.0916C338.981 94.2004 338.339 93.4191 337.451 93.2571V93.2397L338.395 81.9313L338.45 81.937C338.769 81.966 339.053 81.7345 339.081 81.422L339.087 81.3699C339.115 81.0574 338.875 80.7796 338.551 80.7506L338.495 80.7449L339.159 72.7815L339.003 72.7699C339.974 72.8567 340.823 72.1622 340.901 71.2247L340.912 71.0626L340.929 70.8485C341.007 69.9052 340.287 69.0718 339.316 68.985L337.379 68.8114L338.16 59.459L338.199 59.4648C338.562 59.4996 338.886 59.2333 338.914 58.8803L338.919 58.8224C338.947 58.4694 338.674 58.1569 338.311 58.1222L338.272 58.1164L338.875 50.9169L339.182 50.9459C340.086 51.0269 340.884 50.3787 340.957 49.499L340.99 49.1055L340.996 49.0187C341.069 48.139 340.393 47.3577 339.489 47.2767L327.554 46.235L327.258 49.7942C327.258 49.7942 332.84 50.6854 332.6 53.0756L322.056 179.523L323.267 179.633L327.682 180.027L331.116 180.333L333.175 155.633L333.231 155.639C333.572 155.668 333.873 155.425 333.901 155.095L333.907 155.043C333.935 154.713 333.678 154.418 333.337 154.389L333.281 154.383L333.985 145.945L333.884 145.933C334.911 146.026 335.81 145.291 335.894 144.296L335.927 143.925V143.896C336.011 142.895 335.246 142.01 334.219 141.917Z" fill="#D89C4C"/>
<path d="M308.831 128.247C308.513 128.218 308.267 127.941 308.295 127.628L308.3 127.576C308.328 127.263 308.607 127.032 308.931 127.061H308.959L309.121 125.093C309.216 123.982 308.351 122.987 307.206 122.882C306.062 122.778 305.046 123.606 304.957 124.717L304.795 126.685H304.806C305.124 126.714 305.37 126.991 305.342 127.304L305.336 127.356C305.308 127.669 305.029 127.9 304.706 127.871H304.694L303.751 139.18L307.915 139.556L308.859 128.247H308.831Z" fill="#CE974E"/>
<path d="M316.255 128.913C315.937 128.884 315.691 128.606 315.719 128.294L315.725 128.242C315.753 127.929 316.032 127.697 316.355 127.726H316.372L316.534 125.759C316.629 124.648 315.764 123.652 314.619 123.548C313.475 123.444 312.459 124.271 312.37 125.383L312.208 127.35H312.225C312.543 127.379 312.788 127.657 312.761 127.969L312.755 128.022C312.727 128.334 312.448 128.566 312.124 128.537H312.107L311.164 139.845L315.328 140.215L316.272 128.907L316.255 128.913Z" fill="#CE974E"/>
<path d="M330.568 129.625L330.573 129.573C330.601 129.26 330.88 129.034 331.198 129.058L331.36 127.09C331.455 125.979 330.59 124.983 329.446 124.879C328.301 124.775 327.285 125.603 327.196 126.714L327.034 128.681L327.068 128.687C327.386 128.716 327.631 128.994 327.603 129.306L327.598 129.358C327.57 129.671 327.291 129.902 326.967 129.874L326.934 129.868L325.99 141.176L330.155 141.547L331.098 130.232C330.78 130.215 330.54 129.937 330.568 129.625Z" fill="#CE974E"/>
<path d="M322.033 124.219C320.889 124.115 319.873 124.943 319.784 126.054L319.678 127.333C319.773 126.222 320.783 125.394 321.927 125.498C323.072 125.602 323.937 126.592 323.842 127.709L323.948 126.43C324.043 125.319 323.178 124.323 322.033 124.219Z" fill="#A57235"/>
<path d="M320.068 129.978L320.073 129.926C320.101 129.613 319.856 129.335 319.538 129.306H319.51L319.409 130.487H319.437C319.761 130.522 320.046 130.29 320.068 129.978Z" fill="#CE974E"/>
<path d="M323.038 130.192L323.032 130.244C323.005 130.556 323.25 130.834 323.568 130.863H323.574L323.674 129.683H323.669C323.351 129.648 323.066 129.879 323.038 130.192Z" fill="#CE974E"/>
<path d="M308.194 128.861L308.189 128.913C308.161 129.225 308.406 129.503 308.725 129.532H308.752L308.853 128.351H308.825C308.501 128.323 308.217 128.548 308.194 128.861Z" fill="#CE974E"/>
<path d="M305.219 128.647L305.225 128.595C305.253 128.282 305.007 128.004 304.689 127.975H304.678L304.583 129.162H304.594C304.912 129.191 305.197 128.959 305.219 128.647Z" fill="#CE974E"/>
<path d="M307.206 122.888C306.062 122.784 305.046 123.612 304.957 124.723L304.851 126.002C304.945 124.891 305.956 124.063 307.1 124.167C308.245 124.271 309.104 125.261 309.015 126.378L309.121 125.099C309.21 123.988 308.351 122.992 307.206 122.888Z" fill="#A57235"/>
<path d="M312.644 129.312L312.649 129.26C312.677 128.948 312.432 128.67 312.113 128.641H312.097L311.996 129.821H312.013C312.337 129.856 312.621 129.625 312.644 129.312Z" fill="#CE974E"/>
<path d="M314.619 123.554C313.475 123.45 312.459 124.277 312.37 125.388L312.264 126.667C312.359 125.556 313.369 124.729 314.513 124.833C315.658 124.937 316.523 125.927 316.428 127.044L316.534 125.765C316.623 124.653 315.764 123.658 314.619 123.554Z" fill="#A57235"/>
<path d="M315.619 129.526L315.613 129.578C315.586 129.891 315.831 130.169 316.149 130.198H316.166L316.267 129.017H316.25C315.926 128.982 315.641 129.214 315.619 129.526Z" fill="#CE974E"/>
<path d="M329.451 124.885C328.307 124.781 327.291 125.608 327.202 126.719L327.096 127.998C327.191 126.887 328.201 126.06 329.345 126.164C330.49 126.268 331.355 127.258 331.26 128.375L331.366 127.096C331.455 125.979 330.596 124.989 329.451 124.885Z" fill="#A57235"/>
<path d="M327.492 130.643L327.498 130.591C327.526 130.279 327.28 130.001 326.962 129.972L326.929 129.966L326.828 131.147L326.862 131.153C327.185 131.187 327.47 130.956 327.492 130.643Z" fill="#CE974E"/>
<path d="M330.462 130.857L330.456 130.91C330.428 131.222 330.668 131.5 330.992 131.529L331.093 130.348C330.774 130.319 330.49 130.545 330.462 130.857Z" fill="#CE974E"/>
<path d="M320.179 128.699L320.185 128.647C320.213 128.334 319.967 128.056 319.649 128.027H319.621L319.521 129.208H319.548C319.867 129.237 320.151 129.005 320.179 128.699Z" fill="#CE974E"/>
<path d="M323.149 128.913L323.144 128.965C323.116 129.277 323.361 129.555 323.68 129.584H323.685L323.786 128.404H323.78C323.456 128.369 323.172 128.6 323.149 128.913Z" fill="#CE974E"/>
<path d="M305.331 127.368L305.337 127.316C305.365 127.003 305.125 126.725 304.801 126.696H304.79L304.689 127.877H304.701C305.019 127.906 305.303 127.674 305.331 127.368Z" fill="#CE974E"/>
<path d="M308.301 127.582L308.295 127.634C308.267 127.946 308.513 128.224 308.831 128.253H308.859L308.959 127.072H308.931C308.608 127.038 308.323 127.269 308.301 127.582Z" fill="#CE974E"/>
<path d="M312.755 128.033L312.761 127.981C312.788 127.669 312.548 127.391 312.225 127.362H312.208L312.107 128.542H312.124C312.442 128.571 312.727 128.34 312.755 128.033Z" fill="#CE974E"/>
<path d="M315.726 128.247L315.72 128.299C315.692 128.612 315.938 128.89 316.256 128.919H316.273L316.373 127.738H316.356C316.033 127.703 315.748 127.935 315.726 128.247Z" fill="#CE974E"/>
<path d="M330.573 129.578L330.568 129.631C330.54 129.943 330.78 130.221 331.104 130.25L331.204 129.069C330.88 129.034 330.596 129.266 330.573 129.578Z" fill="#CE974E"/>
<path d="M327.598 129.364L327.603 129.312C327.631 129 327.386 128.722 327.068 128.693L327.034 128.687L326.934 129.868L326.967 129.874C327.291 129.902 327.576 129.671 327.598 129.364Z" fill="#CE974E"/>
<path d="M301.508 126.401C301.19 126.372 300.905 126.604 300.877 126.916L300.871 126.968C300.843 127.281 301.083 127.559 301.407 127.588L301.452 127.593L301.552 126.413L301.508 126.401Z" fill="#EFB867"/>
<path d="M334.493 129.358L334.437 129.353L335.101 121.389L333.398 141.842L334.342 130.533L334.398 130.539C334.716 130.568 335.001 130.337 335.028 130.024L335.034 129.972C335.056 129.665 334.816 129.387 334.493 129.358Z" fill="#EFB867"/>
<path d="M331.4 101.585C332.544 101.689 333.404 102.679 333.315 103.796L333.404 102.754C333.499 101.643 332.634 100.648 331.489 100.543C330.345 100.439 329.329 101.267 329.24 102.378L329.15 103.42C329.24 102.308 330.25 101.481 331.4 101.585Z" fill="#A57235"/>
<path d="M309.155 99.5884C310.299 99.6926 311.159 100.682 311.07 101.799L311.159 100.757C311.254 99.6463 310.389 98.6509 309.244 98.5467C308.1 98.4425 307.084 99.2701 306.995 100.381L306.905 101.423C306.995 100.312 308.005 99.49 309.155 99.5884Z" fill="#A57235"/>
<path d="M323.981 100.92C325.125 101.024 325.991 102.013 325.896 103.13L325.985 102.089C326.08 100.977 325.215 99.982 324.07 99.8778C322.926 99.7736 321.91 100.601 321.821 101.712L321.731 102.754C321.821 101.643 322.837 100.815 323.981 100.92Z" fill="#A57235"/>
<path d="M316.568 100.254C317.712 100.358 318.572 101.348 318.483 102.465L318.572 101.423C318.667 100.312 317.802 99.3165 316.657 99.2123C315.513 99.1081 314.497 99.9357 314.408 101.047L314.318 102.089C314.408 100.977 315.424 100.15 316.568 100.254Z" fill="#A57235"/>
<path d="M325.996 76.7459C327.14 76.85 328 77.8397 327.91 78.9566L328.005 77.8455C328.1 76.7343 327.235 75.7389 326.091 75.6347C324.946 75.5305 323.93 76.3581 323.841 77.4693L323.746 78.5805C323.835 77.4693 324.851 76.6475 325.996 76.7459Z" fill="#A57235"/>
<path d="M326.8 92.308L330.049 92.6031L326.8 92.308Z" fill="#CE974E"/>
<path d="M333.409 77.4114C334.553 77.5156 335.418 78.5052 335.323 79.6222L335.418 78.511C335.513 77.3998 334.648 76.4044 333.504 76.3002C332.359 76.1961 331.343 77.0237 331.254 78.1348L331.159 79.246C331.254 78.1348 332.264 77.3072 333.409 77.4114Z" fill="#A57235"/>
<path d="M307.804 90.6065L304.561 90.3171L307.804 90.6065Z" fill="#CE974E"/>
<path d="M334.213 92.9735L337.456 93.2629L334.213 92.9735Z" fill="#CE974E"/>
<path d="M311.165 75.4206C312.309 75.5247 313.169 76.5144 313.079 77.6313L313.174 76.5201C313.269 75.409 312.404 74.4136 311.26 74.3094C310.115 74.2052 309.099 75.0328 309.01 76.144L308.915 77.2551C309.01 76.144 310.02 75.3164 311.165 75.4206Z" fill="#A57235"/>
<path d="M319.381 91.6425L322.63 91.9376L319.381 91.6425Z" fill="#CE974E"/>
<path d="M311.968 90.9827L315.217 91.272L311.968 90.9827Z" fill="#CE974E"/>
<path d="M318.583 76.0861C319.727 76.1903 320.587 77.1799 320.497 78.2968L320.592 77.1857C320.687 76.0745 319.822 75.0791 318.678 74.9749C317.533 74.8707 316.517 75.6983 316.428 76.8095L316.333 77.9207C316.422 76.8095 317.438 75.9819 318.583 76.0861Z" fill="#A57235"/>
<path d="M325.276 67.7523L328.966 68.0822L325.276 67.7523Z" fill="#CE974E"/>
<path d="M324.099 53.3187C325.399 53.4345 326.376 54.563 326.27 55.8246L326.354 54.8234C326.46 53.5618 325.483 52.4333 324.182 52.3175C322.882 52.2018 321.732 53.1393 321.626 54.401L321.542 55.4022C321.648 54.1405 322.798 53.203 324.099 53.3187Z" fill="#A57235"/>
<path d="M331.16 54.3488C331.294 54.2794 331.434 54.2157 331.579 54.1752C331.724 54.1289 331.875 54.1 332.031 54.0826C332.187 54.0652 332.349 54.0652 332.511 54.0768C333.812 54.1926 334.789 55.3211 334.682 56.5827L334.766 55.5815C334.872 54.3199 333.895 53.1914 332.595 53.0756C332.433 53.0582 332.271 53.064 332.115 53.0814C331.958 53.0988 331.808 53.1277 331.663 53.174C331.517 53.2203 331.378 53.2782 331.244 53.3476C330.58 53.7064 330.105 54.3662 330.044 55.1533L329.96 56.1545C330.021 55.3674 330.496 54.7076 331.16 54.3488Z" fill="#A57235"/>
<path d="M315.686 52.5663C316.333 52.6242 316.902 52.9367 317.299 53.3881C317.399 53.5039 317.483 53.6254 317.561 53.7527C317.784 54.1405 317.896 54.5977 317.857 55.0723L317.941 54.0711C317.98 53.5965 317.868 53.1451 317.645 52.7515C317.572 52.6242 317.483 52.4969 317.383 52.3869C316.986 51.9355 316.422 51.623 315.769 51.5651C314.954 51.4899 314.206 51.8314 313.726 52.4043C313.442 52.7458 313.252 53.174 313.213 53.6486L313.129 54.6498C313.168 54.1752 313.352 53.747 313.642 53.4055C314.123 52.8326 314.876 52.4969 315.686 52.5663Z" fill="#A57235"/>
<path d="M312.142 66.5717L308.463 66.2476L312.142 66.5717Z" fill="#CE974E"/>
<path d="M333.688 68.5046L337.378 68.8345L333.688 68.5046Z" fill="#CE974E"/>
<path d="M316.864 66.9999L320.554 67.3298L316.864 66.9999Z" fill="#CE974E"/>
<path d="M331.662 53.1682C331.517 53.2145 331.377 53.2724 331.243 53.3418C331.377 53.2782 331.517 53.2145 331.662 53.1682Z" fill="#EFB867"/>
<path d="M332.114 53.0756C331.958 53.093 331.807 53.1219 331.662 53.1682C331.807 53.1277 331.958 53.093 332.114 53.0756Z" fill="#EFB867"/>
<path d="M313.727 52.4043C314.201 51.8314 314.955 51.4957 315.77 51.5651C314.96 51.4899 314.207 51.8314 313.727 52.4043Z" fill="#EFB867"/>
<path d="M335.318 117.599L302.641 114.67C301.703 114.583 300.877 115.307 300.793 116.279L300.77 116.545C300.687 117.518 301.385 118.374 302.322 118.461L335 121.389C335.938 121.476 336.764 120.753 336.848 119.78L336.87 119.514C336.948 118.536 336.256 117.68 335.318 117.599Z" fill="#FFD895"/>
<path d="M337.345 93.2571L304.667 90.3287C303.729 90.2419 302.903 90.9653 302.819 91.9376L302.797 92.2038C302.713 93.1761 303.411 94.0326 304.349 94.1194L337.027 97.0478C337.964 97.1346 338.791 96.4112 338.874 95.4389L338.897 95.1727C338.98 94.1947 338.288 93.3381 337.345 93.2571Z" fill="#FFD895"/>
<path d="M339.365 69.0139L306.687 66.0856C305.75 65.9987 304.923 66.7222 304.84 67.6944L304.817 67.9607C304.734 68.9329 305.431 69.7895 306.369 69.8763L339.047 72.8047C339.985 72.8915 340.811 72.168 340.895 71.1958L340.917 70.9296C341.001 69.9573 340.309 69.1008 339.365 69.0139Z" fill="#FFD895"/>
<path d="M339.533 47.3057L310.12 44.6725C309.244 44.5914 308.468 45.2686 308.395 46.1772L308.362 46.5476C308.284 47.4562 308.937 48.2606 309.813 48.3359L339.226 50.9691C340.102 51.0501 340.878 50.373 340.95 49.4644L340.984 49.094C341.062 48.1912 340.409 47.3867 339.533 47.3057Z" fill="#FFD895"/>
<path d="M334.28 141.923L299.643 138.821C298.649 138.734 297.773 139.498 297.689 140.528L297.667 140.806C297.583 141.836 298.32 142.745 299.313 142.831L333.951 145.933C334.944 146.02 335.821 145.256 335.904 144.226L335.927 143.948C336.011 142.924 335.274 142.015 334.28 141.923Z" fill="#FFD895"/>
<path d="M336.87 119.491L336.876 119.451C336.954 118.507 336.234 117.674 335.263 117.587L302.696 114.67C301.725 114.583 300.877 115.278 300.799 116.215L300.793 116.256L336.87 119.491Z" fill="#CE974E"/>
<path d="M338.891 95.2884L338.907 95.109C338.986 94.1657 338.266 93.3323 337.294 93.2455L304.722 90.3287C303.751 90.2419 302.903 90.9363 302.824 91.8739L302.808 92.0533L338.891 95.2884Z" fill="#CE974E"/>
<path d="M340.907 71.0858L340.923 70.8717C341.002 69.9284 340.281 69.095 339.31 69.0082L306.744 66.0914C305.772 66.0046 304.924 66.699 304.846 67.6366L304.829 67.8507L340.907 71.0858Z" fill="#CE974E"/>
<path d="M340.984 49.1287L340.989 49.0419C341.062 48.1622 340.387 47.3809 339.482 47.2999L310.176 44.6724C309.266 44.5972 308.468 45.2454 308.395 46.1251L308.39 46.2119L340.984 49.1287Z" fill="#CE974E"/>
<path d="M335.927 143.919V143.89C336.011 142.895 335.246 142.01 334.219 141.917L299.699 138.827C298.672 138.734 297.773 139.469 297.689 140.464V140.493L335.927 143.919Z" fill="#CE974E"/>
<path d="M358.166 176.433H278.213V180.333H358.166V176.433Z" fill="#8AC53E"/>
</g>
<defs>
<filter id="filter0_d_1226_373" x="0" y="0" width="418" height="245" filterUnits="userSpaceOnUse" color-interpolation-filters="sRGB">
<feFlood flood-opacity="0" result="BackgroundImageFix"/>
<feColorMatrix in="SourceAlpha" type="matrix" values="0 0 0 0 0 0 0 0 0 0 0 0 0 0 0 0 0 0 127 0" result="hardAlpha"/>
<feOffset dy="10"/>
<feGaussianBlur stdDeviation="15"/>
<feColorMatrix type="matrix" values="0 0 0 0 0.541176 0 0 0 0 0.772549 0 0 0 0 0.243137 0 0 0 0.4 0"/>
<feBlend mode="normal" in2="BackgroundImageFix" result="effect1_dropShadow_1226_373"/>
<feBlend mode="normal" in="SourceGraphic" in2="effect1_dropShadow_1226_373" result="shape"/>
</filter>
<clipPath id="clip0_1226_373">
<rect width="79.9533" height="135.667" fill="white" transform="translate(278.213 44.6666)"/>
</clipPath>
</defs>
</svg>
