<svg width="418" height="245" viewBox="0 0 418 245" fill="none" xmlns="http://www.w3.org/2000/svg">
<g filter="url(#filter0_d_1631_1059)">
<rect x="30" y="20" width="358" height="185" fill="#369FFF"/>
</g>
<g clip-path="url(#clip0_1631_1059)">
<path d="M328.014 44.6667C327.88 44.6667 327.775 44.7775 327.775 44.9176V53.5174C327.775 53.6575 327.88 53.7683 328.014 53.7683C328.147 53.7683 328.253 53.6575 328.253 53.5174V44.9176C328.253 44.7775 328.147 44.6667 328.014 44.6667Z" fill="#FFC000"/>
<path d="M328.014 44.6667C327.986 44.6667 327.958 44.6725 327.936 44.6842C328.081 44.8009 328.175 45.0926 328.164 45.361C328.142 46.0203 328.169 50.0576 328.081 51.6271C328.064 51.9305 327.864 51.9071 327.775 51.8955V53.5116C327.775 53.6516 327.88 53.7625 328.014 53.7625C328.147 53.7625 328.253 53.6516 328.253 53.5116V44.9176C328.253 44.7775 328.147 44.6667 328.014 44.6667Z" fill="#FFD143"/>
<path d="M331.042 53.7742H325.124V56.9656H331.042V53.7742Z" fill="#FFD143"/>
<path d="M330.664 53.9084C329.664 54.836 328.586 55.1744 327.269 55.1744C326.524 55.1744 325.846 55.3028 325.124 55.1744V56.9656H331.042V53.7742H330.781C330.737 53.815 330.709 53.8675 330.664 53.9084Z" fill="#FFC000"/>
<path d="M332.832 105.846L332.782 105.788C331.631 94.7489 330.47 79.2062 330.298 60.3495L330.292 60.0344H325.802L325.796 60.3495C325.441 99.1481 320.917 123.973 320.867 124.218L321.367 124.364C321.373 124.347 321.406 124.143 321.467 123.798L323.89 121.844L325.824 123.81C325.807 124.09 325.796 124.242 325.796 124.265L326.308 124.312C326.308 124.288 326.324 124.084 326.341 123.722L328.058 121.733L329.753 123.845C329.77 124.131 329.781 124.294 329.781 124.312L330.292 124.259C330.292 124.242 330.281 124.125 330.27 123.927L332.276 121.791L334.615 123.722C334.682 124.113 334.721 124.335 334.727 124.358L335.227 124.213C335.205 124.084 333.999 117.491 332.787 105.887L332.832 105.846ZM332.687 109.662L331.242 108.034L332.337 106.517C332.459 107.614 332.576 108.658 332.687 109.662ZM331.765 116.82L330.181 115.28H333.115L331.765 116.82ZM331.781 117.415L333.582 119.166H330.248L331.781 117.415ZM330.059 114.714L331.392 112.946L333.087 114.714H330.059ZM331.359 112.322L329.831 110.723H332.559L331.359 112.322ZM329.709 110.152L331.02 108.337L332.626 110.152H329.709ZM323.057 114.714L324.729 112.923L326.091 114.714H323.057ZM326.124 115.28L324.468 116.826L323.051 115.28H326.124ZM323.557 110.723H326.224L324.752 112.299L323.557 110.723ZM323.573 110.152L325.096 108.349L326.346 110.152H323.573ZM327.697 64.2994L327.019 65.7696L326.424 64.2994H327.697ZM326.319 63.7276L327.008 62.3507L327.686 63.7276H326.319ZM329.081 65.8338L328.38 64.2935H329.742L329.081 65.8338ZM329.081 66.2889L329.753 67.7708H328.447L329.081 66.2889ZM328.303 63.7276L329.042 62.304L329.82 63.7276H328.303ZM328.981 66.0613L328.264 67.73C328.253 66.6331 328.247 65.5362 328.241 64.4394L328.981 66.0613ZM328.269 68.3309H328.275H328.269C328.269 68.3367 328.269 68.3367 328.269 68.3309ZM329.481 105.566L330.642 103.716L332.131 105.566H329.481ZM332.17 106.138L330.998 107.754L329.564 106.138H332.17ZM326.952 114.714L328.053 112.876L329.192 114.714H326.952ZM329.142 115.28L328.114 116.675L327.163 115.28H329.142ZM327.591 96.0617L328.008 94.1305L328.414 96.0967C328.414 96.155 328.419 96.2134 328.419 96.2776H327.586C327.591 96.2075 327.591 96.1317 327.591 96.0617ZM326.952 75.0988L327.636 73.6752C327.619 74.6554 327.608 75.6355 327.591 76.6099L326.952 75.0988ZM328.442 96.8493C328.442 96.8785 328.442 96.9077 328.447 96.931L328.008 98.2671L327.563 96.931C327.563 96.9018 327.564 96.8727 327.569 96.8435H328.442V96.8493ZM328.469 97.5728C328.497 98.3779 328.53 99.1656 328.564 99.9474L328.125 98.623L328.469 97.5728ZM328.008 98.9847L328.597 100.758C328.597 100.817 328.603 100.881 328.603 100.939H327.419C327.419 100.881 327.425 100.817 327.425 100.758L328.008 98.9847ZM328.653 102.188C328.686 102.987 328.719 103.769 328.753 104.533L328.208 103.255L328.653 102.188ZM328.019 102.812L327.463 101.505H328.558L328.019 102.812ZM327.836 103.261L327.275 104.621C327.308 103.821 327.341 103.005 327.375 102.17L327.836 103.261ZM328.025 103.711L328.797 105.525C328.797 105.537 328.797 105.554 328.797 105.566H327.252L328.025 103.711ZM328.853 106.692C328.897 107.637 328.936 108.559 328.981 109.452L328.214 107.929L328.853 106.692ZM328.808 92.6952L329.864 94.2239L328.919 95.8925C328.881 94.8365 328.847 93.7746 328.808 92.6952ZM328.969 97.2169L330.136 98.798L329.097 100.531C329.053 99.4515 329.014 98.3429 328.969 97.2169ZM328.742 106.138L328.019 107.544L327.313 106.138H328.742ZM328.942 110.152H327.063L328.014 108.314L328.942 110.152ZM328.886 110.723L328.047 112.124L327.175 110.723H328.886ZM327.819 112.503L326.852 114.125C326.897 113.191 326.941 112.205 326.991 111.167L327.819 112.503ZM328.275 112.497L329.064 111.179C329.114 112.165 329.158 113.104 329.203 113.991L328.275 112.497ZM329.153 101.867L330.409 103.425L329.297 105.192C329.247 104.113 329.203 103.01 329.153 101.867ZM330.614 103.098L329.331 101.505H331.615L330.614 103.098ZM329.22 100.933L330.336 99.0664L331.709 100.933H329.22ZM330.314 98.5063L329.092 96.8493H331.303L330.314 98.5063ZM328.997 96.2776L330.031 94.4572L331.292 96.2776H328.997ZM330.014 93.9613L328.886 92.3394H330.931L330.014 93.9613ZM328.769 91.5109C328.73 90.2682 328.692 89.0079 328.653 87.7302L329.709 89.5038L328.769 91.5109ZM328.614 86.3533C328.58 85.2448 328.553 84.1187 328.525 82.9869L329.464 84.6321L328.614 86.3533ZM328.503 81.9833L329.397 80.0697L330.348 81.9833H328.503ZM328.486 81.4816C328.458 80.3555 328.436 79.2237 328.414 78.0801L329.27 79.8071L328.486 81.4816ZM328.386 76.7849C328.364 75.7056 328.347 74.6145 328.33 73.5235L329.108 75.163L328.386 76.7849ZM329.236 75.4372L330.075 77.205H328.447L329.236 75.4372ZM329.236 74.8946L328.425 73.1851H330.003L329.236 74.8946ZM328.392 72.6133L329.186 70.6647L330.025 72.6133H328.392ZM328.314 72.3216C328.297 71.0731 328.28 69.8128 328.269 68.5526L329.081 70.4313L328.314 72.3216ZM328.297 92.8119C328.325 93.6229 328.353 94.4222 328.38 95.2157L328.086 93.7804L328.297 92.8119ZM328.019 93.4245L327.797 92.3394H328.253L328.019 93.4245ZM327.941 93.7746L327.625 95.239C327.652 94.3814 327.68 93.5121 327.708 92.6369L327.941 93.7746ZM327.658 71.8549L327.08 70.3613L327.686 68.9727C327.68 69.9354 327.669 70.898 327.658 71.8549ZM327.702 67.4557L327.113 66.003L327.719 64.6844C327.714 65.6063 327.708 66.5339 327.702 67.4557ZM327.63 67.765H326.296L327.008 66.2247L327.63 67.765ZM327.697 68.3309C327.697 68.3892 327.697 68.4534 327.697 68.5118L326.991 70.1221L326.302 68.3367H327.697V68.3309ZM327.652 72.3391C327.652 72.4325 327.652 72.52 327.647 72.6133H326.096L326.98 70.6005L327.652 72.3391ZM327.614 73.1793L326.83 74.8129L326.135 73.1793H327.614ZM327.58 77.1641C327.58 77.1758 327.58 77.1933 327.58 77.205H325.941L326.819 75.373L327.58 77.1641ZM327.541 97.5728L327.891 98.623L327.458 99.9474C327.486 99.1714 327.513 98.3779 327.541 97.5728ZM327.491 81.4407L326.741 79.7429L327.558 78.0918C327.541 79.2178 327.519 80.3322 327.491 81.4407ZM327.369 86.5166L326.597 84.638L327.452 83.0277C327.43 84.2062 327.402 85.3673 327.369 86.5166ZM326.485 84.3579L325.746 82.5493H327.452L326.485 84.3579ZM327.236 86.7792H325.463L326.463 84.9005L327.236 86.7792ZM327.319 87.3451L326.28 89.183L325.435 87.3451H327.319ZM327.336 87.7885C327.302 88.9613 327.269 90.1223 327.236 91.2658L326.397 89.4455L327.336 87.7885ZM327.819 107.929L327.074 109.376C327.113 108.506 327.152 107.608 327.191 106.68L327.819 107.929ZM327.086 95.875L326.163 94.2355L327.186 92.7069C327.158 93.7804 327.124 94.8365 327.086 95.875ZM326.019 93.973L325.102 92.3335H327.119L326.019 93.973ZM327.013 96.2776H324.796L326.002 94.4806L327.013 96.2776ZM326.919 96.8493L325.73 98.4654L324.791 96.8493H326.919ZM327.041 97.2169C327.002 98.3371 326.963 99.4398 326.924 100.513L325.907 98.763L327.041 97.2169ZM326.747 104.907L325.73 103.366C326.052 102.946 326.43 102.462 326.863 101.896C326.83 102.923 326.791 103.926 326.747 104.907ZM325.518 103.034L324.513 101.505H326.702C326.335 101.984 325.924 102.514 325.518 103.034ZM326.724 105.519C326.724 105.537 326.724 105.548 326.724 105.566H323.968C324.235 105.268 324.69 104.702 325.502 103.658L326.724 105.519ZM326.485 106.138L325.124 107.748L324.007 106.138H326.485ZM325.341 108.063L326.68 106.476C326.63 107.625 326.585 108.728 326.535 109.79L325.341 108.063ZM326.786 115.432L327.869 117.019L326.619 118.717C326.674 117.731 326.73 116.634 326.786 115.432ZM328.108 117.363L329.336 119.166H326.78L328.108 117.363ZM328.353 117.025L329.297 115.741C329.353 116.791 329.408 117.76 329.453 118.635L328.353 117.025ZM329.353 106.453L330.776 108.057L329.508 109.807C329.458 108.74 329.403 107.62 329.353 106.453ZM332.187 105.052L330.848 103.395L331.865 101.779C331.976 102.905 332.081 103.996 332.187 105.052ZM331.742 100.449L330.509 98.7747L331.459 97.1936C331.554 98.3079 331.648 99.3989 331.742 100.449ZM331.353 95.8925L330.181 94.2005L331.098 92.5844C331.181 93.7163 331.265 94.8131 331.353 95.8925ZM331.037 91.7676H328.897L329.847 89.7372L331.037 91.7384C331.037 91.7501 331.037 91.7618 331.037 91.7676ZM331.003 91.225L329.97 89.4863L330.776 87.771C330.842 88.9437 330.92 90.099 331.003 91.225ZM329.825 89.2471L328.692 87.3451H330.714L329.825 89.2471ZM328.658 86.7792L329.597 84.8772L330.681 86.7792H328.658ZM330.681 86.3066L329.725 84.6205L330.498 83.051C330.553 84.1537 330.614 85.2389 330.681 86.3066ZM330.47 82.5843L329.586 84.3813L328.542 82.5493H330.47C330.47 82.5609 330.47 82.5726 330.47 82.5843ZM330.42 81.6099L329.52 79.8013L330.259 78.226C330.309 79.3754 330.364 80.5014 330.42 81.6099ZM329.392 79.5446L328.514 77.7768H330.22L329.392 79.5446ZM330.203 76.9366L329.358 75.163L330.075 73.5643C330.114 74.702 330.159 75.8281 330.203 76.9366ZM330.031 72.1583L329.281 70.4254L329.936 68.821C329.964 69.9529 329.992 71.0614 330.031 72.1583ZM329.92 68.3776L329.181 70.1979L328.375 68.3367H329.92C329.92 68.3484 329.92 68.3601 329.92 68.3776ZM329.903 67.6541L329.181 66.0613L329.842 64.5211C329.859 65.5712 329.881 66.6214 329.903 67.6541ZM329.825 63.3542L329.142 62.1056L329.792 60.8454C329.797 61.6914 329.814 62.5257 329.825 63.3542ZM329.675 60.6704L329.031 61.9131L328.347 60.6704H329.675ZM328.931 62.1115L328.241 63.4475C328.236 62.584 328.236 61.7147 328.236 60.8512L328.931 62.1115ZM327.98 82.5493H328.003C328.036 83.9729 328.075 85.3848 328.114 86.7734H327.88C327.914 85.3848 327.947 83.9787 327.98 82.5493ZM327.864 87.3451H328.13C328.175 88.8446 328.219 90.3207 328.269 91.7676H327.736C327.78 90.3207 327.819 88.8446 327.864 87.3451ZM327.725 63.3892L327.113 62.1465L327.725 60.9212C327.725 61.7381 327.725 62.5665 327.725 63.3892ZM327.641 60.6704L327.008 61.9364L326.385 60.6704H327.641ZM326.308 60.9154L326.908 62.1406L326.274 63.4067C326.285 62.584 326.296 61.7556 326.308 60.9154ZM326.258 64.3869L326.913 65.9913L326.196 67.5433C326.219 66.5047 326.241 65.4546 326.258 64.3869ZM326.174 68.3309H326.202L326.174 68.3484C326.174 68.3426 326.174 68.3367 326.174 68.3309ZM326.174 68.5059L326.891 70.3554L326.069 72.2283C326.108 71.003 326.141 69.7662 326.174 68.5059ZM326.024 73.4943L326.702 75.0871L325.902 76.7499C325.946 75.6822 325.985 74.597 326.024 73.4943ZM327.463 77.7709L326.619 79.4687L325.869 77.7709H327.463ZM325.841 78.261L326.491 79.7371L325.696 81.3416C325.746 80.3322 325.791 79.3054 325.841 78.261ZM325.663 81.9192L326.613 80.0055L327.486 81.9717C327.486 81.9717 327.486 81.9717 327.486 81.9775H325.663C325.663 81.96 325.663 81.9425 325.663 81.9192ZM325.619 82.8293L326.352 84.6205L325.418 86.3708C325.485 85.2156 325.552 84.0312 325.619 82.8293ZM325.335 87.6719L326.141 89.428L325.096 91.2775C325.18 90.1048 325.257 88.9029 325.335 87.6719ZM326.263 89.6905L327.219 91.7676H325.091L326.263 89.6905ZM324.996 92.6836L325.857 94.218L324.752 95.8691C324.829 94.8306 324.913 93.7746 324.996 92.6836ZM324.64 97.2052L325.53 98.7338L324.368 100.315C324.457 99.3114 324.552 98.2671 324.64 97.2052ZM324.313 100.933L325.702 99.0372L326.808 100.939L324.313 100.933ZM324.235 101.739L325.285 103.337C324.74 104.031 324.24 104.667 323.912 105.07C324.018 103.996 324.129 102.882 324.235 101.739ZM323.768 106.429L324.879 108.034L323.396 109.79C323.523 108.722 323.646 107.602 323.768 106.429ZM323.262 110.992L324.479 112.596L322.851 114.341C322.984 113.296 323.123 112.176 323.262 110.992ZM322.701 115.496L324.174 117.1L322.234 118.909C322.373 117.906 322.534 116.768 322.701 115.496ZM321.578 123.174C321.701 122.445 321.873 121.371 322.073 119.994L323.596 121.546L321.578 123.174ZM322.39 119.732H325.846L323.918 121.284L322.39 119.732ZM325.857 123.262L324.213 121.587L326.035 120.123C325.963 121.494 325.902 122.556 325.857 123.262ZM322.568 119.166L324.446 117.41L326.052 119.166H322.568ZM326.113 118.623L324.746 117.13L326.263 115.718C326.208 116.774 326.158 117.742 326.113 118.623ZM326.324 114.37L325.002 112.631L326.48 111.05C326.43 112.217 326.374 113.326 326.324 114.37ZM326.385 123.063C326.43 122.311 326.491 121.231 326.563 119.866L327.808 121.418L326.385 123.063ZM326.969 119.732H329.258L328.075 121.109L326.969 119.732ZM328.325 121.43L329.525 120.035C329.603 121.377 329.664 122.433 329.709 123.157L328.325 121.43ZM329.742 114.475C329.686 113.401 329.625 112.252 329.57 111.039L331.114 112.655L329.742 114.475ZM329.792 115.473L331.492 117.13L329.975 118.857C329.92 117.853 329.859 116.721 329.792 115.473ZM330.242 123.372C330.198 122.643 330.125 121.476 330.042 119.942L331.97 121.535L330.242 123.372ZM332.254 121.231L330.442 119.732H333.66L332.254 121.231ZM334.515 123.098L332.565 121.488L334.021 119.936C334.226 121.295 334.393 122.357 334.515 123.098ZM333.865 118.868L332.054 117.106L333.41 115.56C333.576 116.785 333.726 117.888 333.865 118.868ZM332.843 111.009C332.982 112.17 333.115 113.273 333.243 114.294L331.637 112.614L332.843 111.009Z" fill="#FFC000"/>
<path d="M347.308 166.173C343.951 158.122 342.551 153.729 342.54 153.682L342.468 153.449H342.434V148.087H341.234L341.156 147.795C339.233 140.432 336.133 126.925 336.099 126.791L336.094 126.78V125.006H336.649V124.288C334.204 124.767 331.726 124.813 329.236 124.662C326.008 125.035 322.779 125.128 319.528 124.516V125H320.278V127.141H320.312C319.806 129.329 317.083 141.097 315.338 147.789L315.26 148.081H314.154V153.513L314.104 153.676C314.088 153.723 312.693 158.11 309.336 166.167C306.346 173.338 302.851 179.697 302.818 179.762L302.501 180.327H316.244L316.199 179.913C316.194 179.861 315.694 174.785 317.761 169.761L317.722 169.738C317.722 169.738 317.722 169.732 317.727 169.726L317.772 169.75C317.8 169.674 320.773 162.002 328.325 161.932C335.871 162.002 338.85 169.674 338.878 169.75L338.922 169.726C338.922 169.732 338.922 169.732 338.922 169.738L338.883 169.761C340.945 174.779 340.45 179.867 340.445 179.913L340.4 180.327H354.143L353.832 179.762C353.788 179.703 350.292 173.344 347.308 166.173ZM346.769 166.506C347.069 167.229 347.375 167.947 347.686 168.647L342.729 165.181L344.974 162.078C345.496 163.402 346.091 164.878 346.769 166.506ZM336.455 143.839L333.137 141.097H338.567L336.455 143.839ZM336.522 144.58L340.161 147.597H334.204L336.522 144.58ZM333.215 140.525L335.371 138.011L338.583 140.525H333.215ZM335.31 137.287L332.654 135.21H337.088L335.31 137.287ZM332.57 134.639L334.393 133.011L336.822 134.639H332.57ZM334.36 132.34L331.97 130.735L336.121 130.764L334.36 132.34ZM331.659 129.633L333.532 128.6L335.871 129.633H331.659ZM333.943 132.707L331.943 134.493C331.776 133.297 331.609 132.13 331.465 131.045L333.943 132.707ZM334.966 137.696L332.771 140.251C332.543 138.711 332.309 137.06 332.076 135.432L334.966 137.696ZM336.127 144.259L333.804 147.276C333.66 146.319 333.343 144.213 332.971 141.646L336.127 144.259ZM334.204 153.816L331.959 156.628L328.914 153.816H334.204ZM334.493 154.505C334.699 155.421 335.171 157.393 336.005 160.356L332.443 157.072L334.493 154.505ZM335.143 154.61L339.095 157.544L336.744 160.724C335.894 157.737 335.388 155.677 335.143 154.61ZM339.617 157.929L344.035 161.208H337.194L339.617 157.929ZM344.274 161.938L342.195 164.808L338.078 161.938H344.274ZM342.323 165.747L347.33 169.242H339.795L342.323 165.747ZM347.675 169.971L345.874 173.875L340.573 169.971H347.675ZM344.402 160.619L340.028 157.375L342.156 154.499C342.468 155.421 343.185 157.492 344.402 160.619ZM341.579 154.184L339.5 156.99L335.721 154.184H341.579ZM340.495 147.182L336.844 144.16L339.033 141.319C339.545 143.402 340.045 145.432 340.495 147.182ZM338.706 139.948L335.716 137.608L337.616 135.391C337.961 136.85 338.328 138.396 338.706 139.948ZM337.372 134.358L334.81 132.643L336.594 131.05C336.822 132.036 337.088 133.157 337.372 134.358ZM336.194 129.347L333.96 128.361L335.738 127.375C335.833 127.783 335.988 128.466 336.194 129.347ZM335.332 127.159L333.51 128.162L331.231 127.159H335.332ZM333.076 128.402L331.248 129.411C331.159 128.705 331.076 128.063 331.003 127.486L333.076 128.402ZM330.792 129.557L328.653 128.437L330.525 127.439C330.598 128.063 330.687 128.781 330.792 129.557ZM330.092 129.633H326.408L328.23 128.664L330.092 129.633ZM330.242 127.147L328.23 128.221L326.18 127.147H330.242ZM325.958 127.474L327.814 128.442L325.696 129.568C325.791 128.804 325.88 128.092 325.958 127.474ZM309.314 169.242L314.321 165.747L316.844 169.242H309.314ZM316.066 169.971L310.759 173.875L308.958 169.971H316.066ZM312.365 161.938H318.555L314.443 164.808L312.365 161.938ZM312.604 161.208L317.016 157.929L319.439 161.208H312.604ZM317.544 157.538L321.495 154.604C321.245 155.677 320.745 157.731 319.889 160.712L317.544 157.538ZM324.513 130.735L322.123 132.34L320.362 130.764L324.513 130.735ZM320.612 129.633L322.918 128.612L324.757 129.633H320.612ZM323.907 134.639H319.656L322.084 133.011L323.907 134.639ZM323.824 135.21L321.167 137.287L319.389 135.21H323.824ZM323.268 140.525H317.905L321.117 138.011L323.268 140.525ZM323.346 141.091L320.028 143.833L317.916 141.091H323.346ZM322.279 147.597H316.316L319.956 144.58L322.279 147.597ZM322.184 154.312L324.363 157.043L320.595 160.467C321.517 157.212 322.006 155.135 322.184 154.312ZM322.629 153.816H327.914L324.852 156.599L322.629 153.816ZM320.35 144.259L323.507 141.646C323.129 144.213 322.818 146.319 322.673 147.276L320.35 144.259ZM321.517 137.696L324.402 135.438C324.174 137.066 323.935 138.717 323.707 140.257L321.517 137.696ZM322.54 132.707L325.018 131.045C324.874 132.136 324.713 133.302 324.54 134.493L322.54 132.707ZM323.368 128.419L325.474 127.491C325.402 128.075 325.318 128.734 325.224 129.446L323.368 128.419ZM325.252 127.159L322.934 128.18L321.084 127.159H325.252ZM320.734 127.404L322.484 128.372L320.284 129.347C320.484 128.489 320.639 127.818 320.734 127.404ZM319.889 131.05L321.673 132.643L319.111 134.358C319.395 133.157 319.656 132.036 319.889 131.05ZM318.867 135.385L320.767 137.602L317.777 139.942C318.155 138.396 318.522 136.85 318.867 135.385ZM317.444 141.319L319.634 144.16L315.983 147.182C316.433 145.432 316.938 143.402 317.444 141.319ZM320.912 154.184L317.133 156.99L315.06 154.184H320.912ZM314.482 154.499L316.61 157.375L312.237 160.619C313.448 157.492 314.171 155.421 314.482 154.499ZM309.87 166.506C310.548 164.878 311.142 163.402 311.665 162.078L313.91 165.181L308.953 168.647C309.258 167.947 309.564 167.229 309.87 166.506ZM308.314 170.071L310.242 174.254L304.029 178.828C304.946 177.095 306.608 173.857 308.314 170.071ZM304.14 179.604L310.542 174.896L312.709 179.604H304.14ZM315.566 179.604H313.754C314.126 178.834 314.849 177.276 315.76 175.018C315.471 177.148 315.521 178.851 315.566 179.604ZM313.232 179.242L311.053 174.516L316.905 170.211C315.238 174.954 313.799 178.07 313.232 179.242ZM317.372 168.863L314.849 165.374L319.478 162.142C319.072 163.519 318.605 165.059 318.061 166.763C317.827 167.492 317.6 168.186 317.372 168.863ZM318.717 166.733C319.278 164.954 319.761 163.355 320.178 161.938H324.474C321.745 163.005 319.872 165.047 318.717 166.733ZM320.789 161.208L324.791 157.573L327.691 161.208H320.789ZM328.114 160.689L325.268 157.13L328.114 154.545V160.689ZM323.029 148.093L323.051 147.935C323.068 147.807 324.618 137.538 325.535 130.724L328.241 130.706L330.948 130.724C331.865 137.538 333.41 147.807 333.432 147.935L333.454 148.093H323.029ZM328.719 154.557L331.542 157.159L328.719 160.695V154.557ZM332.02 157.603L335.927 161.208H329.147L332.02 157.603ZM332.165 161.938H336.46C336.872 163.355 337.355 164.954 337.922 166.733C336.766 165.047 334.893 163.005 332.165 161.938ZM338.578 166.763C338.039 165.059 337.566 163.519 337.161 162.142L341.79 165.374L339.267 168.863C339.039 168.186 338.811 167.492 338.578 166.763ZM341.067 179.604C341.112 178.851 341.162 177.148 340.878 175.018C341.784 177.276 342.512 178.834 342.884 179.604H341.067ZM339.734 170.211L345.585 174.516L343.407 179.242C342.834 178.07 341.401 174.954 339.734 170.211ZM343.929 179.604L346.096 174.896L352.493 179.604H343.929ZM346.391 174.254L348.319 170.071C350.031 173.857 351.692 177.095 352.604 178.828L346.391 174.254Z" fill="#FFC000"/>
<path d="M336.516 130.765L336.539 130.8C336.539 130.788 336.533 130.776 336.527 130.765H336.516Z" fill="#FFC000"/>
<path d="M319.945 130.8L319.967 130.765H319.956C319.956 130.776 319.95 130.788 319.945 130.8Z" fill="#FFC000"/>
<path d="M328.792 153.361H328.097V161.512H328.792V153.361Z" fill="#FFD143"/>
<path d="M311.904 153.629C311.887 153.676 310.276 158.064 306.391 166.121C302.946 173.285 298.906 179.645 298.861 179.709L298.5 180.281H311.081L311.187 180.112C311.215 180.065 314.065 175.298 317.133 166.973C320.267 158.449 321.34 153.898 321.351 153.851L321.456 153.396H311.993L311.904 153.629ZM320.562 154.125C320.217 155.461 319.039 159.756 316.483 166.704C313.765 174.085 311.226 178.636 310.698 179.546H299.8C300.867 177.819 304.146 172.41 307.019 166.448C310.414 159.4 312.087 155.135 312.471 154.125H320.562Z" fill="#FFD143"/>
<path d="M331.144 126.888L331.011 127.272L337.848 129.882L337.981 129.498L331.144 126.888Z" fill="#FFD143"/>
<path d="M336.868 126.893L331.448 129.489L331.609 129.861L337.029 127.265L336.868 126.893Z" fill="#FFD143"/>
<path d="M325.451 126.909L325.297 127.284L331.447 130.064L331.601 129.688L325.451 126.909Z" fill="#FFD143"/>
<path d="M330.953 126.902L324.928 129.692L325.085 130.065L331.11 127.276L330.953 126.902Z" fill="#FFD143"/>
<path d="M337.322 126.733L337.266 126.523H330.765L330.809 126.85C331.565 132.527 334.21 147.725 334.238 147.877L334.277 148.11H343.274L343.163 147.737C340.94 140.38 337.355 126.873 337.322 126.733ZM334.732 147.544C334.399 145.631 332.143 132.591 331.393 127.101H336.85C337.305 128.816 340.451 140.619 342.529 147.544H334.732Z" fill="#FFD143"/>
<path d="M338.901 134.716L333.335 140.34L333.709 140.747L339.275 135.123L338.901 134.716Z" fill="#FFD143"/>
<path d="M332.57 134.632L332.275 135.112L340.646 140.786L340.941 140.306L332.57 134.632Z" fill="#FFD143"/>
<path d="M337.645 130.479L332.266 134.637L332.589 135.097L337.968 130.939L337.645 130.479Z" fill="#FFD143"/>
<path d="M331.812 130.25L331.551 130.745L338.961 135.051L339.222 134.556L331.812 130.25Z" fill="#FFD143"/>
<path d="M339.278 134.586H332.426V135.152H339.278V134.586Z" fill="#FFD143"/>
<path d="M340.951 140.467H333.293V141.039H340.951V140.467Z" fill="#FFD143"/>
<path d="M340.599 140.56L334.301 147.627L334.698 148.018L340.997 140.95L340.599 140.56Z" fill="#FFD143"/>
<path d="M333.176 141.208L342.746 148.063L343.051 147.591L333.482 140.735L333.176 141.208Z" fill="#FFD143"/>
<path d="M327.775 129.58V130.648L338.372 130.712L338.067 129.58H327.775Z" fill="#FFC000"/>
<path d="M319.167 126.733C319.134 126.867 315.549 140.374 313.326 147.737L313.215 148.11H322.212L322.251 147.877C322.279 147.725 324.924 132.527 325.68 126.85L325.724 126.523H319.223L319.167 126.733ZM325.096 127.101C324.346 132.585 322.084 145.631 321.757 147.544H313.96C316.033 140.619 319.184 128.816 319.639 127.101H325.096Z" fill="#FFD143"/>
<path d="M317.588 134.717L317.214 135.124L322.779 140.749L323.153 140.341L317.588 134.717Z" fill="#FFD143"/>
<path d="M323.917 134.639L315.538 140.3L315.83 140.776L324.208 135.115L323.917 134.639Z" fill="#FFD143"/>
<path d="M318.848 130.482L318.524 130.942L323.902 135.103L324.225 134.642L318.848 130.482Z" fill="#FFD143"/>
<path d="M324.675 130.244L317.268 134.554L317.529 135.049L324.936 130.739L324.675 130.244Z" fill="#FFD143"/>
<path d="M324.063 134.586H317.211V135.152H324.063V134.586Z" fill="#FFD143"/>
<path d="M323.196 140.467H315.533V141.039H323.196V140.467Z" fill="#FFD143"/>
<path d="M315.888 140.563L315.494 140.949L321.785 148.025L322.179 147.639L315.888 140.563Z" fill="#FFD143"/>
<path d="M323.002 140.73L313.434 147.59L313.741 148.062L323.309 141.202L323.002 140.73Z" fill="#FFD143"/>
<path d="M318.834 161.15H309.131V161.879H318.834V161.15Z" fill="#FFD143"/>
<path d="M312.493 153.515L311.976 154.002L318.363 161.476L318.88 160.989L312.493 153.515Z" fill="#FFD143"/>
<path d="M320.824 153.45L308.751 161.205L309.114 161.827L321.187 154.072L320.824 153.45Z" fill="#FFD143"/>
<path d="M321.522 153.506L321.022 154.013L328.079 161.669L328.578 161.162L321.522 153.506Z" fill="#FFD143"/>
<path d="M328.236 153.464L318.717 160.957L319.133 161.54L328.653 154.048L328.236 153.464Z" fill="#FFD143"/>
<path d="M335.371 153.498L328.32 161.159L328.819 161.665L335.871 154.004L335.371 153.498Z" fill="#FFD143"/>
<path d="M328.659 153.464L328.239 154.045L337.62 161.536L338.04 160.956L328.659 153.464Z" fill="#FFD143"/>
<path d="M315.821 169.184H305.068V169.913H315.821V169.184Z" fill="#FFD143"/>
<path d="M309.397 161.28L308.875 161.76L315.343 169.51L315.866 169.029L309.397 161.28Z" fill="#FFD143"/>
<path d="M318.182 161.212L304.887 169.23L305.233 169.862L318.528 161.844L318.182 161.212Z" fill="#FFD143"/>
<path d="M305.68 169.374L305.073 169.729L310.59 180.094L311.196 179.739L305.68 169.374Z" fill="#FFD143"/>
<path d="M315.23 169.217L298.978 179.616L299.339 180.239L315.591 169.84L315.23 169.217Z" fill="#FFD143"/>
<path d="M350.27 166.121C346.391 158.069 344.774 153.676 344.758 153.629L344.674 153.396H335.21L335.316 153.851C335.327 153.898 336.4 158.449 339.534 166.973C342.601 175.304 345.452 180.065 345.48 180.112L345.58 180.281H357.511H358.161L357.8 179.709C357.761 179.645 353.721 173.285 350.27 166.121ZM345.969 179.546C345.441 178.63 342.901 174.085 340.184 166.704C337.628 159.75 336.45 155.461 336.105 154.125H344.202C344.585 155.141 346.258 159.4 349.653 166.448C352.526 172.41 355.805 177.825 356.872 179.546H345.969Z" fill="#FFD143"/>
<path d="M347.53 161.15H337.828V161.879H347.53V161.15Z" fill="#FFD143"/>
<path d="M344.174 153.516L337.79 160.992L338.307 161.479L344.691 154.003L344.174 153.516Z" fill="#FFD143"/>
<path d="M335.841 153.452L335.479 154.074L347.552 161.831L347.914 161.209L335.841 153.452Z" fill="#FFD143"/>
<path d="M351.593 169.184H340.84V169.913H351.593V169.184Z" fill="#FFD143"/>
<path d="M347.271 161.287L340.789 169.023L341.311 169.505L347.793 161.769L347.271 161.287Z" fill="#FFD143"/>
<path d="M338.487 161.205L338.14 161.837L351.427 169.871L351.774 169.239L338.487 161.205Z" fill="#FFD143"/>
<path d="M350.983 169.369L345.479 179.741L346.086 180.096L351.59 169.724L350.983 169.369Z" fill="#FFD143"/>
<path d="M341.419 169.239L341.059 169.862L357.325 180.224L357.686 179.601L341.419 169.239Z" fill="#FFD143"/>
<path d="M325.308 126.907L318.472 129.517L318.605 129.901L325.441 127.29L325.308 126.907Z" fill="#FFD143"/>
<path d="M319.581 126.902L319.419 127.273L324.841 129.867L325.002 129.495L319.581 126.902Z" fill="#FFD143"/>
<path d="M337.961 123.752H318.172V124.948H337.961V123.752Z" fill="#FFD143"/>
<path d="M337.316 124.953H319.039V127.095H337.316V124.953Z" fill="#FFD143"/>
<path d="M319.039 127.095H319.5L320.395 125.659L337.316 125.397V124.953H319.039V127.095Z" fill="#FFC000"/>
<path d="M344.635 148.034H311.965V150.899H344.635V148.034Z" fill="#FFD143"/>
<path d="M344.635 150.899H311.965V153.764H344.635V150.899Z" fill="#FFD143"/>
<path d="M318.111 130.712L328.714 130.648V129.58H318.422L318.111 130.712Z" fill="#FFC000"/>
<path d="M312.382 150.689H312.782L313.799 149.4L344.118 148.682V148.431H312.382V150.689Z" fill="#FFC000"/>
<path d="M312.382 153.361H312.782L313.799 152.072L344.118 151.348V151.103H312.382V153.361Z" fill="#FFC000"/>
<path d="M344.635 150.689H311.965V151.103H344.635V150.689Z" fill="#FFC000"/>
<path d="M338.305 161.15H318.355V161.879H338.305V161.15Z" fill="#FFD143"/>
<path d="M315.505 169.4L316.138 169.703C316.172 169.627 319.639 161.885 328.447 161.879V161.15C319.184 161.15 315.544 169.318 315.505 169.4Z" fill="#FFD143"/>
<path d="M328.219 161.15V161.879C337.027 161.885 340.489 169.627 340.523 169.703L341.156 169.4C341.123 169.318 337.483 161.15 328.219 161.15Z" fill="#FFD143"/>
<path d="M315.516 169.388C313.404 173.828 313.51 178.204 313.604 179.552H310.893V180.281H314.382L314.332 179.867C314.327 179.814 313.749 174.738 316.138 169.709L315.516 169.388Z" fill="#FFD143"/>
<path d="M341.151 169.388L340.528 169.715C342.912 174.732 342.34 179.82 342.334 179.872L342.284 180.287H345.774V179.557H343.062C343.162 178.204 343.268 173.828 341.151 169.388Z" fill="#FFD143"/>
<path d="M333.754 105.846L333.699 105.788C332.332 94.7489 330.959 79.2062 330.753 60.3495L330.748 60.0344H325.424L325.419 60.3495C324.996 99.1481 319.634 123.973 319.578 124.218L320.173 124.364C320.178 124.347 320.223 124.143 320.289 123.798L323.162 121.844L325.458 123.81C325.435 124.09 325.43 124.242 325.424 124.265L326.03 124.312C326.03 124.288 326.047 124.084 326.069 123.722L328.103 121.733L330.114 123.845C330.137 124.131 330.148 124.294 330.148 124.312L330.753 124.259C330.753 124.242 330.742 124.125 330.731 123.927L333.11 121.791L335.883 123.722C335.96 124.113 336.01 124.335 336.016 124.358L336.605 124.213C336.577 124.084 335.149 117.491 333.71 105.887L333.754 105.846ZM333.588 109.662L331.876 108.034L333.176 106.517C333.31 107.614 333.449 108.658 333.588 109.662ZM332.493 116.82L330.615 115.28H334.099L332.493 116.82ZM332.515 117.415L334.643 119.166H330.692L332.515 117.415ZM330.47 114.714L332.048 112.946L334.054 114.714H330.47ZM332.009 112.322L330.198 110.723H333.438L332.009 112.322ZM330.053 110.152L331.609 108.337L333.515 110.152H330.053ZM322.168 114.714L324.152 112.923L325.763 114.714H322.168ZM325.802 115.28L323.84 116.826L322.162 115.28H325.802ZM322.762 110.723H325.924L324.179 112.299L322.762 110.723ZM322.785 110.152L324.591 108.349L326.074 110.152H322.785ZM327.664 64.2994L326.858 65.7696L326.147 64.2994H327.664ZM326.035 63.7276L326.852 62.3507L327.658 63.7276H326.035ZM329.303 65.8338L328.475 64.2935H330.087L329.303 65.8338ZM329.309 66.2889L330.109 67.7708H328.558L329.309 66.2889ZM328.386 63.7276L329.259 62.304L330.187 63.7276H328.386ZM329.192 66.0613L328.342 67.73C328.331 66.6331 328.319 65.5362 328.319 64.4394L329.192 66.0613ZM328.347 68.3309H328.353H328.347C328.347 68.3367 328.347 68.3367 328.347 68.3309ZM329.781 105.566L331.159 103.716L332.926 105.566H329.781ZM332.971 106.138L331.581 107.754L329.887 106.138H332.971ZM326.786 114.714L328.086 112.876L329.436 114.714H326.786ZM329.381 115.28L328.164 116.675L327.03 115.28H329.381ZM327.547 96.0617L328.042 94.1305L328.52 96.0967C328.525 96.155 328.525 96.2134 328.525 96.2776H327.536C327.541 96.2075 327.541 96.1317 327.547 96.0617ZM326.78 75.0988L327.591 73.6752C327.575 74.6554 327.558 75.6355 327.536 76.6099L326.78 75.0988ZM328.553 96.8493C328.553 96.8785 328.558 96.9077 328.558 96.931L328.036 98.2671L327.508 96.931C327.508 96.9018 327.514 96.8727 327.514 96.8435H328.553V96.8493ZM328.586 97.5728C328.62 98.3779 328.658 99.1656 328.697 99.9474L328.175 98.623L328.586 97.5728ZM328.036 98.9847L328.731 100.758C328.736 100.817 328.736 100.881 328.742 100.939H327.336C327.336 100.881 327.341 100.817 327.347 100.758L328.036 98.9847ZM328.803 102.188C328.842 102.987 328.881 103.769 328.92 104.533L328.275 103.255L328.803 102.188ZM328.053 102.812L327.391 101.505H328.692L328.053 102.812ZM327.83 103.261L327.164 104.621C327.202 103.821 327.241 103.005 327.28 102.17L327.83 103.261ZM328.058 103.711L328.975 105.525C328.975 105.537 328.975 105.554 328.975 105.566H327.147L328.058 103.711ZM329.036 106.692C329.086 107.637 329.136 108.559 329.186 109.452L328.281 107.929L329.036 106.692ZM328.986 92.6952L330.242 94.2239L329.12 95.8925C329.075 94.8365 329.031 93.7746 328.986 92.6952ZM329.175 97.2169L330.559 98.798L329.331 100.531C329.281 99.4515 329.225 98.3429 329.175 97.2169ZM328.903 106.138L328.047 107.544L327.208 106.138H328.903ZM329.142 110.152H326.919L328.042 108.314L329.142 110.152ZM329.075 110.723L328.08 112.124L327.047 110.723H329.075ZM327.814 112.503L326.663 114.125C326.719 113.191 326.775 112.205 326.83 111.167L327.814 112.503ZM328.353 112.497L329.286 111.179C329.342 112.165 329.403 113.104 329.453 113.991L328.353 112.497ZM329.398 101.867L330.881 103.425L329.564 105.192C329.509 104.113 329.453 103.01 329.398 101.867ZM331.126 103.098L329.609 101.505H332.315L331.126 103.098ZM329.47 100.933L330.792 99.0664L332.421 100.933H329.47ZM330.77 98.5063L329.32 96.8493H331.943L330.77 98.5063ZM329.209 96.2776L330.437 94.4572L331.937 96.2776H329.209ZM330.414 93.9613L329.081 92.3394H331.509L330.414 93.9613ZM328.942 91.5109C328.892 90.2682 328.847 89.0079 328.803 87.7302L330.053 89.5038L328.942 91.5109ZM328.753 86.3533C328.714 85.2448 328.681 84.1187 328.647 82.9869L329.759 84.6321L328.753 86.3533ZM328.625 81.9833L329.681 80.0697L330.803 81.9833H328.625ZM328.603 81.4816C328.57 80.3555 328.542 79.2237 328.514 78.0801L329.531 79.8071L328.603 81.4816ZM328.486 76.7849C328.464 75.7056 328.442 74.6145 328.419 73.5235L329.342 75.163L328.486 76.7849ZM329.498 75.4372L330.492 77.205H328.564L329.498 75.4372ZM329.492 74.8946L328.531 73.1851H330.403L329.492 74.8946ZM328.492 72.6133L329.431 70.6647L330.431 72.6133H328.492ZM328.397 72.3216C328.375 71.0731 328.358 69.8128 328.347 68.5526L329.309 70.4313L328.397 72.3216ZM328.381 92.8119C328.414 93.6229 328.447 94.4222 328.481 95.2157L328.131 93.7804L328.381 92.8119ZM328.047 93.4245L327.786 92.3394H328.331L328.047 93.4245ZM327.958 93.7746L327.58 95.239C327.614 94.3814 327.647 93.5121 327.68 92.6369L327.958 93.7746ZM327.625 71.8549L326.941 70.3613L327.658 68.9727C327.647 69.9354 327.636 70.898 327.625 71.8549ZM327.675 67.4557L326.975 66.003L327.697 64.6844C327.686 65.6063 327.68 66.5339 327.675 67.4557ZM327.591 67.765H326.008L326.847 66.2247L327.591 67.765ZM327.664 68.3309C327.664 68.3892 327.664 68.4534 327.664 68.5118L326.83 70.1221L326.013 68.3367H327.664V68.3309ZM327.614 72.3391C327.614 72.4325 327.608 72.52 327.608 72.6133H325.769L326.813 70.6005L327.614 72.3391ZM327.569 73.1793L326.636 74.8129L325.813 73.1793H327.569ZM327.525 77.1641C327.525 77.1758 327.525 77.1933 327.525 77.205H325.58L326.625 75.373L327.525 77.1641ZM327.486 97.5728L327.897 98.623L327.38 99.9474C327.414 99.1714 327.447 98.3779 327.486 97.5728ZM327.425 81.4407L326.536 79.7429L327.508 78.0918C327.48 79.2178 327.458 80.3322 327.425 81.4407ZM327.28 86.5166L326.369 84.638L327.386 83.0277C327.353 84.2062 327.319 85.3673 327.28 86.5166ZM326.236 84.3579L325.358 82.5493H327.38L326.236 84.3579ZM327.119 86.7792H325.019L326.202 84.9005L327.119 86.7792ZM327.225 87.3451L325.991 89.183L324.991 87.3451H327.225ZM327.241 87.7885C327.202 88.9613 327.164 90.1223 327.125 91.2658L326.136 89.4455L327.241 87.7885ZM327.808 107.929L326.925 109.376C326.969 108.506 327.019 107.608 327.064 106.68L327.808 107.929ZM326.947 95.875L325.858 94.2355L327.075 92.7069C327.03 93.7804 326.986 94.8365 326.947 95.875ZM325.68 93.973L324.591 92.3335H326.986L325.68 93.973ZM326.858 96.2776H324.229L325.663 94.4806L326.858 96.2776ZM326.747 96.8493L325.341 98.4654L324.224 96.8493H326.747ZM326.891 97.2169C326.847 98.3371 326.797 99.4398 326.747 100.513L325.541 98.763L326.891 97.2169ZM326.541 104.907L325.341 103.366C325.724 102.946 326.169 102.462 326.686 101.896C326.641 102.923 326.591 103.926 326.541 104.907ZM325.085 103.034L323.89 101.505H326.486C326.052 101.984 325.569 102.514 325.085 103.034ZM326.513 105.519C326.513 105.537 326.513 105.548 326.513 105.566H323.251C323.563 105.268 324.107 104.702 325.069 103.658L326.513 105.519ZM326.236 106.138L324.618 107.748L323.296 106.138H326.236ZM324.88 108.063L326.469 106.476C326.413 107.625 326.352 108.728 326.297 109.79L324.88 108.063ZM326.591 115.432L327.875 117.019L326.397 118.717C326.452 117.731 326.519 116.634 326.591 115.432ZM328.153 117.363L329.609 119.166H326.58L328.153 117.363ZM328.447 117.025L329.564 115.741C329.631 116.791 329.692 117.76 329.748 118.635L328.447 117.025ZM329.631 106.453L331.32 108.057L329.82 109.807C329.753 108.74 329.692 107.62 329.631 106.453ZM332.993 105.052L331.409 103.395L332.615 101.779C332.737 102.905 332.865 103.996 332.993 105.052ZM332.465 100.449L331.004 98.7747L332.132 97.1936C332.237 98.3079 332.354 99.3989 332.465 100.449ZM332.004 95.8925L330.609 94.2005L331.698 92.5844C331.798 93.7163 331.898 94.8131 332.004 95.8925ZM331.631 91.7676H329.097L330.22 89.7372L331.631 91.7384C331.631 91.7501 331.631 91.7618 331.631 91.7676ZM331.587 91.225L330.359 89.4863L331.309 87.771C331.398 88.9437 331.493 90.099 331.587 91.225ZM330.192 89.2471L328.853 87.3451H331.248L330.192 89.2471ZM328.808 86.7792L329.92 84.8772L331.204 86.7792H328.808ZM331.204 86.3066L330.064 84.6205L330.981 83.051C331.054 84.1537 331.126 85.2389 331.204 86.3066ZM330.954 82.5843L329.903 84.3813L328.67 82.5493H330.954C330.954 82.5609 330.954 82.5726 330.954 82.5843ZM330.892 81.6099L329.831 79.8013L330.703 78.226C330.765 79.3754 330.826 80.5014 330.892 81.6099ZM329.681 79.5446L328.642 77.7768H330.665L329.681 79.5446ZM330.642 76.9366L329.642 75.163L330.492 73.5643C330.537 74.702 330.587 75.8281 330.642 76.9366ZM330.431 72.1583L329.542 70.4254L330.314 68.821C330.353 69.9529 330.392 71.0614 330.431 72.1583ZM330.303 68.3776L329.425 70.1979L328.469 68.3367H330.303C330.303 68.3484 330.303 68.3601 330.303 68.3776ZM330.287 67.6541L329.425 66.0613L330.209 64.5211C330.231 65.5712 330.253 66.6214 330.287 67.6541ZM330.192 63.3542L329.381 62.1056L330.153 60.8454C330.159 61.6914 330.176 62.5257 330.192 63.3542ZM330.014 60.6704L329.253 61.9131L328.442 60.6704H330.014ZM329.131 62.1115L328.314 63.4475C328.308 62.584 328.308 61.7147 328.308 60.8512L329.131 62.1115ZM328.003 82.5493H328.025C328.064 83.9729 328.108 85.3848 328.158 86.7734H327.88C327.925 85.3848 327.964 83.9787 328.003 82.5493ZM327.864 87.3451H328.181C328.231 88.8446 328.286 90.3207 328.342 91.7676H327.714C327.764 90.3207 327.814 88.8446 327.864 87.3451ZM327.697 63.3892L326.975 62.1465L327.703 60.9212C327.703 61.7381 327.697 62.5665 327.697 63.3892ZM327.603 60.6704L326.852 61.9364L326.119 60.6704H327.603ZM326.019 60.9154L326.73 62.1406L325.98 63.4067C325.997 62.584 326.008 61.7556 326.019 60.9154ZM325.963 64.3869L326.736 65.9913L325.885 67.5433C325.919 66.5047 325.941 65.4546 325.963 64.3869ZM325.869 68.3309H325.897L325.863 68.3484C325.863 68.3426 325.863 68.3367 325.869 68.3309ZM325.863 68.5059L326.708 70.3554L325.735 72.2283C325.78 71.003 325.824 69.7662 325.863 68.5059ZM325.685 73.4943L326.486 75.0871L325.541 76.7499C325.591 75.6822 325.641 74.597 325.685 73.4943ZM327.391 77.7709L326.391 79.4687L325.496 77.7709H327.391ZM325.463 78.261L326.236 79.7371L325.291 81.3416C325.352 80.3322 325.413 79.3054 325.463 78.261ZM325.257 81.9192L326.38 80.0055L327.414 81.9717C327.414 81.9717 327.414 81.9717 327.414 81.9775H325.257C325.257 81.96 325.257 81.9425 325.257 81.9192ZM325.202 82.8293L326.069 84.6205L324.963 86.3708C325.046 85.2156 325.124 84.0312 325.202 82.8293ZM324.868 87.6719L325.824 89.428L324.585 91.2775C324.68 90.1048 324.78 88.9029 324.868 87.6719ZM325.969 89.6905L327.102 91.7676H324.58L325.969 89.6905ZM324.463 92.6836L325.485 94.218L324.174 95.8691C324.274 94.8306 324.368 93.7746 324.463 92.6836ZM324.04 97.2052L325.096 98.7338L323.718 100.315C323.829 99.3114 323.94 98.2671 324.04 97.2052ZM323.657 100.933L325.308 99.0372L326.619 100.939L323.657 100.933ZM323.568 101.739L324.813 103.337C324.168 104.031 323.574 104.667 323.185 105.07C323.307 103.996 323.44 102.882 323.568 101.739ZM323.012 106.429L324.335 108.034L322.579 109.79C322.718 108.722 322.868 107.602 323.012 106.429ZM322.412 110.992L323.857 112.596L321.929 114.341C322.079 113.296 322.246 112.176 322.412 110.992ZM321.745 115.496L323.49 117.1L321.19 118.909C321.362 117.906 321.545 116.768 321.745 115.496ZM320.412 123.174C320.556 122.445 320.756 121.371 321.001 119.994L322.807 121.546L320.412 123.174ZM321.379 119.732H325.48L323.19 121.284L321.379 119.732ZM325.491 123.262L323.54 121.587L325.696 120.123C325.608 121.494 325.541 122.556 325.491 123.262ZM321.59 119.166L323.818 117.41L325.724 119.166H321.59ZM325.791 118.623L324.168 117.13L325.963 115.718C325.902 116.774 325.847 117.742 325.791 118.623ZM326.041 114.37L324.474 112.631L326.224 111.05C326.163 112.217 326.102 113.326 326.041 114.37ZM326.113 123.063C326.163 122.311 326.236 121.231 326.324 119.866L327.797 121.418L326.113 123.063ZM326.802 119.732H329.514L328.108 121.109L326.802 119.732ZM328.414 121.43L329.837 120.035C329.925 121.377 330.003 122.433 330.053 123.157L328.414 121.43ZM330.092 114.475C330.025 113.401 329.959 112.252 329.887 111.039L331.715 112.655L330.092 114.475ZM330.153 115.473L332.171 117.13L330.37 118.857C330.303 117.853 330.231 116.721 330.153 115.473ZM330.681 123.372C330.626 122.643 330.542 121.476 330.442 119.942L332.732 121.535L330.681 123.372ZM333.071 121.231L330.92 119.732H334.738L333.071 121.231ZM335.755 123.098L333.449 121.488L335.171 119.936C335.405 121.295 335.61 122.357 335.755 123.098ZM334.982 118.868L332.832 117.106L334.438 115.56C334.638 116.785 334.816 117.888 334.982 118.868ZM333.771 111.009C333.932 112.17 334.093 113.273 334.249 114.294L332.343 112.614L333.771 111.009Z" fill="#FFD143"/>
<path d="M325.808 58.2491H323.968L325.43 60.3553H325.841H330.331H330.742L332.198 58.2491H330.364H325.808Z" fill="#FFD143"/>
<path opacity="0.4" d="M327.508 59.7719C326.202 59.6377 324.913 59.3051 324.068 58.2491H323.974L325.435 60.3495H330.742L331.509 59.2468C331.303 59.3693 331.081 59.4801 330.848 59.556C329.759 59.8944 328.625 59.8885 327.508 59.7719Z" fill="#FFC000"/>
<path d="M324.207 58.5875C324.363 58.5583 325.035 58.4591 326.374 58.4708C328.114 58.4883 329.637 58.3541 330.498 59.2993C330.904 59.7427 330.259 60.3495 330.259 60.3495H330.742L332.204 58.2491H323.968L324.207 58.5875Z" fill="#FFC000"/>
<path d="M325.752 55.682H323.968V58.2491H325.752H330.42H332.198V55.682H330.42H325.752Z" fill="#FFD143"/>
<path d="M324.224 57.4907C324.135 57.4848 324.052 57.4731 323.968 57.4615V58.2491H332.198V56.5338C329.659 57.409 326.847 57.6423 324.224 57.4907Z" fill="#FFC000"/>
<path d="M329.803 52.0297H328.23H327.936H326.363C325.285 52.5081 325.124 53.8558 325.124 53.8558H327.941H328.236H331.053C331.042 53.8558 330.881 52.5081 329.803 52.0297Z" fill="#FFD143"/>
<path d="M325.224 53.4008C325.141 53.6633 325.113 53.8558 325.113 53.8558H331.042C331.042 53.8558 331.003 53.5349 330.837 53.144C329.186 53.6633 326.941 54.0309 325.224 53.4008Z" fill="#FFC000"/>
</g>
<defs>
<filter id="filter0_d_1631_1059" x="0" y="0" width="418" height="245" filterUnits="userSpaceOnUse" color-interpolation-filters="sRGB">
<feFlood flood-opacity="0" result="BackgroundImageFix"/>
<feColorMatrix in="SourceAlpha" type="matrix" values="0 0 0 0 0 0 0 0 0 0 0 0 0 0 0 0 0 0 127 0" result="hardAlpha"/>
<feOffset dy="10"/>
<feGaussianBlur stdDeviation="15"/>
<feColorMatrix type="matrix" values="0 0 0 0 0.211765 0 0 0 0 0.623529 0 0 0 0 1 0 0 0 0.4 0"/>
<feBlend mode="normal" in2="BackgroundImageFix" result="effect1_dropShadow_1631_1059"/>
<feBlend mode="normal" in="SourceGraphic" in2="effect1_dropShadow_1631_1059" result="shape"/>
</filter>
<clipPath id="clip0_1631_1059">
<rect width="59.6667" height="135.667" fill="white" transform="translate(298.5 44.6667)"/>
</clipPath>
</defs>
</svg>
