<svg width="418" height="245" viewBox="0 0 418 245" fill="none" xmlns="http://www.w3.org/2000/svg">
<g filter="url(#filter0_d_1226_306)">
<rect x="30" y="20" width="358" height="185" fill="#FF993A"/>
</g>
<path opacity="0.4" fill-rule="evenodd" clip-rule="evenodd" d="M126.206 20C124.988 28.5218 117.525 52.4859 86.7832 63.356C56.9562 73.9025 37.3071 70.2754 30.0004 66.8667L30.0004 39.8011C30.1071 28.847 39.0201 20 49.9994 20L126.206 20Z" fill="#FF7E07"/>
<path opacity="0.4" fill-rule="evenodd" clip-rule="evenodd" d="M388 106.339V185C388 196.028 379.074 204.972 368.053 205H226.074C232.5 186.5 259.341 149.5 315.299 149.5C371.249 149.5 387.078 120.73 388 106.339Z" fill="#FF7E07"/>
<path d="M60.074 90.9667L62.966 82.3267H64.454L67.346 90.9667H66.236L63.53 82.9507H63.866L61.184 90.9667H60.074ZM61.466 88.9447V87.9427H65.954V88.9447H61.466ZM68.5401 90.9667V82.1467H69.6081V90.9667H68.5401ZM71.5284 90.9667V82.1467H72.5964V90.9667H71.5284ZM80.417 90.9667C80.033 91.0427 79.653 91.0727 79.277 91.0567C78.905 91.0447 78.573 90.9707 78.281 90.8347C77.989 90.6947 77.767 90.4787 77.615 90.1867C77.487 89.9307 77.417 89.6727 77.405 89.4127C77.397 89.1487 77.393 88.8507 77.393 88.5187V82.6867H78.461V88.4707C78.461 88.7347 78.463 88.9607 78.467 89.1487C78.475 89.3367 78.517 89.4987 78.593 89.6347C78.737 89.8907 78.965 90.0407 79.277 90.0847C79.593 90.1287 79.973 90.1167 80.417 90.0487V90.9667ZM76.079 85.3687V84.4867H80.417V85.3687H76.079ZM81.8526 83.3407V82.2367H82.9206V83.3407H81.8526ZM81.8526 90.9667V84.4867H82.9206V90.9667H81.8526ZM92.4669 90.9667L92.4729 86.8207C92.4729 86.3367 92.3429 85.9587 92.0829 85.6867C91.8269 85.4107 91.4929 85.2727 91.0809 85.2727C90.8409 85.2727 90.6129 85.3287 90.3969 85.4407C90.1809 85.5487 90.0049 85.7207 89.8689 85.9567C89.7329 86.1887 89.6649 86.4867 89.6649 86.8507L89.1009 86.6227C89.0929 86.1627 89.1869 85.7607 89.3829 85.4167C89.5829 85.0687 89.8549 84.7987 90.1989 84.6067C90.5429 84.4147 90.9309 84.3187 91.3629 84.3187C92.0389 84.3187 92.5709 84.5247 92.9589 84.9367C93.3469 85.3447 93.5409 85.8947 93.5409 86.5867L93.5349 90.9667H92.4669ZM84.7149 90.9667V84.4867H85.6689V86.2207H85.7889V90.9667H84.7149ZM88.5969 90.9667L88.6029 86.8627C88.6029 86.3667 88.4749 85.9787 88.2189 85.6987C87.9629 85.4147 87.6229 85.2727 87.1989 85.2727C86.7789 85.2727 86.4389 85.4167 86.1789 85.7047C85.9189 85.9927 85.7889 86.3747 85.7889 86.8507L85.2249 86.5147C85.2249 86.0947 85.3249 85.7187 85.5249 85.3867C85.7249 85.0547 85.9969 84.7947 86.3409 84.6067C86.6849 84.4147 87.0749 84.3187 87.5109 84.3187C87.9469 84.3187 88.3269 84.4107 88.6509 84.5947C88.9749 84.7787 89.2249 85.0427 89.4009 85.3867C89.5769 85.7267 89.6649 86.1327 89.6649 86.6047L89.6589 90.9667H88.5969ZM97.8531 91.1467C97.2171 91.1467 96.6611 91.0067 96.1851 90.7267C95.7131 90.4427 95.3451 90.0487 95.0811 89.5447C94.8171 89.0367 94.6851 88.4447 94.6851 87.7687C94.6851 87.0607 94.8151 86.4487 95.0751 85.9327C95.3351 85.4127 95.6971 85.0127 96.1611 84.7327C96.6291 84.4487 97.1771 84.3067 97.8051 84.3067C98.4571 84.3067 99.0111 84.4567 99.4671 84.7567C99.9271 85.0567 100.271 85.4847 100.499 86.0407C100.731 86.5967 100.831 87.2587 100.799 88.0267H99.7191V87.6427C99.7071 86.8467 99.5451 86.2527 99.2331 85.8607C98.9211 85.4647 98.4571 85.2667 97.8411 85.2667C97.1811 85.2667 96.6791 85.4787 96.3351 85.9027C95.9911 86.3267 95.8191 86.9347 95.8191 87.7267C95.8191 88.4907 95.9911 89.0827 96.3351 89.5027C96.6791 89.9227 97.1691 90.1327 97.8051 90.1327C98.2331 90.1327 98.6051 90.0347 98.9211 89.8387C99.2371 89.6427 99.4851 89.3607 99.6651 88.9927L100.691 89.3467C100.439 89.9187 100.059 90.3627 99.5511 90.6787C99.0471 90.9907 98.4811 91.1467 97.8531 91.1467ZM95.4591 88.0267V87.1687H100.247V88.0267H95.4591Z" fill="white" fill-opacity="0.1"/>
<g clip-path="url(#clip0_1226_306)">
<path d="M345.816 109.244H283.536V165.25H345.816V109.244Z" fill="#ABB2B6"/>
<path d="M293.585 167.606C292.666 167.606 291.926 168.383 291.926 169.32V178.693C291.926 179.211 292.343 179.643 292.845 179.643H294.336C294.838 179.643 295.255 179.211 295.255 178.693V169.32C295.255 168.383 294.503 167.606 293.585 167.606Z" fill="#142023"/>
<path d="M335.506 167.606C334.588 167.606 333.848 168.383 333.848 169.32V178.693C333.848 179.211 334.265 179.643 334.767 179.643H336.258C336.759 179.643 337.177 179.211 337.177 178.693V169.32C337.165 168.383 336.425 167.606 335.506 167.606Z" fill="#142023"/>
<path d="M314.682 96.3682C297.486 96.3682 283.548 102.079 283.548 109.109C283.548 109.158 283.56 109.195 283.56 109.244H345.816C345.816 109.195 345.828 109.158 345.828 109.109C345.816 102.066 331.878 96.3682 314.682 96.3682Z" fill="#5E6B73"/>
<path d="M339.946 109.109H289.265V169.073H339.946V109.109Z" fill="#E0E0D6"/>
<path d="M339.946 141.04H289.265V165.25H339.946V141.04Z" fill="#F9AB2C"/>
<path d="M339.946 165.114H289.265V170.06H339.946V165.114Z" fill="#2E0000"/>
<path d="M297.391 113.376C293.537 113.376 290.41 113.906 290.41 114.572V139.745H304.372V114.572C304.372 113.906 301.246 113.376 297.391 113.376Z" fill="#142023"/>
<path d="M331.854 113.438C328.119 113.438 325.088 113.943 324.897 114.572H324.873V139.745H338.835V114.572H338.811C338.632 113.943 335.589 113.438 331.854 113.438Z" fill="#142023"/>
<path d="M314.992 113.438C310.398 113.438 306.663 113.943 306.424 114.572H306.4V139.745H323.584V114.572H323.561C323.334 113.943 319.587 113.438 314.992 113.438Z" fill="#142023"/>
<path d="M301.436 169.764L296.102 176.917H333.107L328.047 169.764H301.436Z" fill="#2E0000"/>
<path d="M328.739 170.023H300.469V170.985H328.739V170.023Z" fill="#6A2700"/>
<path d="M329.921 171.996H299.288V172.958H329.921V171.996Z" fill="#6A2700"/>
<path d="M331.46 173.982H297.748V174.944H331.46V173.982Z" fill="#6A2700"/>
<path d="M333.107 175.955H296.102V176.917H333.107V175.955Z" fill="#6A2700"/>
<path d="M289.264 138.265H283.536V165.25H289.264V138.265Z" fill="#CD7C00"/>
<path d="M345.673 138.265H339.945V165.25H345.673V138.265Z" fill="#CD7C00"/>
<path d="M346.353 108.578H282.987V109.244H346.353V108.578Z" fill="#142023"/>
<path d="M339.957 159.712H289.265V165.114H339.957V159.712Z" fill="#FAC438"/>
<path opacity="0.2" d="M318.501 113.536L306.412 126.042V135.65L323.596 117.89V114.572H323.56C323.393 114.103 321.365 113.721 318.501 113.536Z" fill="white"/>
<path opacity="0.2" d="M306.412 139.744H308.393L323.584 124.032V121.232L306.412 138.98V139.744Z" fill="white"/>
<path opacity="0.2" d="M302.284 113.721L290.41 125.993V132.32L304.372 117.89V114.572C304.372 114.239 303.573 113.931 302.284 113.721Z" fill="white"/>
<path opacity="0.2" d="M290.41 139.695H292.391L304.372 127.313V120.135L290.41 134.552V139.695Z" fill="white"/>
<path opacity="0.2" d="M336.747 113.807L324.873 126.067V133.492L338.835 119.062V114.646C338.835 114.313 338.036 114.017 336.747 113.807Z" fill="white"/>
<path opacity="0.2" d="M324.873 139.782H326.854L338.835 127.399V124.587L324.873 139.017V139.782Z" fill="white"/>
<path d="M339.957 165.114H342.248V113.043L345.816 109.244H339.957V165.114Z" fill="#DBDEE0"/>
<path d="M287.033 113.043V165.114H289.324V109.244H283.477L287.033 113.043Z" fill="#DBDEE0"/>
<path d="M315.386 151.498C313.154 151.498 311.353 153.361 311.353 155.667C311.353 157.973 313.154 159.836 315.386 159.836C317.618 159.836 319.419 157.973 319.419 155.667C319.419 153.361 317.606 151.498 315.386 151.498Z" fill="#2E0000"/>
<path d="M315.386 152.325C313.632 152.325 312.212 153.792 312.212 155.605C312.212 157.418 313.632 158.886 315.386 158.886C317.14 158.886 318.56 157.418 318.56 155.605C318.56 153.792 317.14 152.325 315.386 152.325Z" fill="#E0E0D6"/>
<path d="M296.758 160.946H294.574C294.026 160.946 293.584 161.402 293.584 161.969C293.584 162.537 294.026 162.993 294.574 162.993H296.746C297.295 162.993 297.737 162.537 297.737 161.969C297.749 161.402 297.295 160.946 296.758 160.946Z" fill="#B20009"/>
<path d="M334.516 160.946H332.344C331.795 160.946 331.354 161.402 331.354 161.969C331.354 162.537 331.795 162.993 332.344 162.993H334.516C335.065 162.993 335.506 162.537 335.506 161.969C335.506 161.402 335.065 160.946 334.516 160.946Z" fill="#B20009"/>
<path d="M283.536 109.109C283.536 109.158 283.548 109.195 283.548 109.244H292.104C292.104 109.195 292.092 109.158 292.092 109.109C292.092 102.671 303.787 97.3425 318.954 96.4915C317.558 96.4175 316.126 96.3682 314.682 96.3682C297.474 96.3682 283.536 102.066 283.536 109.109Z" fill="#DBDEE0"/>
<path opacity="0.2" d="M314.623 96.3682C313.167 96.3682 311.747 96.4175 310.351 96.4915C325.518 97.3425 337.213 102.671 337.213 109.109C337.213 109.158 337.201 109.195 337.201 109.244H345.757C345.757 109.195 345.769 109.158 345.769 109.109C345.757 102.066 331.819 96.3682 314.623 96.3682Z" fill="white"/>
<path d="M320.757 82.0615H308.251V84.6638H320.757V82.0615Z" fill="#142023"/>
<path d="M300.231 72.1243L299.376 73.0195L309.626 83.4786L310.481 82.5834L300.231 72.1243Z" fill="#142023"/>
<path d="M328.809 72.1277L318.562 82.5884L319.418 83.4833L329.664 73.0227L328.809 72.1277Z" fill="#142023"/>
<path d="M332.416 71.8001L330.721 71.8124V71.8001H297.415H295.947C295.542 71.8001 295.16 71.8864 294.802 72.0468L289.754 74.3778L290.267 75.5248L294.921 73.3294C295.279 73.1568 295.685 73.0704 296.079 73.0704H297.976V73.0581H330.494L332.07 73.0704C332.463 73.0704 332.845 73.1691 333.203 73.3294L337.881 75.5371L338.394 74.3901L333.633 72.0838C333.239 71.8988 332.833 71.8001 332.416 71.8001Z" fill="#142023"/>
<path d="M315.757 83.3564H313.525V91.0401H315.757V83.3564Z" fill="#142023"/>
<path d="M332.976 88.9928H296.926V98.7361H332.976V88.9928Z" fill="#5E6B73"/>
<path d="M319.42 91.0031H299.086V96.4668H319.42V91.0031Z" fill="#142023"/>
<path d="M330.996 91.0031H321.02V96.4668H330.996V91.0031Z" fill="#142023"/>
<path opacity="0.2" d="M328.048 109.121H300.888V164.905H328.048V109.121Z" fill="white"/>
</g>
<defs>
<filter id="filter0_d_1226_306" x="0" y="0" width="418" height="245" filterUnits="userSpaceOnUse" color-interpolation-filters="sRGB">
<feFlood flood-opacity="0" result="BackgroundImageFix"/>
<feColorMatrix in="SourceAlpha" type="matrix" values="0 0 0 0 0 0 0 0 0 0 0 0 0 0 0 0 0 0 127 0" result="hardAlpha"/>
<feOffset dy="10"/>
<feGaussianBlur stdDeviation="15"/>
<feColorMatrix type="matrix" values="0 0 0 0 1 0 0 0 0 0.6 0 0 0 0 0.227451 0 0 0 0.4 0"/>
<feBlend mode="normal" in2="BackgroundImageFix" result="effect1_dropShadow_1226_306"/>
<feBlend mode="normal" in="SourceGraphic" in2="effect1_dropShadow_1226_306" result="shape"/>
</filter>
<clipPath id="clip0_1226_306">
<rect width="63.366" height="107.843" fill="white" transform="translate(282.987 71.8001)"/>
</clipPath>
</defs>
</svg>
