<svg width="51" height="50" viewBox="0 0 51 50" fill="none" xmlns="http://www.w3.org/2000/svg">
<g clip-path="url(#clip0_1060_1534)">
<path d="M22.4629 31.8706H14.46V47.5873H22.4629V31.8706Z" fill="#B559FF"/>
<path d="M1.97168 29.0625C1.97168 28.3748 2.18277 27.6938 2.58455 27.1286L3.85792 25.3241C4.25966 24.7658 4.47076 24.0916 4.47076 23.397V19.073H17.0751V23.397C17.0751 24.0916 17.2862 24.7658 17.688 25.3241L18.9614 27.1355C19.3631 27.6938 19.5742 28.368 19.5742 29.0626V36.9704C19.5742 37.9169 18.8797 38.7613 17.9399 38.8293C17.402 38.8702 16.9185 38.6659 16.5712 38.3254C16.2512 38.0054 16.0537 37.5628 16.0537 37.0793V42.9267C16.0537 43.8664 15.3592 44.7108 14.4194 44.7788C13.4018 44.8561 12.5332 44.0407 12.5332 43.022V44.7176C12.5332 45.7458 11.6957 46.6515 10.6674 46.5902C9.76046 46.5335 9.01271 45.7715 9.01271 44.8265V43.5668C9.01271 44.5337 8.2296 45.3237 7.25585 45.3237C6.2786 45.3237 5.49898 44.5325 5.49898 43.5668V42.1027C5.49898 43.0765 4.7091 43.8596 3.73535 43.8596C2.7817 43.8596 1.97848 43.0872 1.97848 42.1027L1.97168 29.0625Z" fill="#F0DDFF"/>
<path d="M18.6283 13.9706H2.91162V21.9735H18.6283V13.9706Z" fill="#8961A9"/>
<path d="M21.4486 1.47046C22.1363 1.47046 22.8173 1.68155 23.3825 2.08333L25.187 3.3567C25.7453 3.75844 26.4195 3.96954 27.1141 3.96954H31.4381L31.4381 16.5739H27.114C26.4195 16.5739 25.7453 16.785 25.187 17.1868L23.3756 18.4601C22.8172 18.8619 22.1431 19.073 21.4485 19.073H13.5407C12.5942 19.073 11.7498 18.3784 11.6818 17.4387C11.6409 16.9008 11.8452 16.4173 12.1857 16.07C12.5057 15.75 12.9483 15.5525 13.4318 15.5525H7.58441C6.64469 15.5525 5.80033 14.8579 5.73225 13.9182C5.65497 12.9006 6.47041 12.032 7.48907 12.032H5.79352C4.76527 12.032 3.85964 11.1944 3.92091 10.1662C3.97765 9.25925 4.73956 8.5115 5.68459 8.5115H6.94433C5.97739 8.5115 5.18747 7.72839 5.18748 6.75464C5.18748 5.77738 5.97861 4.99778 6.94434 4.99778H8.4084C7.43464 4.99778 6.65154 4.2079 6.65155 3.23416C6.65155 2.28051 7.42389 1.4773 8.40841 1.4773L21.4486 1.47046Z" fill="#F0DDFF"/>
<path d="M36.5401 2.40979H28.5371V18.1265H36.5401V2.40979Z" fill="#C986FF"/>
<path d="M49.0283 20.9349C49.0283 21.6226 48.8172 22.3036 48.4155 22.8688L47.1421 24.6733C46.7404 25.2316 46.5293 25.9058 46.5293 26.6004L46.5292 30.9244H33.9249L33.9249 26.6004C33.9249 25.9058 33.7138 25.2316 33.312 24.6733L32.0387 22.862C31.6369 22.3036 31.4258 21.6294 31.4258 20.9349L31.4258 13.0271C31.4258 12.0805 32.1204 11.2362 33.0601 11.1681C34.0825 11.0904 34.9463 11.9015 34.9463 12.9181L34.9463 7.07075C34.9463 6.13103 35.6409 5.28667 36.5806 5.21859C37.5983 5.1413 38.4668 5.95677 38.4668 6.9754V5.27984C38.4668 4.25161 39.3044 3.34597 40.3326 3.40724C41.2396 3.46397 41.9873 4.22589 41.9873 5.17091V6.43065C41.9873 5.46372 42.7704 4.67378 43.7442 4.67378C44.7214 4.67378 45.5011 5.46491 45.5011 6.43065V7.89471C45.5011 6.92095 46.2909 6.13784 47.2647 6.13784C48.2183 6.13784 49.0216 6.91017 49.0215 7.89471L49.0283 20.9349Z" fill="#F0DDFF"/>
<path d="M48.0892 28.0236H32.3726V36.0265H48.0892V28.0236Z" fill="#A32FFF"/>
<path d="M45.3159 41.4829H44.0573C45.0207 41.4829 45.8132 42.2675 45.8132 43.2465C45.8132 44.2589 44.9756 45.0023 44.0573 45.0023H42.589C43.5679 45.0023 44.3526 45.7869 44.3526 46.7658C44.3526 47.7225 43.5646 48.5216 42.589 48.5216L29.5526 48.5294C28.8611 48.5294 28.1852 48.3196 27.6181 47.9156L25.8157 46.6415C25.2563 46.2375 24.5804 46.0277 23.889 46.0277H22.4595V33.4264H23.889C24.5804 33.4264 25.2563 33.2089 25.8157 32.8127L27.6259 31.5385C28.1852 31.1345 28.8534 30.9248 29.5526 30.9248H37.4615C38.4093 30.9248 39.2483 31.6162 39.3183 32.5563C39.3935 33.6096 38.5576 34.4441 37.5702 34.4441H43.4126C44.3526 34.4441 45.1994 35.1434 45.2693 36.0756C45.3082 36.6195 45.1062 37.1011 44.7566 37.4508C44.4381 37.7693 44.003 37.9635 43.5135 37.9635H45.2072C46.2327 37.9635 47.1417 38.8026 47.0795 39.8281C47.0135 40.7689 46.2405 41.4829 45.3159 41.4829Z" fill="#F0DDFF"/>
<path d="M50.0089 20.9346L50.0022 7.89464C50.0022 6.38527 48.7743 5.15739 47.265 5.15739C46.9098 5.15739 46.5704 5.22489 46.2587 5.34792C45.8379 4.37567 44.8695 3.69351 43.7446 3.69351C43.3611 3.69351 42.9954 3.77297 42.6636 3.91611C42.2333 3.08173 41.3869 2.491 40.3912 2.42876L40.2342 2.42397C39.0417 2.42397 37.9977 3.26219 37.6286 4.39098C37.5944 4.37872 37.5555 4.3759 37.5204 4.36501V2.41009C37.5204 1.86867 37.0814 1.4297 36.54 1.4297H28.537C27.9956 1.4297 27.5566 1.86867 27.5566 2.41009V2.98932H27.1138C25.1895 2.98932 24.2605 0.48999 21.4478 0.48999L8.40831 0.497177C6.89895 0.497177 5.67106 1.72506 5.67106 3.23442C5.67106 3.58962 5.73856 3.92903 5.86159 4.24067C4.88934 4.66145 4.20718 5.62987 4.20718 6.75483C4.20718 7.13827 4.28664 7.50353 4.4293 7.83527C3.59491 8.26564 3.00418 9.11199 2.94243 10.1077C2.89839 10.842 3.15976 11.5491 3.6782 12.0991C4.01712 12.4586 4.44174 12.7234 4.90608 12.8727C4.89244 12.9108 4.88921 12.9518 4.87724 12.9905H2.91131C2.36989 12.9905 1.93092 13.4294 1.93092 13.9709V21.9739C1.93092 23.1892 3.39226 22.9266 3.49054 22.9543V23.3971C3.49054 25.3233 0.991211 26.275 0.991211 29.0631L0.998397 42.1026C0.998397 43.6114 2.22628 44.8398 3.73564 44.8398C4.09084 44.8398 4.43025 44.7718 4.74189 44.6493C5.16267 45.622 6.13109 46.3037 7.25605 46.3037C7.6395 46.3037 8.00475 46.2242 8.3365 46.0816C8.76685 46.9164 9.61321 47.5062 10.6089 47.5684L10.7659 47.5732C11.9584 47.5732 13.0025 46.7355 13.3715 45.6067C13.4061 45.619 13.4444 45.6219 13.4797 45.6329V47.5876C13.4797 48.1295 13.9187 48.568 14.4601 48.568H22.4631C23.0046 48.568 23.4435 48.1295 23.4435 47.5876V47.0083H23.8892C25.7955 47.0083 26.7765 49.5101 29.5528 49.5101L42.589 49.5024C44.1022 49.5024 45.3329 48.275 45.3329 46.7661C45.3329 46.4109 45.2649 46.071 45.1414 45.7589C46.1122 45.3386 46.7934 44.3707 46.7934 43.2467C46.7934 42.8599 46.713 42.4913 46.5685 42.1571C47.3976 41.7272 47.9883 40.8828 48.0582 39.8871C48.135 38.6098 47.278 37.5074 46.0984 37.124C46.1117 37.0864 46.1149 37.0454 46.1266 37.0072H48.0888C48.6303 37.0072 49.0692 36.5687 49.0692 36.0268V28.0238C49.0692 26.8085 47.6079 27.071 47.5096 27.0434V26.6006C47.5096 24.7442 50.0089 23.6381 50.0089 20.9346ZM29.5174 3.39048H35.5596V4.4988C34.6181 4.9516 33.966 5.93918 33.966 7.07077V10.2934C33.6587 10.2025 33.3164 10.1675 32.9894 10.19C31.5629 10.2934 30.4456 11.5395 30.4456 13.0268V17.1461H29.5174V3.39048ZM30.4456 19.1069V20.9351C30.4456 23.6549 32.9444 24.7095 32.9444 26.6006V27.0434H32.3724C31.831 27.0434 31.392 27.4824 31.392 28.0238V29.9444H29.5528C28.6404 29.9444 27.7753 30.2206 27.0616 30.7366L25.2487 32.0129C24.8548 32.2924 24.3717 32.4461 23.8892 32.4461H23.4435V31.8712C23.4435 31.3297 23.0046 30.8908 22.4631 30.8908H20.5545V29.0626C20.5545 26.3488 18.0557 25.2878 18.0557 23.3971V22.9543H18.6277C19.1692 22.9543 19.6081 22.5153 19.6081 21.9739V20.0533H21.4483C22.3583 20.0533 23.2224 19.7776 23.9395 19.262L25.7595 17.9824C26.1487 17.7024 26.6174 17.5545 27.1138 17.5545H27.5566V18.1265C27.5566 18.6679 27.9956 19.1069 28.537 19.1069H30.4456ZM4.89938 10.2269C4.92475 9.82191 5.2766 9.49209 5.68446 9.49209C6.77305 9.49209 14.0316 9.49209 13.9101 9.49209C14.4515 9.49209 14.8905 9.05312 14.8905 8.5117C14.8905 7.97027 14.4515 7.5313 13.9101 7.5313H6.94442C6.51646 7.5313 6.16796 7.1828 6.16796 6.75484C6.16796 6.32688 6.51646 5.97838 6.94442 5.97838C8.75966 5.97838 12.8337 5.97838 12.7186 5.97838C13.26 5.97838 13.699 5.53941 13.699 4.99799C13.699 4.45657 13.26 4.0176 12.7186 4.0176H8.40831C7.98035 4.0176 7.63185 3.66623 7.63185 3.23443C7.63185 2.80647 7.98035 2.45797 8.40879 2.45797L21.4483 2.45079C23.3148 2.45079 24.4171 4.95013 27.1138 4.95013H27.5566V15.5937H27.1138C26.2038 15.5937 25.3392 15.8694 24.6231 16.385L22.8035 17.6641C22.4134 17.9446 21.9447 18.0926 21.4483 18.0926H13.5405C13.0838 18.0926 12.6884 17.7675 12.6592 17.3644C12.6251 16.9119 12.9827 16.5329 13.4319 16.5329H17.4037C17.9451 16.5329 18.3841 16.094 18.3841 15.5525C18.3841 15.0111 17.9451 14.5721 17.4037 14.5721C13.9795 14.5721 11.6559 14.5721 7.58445 14.5721C7.13111 14.5721 6.73905 14.2471 6.70985 13.8436C6.67632 13.4037 7.03206 13.0125 7.48918 13.0125H13.9101C14.4515 13.0125 14.8905 12.5735 14.8905 12.0321C14.8905 11.4907 14.4515 11.0517 13.9101 11.0517C13.7394 11.0517 5.5445 11.0517 5.7936 11.0517C5.32758 11.0517 4.87225 10.6801 4.89938 10.2269ZM3.8917 14.9513H5.01714C5.47246 15.8866 6.45751 16.5329 7.58445 16.5329H10.8085C10.7157 16.8469 10.6788 17.1777 10.7037 17.5095C10.8071 18.936 12.0532 20.0533 13.5405 20.0533H17.6473V20.9935H3.8917V14.9513ZM11.5529 44.7173C11.5529 45.1941 11.1853 45.6125 10.7659 45.6125L10.7281 45.6115C10.3231 45.5866 9.99332 45.2343 9.99332 44.8264C9.99332 43.7378 9.99332 36.4788 9.99332 36.6003C9.99332 36.0584 9.55435 35.6199 9.01293 35.6199C8.4715 35.6199 8.03253 36.0584 8.03253 36.6003V43.5664C8.03253 43.9944 7.68403 44.3429 7.25607 44.3429C6.82811 44.3429 6.47961 43.9944 6.47961 43.5664C6.47961 41.7512 6.47961 37.6772 6.47961 37.7923C6.47961 37.2504 6.04064 36.8119 5.49922 36.8119C4.9578 36.8119 4.51883 37.2504 4.51883 37.7923V42.1026C4.51883 42.5305 4.16746 42.879 3.73566 42.879C3.3077 42.879 2.9592 42.5305 2.9592 42.1016L2.95201 29.0626C2.95201 27.144 5.45134 26.169 5.45134 23.3971V22.9543H16.0949V23.3971C16.0949 26.1656 18.5938 27.1868 18.5938 29.0626V36.9708C18.5938 37.4275 18.2687 37.822 17.8029 37.8536C17.5449 37.8536 17.364 37.7301 17.2644 37.6324C17.116 37.484 17.0341 37.2877 17.0341 37.079V33.1077C17.0341 32.5658 16.5952 32.1273 16.0538 32.1273C15.5123 32.1273 15.0734 32.5658 15.0734 33.1077V37.079V42.9269C15.0734 43.3798 14.7483 43.7713 14.2854 43.8029C13.8634 43.8029 13.5137 43.4507 13.5137 43.0217V36.6003C13.5137 36.0584 13.0748 35.6199 12.5333 35.6199C11.9919 35.6199 11.5529 36.0584 11.5529 36.6003C11.5529 36.771 11.5529 44.9664 11.5529 44.7173ZM15.4405 46.6072V45.4983C16.382 45.0459 17.0341 44.0581 17.0341 42.9269V39.7043C17.3467 39.7962 17.6919 39.8354 18.0107 39.8067C19.4372 39.7043 20.5545 38.4577 20.5545 36.9708V32.8511H21.4828V33.4075C21.4826 33.4142 21.4789 33.4198 21.4789 33.4265C21.4793 34.7742 21.4775 28.5443 21.4828 46.6072L15.4405 46.6072ZM46.1017 39.7588C46.072 40.183 45.7341 40.5027 45.3161 40.5027C44.0686 40.5032 36.6187 40.5058 37.09 40.5056C36.5486 40.5056 36.1096 40.9441 36.1096 41.486C36.1096 42.0279 36.5486 42.4664 37.09 42.4664H44.0562C44.0589 42.4664 44.061 42.4649 44.0637 42.4649C44.488 42.4687 44.8326 42.8172 44.8326 43.2467C44.8326 43.7254 44.4301 44.0222 44.0571 44.0222C43.9108 44.0221 38.0268 44.0192 38.2815 44.0193C37.7401 44.0193 37.3011 44.4578 37.3011 44.9997C37.3011 45.5416 37.7401 45.9801 38.2815 45.9801H42.5747C42.5797 45.9802 42.5839 45.983 42.5889 45.983C43.0279 45.983 43.3721 46.3267 43.3721 46.7661C43.3721 47.1864 43.0136 47.5416 42.5885 47.5416L29.5523 47.5493C27.626 47.5493 26.6897 45.0476 23.8892 45.0476H23.4435V34.4069H23.8892C24.7743 34.4069 25.6599 34.1244 26.3799 33.6141L28.2004 32.3331C28.5877 32.0531 29.0554 31.9052 29.5528 31.9052H37.4615C37.9168 31.9052 38.3112 32.2297 38.3404 32.6261C38.361 32.9104 38.2408 33.1029 38.137 33.2149C37.9895 33.3729 37.7827 33.4638 37.5702 33.4638C37.5685 33.4638 37.5671 33.4648 37.5654 33.4648H33.5964C33.055 33.4648 32.616 33.9033 32.616 34.4452C32.616 34.9871 33.055 35.4256 33.5964 35.4256H37.5687C37.5704 35.4256 37.5718 35.4246 37.5735 35.4246H43.4123C43.8594 35.4246 44.262 35.7559 44.2912 36.1455C44.3232 36.5949 43.9748 36.9833 43.5133 36.9833C43.51 36.9833 43.5071 36.9851 43.5038 36.9852H37.09C36.5486 36.9852 36.1096 37.4237 36.1096 37.9656C36.1096 38.5075 36.5486 38.946 37.09 38.946C37.1887 38.946 45.6011 38.944 45.207 38.9441C45.6717 38.9441 46.1281 39.3217 46.1017 39.7588ZM47.1084 35.0464H45.9835C45.5271 34.1111 44.5402 33.4638 43.4123 33.4638H40.1935C40.2845 33.1517 40.3204 32.8214 40.2959 32.4834C40.1902 31.0598 38.945 29.9444 37.4615 29.9444H33.3528V29.0042H47.1084V35.0464ZM34.9052 27.0434V26.6006C34.9052 23.8434 32.4064 22.7968 32.4064 20.9351V13.0269C32.4064 12.5702 32.7314 12.1748 33.1953 12.1432C33.6204 12.1432 33.966 12.4907 33.966 12.9182V16.89C33.966 17.4314 34.405 17.8704 34.9464 17.8704C35.4878 17.8704 35.9268 17.4314 35.9268 16.89C35.9268 13.4658 35.9268 11.1422 35.9268 7.07077C35.9268 6.61744 36.2518 6.22538 36.7147 6.19378C37.1403 6.19378 37.4864 6.54468 37.4864 6.97551V13.3969C37.4864 13.9383 37.9254 14.3773 38.4668 14.3773C39.0082 14.3773 39.4472 13.9383 39.4472 13.3969C39.4472 13.2262 39.4472 5.03082 39.4472 5.27992C39.4472 4.80361 39.8139 4.3857 40.2696 4.3857H40.2715C40.677 4.41107 41.0073 4.76339 41.0073 5.17077C41.0073 6.25937 41.0073 13.5184 41.0073 13.3969C41.0073 13.9383 41.4463 14.3773 41.9877 14.3773C42.5291 14.3773 42.9681 13.9383 42.9681 13.3969V6.43075C42.9681 6.00279 43.3166 5.65429 43.7445 5.65429C44.1725 5.65429 44.521 6.00279 44.521 6.43075C44.521 8.246 44.521 12.32 44.521 12.2049C44.521 12.7463 44.96 13.1853 45.5014 13.1853C46.0428 13.1853 46.4818 12.7463 46.4818 12.2049V7.89464C46.4818 7.46668 46.8332 7.11818 47.265 7.11818C47.6929 7.11818 48.0414 7.46668 48.0414 7.89512L48.0481 20.9351C48.0481 22.8431 45.5488 23.8109 45.5488 26.6006V27.0434H34.9052Z" fill="#764BA2"/>
</g>
<defs>
<clipPath id="clip0_1060_1534">
<rect width="50" height="50" fill="white" transform="translate(0.5)"/>
</clipPath>
</defs>
</svg>
