<svg width="18" height="18" viewBox="0 0 18 18" fill="none" xmlns="http://www.w3.org/2000/svg">
<path fill-rule="evenodd" clip-rule="evenodd" d="M13.5 6.2675C14.0815 6.4415 14.5 6.5 14.5 6.5V5H15.5C16.163 5 16.7989 4.73661 17.2678 4.26777C17.7366 3.79893 18 3.16304 18 2.5C18 1.83696 17.7366 1.20107 17.2678 0.732233C16.7989 0.263392 16.163 0 15.5 0H12.618C11.9237 0 11.2578 0.275824 10.7668 0.766794C10.2758 1.25776 10 1.92366 10 2.618C10 4.877 12.174 5.871 13.5 6.2675ZM17 2.5C17 2.89782 16.842 3.27936 16.5607 3.56066C16.2794 3.84196 15.8978 4 15.5 4H13.5V5.2175C13.2257 5.12432 12.9579 5.0129 12.6985 4.884C11.707 4.387 11 3.68 11 2.618C11 2.18888 11.1705 1.77734 11.4739 1.4739C11.7773 1.17047 12.1889 1 12.618 1H15.5C15.8978 1 16.2794 1.15804 16.5607 1.43934C16.842 1.72064 17 2.10218 17 2.5ZM4.4085 5.9965C3.75326 5.97381 3.13318 5.69453 2.68196 5.21887C2.23073 4.7432 1.98452 4.10927 1.99639 3.45374C2.00826 2.79821 2.27728 2.17361 2.74543 1.7146C3.21358 1.25559 3.84337 0.998945 4.499 1H6.0835C6.7244 1 7.33904 1.25459 7.79222 1.70778C8.24541 2.16096 8.5 2.7756 8.5 3.4165C8.5 5.4375 6.685 6.3615 5.5 6.75C4.926 6.938 4.5 7 4.5 7V6L4.4085 5.9965ZM5.5 5.0355L4.445 4.9975C4.04854 4.98888 3.67165 4.82352 3.39685 4.53763C3.12205 4.25173 2.97173 3.86859 2.97881 3.4721C2.98588 3.07562 3.14978 2.69809 3.43461 2.42218C3.71944 2.14627 4.10199 1.99446 4.4985 2H6.083C6.26906 1.99993 6.45331 2.03652 6.62523 2.10768C6.79714 2.17884 6.95335 2.28317 7.08494 2.41471C7.21653 2.54625 7.32091 2.70242 7.39213 2.87431C7.46335 3.0462 7.5 3.23044 7.5 3.4165C7.5 4.374 6.8915 5.0015 6.038 5.4465C5.858 5.5405 5.6755 5.6205 5.5 5.6885V5.0355ZM11 9C11 10.105 10.105 11 9 11C7.895 11 7 10.105 7 9C7 7.895 7.895 7 9 7C10.105 7 11 7.895 11 9ZM10 9C10 9.26522 9.89464 9.51957 9.70711 9.70711C9.51957 9.89464 9.26522 10 9 10C8.73478 10 8.48043 9.89464 8.29289 9.70711C8.10536 9.51957 8 9.26522 8 9C8 8.73478 8.10536 8.48043 8.29289 8.29289C8.48043 8.10536 8.73478 8 9 8C9.26522 8 9.51957 8.10536 9.70711 8.29289C9.89464 8.48043 10 8.73478 10 9ZM6.5 10C6.5 11.105 5.605 12 4.5 12C3.395 12 2.5 11.105 2.5 10C2.5 8.895 3.395 8 4.5 8C5.605 8 6.5 8.895 6.5 10ZM5.5 10C5.5 10.2652 5.39464 10.5196 5.20711 10.7071C5.01957 10.8946 4.76522 11 4.5 11C4.23478 11 3.98043 10.8946 3.79289 10.7071C3.60536 10.5196 3.5 10.2652 3.5 10C3.5 9.73478 3.60536 9.48043 3.79289 9.29289C3.98043 9.10536 4.23478 9 4.5 9C4.76522 9 5.01957 9.10536 5.20711 9.29289C5.39464 9.48043 5.5 9.73478 5.5 10ZM0 15.273C0 13.761 2.998 13 4.5 13C4.7925 13 5.142 13.029 5.515 13.0865C6.1855 12.595 7.4135 12 9 12C10.5865 12 11.8145 12.595 12.4855 13.0865C12.821 13.0324 13.1601 13.0034 13.5 13C15.002 13 18 13.7615 18 15.2725V18H0V15.273ZM7.826 15.0115C8 15.1735 8 15.258 8 15.2725V17H1V15.2725C1 15.2575 1 15.1735 1.174 15.0115C1.3555 14.842 1.655 14.6615 2.062 14.4965C2.878 14.1665 3.875 14 4.5 14C5.125 14 6.122 14.1665 6.938 14.4965C7.345 14.6615 7.6445 14.842 7.826 15.0115ZM11.071 13.428C10.4173 13.145 9.71236 12.9993 9 13C8.172 13 7.468 13.193 6.9295 13.428C8.037 13.8 9 14.416 9 15.273C9 14.416 9.963 13.8005 11.071 13.428ZM17 15.273C17 15.258 17 15.1735 16.826 15.0115C16.6445 14.842 16.345 14.6615 15.938 14.4965C15.122 14.1665 14.125 14 13.5 14C12.875 14 11.878 14.1665 11.062 14.4965C10.655 14.6615 10.3555 14.842 10.174 15.0115C10 15.1735 10 15.258 10 15.2725V17H17V15.273ZM13.5 12C14.605 12 15.5 11.105 15.5 10C15.5 8.895 14.605 8 13.5 8C12.395 8 11.5 8.895 11.5 10C11.5 11.105 12.395 12 13.5 12ZM13.5 11C13.7652 11 14.0196 10.8946 14.2071 10.7071C14.3946 10.5196 14.5 10.2652 14.5 10C14.5 9.73478 14.3946 9.48043 14.2071 9.29289C14.0196 9.10536 13.7652 9 13.5 9C13.2348 9 12.9804 9.10536 12.7929 9.29289C12.6054 9.48043 12.5 9.73478 12.5 10C12.5 10.2652 12.6054 10.5196 12.7929 10.7071C12.9804 10.8946 13.2348 11 13.5 11Z" fill="black"/>
</svg>
