<svg width="40" height="50" viewBox="0 0 40 50" fill="none" xmlns="http://www.w3.org/2000/svg">
<g clip-path="url(#clip0_1060_1548)">
<path d="M41.0861 13.2812C41.3292 13.5417 41.5722 13.8765 41.8153 14.2857H29.5236V1.11607C29.9055 1.37649 30.218 1.6369 30.4611 1.89732L41.0861 13.2812ZM28.6903 17.8571H42.8569V47.3214C42.8569 48.0655 42.6139 48.6979 42.1278 49.2187C41.6417 49.7396 41.0514 50 40.3569 50H5.35693C4.66249 50 4.07221 49.7396 3.5861 49.2187C3.09999 48.6979 2.85693 48.0655 2.85693 47.3214V2.67857C2.85693 1.93452 3.09999 1.30208 3.5861 0.78125C4.07221 0.260417 4.66249 0 5.35693 0H26.1903V15.1786C26.1903 15.9226 26.4333 16.5551 26.9194 17.0759C27.4055 17.5967 27.9958 17.8571 28.6903 17.8571ZM32.8569 38.3929V36.6071C32.8569 36.3467 32.7788 36.1328 32.6226 35.9654C32.4663 35.798 32.2667 35.7143 32.0236 35.7143H13.6903C13.4472 35.7143 13.2476 35.798 13.0913 35.9654C12.9351 36.1328 12.8569 36.3467 12.8569 36.6071V38.3929C12.8569 38.6533 12.9351 38.8672 13.0913 39.0346C13.2476 39.202 13.4472 39.2857 13.6903 39.2857H32.0236C32.2667 39.2857 32.4663 39.202 32.6226 39.0346C32.7788 38.8672 32.8569 38.6533 32.8569 38.3929ZM32.8569 31.25V29.4643C32.8569 29.2039 32.7788 28.99 32.6226 28.8225C32.4663 28.6551 32.2667 28.5714 32.0236 28.5714H13.6903C13.4472 28.5714 13.2476 28.6551 13.0913 28.8225C12.9351 28.99 12.8569 29.2039 12.8569 29.4643V31.25C12.8569 31.5104 12.9351 31.7243 13.0913 31.8917C13.2476 32.0592 13.4472 32.1429 13.6903 32.1429H32.0236C32.2667 32.1429 32.4663 32.0592 32.6226 31.8917C32.7788 31.7243 32.8569 31.5104 32.8569 31.25ZM32.8569 24.1071V22.3214C32.8569 22.061 32.7788 21.8471 32.6226 21.6797C32.4663 21.5123 32.2667 21.4286 32.0236 21.4286H13.6903C13.4472 21.4286 13.2476 21.5123 13.0913 21.6797C12.9351 21.8471 12.8569 22.061 12.8569 22.3214V24.1071C12.8569 24.3676 12.9351 24.5815 13.0913 24.7489C13.2476 24.9163 13.4472 25 13.6903 25H32.0236C32.2667 25 32.4663 24.9163 32.6226 24.7489C32.7788 24.5815 32.8569 24.3676 32.8569 24.1071Z" fill="#764BA2"/>
</g>
<defs>
<clipPath id="clip0_1060_1548">
<rect width="40" height="50" fill="white"/>
</clipPath>
</defs>
</svg>
