<svg width="21" height="21" viewBox="0 0 21 21" fill="none" xmlns="http://www.w3.org/2000/svg">
<path d="M10.5588 0.5C5.03756 0.5 0.560064 5.09056 0.560064 10.7534C0.557809 12.9026 1.21696 14.9982 2.44435 16.7439C3.67175 18.4897 5.40532 19.7974 7.40006 20.4822C7.90006 20.5767 8.08256 20.2601 8.08256 19.9882C8.08256 19.7444 8.07381 19.0997 8.06881 18.2444C5.28756 18.8635 4.70006 16.8695 4.70006 16.8695C4.24631 15.6849 3.59006 15.3695 3.59006 15.3695C2.68131 14.7338 3.65756 14.7466 3.65756 14.7466C4.66131 14.8193 5.18881 15.8036 5.18881 15.8036C6.08131 17.3699 7.53006 16.918 8.10006 16.655C8.19006 15.9925 8.44881 15.5406 8.73506 15.284C6.51506 15.0249 4.18006 14.1453 4.18006 10.2173C4.18006 9.09773 4.57006 8.18242 5.21006 7.46499C5.10631 7.20584 4.76381 6.16288 5.30756 4.75227C5.30756 4.75227 6.14756 4.47653 8.05756 5.80289C8.87349 5.57516 9.71546 5.45926 10.5613 5.45821C11.4072 5.45993 12.2491 5.57626 13.0651 5.80417C14.9738 4.47781 15.8126 4.75355 15.8126 4.75355C16.3576 6.16544 16.0151 7.20712 15.9126 7.46627C16.5538 8.1837 16.9401 9.099 16.9401 10.2186C16.9401 14.1568 14.6026 15.0236 12.3751 15.2776C12.7338 15.5942 13.0538 16.2197 13.0538 17.1759C13.0538 18.5469 13.0413 19.6524 13.0413 19.9882C13.0413 20.2626 13.2213 20.5818 13.7288 20.4809C15.7216 19.7945 17.453 18.4863 18.6787 16.741C19.9044 14.9956 20.5625 12.9013 20.5601 10.7534C20.5601 5.09056 16.0826 0.5 10.5588 0.5Z" fill="#5C6BC0"/>
</svg>
