<svg width="21" height="21" viewBox="0 0 21 21" fill="none" xmlns="http://www.w3.org/2000/svg">
<g clip-path="url(#clip0_1456_259)">
<path d="M20.6594 10.6871C20.6594 9.86767 20.5913 9.26973 20.4441 8.64966H10.8691V12.348H16.4894C16.3761 13.2671 15.7643 14.6512 14.4045 15.5813L14.3854 15.7051L17.4128 17.9969L17.6226 18.0174C19.5489 16.2789 20.6594 13.721 20.6594 10.6871Z" fill="#4285F4"/>
<path d="M10.8692 20.4313C13.6226 20.4313 15.9342 19.5454 17.6226 18.0174L14.4045 15.5813C13.5434 16.1682 12.3875 16.5779 10.8692 16.5779C8.17235 16.5779 5.88344 14.8395 5.06751 12.4366L4.94791 12.4466L1.79996 14.8273L1.75879 14.9391C3.4358 18.1945 6.88053 20.4313 10.8692 20.4313Z" fill="#34A853"/>
<path d="M5.0674 12.4366C4.85211 11.8165 4.72751 11.1521 4.72751 10.4656C4.72751 9.77902 4.85211 9.11467 5.05607 8.4946L5.05037 8.36253L1.86296 5.9436L1.75868 5.99208C1.0675 7.34299 0.670898 8.86002 0.670898 10.4656C0.670898 12.0712 1.0675 13.5881 1.75868 14.939L5.0674 12.4366Z" fill="#FBBC05"/>
<path d="M10.8692 4.35336C12.7841 4.35336 14.0759 5.16168 14.8124 5.83718L17.6906 3.09107C15.923 1.4855 13.6226 0.5 10.8692 0.5C6.88053 0.5 3.4358 2.73672 1.75879 5.99214L5.05618 8.49466C5.88344 6.09183 8.17235 4.35336 10.8692 4.35336Z" fill="#EB4335"/>
</g>
<defs>
<clipPath id="clip0_1456_259">
<rect width="20" height="20" fill="white" transform="translate(0.669922 0.5)"/>
</clipPath>
</defs>
</svg>
