<svg width="108" height="101" viewBox="0 0 108 101" fill="none" xmlns="http://www.w3.org/2000/svg">
<g clip-path="url(#clip0_1226_496)">
<path d="M54.2792 35.5568H7.19824V39.5951H54.2792V35.5568Z" fill="#7C563E"/>
<path d="M53.9796 39.6038L101.061 39.6038V35.5655L53.9796 35.5655V39.6038Z" fill="#7C563E"/>
<path d="M7.19824 37.2825V35.5568H101.057V38.5503L7.19824 37.2825Z" fill="#CCC1B9"/>
<path d="M67.2107 25.8372L98.793 25.8372V24.9332L67.2107 24.9332V25.8372Z" fill="#8B5C38"/>
<path d="M67.2275 31.3637L98.6748 31.3637V25.8346L67.2275 25.8346V31.3637Z" fill="#B0865D"/>
<path d="M41.052 24.9329H9.46973V25.8368H41.052V24.9329Z" fill="#8B5C38"/>
<path d="M41.0294 25.8369H9.58203V31.366H41.0294V25.8369Z" fill="#B0865D"/>
<path d="M41.4903 24.1346H8.08594V24.9329H41.4903V24.1346Z" fill="#D1B79F"/>
<path d="M9.58203 27.0342V24.9329H98.6715V28.5838L9.58203 27.0342Z" fill="#CCC1B9"/>
<path d="M10.2345 24.9329H9.46973V26.6116H10.2345V24.9329Z" fill="#B0865D"/>
<path d="M11.2922 24.9329H10.5273V26.6116H11.2922V24.9329Z" fill="#B0865D"/>
<path d="M14.1154 24.9329H13.3506V26.6116H14.1154V24.9329Z" fill="#B0865D"/>
<path d="M15.1838 24.9329H14.4189V26.6116H15.1838V24.9329Z" fill="#B0865D"/>
<path d="M18.006 24.9329H17.2412V26.6116H18.006V24.9329Z" fill="#B0865D"/>
<path d="M19.0636 24.9329H18.2988V26.6116H19.0636V24.9329Z" fill="#B0865D"/>
<path d="M21.8869 24.9329H21.1221V26.6116H21.8869V24.9329Z" fill="#B0865D"/>
<path d="M22.9552 24.9329H22.1904V26.6116H22.9552V24.9329Z" fill="#B0865D"/>
<path d="M25.7785 24.9329H25.0137V26.6116H25.7785V24.9329Z" fill="#B0865D"/>
<path d="M26.8361 24.9329H26.0713V26.6116H26.8361V24.9329Z" fill="#B0865D"/>
<path d="M29.6701 24.9329H28.9053V26.6116H29.6701V24.9329Z" fill="#B0865D"/>
<path d="M30.7277 24.9329H29.9629V26.6116H30.7277V24.9329Z" fill="#B0865D"/>
<path d="M33.55 24.9329H32.7852V26.6116H33.55V24.9329Z" fill="#B0865D"/>
<path d="M34.6183 24.9329H33.8535V26.6116H34.6183V24.9329Z" fill="#B0865D"/>
<path d="M37.4416 24.9329H36.6768V26.6116H37.4416V24.9329Z" fill="#B0865D"/>
<path d="M38.4992 24.9329H37.7344V26.6116H38.4992V24.9329Z" fill="#B0865D"/>
<path d="M66.7627 24.9272L100.167 24.9272V24.129L66.7627 24.129V24.9272Z" fill="#D1B79F"/>
<path d="M98.0213 26.6075H98.7861V24.9289H98.0213V26.6075Z" fill="#B0865D"/>
<path d="M96.9657 26.6075H97.7305V24.9289H96.9657V26.6075Z" fill="#B0865D"/>
<path d="M94.1375 26.6075H94.9023V24.9289H94.1375V26.6075Z" fill="#B0865D"/>
<path d="M93.0711 26.6075H93.8359V24.9289H93.0711V26.6075Z" fill="#B0865D"/>
<path d="M90.2557 26.6075H91.0205V24.9289H90.2557V26.6075Z" fill="#B0865D"/>
<path d="M89.1883 26.6075H89.9531V24.9289H89.1883V26.6075Z" fill="#B0865D"/>
<path d="M86.3612 26.6075H87.126V24.9289H86.3612V26.6075Z" fill="#B0865D"/>
<path d="M85.3055 26.6075H86.0703V24.9289H85.3055V26.6075Z" fill="#B0865D"/>
<path d="M82.4774 26.6075H83.2422V24.9289H82.4774V26.6075Z" fill="#B0865D"/>
<path d="M81.411 26.6075H82.1758V24.9289H81.411V26.6075Z" fill="#B0865D"/>
<path d="M78.5838 26.6075H79.3486V24.9289H78.5838V26.6075Z" fill="#B0865D"/>
<path d="M77.5282 26.6075H78.293V24.9289H77.5282V26.6075Z" fill="#B0865D"/>
<path d="M74.7 26.6075H75.4648V24.9289H74.7V26.6075Z" fill="#B0865D"/>
<path d="M73.6336 26.6075H74.3984V24.9289H73.6336V26.6075Z" fill="#B0865D"/>
<path d="M70.8172 26.6075H71.582V24.9289H70.8172V26.6075Z" fill="#B0865D"/>
<path d="M69.7508 26.6075H70.5156V24.9289H69.7508V26.6075Z" fill="#B0865D"/>
<path d="M51.8945 14.7198C51.8945 14.7198 52.3219 14.6142 52.8168 14.2503C53.3116 13.8864 52.5131 12.2781 52.693 11.2333C52.873 10.2003 53.9527 8.5568 54.1214 8.75636C54.2902 8.95593 54.6951 9.46071 54.2677 9.53115C53.8403 9.60158 53.1992 10.5994 53.3566 10.8694C53.5141 11.1394 54.099 11.8085 54.1214 11.609C54.1439 11.4094 54.4589 11.339 54.4589 11.339C54.4589 11.339 53.6941 9.26115 54.8075 9.29636C55.9098 9.33158 55.1899 11.2685 55.1899 11.2685C55.1899 11.2685 55.4374 11.5855 55.5274 11.7264C55.6173 11.8672 56.0222 11.9494 56.4159 12.4307C56.7983 12.912 58.0355 20.3429 58.0355 20.3429H51.2646L51.8945 14.7198Z" fill="#142023"/>
<path d="M12.5847 44.5255H7.19727V89.2399H12.5847V44.5255Z" fill="#BC9875"/>
<path d="M8.0859 88.1716C7.91719 88.1716 7.78223 88.0307 7.78223 87.8546V45.4412C7.78223 45.2651 7.91719 45.1242 8.0859 45.1242C8.25461 45.1242 8.38958 45.2651 8.38958 45.4412V87.8429C8.40083 88.019 8.25461 88.1716 8.0859 88.1716Z" fill="#B0865D"/>
<path d="M9.31246 88.1716C9.14376 88.1716 9.00879 88.0307 9.00879 87.8546V45.4412C9.00879 45.2651 9.14376 45.1242 9.31246 45.1242C9.48117 45.1242 9.61614 45.2651 9.61614 45.4412V87.8429C9.61614 88.019 9.48117 88.1716 9.31246 88.1716Z" fill="#B0865D"/>
<path d="M10.5263 88.1716C10.3576 88.1716 10.2227 88.0307 10.2227 87.8546V45.4412C10.2227 45.2651 10.3576 45.1242 10.5263 45.1242C10.695 45.1242 10.83 45.2651 10.83 45.4412V87.8429C10.83 88.019 10.695 88.1716 10.5263 88.1716Z" fill="#B0865D"/>
<path d="M11.7529 88.1716C11.5842 88.1716 11.4492 88.0307 11.4492 87.8546V45.4412C11.4492 45.2651 11.5842 45.1242 11.7529 45.1242C11.9216 45.1242 12.0566 45.2651 12.0566 45.4412V87.8429C12.0566 88.019 11.9216 88.1716 11.7529 88.1716Z" fill="#B0865D"/>
<path d="M12.5965 89.4746H7.24282C7.00663 89.4746 6.81543 89.2751 6.81543 89.0286V88.9933C6.81543 88.7468 7.00663 88.5472 7.24282 88.5472H12.5965C12.8327 88.5472 13.0239 88.7468 13.0239 88.9933V89.0286C13.0239 89.2751 12.8327 89.4746 12.5965 89.4746Z" fill="#BC9875"/>
<path d="M13.4398 89.4747H6.34277V90.5077H13.4398V89.4747Z" fill="#B0865D"/>
<path d="M12.596 44.5255H7.19736C6.98367 44.5255 6.80371 44.3377 6.80371 44.1147V44.0794C6.80371 43.8564 6.98367 43.6686 7.19736 43.6686H12.596C12.8097 43.6686 12.9897 43.8564 12.9897 44.0794V44.1147C12.9785 44.3377 12.8097 44.5255 12.596 44.5255Z" fill="#BC9875"/>
<path d="M13.3043 42.7881H6.37598V43.6686H13.3043V42.7881Z" fill="#B0865D"/>
<path d="M30.2771 44.5255H24.8896V89.2399H30.2771V44.5255Z" fill="#BC9875"/>
<path d="M25.79 88.1599C25.6213 88.1599 25.4863 88.019 25.4863 87.8429V45.4412C25.4863 45.2651 25.6213 45.1242 25.79 45.1242C25.9587 45.1242 26.0937 45.2651 26.0937 45.4412V87.8429C26.0937 88.019 25.9587 88.1599 25.79 88.1599Z" fill="#B0865D"/>
<path d="M27.0048 88.1599C26.8361 88.1599 26.7012 88.019 26.7012 87.8429V45.4412C26.7012 45.2651 26.8361 45.1242 27.0048 45.1242C27.1736 45.1242 27.3085 45.2651 27.3085 45.4412V87.8429C27.3085 88.019 27.1736 88.1599 27.0048 88.1599Z" fill="#B0865D"/>
<path d="M28.2304 88.1599C28.0617 88.1599 27.9268 88.019 27.9268 87.8429V45.4412C27.9268 45.2651 28.0617 45.1242 28.2304 45.1242C28.3991 45.1242 28.5341 45.2651 28.5341 45.4412V87.8429C28.5341 88.019 28.3879 88.1599 28.2304 88.1599Z" fill="#B0865D"/>
<path d="M29.4453 88.1599C29.2766 88.1599 29.1416 88.019 29.1416 87.8429V45.4412C29.1416 45.2651 29.2766 45.1242 29.4453 45.1242C29.614 45.1242 29.749 45.2651 29.749 45.4412V87.8429C29.749 88.019 29.614 88.1599 29.4453 88.1599Z" fill="#B0865D"/>
<path d="M30.2889 89.4629H24.9352C24.699 89.4629 24.5078 89.2633 24.5078 89.0168V88.9816C24.5078 88.7351 24.699 88.5355 24.9352 88.5355H30.2889C30.5251 88.5355 30.7163 88.7351 30.7163 88.9816V89.0168C30.7163 89.2633 30.5251 89.4629 30.2889 89.4629Z" fill="#BC9875"/>
<path d="M31.1322 89.4629H24.0352V90.4959H31.1322V89.4629Z" fill="#B0865D"/>
<path d="M30.2884 44.5255H24.8897C24.6761 44.5255 24.4961 44.3377 24.4961 44.1147V44.0794C24.4961 43.8564 24.6761 43.6686 24.8897 43.6686H30.2884C30.5021 43.6686 30.6821 43.8564 30.6821 44.0794V44.1147C30.6821 44.3377 30.5021 44.5255 30.2884 44.5255Z" fill="#BC9875"/>
<path d="M31.0094 42.7881H24.0811V43.6686H31.0094V42.7881Z" fill="#B0865D"/>
<path d="M47.9685 44.5138H42.5811V89.2281H47.9685V44.5138Z" fill="#BC9875"/>
<path d="M43.4814 88.1599C43.3127 88.1599 43.1777 88.019 43.1777 87.8429V45.4412C43.1777 45.2651 43.3127 45.1242 43.4814 45.1242C43.6501 45.1242 43.7851 45.2651 43.7851 45.4412V87.8429C43.7851 88.019 43.6501 88.1599 43.4814 88.1599Z" fill="#B0865D"/>
<path d="M44.6963 88.1599C44.5275 88.1599 44.3926 88.019 44.3926 87.8429V45.4412C44.3926 45.2651 44.5275 45.1242 44.6963 45.1242C44.865 45.1242 44.9999 45.2651 44.9999 45.4412V87.8429C44.9999 88.019 44.865 88.1599 44.6963 88.1599Z" fill="#B0865D"/>
<path d="M45.9218 88.1599C45.7531 88.1599 45.6182 88.019 45.6182 87.8429V45.4412C45.6182 45.2651 45.7531 45.1242 45.9218 45.1242C46.0905 45.1242 46.2255 45.2651 46.2255 45.4412V87.8429C46.2255 88.019 46.0905 88.1599 45.9218 88.1599Z" fill="#B0865D"/>
<path d="M47.1367 88.1599C46.968 88.1599 46.833 88.019 46.833 87.8429V45.4412C46.833 45.2651 46.968 45.1242 47.1367 45.1242C47.3054 45.1242 47.4404 45.2651 47.4404 45.4412V87.8429C47.4404 88.019 47.3054 88.1599 47.1367 88.1599Z" fill="#B0865D"/>
<path d="M47.9798 89.4629H42.6374C42.4012 89.4629 42.21 89.2633 42.21 89.0168V88.9816C42.21 88.7351 42.4012 88.5355 42.6374 88.5355H47.991C48.2272 88.5355 48.4184 88.7351 48.4184 88.9816V89.0168C48.4184 89.2633 48.216 89.4629 47.9798 89.4629Z" fill="#BC9875"/>
<path d="M48.8236 89.4629H41.7266V90.4959H48.8236V89.4629Z" fill="#B0865D"/>
<path d="M47.9798 44.5138H42.5812C42.3675 44.5138 42.1875 44.326 42.1875 44.1029V44.0677C42.1875 43.8447 42.3675 43.6569 42.5812 43.6569H47.9798C48.1935 43.6569 48.3735 43.8447 48.3735 44.0677V44.1029C48.3735 44.3377 48.1935 44.5138 47.9798 44.5138Z" fill="#BC9875"/>
<path d="M48.7008 42.7881H41.7725V43.6686H48.7008V42.7881Z" fill="#B0865D"/>
<path d="M54.2792 40.006H7.19824V42.7999H54.2792V40.006Z" fill="#BC9875"/>
<path d="M54.2787 39.6068H6.5791V40.0059H54.2787V39.6068Z" fill="#D1B79F"/>
<path d="M10.2229 35.5568H8.08594V39.5951H10.2229V35.5568Z" fill="#B0865D"/>
<path d="M15.8694 35.5568H13.7324V39.5951H15.8694V35.5568Z" fill="#B0865D"/>
<path d="M21.5042 35.5568H19.3672V39.5951H21.5042V35.5568Z" fill="#B0865D"/>
<path d="M27.1506 35.5568H25.0137V39.5951H27.1506V35.5568Z" fill="#B0865D"/>
<path d="M32.7854 35.5568H30.6484V39.5951H32.7854V35.5568Z" fill="#B0865D"/>
<path d="M38.4202 35.5568H36.2832V39.5951H38.4202V35.5568Z" fill="#B0865D"/>
<path d="M49.7014 35.5568H47.5645V39.5951H49.7014V35.5568Z" fill="#B0865D"/>
<path d="M44.0667 35.5568H41.9297V39.5951H44.0667V35.5568Z" fill="#B0865D"/>
<path d="M55.3469 35.5568H53.21V39.5951H55.3469V35.5568Z" fill="#B0865D"/>
<path d="M54.1331 33.972H4.54395V35.5568H54.1331V33.972Z" fill="#B0865D"/>
<path d="M54.1775 33.1738H3.96973V33.972H54.1775V33.1738Z" fill="#BC9875"/>
<path d="M54.189 33.2325H3.97006L3.09277 31.9529H54.189V33.2325Z" fill="#B0865D"/>
<path d="M54.189 31.366H3.09277V31.9647H54.189V31.366Z" fill="#D1B79F"/>
<path d="M31.7171 25.8016V26.729H28.5454V27.6564H24.3164V28.5838H20.2224V29.5112H14.2613V30.4386H7.63672V31.366H41.0748V30.4386V29.5112V28.5838V27.6564V26.729V25.8016H31.7171Z" fill="#BC9875"/>
<path d="M54.1326 21.2468H39.1963V21.916H54.1326V21.2468Z" fill="#BC9875"/>
<path d="M54.2564 21.916H53.9977H39.5225V24.1347H53.9977H54.2564H68.7316V21.916H54.2564Z" fill="#7C563E"/>
<path d="M54.1436 20.3429H41.0293V21.2468H54.1436V20.3429Z" fill="#D1B79F"/>
<path d="M41.839 21.916H41.0742V23.5947H41.839V21.916Z" fill="#B0865D"/>
<path d="M42.8967 21.916H42.1318V23.5947H42.8967V21.916Z" fill="#B0865D"/>
<path d="M45.922 21.916H45.1572V23.5947H45.922V21.916Z" fill="#B0865D"/>
<path d="M46.9904 21.916H46.2256V23.5947H46.9904V21.916Z" fill="#B0865D"/>
<path d="M50.0158 21.916H49.251V23.5947H50.0158V21.916Z" fill="#B0865D"/>
<path d="M51.0841 21.916H50.3193V23.5947H51.0841V21.916Z" fill="#B0865D"/>
<path d="M95.6673 89.238H101.055V44.5237H95.6673V89.238Z" fill="#BC9875"/>
<path d="M100.156 88.1716C100.325 88.1716 100.46 88.0308 100.46 87.8547V45.4412C100.46 45.2651 100.325 45.1243 100.156 45.1243C99.9875 45.1243 99.8525 45.2651 99.8525 45.4412V87.843C99.8525 88.019 99.9988 88.1716 100.156 88.1716Z" fill="#B0865D"/>
<path d="M98.9414 88.1716C99.1101 88.1716 99.245 88.0308 99.245 87.8547V45.4412C99.245 45.2651 99.1101 45.1243 98.9414 45.1243C98.7727 45.1243 98.6377 45.2651 98.6377 45.4412V87.843C98.6377 88.019 98.7727 88.1716 98.9414 88.1716Z" fill="#B0865D"/>
<path d="M97.7265 88.1716C97.8952 88.1716 98.0302 88.0308 98.0302 87.8547V45.4412C98.0302 45.2651 97.8952 45.1243 97.7265 45.1243C97.5578 45.1243 97.4229 45.2651 97.4229 45.4412V87.843C97.4229 88.019 97.5578 88.1716 97.7265 88.1716Z" fill="#B0865D"/>
<path d="M96.501 88.1716C96.6697 88.1716 96.8046 88.0308 96.8046 87.8547V45.4412C96.8046 45.2651 96.6697 45.1243 96.501 45.1243C96.3322 45.1243 96.1973 45.2651 96.1973 45.4412V87.843C96.1973 88.019 96.3322 88.1716 96.501 88.1716Z" fill="#B0865D"/>
<path d="M95.6569 89.4746H101.011C101.247 89.4746 101.438 89.2751 101.438 89.0286V88.9933C101.438 88.7468 101.247 88.5472 101.011 88.5472H95.6569C95.4207 88.5472 95.2295 88.7468 95.2295 88.9933V89.0286C95.2295 89.2751 95.4207 89.4746 95.6569 89.4746Z" fill="#BC9875"/>
<path d="M94.8122 90.5079H101.909V89.4749H94.8122V90.5079Z" fill="#B0865D"/>
<path d="M95.6573 44.5255H101.056C101.27 44.5255 101.45 44.3377 101.45 44.1147V44.0794C101.45 43.8564 101.27 43.6686 101.056 43.6686H95.6573C95.4436 43.6686 95.2637 43.8564 95.2637 44.0794V44.1147C95.2749 44.3377 95.4436 44.5255 95.6573 44.5255Z" fill="#BC9875"/>
<path d="M94.9457 43.6762H101.874V42.7958H94.9457V43.6762Z" fill="#B0865D"/>
<path d="M77.9719 89.2295H83.3594V44.5152H77.9719V89.2295Z" fill="#BC9875"/>
<path d="M82.4648 88.1599C82.6335 88.1599 82.7685 88.019 82.7685 87.8429V45.4412C82.7685 45.2651 82.6335 45.1242 82.4648 45.1242C82.2961 45.1242 82.1611 45.2651 82.1611 45.4412V87.8429C82.1611 88.019 82.2961 88.1599 82.4648 88.1599Z" fill="#B0865D"/>
<path d="M81.25 88.1599C81.4187 88.1599 81.5536 88.019 81.5536 87.8429V45.4412C81.5536 45.2651 81.4187 45.1242 81.25 45.1242C81.0813 45.1242 80.9463 45.2651 80.9463 45.4412V87.8429C80.9463 88.019 81.0813 88.1599 81.25 88.1599Z" fill="#B0865D"/>
<path d="M80.0244 88.1599C80.1931 88.1599 80.3281 88.019 80.3281 87.8429V45.4412C80.3281 45.2651 80.1931 45.1242 80.0244 45.1242C79.8557 45.1242 79.7207 45.2651 79.7207 45.4412V87.8429C79.7207 88.019 79.8669 88.1599 80.0244 88.1599Z" fill="#B0865D"/>
<path d="M78.8095 88.1599C78.9782 88.1599 79.1132 88.019 79.1132 87.8429V45.4412C79.1132 45.2651 78.9782 45.1242 78.8095 45.1242C78.6408 45.1242 78.5059 45.2651 78.5059 45.4412V87.8429C78.5059 88.019 78.6408 88.1599 78.8095 88.1599Z" fill="#B0865D"/>
<path d="M77.9659 89.4629H83.3196C83.5558 89.4629 83.747 89.2633 83.747 89.0168V88.9816C83.747 88.7351 83.5558 88.5355 83.3196 88.5355H77.9659C77.7297 88.5355 77.5385 88.7351 77.5385 88.9816V89.0168C77.5273 89.2633 77.7297 89.4629 77.9659 89.4629Z" fill="#BC9875"/>
<path d="M77.1169 90.5112H84.2139V89.4782H77.1169V90.5112Z" fill="#B0865D"/>
<path d="M77.9659 44.5255H83.3646C83.5783 44.5255 83.7582 44.3376 83.7582 44.1146V44.0794C83.7582 43.8563 83.5783 43.6685 83.3646 43.6685H77.9659C77.7522 43.6685 77.5723 43.8563 77.5723 44.0794V44.1146C77.5723 44.3376 77.7522 44.5255 77.9659 44.5255Z" fill="#BC9875"/>
<path d="M77.2504 43.6677H84.1787V42.7873H77.2504V43.6677Z" fill="#B0865D"/>
<path d="M60.2757 89.233H65.6631V44.5186H60.2757L60.2757 89.233Z" fill="#BC9875"/>
<path d="M64.7724 88.1599C64.9411 88.1599 65.0761 88.019 65.0761 87.8429V45.4412C65.0761 45.2651 64.9411 45.1242 64.7724 45.1242C64.6037 45.1242 64.4688 45.2651 64.4688 45.4412V87.8429C64.4688 88.019 64.6037 88.1599 64.7724 88.1599Z" fill="#B0865D"/>
<path d="M63.5576 88.1599C63.7263 88.1599 63.8613 88.019 63.8613 87.8429V45.4412C63.8613 45.2651 63.7263 45.1242 63.5576 45.1242C63.3889 45.1242 63.2539 45.2651 63.2539 45.4412V87.8429C63.2539 88.019 63.3889 88.1599 63.5576 88.1599Z" fill="#B0865D"/>
<path d="M62.332 88.1599C62.5007 88.1599 62.6357 88.019 62.6357 87.8429V45.4412C62.6357 45.2651 62.5007 45.1242 62.332 45.1242C62.1633 45.1242 62.0283 45.2651 62.0283 45.4412V87.8429C62.0283 88.019 62.1633 88.1599 62.332 88.1599Z" fill="#B0865D"/>
<path d="M61.1172 88.1599C61.2859 88.1599 61.4208 88.019 61.4208 87.8429V45.4412C61.4208 45.2651 61.2859 45.1242 61.1172 45.1242C60.9484 45.1242 60.8135 45.2651 60.8135 45.4412V87.8429C60.8135 88.019 60.9484 88.1599 61.1172 88.1599Z" fill="#B0865D"/>
<path d="M60.2735 89.4629H65.6272C65.8634 89.4629 66.0546 89.2633 66.0546 89.0168V88.9816C66.0546 88.7351 65.8634 88.5355 65.6272 88.5355H60.2735C60.0374 88.5355 59.8462 88.7351 59.8462 88.9816V89.0168C59.8349 89.2633 60.0374 89.4629 60.2735 89.4629Z" fill="#BC9875"/>
<path d="M59.4206 90.5029H66.5176V89.4699H59.4206V90.5029Z" fill="#B0865D"/>
<path d="M60.2735 44.5138H65.6722C65.8859 44.5138 66.0659 44.326 66.0659 44.1029V44.0677C66.0659 43.8447 65.8859 43.6569 65.6722 43.6569H60.2735C60.0598 43.6569 59.8799 43.8447 59.8799 44.0677V44.1029C59.8799 44.3377 60.0598 44.5138 60.2735 44.5138Z" fill="#BC9875"/>
<path d="M59.5541 43.6593H66.4824V42.7789H59.5541V43.6593Z" fill="#B0865D"/>
<path d="M53.9796 42.791L101.061 42.791V39.997L53.9796 39.997V42.791Z" fill="#BC9875"/>
<path d="M53.9791 39.9999L101.679 39.9999V39.6007L53.9791 39.6007V39.9999Z" fill="#D1B79F"/>
<path d="M98.0222 39.6038H100.159V35.5655H98.0222V39.6038Z" fill="#B0865D"/>
<path d="M92.3894 39.6038H94.5264V35.5655H92.3894V39.6038Z" fill="#B0865D"/>
<path d="M86.7458 39.6038H88.8828V35.5655H86.7458V39.6038Z" fill="#B0865D"/>
<path d="M81.1013 39.6038H83.2383V35.5655H81.1013V39.6038Z" fill="#B0865D"/>
<path d="M75.4685 39.6038H77.6055V35.5655H75.4685V39.6038Z" fill="#B0865D"/>
<path d="M69.8249 39.6038H71.9619V35.5655H69.8249V39.6038Z" fill="#B0865D"/>
<path d="M58.5486 39.6038H60.6855V35.5655H58.5486V39.6038Z" fill="#B0865D"/>
<path d="M64.1921 39.6038H66.3291V35.5655H64.1921V39.6038Z" fill="#B0865D"/>
<path d="M52.905 39.6038H55.042V35.5655H52.905V39.6038Z" fill="#B0865D"/>
<path d="M54.1189 35.562L103.708 35.562V33.9772L54.1189 33.9772V35.562Z" fill="#B0865D"/>
<path d="M54.0745 33.9807L104.282 33.9807V33.2529L54.0745 33.2529V33.9807Z" fill="#BC9875"/>
<path d="M54.0654 33.2325H104.284L105.162 31.9529H54.0654V33.2325Z" fill="#B0865D"/>
<path d="M54.0698 31.9542L105.166 31.9542V31.3555L54.0698 31.3555V31.9542Z" fill="#D1B79F"/>
<path d="M93.9931 30.4386V29.5112H88.0321V28.5838H83.9381V27.6564H79.7091V26.729H76.5374V25.8016H67.1797V26.729V27.6564V28.5838V29.5112V30.4386V31.366H100.618V30.4386H93.9931Z" fill="#BC9875"/>
<path d="M54.1193 21.9204L69.0557 21.9204V21.2513L54.1193 21.2513V21.9204Z" fill="#BC9875"/>
<path d="M54.1162 21.2502H67.2305V20.3463H54.1162V21.2502Z" fill="#D1B79F"/>
<path d="M66.4159 23.5958H67.1807V21.9171H66.4159V23.5958Z" fill="#B0865D"/>
<path d="M65.3602 23.5958H66.125V21.9171H65.3602V23.5958Z" fill="#B0865D"/>
<path d="M62.325 23.5958H63.0898V21.9171H62.325V23.5958Z" fill="#B0865D"/>
<path d="M61.2694 23.5958H62.0342V21.9171H61.2694V23.5958Z" fill="#B0865D"/>
<path d="M58.2332 23.5958H58.998V21.9171H58.2332V23.5958Z" fill="#B0865D"/>
<path d="M57.1668 23.5958H57.9316V21.9171H57.1668V23.5958Z" fill="#B0865D"/>
<path d="M48.2057 17.9716C48.2057 17.9716 49.038 17.7955 48.7118 16.5277C48.3856 15.2598 46.8672 14.2855 46.676 13.8512C46.4736 13.4168 45.7988 10.4233 44.944 10.2472C44.0892 10.0829 44.629 11.9377 44.7415 12.0668C44.854 12.1959 45.0677 13.8042 44.8315 14.1446C44.5953 14.4851 44.1679 14.5438 44.2691 15.6472C44.3254 16.3046 43.8867 16.7977 43.8867 16.8916C43.8867 16.9972 44.0667 19.1925 44.1791 19.3568C44.2916 19.5212 44.5278 20.0612 44.5278 20.0612L44.854 19.3568L44.4716 19.0164C44.4716 19.0164 44.3141 17.3729 44.5503 17.1733C44.7865 16.9738 45.8212 17.0677 45.9225 17.232C46.0349 17.4316 48.2057 17.9716 48.2057 17.9716Z" fill="#374245"/>
<path d="M50.3091 20.3429C50.3091 20.3429 50.2078 18.4647 50.0279 17.7016C49.8367 16.9268 49.2181 15.8234 49.2631 14.9899C49.3081 14.1564 49.9154 13.6516 50.0279 13.0764C50.1291 12.5129 50.3316 10.2355 50.714 10.2355C51.0964 10.2355 51.2876 12.2077 51.4675 12.6421C51.6475 13.0764 51.9062 13.546 52.1986 14.5203C52.491 15.4947 52.8734 15.7294 52.8172 16.9268C52.761 18.136 52.671 18.8051 52.6372 19.3099C52.6035 19.8147 52.671 20.3429 52.671 20.3429H50.3091Z" fill="#374245"/>
<path d="M50.0391 10.9281C50.0391 11.6207 50.3315 12.1725 50.6914 12.1725C51.0513 12.1725 51.3437 11.609 51.3437 10.9281C51.3437 10.2355 51.445 9.68378 50.6914 9.68378C50.0391 9.68378 50.0391 10.2355 50.0391 10.9281Z" fill="#374245"/>
<path d="M54.2564 6.20898H53.9189V20.1433H54.2564V6.20898Z" fill="#142023"/>
<path d="M54.0879 6.3851C53.3568 6.3851 52.7607 5.71597 52.7607 4.88249C52.7607 4.04901 53.3568 3.37988 54.0879 3.37988C54.819 3.37988 55.4151 4.04901 55.4151 4.88249C55.4151 5.71597 54.8302 6.3851 54.0879 6.3851ZM54.0879 3.7438C53.5368 3.7438 53.0982 4.26032 53.0982 4.89423C53.0982 5.52814 53.548 6.04466 54.0879 6.04466C54.639 6.04466 55.0777 5.52814 55.0777 4.89423C55.0777 4.26032 54.639 3.7438 54.0879 3.7438Z" fill="#374245"/>
<path d="M53.5703 2.79289C53.5703 3.34463 53.8065 3.80246 54.0877 3.80246C54.3689 3.80246 54.6051 3.35637 54.6051 2.79289C54.6051 2.22941 54.3689 1.78333 54.0877 1.78333C53.8065 1.79506 53.5703 2.24115 53.5703 2.79289Z" fill="#374245"/>
<path d="M53.6156 2.38205C53.6156 2.38205 53.3119 2.429 53.2107 2.26465C53.1094 2.10031 53.1544 1.59552 52.9857 1.56031C52.8283 1.52509 51.5911 0.43335 51.5911 0.43335C51.5911 0.43335 51.2424 1.349 51.6698 2.17074C52.0972 2.99248 52.7495 3.34465 53.6268 3.20378C54.4928 3.06291 53.6156 2.38205 53.6156 2.38205Z" fill="#374245"/>
<path d="M54.5377 2.38205C54.5377 2.38205 54.8413 2.429 54.9426 2.26465C55.0438 2.10031 54.9988 1.59552 55.1675 1.56031C55.325 1.52509 56.5622 0.43335 56.5622 0.43335C56.5622 0.43335 56.9108 1.349 56.4834 2.17074C56.0561 2.99248 55.4037 3.34465 54.5264 3.20378C53.6716 3.06291 54.5377 2.38205 54.5377 2.38205Z" fill="#374245"/>
<path d="M53.8174 1.61898C53.8174 1.81854 53.9411 1.98289 54.0873 1.98289C54.2335 1.98289 54.3573 1.81854 54.3573 1.61898C54.3573 1.41941 54.2448 1.25507 54.0873 1.25507C53.9411 1.25507 53.8174 1.41941 53.8174 1.61898Z" fill="#374245"/>
<path d="M107.973 90.5077H0.573242V100.333H107.973V90.5077Z" fill="#7C563E"/>
<path d="M48.2279 15.5533C48.2279 15.5533 48.8577 17.2438 47.0357 17.0207C46.3833 16.9386 45.1574 16.6216 45.0449 16.7977C44.9887 16.9033 44.5388 16.8329 44.55 17.1968C44.55 17.1968 45.1686 17.0325 45.4948 17.1146C45.5848 17.1381 46.3946 17.4668 46.5858 17.5255C46.7882 17.5842 47.0919 18.1946 47.1031 18.3003C47.1256 18.406 47.2044 18.9225 47.2606 19.122C47.3168 19.3216 46.8557 20.3429 46.8557 20.3429H48.7902C48.7902 20.3429 48.6665 19.3216 48.7902 19.1103C48.9139 18.8873 48.8577 17.4903 48.779 16.8681C48.6778 16.1403 48.2279 15.5533 48.2279 15.5533Z" fill="#142023"/>
<path d="M45.6746 15.2012C45.4497 15.4595 45.5396 16.786 45.7308 17.2673C45.9221 17.7486 46.0795 19.0516 46.0908 19.2629C46.102 19.4625 45.967 20.3547 45.967 20.3547H46.4844C46.4844 20.3547 46.3832 19.3568 46.4057 19.2042C46.4282 19.0634 46.5182 18.0303 46.4844 17.6664C46.4507 17.3025 47.0355 16.3868 46.6531 15.6473C46.2595 14.9077 45.6746 15.2012 45.6746 15.2012Z" fill="#374245"/>
<path d="M45.5395 12.1138C45.5845 11.5503 45.4832 10.8929 45.4832 10.8342L44.4822 10.6581C44.4147 11.1747 44.6622 11.9847 44.7409 12.0668C44.8534 12.196 45.0671 13.8042 44.8309 14.1447C44.7297 14.2855 44.5947 14.3912 44.471 14.5438C44.6847 14.4264 44.8871 14.4499 45.0671 14.626C45.2583 14.8255 45.0896 15.5768 45.292 15.5416C45.6969 15.4712 45.7644 14.0742 45.6407 13.7103C45.517 13.3464 45.4945 12.689 45.5395 12.1138Z" fill="#142023"/>
<path d="M44.5835 10.1181C44.336 10.1064 44.0549 10.3529 43.9986 10.4468C43.9424 10.5408 43.8412 11.656 43.8749 11.8555C43.9086 12.0551 43.8749 12.466 43.8749 12.736C43.8749 13.006 43.8524 13.2994 44.0998 13.2994C44.3473 13.2994 44.606 13.2173 44.7297 12.9121C44.8534 12.6186 44.9209 12.2899 45.1008 12.0903C45.2808 11.8908 45.5845 10.9047 45.4383 10.5642C45.3033 10.2238 45.0221 10.1416 44.5835 10.1181Z" fill="#374245"/>
<path d="M50.4546 16.3281C50.6008 15.929 50.927 15.7059 51.0169 15.7999C51.1519 15.9172 51.0732 17.3377 51.0732 17.9481C51.0732 18.3472 51.2194 18.9107 51.3431 19.439C51.4556 19.9203 51.5455 20.3899 51.5455 20.3899L50.6908 20.3429V19.8029C50.6908 19.8029 50.792 18.6055 50.6908 18.1594C50.6008 17.7251 50.3533 16.6216 50.4546 16.3281Z" fill="#142023"/>
<path d="M60.2509 17.9716C60.2509 17.9716 59.4186 17.7955 59.7447 16.5277C60.0709 15.2598 61.5893 14.2855 61.7805 13.8512C61.9829 13.4168 62.6578 10.4233 63.5126 10.2472C64.3673 10.0829 63.8275 11.9377 63.715 12.0668C63.6025 12.1959 63.3888 13.8042 63.625 14.1446C63.8612 14.4851 64.2886 14.5438 64.1874 15.6472C64.1312 16.3046 64.5698 16.7977 64.5698 16.8916C64.5698 16.9972 64.3898 19.1925 64.2774 19.3568C64.1649 19.5212 63.9287 20.0612 63.9287 20.0612L63.6025 19.3568L63.9849 19.0164C63.9849 19.0164 64.1424 17.3729 63.9062 17.1733C63.67 16.9738 62.6353 17.0677 62.534 17.232C62.4328 17.4316 60.2509 17.9716 60.2509 17.9716Z" fill="#374245"/>
<path d="M58.1592 20.3429C58.1592 20.3429 58.2604 18.4647 58.4404 17.7016C58.6316 16.9268 59.2502 15.8234 59.2052 14.9899C59.1602 14.1564 58.5529 13.6516 58.4404 13.0764C58.3392 12.5129 58.1367 10.2355 57.7543 10.2355C57.3719 10.2355 57.1807 12.2077 57.0007 12.6421C56.8208 13.0764 56.5621 13.546 56.2697 14.5203C55.9772 15.4947 55.5948 15.7294 55.6511 16.9268C55.7073 18.136 55.7973 18.8051 55.831 19.3099C55.8648 19.8147 55.7973 20.3429 55.7973 20.3429H58.1592Z" fill="#374245"/>
<path d="M58.4176 10.9281C58.4176 11.6207 58.1252 12.1725 57.7653 12.1725C57.4054 12.1725 57.1129 11.609 57.1129 10.9281C57.1129 10.2355 57.0117 9.68378 57.7653 9.68378C58.4176 9.68378 58.4176 10.2355 58.4176 10.9281Z" fill="#374245"/>
<path d="M60.2401 15.5533C60.2401 15.5533 59.6103 17.2438 61.4324 17.0207C62.0847 16.9386 63.3106 16.6216 63.4231 16.7977C63.4794 16.9033 63.9292 16.8329 63.918 17.1968C63.918 17.1968 63.2994 17.0325 62.9732 17.1146C62.8832 17.1381 62.0734 17.4668 61.8822 17.5255C61.6798 17.5842 61.3761 18.1946 61.3649 18.3003C61.3424 18.406 61.2636 18.9225 61.2074 19.122C61.1512 19.3216 61.6123 20.3429 61.6123 20.3429H59.6778C59.6778 20.3429 59.8015 19.3216 59.6778 19.1103C59.5541 18.899 59.6103 17.4903 59.689 16.8681C59.779 16.1403 60.2401 15.5533 60.2401 15.5533Z" fill="#142023"/>
<path d="M62.7821 15.2012C63.007 15.4595 62.917 16.786 62.7258 17.2673C62.5346 17.7486 62.3772 19.0516 62.3659 19.2629C62.3547 19.4625 62.4896 20.3547 62.4896 20.3547H61.9835C61.9835 20.3547 62.0847 19.3568 62.0622 19.2042C62.0397 19.0634 61.9498 18.0303 61.9835 17.6664C62.0172 17.3025 61.4324 16.3868 61.8148 15.6473C62.2085 14.9077 62.7821 15.2012 62.7821 15.2012Z" fill="#374245"/>
<path d="M62.9168 12.1138C62.8718 11.5503 62.9731 10.8929 62.9731 10.8342L63.9741 10.6581C64.0415 11.1747 63.7941 11.9847 63.7154 12.0668C63.6029 12.196 63.3892 13.8042 63.6254 14.1447C63.7266 14.2855 63.8616 14.3912 63.9853 14.5438C63.7716 14.4264 63.5692 14.4499 63.3892 14.626C63.198 14.8255 63.3667 15.5768 63.1643 15.5416C62.7594 15.4712 62.6919 14.0742 62.8156 13.7103C62.9393 13.3464 62.9618 12.689 62.9168 12.1138Z" fill="#142023"/>
<path d="M63.8729 10.1181C64.1203 10.1064 64.4015 10.3529 64.4577 10.4468C64.514 10.5408 64.6152 11.656 64.5814 11.8555C64.5477 12.0551 64.5814 12.466 64.5814 12.736C64.5814 13.006 64.6039 13.2994 64.3565 13.2994C64.1091 13.2994 63.8504 13.2173 63.7267 12.9121C63.6029 12.6186 63.5355 12.2899 63.3555 12.0903C63.1755 11.8908 62.8719 10.9047 63.0181 10.5642C63.153 10.2238 63.4342 10.1416 63.8729 10.1181Z" fill="#374245"/>
<path d="M58.0021 16.3281C57.8559 15.929 57.5297 15.7059 57.4398 15.7999C57.3048 15.9172 57.3835 17.3377 57.3835 17.9481C57.3835 18.3472 57.2373 18.9107 57.1136 19.439C57.0011 19.9203 56.9111 20.3899 56.9111 20.3899L57.7659 20.3429V19.8029C57.7659 19.8029 57.6647 18.6055 57.7659 18.1594C57.8672 17.7251 58.1033 16.6216 58.0021 16.3281Z" fill="#142023"/>
<path d="M54.2561 24.1346H53.9974H41.0293V31.3659H53.9974H54.2561H67.2241V24.1346H54.2561Z" fill="#B0865D"/>
<path d="M66.1109 25.3086H42.1543V30.1921H66.1109V25.3086Z" fill="#BC9875"/>
<path d="M54.1105 21.916H53.3457V23.5947H54.1105V21.916Z" fill="#B0865D"/>
<path d="M55.1789 21.916H54.4141V23.5947H55.1789V21.916Z" fill="#B0865D"/>
<path d="M4.54395 34.4533V33.972H103.711V34.8173L4.54395 34.4533Z" fill="#CCC1B9"/>
<path d="M67.2246 23.2894L80.4739 31.366H67.2246V23.2894Z" fill="#CCC1B9"/>
<path d="M7.19824 44.5255H12.5969L12.6082 88.5355H11.4497C11.4497 88.5355 11.7534 48.599 11.1348 47.0612C10.37 45.1946 7.19824 44.5255 7.19824 44.5255Z" fill="#DFD8D3"/>
<path d="M24.8789 44.5255H30.2776L30.2888 88.5355H29.1416C29.1416 88.5355 29.4453 48.599 28.8267 47.0612C28.0619 45.1946 24.8789 44.5255 24.8789 44.5255Z" fill="#DFD8D3"/>
<path d="M42.5703 44.5255H47.969L47.9802 88.5355H46.833C46.833 88.5355 47.1367 48.599 46.5181 47.0612C45.7533 45.1946 42.5703 44.5255 42.5703 44.5255Z" fill="#DFD8D3"/>
<path d="M60.2627 44.5255H65.6614L65.6726 88.5355H64.5254C64.5254 88.5355 64.8291 48.599 64.2105 47.0612C63.4457 45.1946 60.2627 44.5255 60.2627 44.5255Z" fill="#DFD8D3"/>
<path d="M77.9541 44.5255H83.3528L83.364 88.5355H82.2168C82.2168 88.5355 82.5205 48.599 81.9019 47.0612C81.1258 45.1946 77.9541 44.5255 77.9541 44.5255Z" fill="#DFD8D3"/>
<path d="M95.6465 44.5255H101.045L101.056 88.5355H99.9092C99.9092 88.5355 100.213 48.599 99.5943 47.0612C98.8182 45.1946 95.6465 44.5255 95.6465 44.5255Z" fill="#DFD8D3"/>
<path d="M0.573242 100.333H107.973V90.5077L0.573242 100.333Z" fill="#7C563E"/>
</g>
<defs>
<clipPath id="clip0_1226_496">
<rect width="107.4" height="99.9" fill="white" transform="translate(0.573242 0.43335)"/>
</clipPath>
</defs>
</svg>
