<svg width="81" height="137" viewBox="0 0 81 137" fill="none" xmlns="http://www.w3.org/2000/svg">
<g clip-path="url(#clip0_1226_384)">
<path d="M16.779 127.209C17.3501 124.692 15.845 122.172 13.4173 121.58C10.9895 120.988 8.55843 122.548 7.98728 125.065C7.41613 127.582 8.92121 130.102 11.349 130.694C13.7767 131.287 16.2078 129.726 16.779 127.209Z" fill="#7DBD41"/>
<path d="M8.93249 122.912C10.702 121.356 12.4548 121.194 13.8895 121.72C12.1311 122.363 10.8751 124.093 10.8751 126.13C10.8751 128.167 12.1367 129.904 13.8895 130.54C13.4206 130.714 12.9182 130.812 12.3879 130.812C8.899 130.812 6.33679 126.715 8.93249 122.912Z" fill="#64992B"/>
<path d="M7.36934 125.737C8.06711 125.737 8.73697 125.852 9.36775 126.055C12.0025 126.917 13.9228 129.435 14.0065 132.427H4.72897H0.726562C0.832624 128.717 3.76326 125.737 7.36934 125.737Z" fill="#7DBD41"/>
<path d="M7.36934 125.737C8.06711 125.737 8.73697 125.852 9.36775 126.055C6.73297 126.917 4.81271 129.435 4.72897 132.427H0.726562C0.832624 128.717 3.76326 125.737 7.36934 125.737Z" fill="#64992B"/>
<path d="M16.8641 124.544C17.5675 124.544 18.2429 124.649 18.8849 124.828C15.636 125.742 13.2301 128.787 13.1743 132.433H9.13281C9.1998 128.063 12.6328 124.544 16.8641 124.544Z" fill="#64992B"/>
<path d="M18.8844 124.834C22.1332 125.748 24.5391 128.792 24.5949 132.438H13.1738C13.2352 128.787 15.6356 125.742 18.8844 124.834Z" fill="#7DBD41"/>
<path d="M45.6792 85.5784C45.3611 85.5494 45.1155 85.2716 45.1434 84.9591L45.1489 84.907C45.1769 84.5945 45.456 84.363 45.7797 84.392H45.7853L45.9472 82.4243C46.0421 81.3131 45.1769 80.3177 44.0325 80.2135C42.8882 80.1093 41.8722 80.9369 41.7829 82.0481L41.621 84.0158H41.6489C41.9671 84.0447 42.2127 84.3225 42.1848 84.635L42.1792 84.6871C42.1513 84.9996 41.8722 85.2311 41.5484 85.2022H41.5205L40.5771 96.5106L44.7414 96.881L45.6848 85.5726L45.6792 85.5784Z" fill="#CE974E"/>
<path d="M24.2111 74.4435L23.5468 82.4069L23.4463 83.5875L22.5029 94.896L25.7462 95.1854L26.6896 83.8769H26.7007C27.0189 83.9058 27.3036 83.6743 27.3315 83.3618L27.3371 83.3097C27.365 82.9972 27.125 82.7194 26.8012 82.6905H26.79L26.9519 80.7228C27.0468 79.6116 28.0572 78.784 29.2015 78.8882C30.3459 78.9924 31.2055 79.982 31.1162 81.099L30.9543 83.0667H30.9264C30.6082 83.0377 30.3235 83.2692 30.2956 83.5817L30.29 83.6338C30.2621 83.9463 30.5078 84.2241 30.8259 84.2531H30.8538L29.9105 95.5615L33.1593 95.8509L34.1027 84.5424H34.1194C34.4376 84.5714 34.7223 84.3399 34.7502 84.0274L34.7558 83.9753C34.7837 83.6628 34.5437 83.385 34.2199 83.356H34.2031L34.365 81.3883C34.4599 80.2772 35.4703 79.4496 36.6146 79.5538C37.759 79.6579 38.6186 80.6476 38.5293 81.7645L38.3674 83.7322H38.3507C38.0325 83.7033 37.7478 83.9348 37.7199 84.2473L37.7143 84.2994C37.6864 84.6119 37.932 84.8897 38.2502 84.9186H38.267L37.3236 96.2271L40.5724 96.5164L41.5214 85.208H41.5493C41.8675 85.2369 42.1521 85.0054 42.1801 84.6929L42.1856 84.6408C42.2135 84.3283 41.9679 84.0505 41.6498 84.0216H41.6218L41.7837 82.0539C41.8786 80.9427 42.889 80.1151 44.0333 80.2193C45.1777 80.3235 46.0429 81.3131 45.948 82.4301L45.7861 84.3978H45.7806C45.4624 84.3688 45.1777 84.6003 45.1498 84.9128L45.1442 84.9649C45.1163 85.2774 45.3619 85.5552 45.6801 85.5842H45.6857L44.7423 96.8926L47.9911 97.182L48.9345 85.8735L48.968 85.8793C49.2861 85.9083 49.5708 85.6768 49.5988 85.3642L49.6043 85.3122C49.6322 84.9996 49.3866 84.7218 49.0684 84.6929L49.035 84.6871L49.1968 82.7194C49.2917 81.6083 50.3021 80.7807 51.4464 80.8848C52.5908 80.989 53.4504 81.9786 53.3611 83.0956L53.1992 85.0633C52.8811 85.0344 52.5964 85.2659 52.574 85.5784L52.5685 85.6305C52.5406 85.943 52.7806 86.2208 53.1043 86.2497L52.161 97.5639L55.4042 97.8533L57.1068 77.4009L24.2111 74.4435Z" fill="#EFB867"/>
<path d="M55.1359 61.9024C54.8177 61.8734 54.5777 61.5957 54.6 61.2831L54.6056 61.2311C54.6335 60.9185 54.9126 60.6928 55.2308 60.716L55.3927 58.7483C55.4875 57.6371 54.6223 56.6417 53.478 56.5375C52.3336 56.4334 51.3177 57.2609 51.2284 58.3721L51.0665 60.3398L51.1 60.3456C51.4182 60.3745 51.6638 60.6523 51.6359 60.9648L51.6303 61.0169C51.6024 61.3294 51.3233 61.5609 50.9995 61.532L50.966 61.5262L50.0226 72.8347L46.7738 72.5453L47.7172 61.2368H47.7116C47.3934 61.2079 47.1478 60.9301 47.1757 60.6176L47.1813 60.5655C47.2092 60.253 47.4883 60.0215 47.8121 60.0504H47.8177L47.9795 58.0827C48.0744 56.9716 47.2092 55.9762 46.0649 55.872C44.9205 55.7678 43.9046 56.5954 43.8152 57.7066L43.6534 59.6743H43.6813C43.9995 59.7032 44.2451 59.981 44.2172 60.2935L44.2116 60.3456C44.1837 60.6581 43.9046 60.8896 43.5808 60.8607H43.5529L42.6095 72.1691L39.3607 71.8797L40.3041 60.5713H40.2873C39.9691 60.5424 39.7235 60.2646 39.7514 59.9521L39.757 59.9C39.7849 59.5875 40.064 59.356 40.3878 59.3849H40.4045L40.5664 57.4172C40.6613 56.306 39.7961 55.3106 38.6517 55.2064C37.5074 55.1023 36.4914 55.9299 36.4021 57.041L36.2403 59.0087H36.257C36.5752 59.0377 36.8208 59.3154 36.7929 59.628L36.7873 59.68C36.7594 59.9926 36.4803 60.2241 36.1565 60.1951H36.1398L35.1964 71.5036L31.9476 71.2142L32.891 59.9058H32.863C32.5449 59.8768 32.2992 59.599 32.3272 59.2865L32.3327 59.2344C32.3606 58.9219 32.6398 58.6904 32.9635 58.7194H32.9914L33.1533 56.7517C33.2482 55.6405 32.383 54.6451 31.2386 54.5409C30.0943 54.4367 29.0783 55.2643 28.989 56.3755L28.8271 58.3432H28.8383C29.1565 58.3721 29.4021 58.6499 29.3742 58.9624L29.3686 59.0145C29.3407 59.327 29.0616 59.5585 28.7378 59.5296H28.7267L27.7833 70.838L24.54 70.5487L57.4301 73.4944L54.1869 73.205L55.1359 61.9024Z" fill="#CE974E"/>
<path d="M58.524 61.017L58.4682 61.0112L59.1324 53.0478L26.2423 50.1021L25.578 58.0654L25.5334 58.0596C25.2152 58.0307 24.9305 58.2622 24.9026 58.5747L24.897 58.6268C24.8691 58.9393 25.1147 59.2171 25.4329 59.246L25.4776 59.2518L24.5342 70.5603L27.7774 70.8496L28.7208 59.5412H28.732C29.0502 59.5701 29.3348 59.3386 29.3628 59.0261L29.3683 58.974C29.3962 58.6615 29.1562 58.3837 28.8324 58.3548H28.8213L28.9832 56.3871C29.0781 55.2759 30.0884 54.4483 31.2328 54.5525C32.3771 54.6567 33.2424 55.6463 33.1475 56.7633L32.9856 58.731H32.9577C32.6395 58.702 32.3548 58.9335 32.3269 59.246L32.3213 59.2981C32.2934 59.6106 32.539 59.8884 32.8572 59.9174H32.8851L31.9417 71.2258L35.1905 71.5152L36.1339 60.2067H36.1507C36.4688 60.2357 36.7535 60.0042 36.7814 59.6917L36.787 59.6396C36.8149 59.3271 36.5693 59.0493 36.2511 59.0203H36.2344L36.3963 57.0526C36.4912 55.9415 37.5015 55.1139 38.6459 55.2181C39.7902 55.3222 40.6499 56.3119 40.5606 57.4288L40.3987 59.3965H40.3819C40.0638 59.3676 39.7791 59.5991 39.7512 59.9116L39.7456 59.9637C39.7177 60.2762 39.9633 60.554 40.2815 60.5829H40.2982L39.3548 71.8914L42.6036 72.1807L43.547 60.8723H43.5749C43.8931 60.9012 44.1778 60.6697 44.2057 60.3572L44.2113 60.3051C44.2392 59.9926 43.9936 59.7148 43.6754 59.6859H43.6475L43.8094 57.7182C43.9043 56.607 44.9147 55.7794 46.059 55.8836C47.2033 55.9878 48.0686 56.9774 47.9737 58.0944L47.8118 60.0621H47.8062C47.488 60.0331 47.2033 60.2646 47.1754 60.5771L47.1699 60.6292C47.1419 60.9417 47.382 61.2195 47.7057 61.2485H47.7113L46.7679 72.5569L50.0168 72.8463L50.9601 61.5378L50.9936 61.5436C51.3118 61.5725 51.5965 61.3411 51.6244 61.0285L51.63 60.9765C51.6579 60.6639 51.4123 60.3861 51.0941 60.3572L51.0606 60.3514L51.2225 58.3837C51.3174 57.2726 52.3278 56.445 53.4721 56.5491C54.6165 56.6533 55.4817 57.6429 55.3868 58.7599L55.2249 60.7276C54.9067 60.6987 54.622 60.9302 54.5997 61.2427L54.5941 61.2948C54.5662 61.6073 54.8063 61.8851 55.13 61.914L54.1866 73.2225L57.4299 73.5118L58.3733 62.2034L58.4291 62.2092C58.7473 62.2381 59.032 62.0066 59.0599 61.6941L59.0654 61.642C59.0822 61.3237 58.8422 61.0459 58.524 61.017Z" fill="#EFB867"/>
<path d="M57.1564 37.6651C56.8382 37.6361 56.5982 37.3583 56.6205 37.0458L56.6261 36.9937C56.654 36.6812 56.9331 36.4555 57.2513 36.4787L57.4132 34.511C57.5081 33.3998 56.6428 32.4044 55.4985 32.3002C54.3541 32.196 53.3382 33.0236 53.2489 34.1348L53.087 36.1025L53.1205 36.1083C53.4387 36.1372 53.6843 36.415 53.6564 36.7275L53.6508 36.7796C53.6229 37.0921 53.3438 37.3236 53.02 37.2947L52.9865 37.2889L52.0431 48.5973L48.7943 48.308L49.7377 36.9995H49.7321C49.4139 36.9706 49.1683 36.6928 49.1962 36.3803L49.2018 36.3282C49.2297 36.0157 49.5088 35.7842 49.8326 35.8131H49.8382L50.0001 33.8454C50.095 32.7343 49.2297 31.7388 48.0854 31.6347C46.941 31.5305 45.9251 32.3581 45.8358 33.4693L45.6739 35.437H45.7018C46.02 35.4659 46.2656 35.7437 46.2377 36.0562L46.2321 36.1083C46.2042 36.4208 45.9251 36.6523 45.6013 36.6234H45.5734L44.63 47.9318L41.3812 47.6424L42.3246 36.334H42.3078C41.9897 36.3051 41.744 36.0273 41.7719 35.7147L41.7775 35.6627C41.8054 35.3501 42.0845 35.1187 42.4083 35.1476H42.4251L42.5869 33.1799C42.6818 32.0687 41.8166 31.0733 40.6723 30.9691C39.5279 30.865 38.512 31.6925 38.4226 32.8037L38.2608 34.7714H38.2775C38.5957 34.8003 38.8413 35.0781 38.8134 35.3907L38.8078 35.4427C38.7799 35.7553 38.5008 35.9868 38.177 35.9578H38.1603L37.2169 47.2663L33.9681 46.9769L34.9115 35.6684H34.8836C34.5654 35.6395 34.3198 35.3617 34.3477 35.0492L34.3532 34.9971C34.3812 34.6846 34.6603 34.4531 34.984 34.482H35.0119L35.1738 32.5144C35.2687 31.4032 34.4035 30.4078 33.2591 30.3036C32.1148 30.1994 31.0988 31.027 31.0095 32.1382L30.8477 34.1059H30.8588C31.177 34.1348 31.4226 34.4126 31.3947 34.7251L31.3891 34.7772C31.3612 35.0897 31.0821 35.3212 30.7583 35.2923H30.7472L29.8038 46.6007L26.5605 46.3114L59.4507 49.2571L56.2074 48.9677L57.1564 37.6651Z" fill="#CE974E"/>
<path d="M60.5445 36.7738L60.4887 36.768L61.1529 28.8046L28.2628 25.8589L27.5986 33.8223L27.5539 33.8165C27.2357 33.7875 26.951 34.019 26.9231 34.3315L26.9175 34.3836C26.8896 34.6961 27.1297 34.9739 27.4534 35.0029L27.4981 35.0087L26.5547 46.3171L29.7979 46.6065L30.7413 35.298H30.7525C31.0707 35.327 31.3553 35.0955 31.3833 34.783L31.3888 34.7309C31.4168 34.4184 31.1711 34.1406 30.853 34.1116H30.8418L31.0037 32.1439C31.0986 31.0328 32.1089 30.2052 33.2533 30.3093C34.3976 30.4135 35.2629 31.4032 35.168 32.5201L35.0061 34.4878H34.9782C34.66 34.4589 34.3753 34.6904 34.3474 35.0029L34.3418 35.055C34.3139 35.3675 34.5595 35.6453 34.8777 35.6742H34.9056L33.9622 46.9827L37.211 47.272L38.1544 35.9636H38.1712C38.4894 35.9925 38.774 35.761 38.802 35.4485L38.8075 35.3964C38.8354 35.0839 38.5954 34.8061 38.2716 34.7772H38.2549L38.4168 32.8095C38.5117 31.6983 39.5221 30.8707 40.6664 30.9749C41.8107 31.0791 42.676 32.0687 42.5811 33.1857L42.4192 35.1533H42.4025C42.0843 35.1244 41.7996 35.3559 41.7717 35.6684L41.7661 35.7205C41.7382 36.033 41.9838 36.3108 42.302 36.3397H42.3187L41.3753 47.6482L44.6241 47.9376L45.5675 36.6291H45.5954C45.9136 36.6581 46.1983 36.4266 46.2262 36.114L46.2318 36.062C46.2597 35.7494 46.0197 35.4716 45.6959 35.4427H45.668L45.8299 33.475C45.9248 32.3638 46.9352 31.5363 48.0795 31.6404C49.2239 31.7446 50.0891 32.7342 49.9942 33.8512L49.8323 35.8189H49.8267C49.5085 35.79 49.2239 36.0214 49.1959 36.334L49.1904 36.386C49.1624 36.6986 49.4081 36.9764 49.7262 37.0053H49.7318L48.7884 48.3137L52.0373 48.6031L52.9806 37.2947L53.0141 37.3004C53.3323 37.3294 53.617 37.0979 53.6449 36.7854L53.6505 36.7333C53.6784 36.4208 53.4328 36.143 53.1146 36.114L53.0811 36.1083L53.243 34.1406C53.3379 33.0294 54.3483 32.2018 55.4926 32.306C56.637 32.4101 57.4966 33.3998 57.4073 34.5167L57.2454 36.4844C56.9272 36.4555 56.6425 36.687 56.6202 36.9995L56.6146 37.0516C56.5867 37.3641 56.8268 37.6419 57.1505 37.6708L56.2071 48.9793L59.4504 49.2687L60.3938 37.9602L60.4496 37.966C60.7678 37.9949 61.0525 37.7634 61.0804 37.4509L61.086 37.3988C61.1027 37.0805 60.8627 36.8027 60.5445 36.7738Z" fill="#EFB867"/>
<path d="M59.3782 24.8345L55.694 24.5047L56.4755 15.1523H56.4699C56.1071 15.1176 55.8335 14.8051 55.8615 14.4521L55.867 14.3942C55.895 14.0412 56.2187 13.7807 56.5816 13.8097H56.5871L56.7714 11.5758C56.8774 10.3141 55.9005 9.1856 54.5999 9.06986C54.438 9.05249 54.2761 9.05828 54.1198 9.07564C53.9635 9.093 53.8128 9.12194 53.6677 9.16824C53.5225 9.21454 53.383 9.27241 53.249 9.34186C52.5847 9.70067 52.1102 10.3604 52.0488 11.1475L51.8646 13.3814H51.8981C52.261 13.4161 52.5345 13.7287 52.5066 14.0817L52.501 14.1396C52.4731 14.4926 52.1493 14.753 51.7865 14.7241H51.753L50.9715 24.0764L47.2873 23.7465L48.0688 14.3942H48.052C47.6892 14.3595 47.4156 14.047 47.4436 13.6939L47.4491 13.6361C47.4771 13.283 47.8008 13.0226 48.1637 13.0515H48.1804L48.3646 10.8176C48.4707 9.55599 47.4938 8.42746 46.1932 8.31171C44.8925 8.19597 43.7426 9.13352 43.6365 10.3952L43.4523 12.6291H43.4746C43.8375 12.6638 44.111 12.9763 44.0831 13.3293L44.0663 13.3988C44.0384 13.7518 43.7147 14.0122 43.3518 13.9833H43.3295L42.548 23.3356L38.8638 23.0057L39.6453 13.6534H39.6174C39.2545 13.6187 38.981 13.3062 39.0089 12.9532L39.0145 12.8953C39.0424 12.5423 39.3662 12.2818 39.729 12.3108H39.7569L39.9411 10.0769C39.9802 9.60229 39.8686 9.15088 39.6453 8.75734C39.5727 8.63002 39.4834 8.5027 39.3829 8.39274C38.9866 7.94133 38.4228 7.62881 37.7697 7.57094C36.9547 7.4957 36.2067 7.83715 35.7266 8.4101C35.4419 8.75155 35.2521 9.17981 35.213 9.65438L35.0288 11.8883H35.04C35.4028 11.923 35.6764 12.2355 35.6484 12.5886L35.6429 12.6464C35.615 12.9995 35.2912 13.2599 34.9283 13.2309H34.9172L34.1357 22.5833L30.457 22.2534L59.3782 24.8345L60.1597 15.4822L59.3782 24.8345Z" fill="#CE974E"/>
<path d="M60.3107 14.1453L60.2717 14.1396L60.8801 6.83015L31.9645 4.23743L31.356 11.5468H31.3058C30.943 11.5121 30.6192 11.7783 30.5913 12.1313L30.5857 12.1892C30.5578 12.5422 30.8313 12.8548 31.1942 12.8895L31.2444 12.8953L30.4629 22.2476L34.1415 22.5775L34.923 13.2252H34.9342C35.297 13.2599 35.6208 12.9937 35.6487 12.6406L35.6543 12.5828C35.6822 12.2297 35.4087 11.9172 35.0458 11.8825H35.0347L35.2189 9.64858C35.258 9.17402 35.4422 8.74576 35.7325 8.40431C36.2069 7.83136 36.9605 7.4957 37.7755 7.56514C38.4231 7.62302 38.9924 7.93553 39.3888 8.38694C39.4893 8.50269 39.573 8.62423 39.6511 8.75155C39.8744 9.1393 39.9861 9.5965 39.947 10.0711L39.7628 12.305H39.7349C39.372 12.2702 39.0483 12.5365 39.0203 12.8895L39.0148 12.9474C38.9869 13.3004 39.2604 13.6129 39.6232 13.6476H39.6511L38.8696 23L42.5539 23.3298L43.3298 13.9775H43.3521C43.715 14.0122 44.0387 13.746 44.0666 13.393L44.0722 13.3351C44.1001 12.9821 43.8266 12.6696 43.4638 12.6348H43.4414L43.6256 10.4009C43.7317 9.1393 44.8816 8.20175 46.1823 8.3175C47.4829 8.43324 48.4598 9.56177 48.3537 10.8234L48.1695 13.0573H48.1528C47.7899 13.0226 47.4662 13.2888 47.4383 13.6418L47.4327 13.6997C47.4048 14.0527 47.6783 14.3653 48.0411 14.4H48.0579L47.2764 23.7523L50.9606 24.0822L51.7421 14.7299H51.7756C52.1384 14.7646 52.4622 14.4984 52.4901 14.1453L52.4957 14.0875C52.5236 13.7344 52.2501 13.4219 51.8872 13.3872H51.8538L52.038 11.1533C52.1049 10.3662 52.5794 9.70067 53.2381 9.34764C53.3721 9.27819 53.5117 9.21453 53.6568 9.17402C53.8019 9.12772 53.9526 9.09879 54.1089 9.08142C54.2652 9.06406 54.4271 9.06406 54.589 9.07564C55.8897 9.19138 56.8665 10.3199 56.7605 11.5816L56.5763 13.8155H56.5707C56.2078 13.7807 55.8841 14.047 55.8562 14.4L55.8506 14.4579C55.8227 14.8109 56.0962 15.1234 56.459 15.1581H56.4646L55.6831 24.5105L59.3673 24.8403L60.1488 15.488L60.1879 15.4938C60.5508 15.5285 60.8745 15.2623 60.9024 14.9093L60.908 14.8514C60.9471 14.4926 60.6736 14.1801 60.3107 14.1453Z" fill="#EFB867"/>
<path d="M55.9872 101.94L21.1221 98.8163L18.2551 133.21L53.1203 136.334L55.9872 101.94Z" fill="#FFD895"/>
<path d="M36.1262 108.66L33.9629 134.613L37.4055 134.921L39.5688 108.969L36.1262 108.66Z" fill="#EFB867"/>
<path d="M28.2649 107.958L26.1016 133.91L29.5441 134.219L31.7074 108.266L28.2649 107.958Z" fill="#EFB867"/>
<path d="M43.9885 109.367L41.8252 135.319L45.2678 135.628L47.4311 109.675L43.9885 109.367Z" fill="#EFB867"/>
<path d="M51.8449 110.071L49.6816 136.024L53.1187 136.332L55.2819 110.379L51.8449 110.071Z" fill="#EFB867"/>
<path d="M20.4191 107.253L18.2559 133.205L21.6929 133.513L23.8562 107.561L20.4191 107.253Z" fill="#EFB867"/>
<path d="M55.9846 101.939L21.1184 98.814L20.415 107.252L23.8481 107.559L24.0211 105.469C24.1216 104.289 25.1934 103.415 26.4047 103.525C27.6216 103.635 28.5315 104.688 28.431 105.869L28.258 107.958L31.7022 108.265L31.8752 106.175C31.9757 104.995 33.0475 104.121 34.2588 104.231C35.4757 104.341 36.3856 105.394 36.2851 106.575L36.1121 108.664L39.5563 108.971L39.7293 106.882C39.8298 105.701 40.9016 104.827 42.1129 104.937C43.3298 105.047 44.2397 106.1 44.1392 107.281L43.9662 109.37L47.4104 109.677L47.5834 107.588C47.6839 106.407 48.7557 105.533 49.967 105.643C51.1839 105.753 52.0938 106.806 51.9933 107.987L51.8203 110.076L55.2533 110.383L55.9846 101.939Z" fill="#EFB867"/>
<path d="M23.8817 107.565L20.3538 107.246C20.0244 107.217 19.7342 107.472 19.7063 107.813V107.825C19.6784 108.166 19.924 108.467 20.2533 108.496L23.7812 108.815C24.1106 108.843 24.4009 108.589 24.4288 108.247V108.236C24.4567 107.9 24.2111 107.599 23.8817 107.565Z" fill="#EFB867"/>
<path d="M31.7298 108.271L28.241 107.958C27.9005 107.929 27.599 108.172 27.5711 108.502L27.5656 108.554C27.5376 108.884 27.7944 109.179 28.1349 109.208L31.6238 109.521C31.9643 109.55 32.2657 109.306 32.2936 108.977L32.2992 108.925C32.3271 108.595 32.0704 108.299 31.7298 108.271Z" fill="#EFB867"/>
<path d="M39.6009 108.977L36.1121 108.664C35.7716 108.635 35.4701 108.878 35.4422 109.208L35.4366 109.26C35.4087 109.59 35.6655 109.885 36.006 109.914L39.4949 110.227C39.8354 110.256 40.1368 110.013 40.1647 109.683L40.1703 109.631C40.1927 109.301 39.9415 109.006 39.6009 108.977Z" fill="#EFB867"/>
<path d="M47.472 109.683L43.9832 109.37C43.6427 109.341 43.3412 109.584 43.3133 109.914L43.3077 109.966C43.2798 110.296 43.5366 110.591 43.8771 110.62L47.366 110.933C47.7065 110.962 48.0079 110.719 48.0358 110.389L48.0414 110.337C48.0637 110.007 47.807 109.712 47.472 109.683Z" fill="#EFB867"/>
<path d="M55.3593 110.389L51.8313 110.07C51.502 110.041 51.2117 110.296 51.1838 110.638V110.649C51.1559 110.991 51.4015 111.292 51.7309 111.32L55.2588 111.639C55.5881 111.668 55.8784 111.413 55.9063 111.072V111.06C55.9342 110.719 55.6886 110.418 55.3593 110.389Z" fill="#EFB867"/>
<path opacity="0.58" d="M56.2192 97.9169L55.3986 97.8417L56.1522 88.8019L56.342 86.5333L56.3978 86.5391C56.716 86.568 57.0007 86.3365 57.0286 86.024L57.0342 85.9719C57.0621 85.6594 56.8165 85.3816 56.4983 85.3527L56.4425 85.3469L57.1068 77.3835V77.3661C58.0055 77.3661 58.7702 76.7122 58.8428 75.8209L58.8707 75.4853L58.8763 75.4447C58.9489 74.5535 58.3069 73.7722 57.4194 73.6102L57.4305 73.4944L58.3739 62.186L58.4297 62.1917C58.7479 62.2207 59.0326 61.9892 59.0605 61.6767L59.0661 61.6246C59.094 61.3121 58.8484 61.0343 58.5302 61.0054L58.4744 60.9996L59.1387 53.0362V53.0188C60.0374 53.0188 60.8022 52.3649 60.8747 51.4736L60.8915 51.2711L60.9082 51.0916C60.9808 50.2004 60.3388 49.4191 59.4513 49.2571V49.2397L60.3947 37.9313L60.4505 37.937C60.7687 37.966 61.0534 37.7345 61.0813 37.422L61.0868 37.3699C61.1148 37.0574 60.8747 36.7796 60.551 36.7506L60.4951 36.7449L61.1594 28.7815L61.0031 28.7699C61.9744 28.8567 62.8229 28.1622 62.9011 27.2247L62.9122 27.0626L62.929 26.8485C63.0071 25.9052 62.287 25.0718 61.3157 24.985L59.3787 24.8114L60.1602 15.459L60.1993 15.4648C60.5621 15.4996 60.8859 15.2333 60.9138 14.8803L60.9194 14.8224C60.9473 14.4694 60.6738 14.1569 60.3109 14.1222L60.2718 14.1164L60.8747 6.91694L61.1817 6.94587C62.0861 7.0269 62.8843 6.37872 62.9569 5.49904L62.9904 5.1055L62.9959 5.01869C63.0685 4.13902 62.3931 3.35773 61.4888 3.27671L49.5541 2.23499L49.2582 5.79419C49.2582 5.79419 54.8404 6.68544 54.6004 9.07561L44.0557 135.523L45.267 135.633L49.6825 136.027L53.1155 136.333L55.1753 111.633L55.2312 111.639C55.5717 111.668 55.8731 111.425 55.901 111.095L55.9066 111.043C55.9345 110.713 55.6777 110.418 55.3372 110.389L55.2814 110.383L55.9847 101.945L55.8843 101.933C56.9114 102.026 57.8101 101.291 57.8938 100.296L57.9273 99.9252V99.8962C58.0111 98.895 57.2463 98.0095 56.2192 97.9169Z" fill="#D89C4C"/>
<path d="M30.8307 84.2473C30.5126 84.2184 30.2669 83.9406 30.2949 83.6281L30.3004 83.576C30.3283 83.2635 30.6075 83.032 30.9312 83.0609H30.9591L31.121 81.0932C31.2159 79.982 30.3507 78.9866 29.2063 78.8824C28.062 78.7783 27.046 79.6059 26.9567 80.717L26.7948 82.6847H26.806C27.1242 82.7137 27.3698 82.9915 27.3419 83.304L27.3363 83.3561C27.3084 83.6686 27.0293 83.9001 26.7055 83.8711H26.6944L25.751 95.1796L29.9153 95.5558L30.8587 84.2473H30.8307Z" fill="#CE974E"/>
<path d="M38.255 84.9128C37.9368 84.8839 37.6912 84.6061 37.7191 84.2936L37.7247 84.2415C37.7526 83.929 38.0317 83.6975 38.3555 83.7264H38.3722L38.5341 81.7587C38.629 80.6476 37.7638 79.6521 36.6194 79.548C35.4751 79.4438 34.4591 80.2714 34.3698 81.3826L34.2079 83.3502H34.2247C34.5429 83.3792 34.7885 83.657 34.7606 83.9695L34.755 84.0216C34.7271 84.3341 34.448 84.5656 34.1242 84.5367H34.1074L33.1641 95.8451L37.3284 96.2155L38.2717 84.907L38.255 84.9128Z" fill="#CE974E"/>
<path d="M52.5676 85.6247L52.5732 85.5726C52.6011 85.2601 52.8802 85.0344 53.1984 85.0575L53.3603 83.0898C53.4552 81.9787 52.5899 80.9833 51.4456 80.8791C50.3013 80.7749 49.2853 81.6025 49.196 82.7137L49.0341 84.6814L49.0676 84.6872C49.3858 84.7161 49.6314 84.9939 49.6035 85.3064L49.5979 85.3585C49.57 85.671 49.2909 85.9025 48.9671 85.8736L48.9336 85.8678L47.9902 97.1762L52.1545 97.5466L53.0979 86.2324C52.7797 86.215 52.5397 85.9372 52.5676 85.6247Z" fill="#CE974E"/>
<path d="M44.0334 80.2193C42.8891 80.1151 41.8731 80.9427 41.7838 82.0539L41.6777 83.3329C41.7726 82.2217 42.783 81.3941 43.9273 81.4983C45.0717 81.6025 45.9369 82.5921 45.842 83.7091L45.9481 82.4301C46.043 81.3189 45.1777 80.3235 44.0334 80.2193Z" fill="#A57235"/>
<path d="M42.0679 85.9777L42.0735 85.9257C42.1014 85.6131 41.8558 85.3353 41.5376 85.3064H41.5097L41.4092 86.487H41.4371C41.7609 86.5217 42.0455 86.2903 42.0679 85.9777Z" fill="#CE974E"/>
<path d="M45.038 86.1918L45.0324 86.2439C45.0045 86.5564 45.2501 86.8342 45.5683 86.8632H45.5739L45.6744 85.6825H45.6688C45.3506 85.6478 45.0659 85.8793 45.038 86.1918Z" fill="#CE974E"/>
<path d="M30.1943 84.8608L30.1887 84.9129C30.1608 85.2254 30.4064 85.5032 30.7246 85.5321H30.7525L30.853 84.3515H30.825C30.5013 84.3226 30.2166 84.5483 30.1943 84.8608Z" fill="#CE974E"/>
<path d="M27.2194 84.6466L27.225 84.5945C27.2529 84.282 27.0073 84.0042 26.6891 83.9753H26.6779L26.583 85.1617H26.5942C26.9124 85.1906 27.197 84.9591 27.2194 84.6466Z" fill="#CE974E"/>
<path d="M29.2063 78.8882C28.0619 78.7841 27.046 79.6117 26.9566 80.7228L26.8506 82.0018C26.9455 80.8907 27.9559 80.0631 29.1002 80.1672C30.2445 80.2714 31.1042 81.2611 31.0149 82.378L31.1209 81.099C31.2103 79.9878 30.3506 78.9924 29.2063 78.8882Z" fill="#A57235"/>
<path d="M34.6436 85.3122L34.6492 85.2601C34.6771 84.9476 34.4315 84.6698 34.1133 84.6409H34.0966L33.9961 85.8215H34.0128C34.3366 85.8562 34.6213 85.6247 34.6436 85.3122Z" fill="#CE974E"/>
<path d="M36.6193 79.5538C35.475 79.4496 34.459 80.2772 34.3697 81.3884L34.2637 82.6674C34.3586 81.5562 35.3689 80.7286 36.5133 80.8328C37.6576 80.937 38.5229 81.9266 38.428 83.0435L38.534 81.7645C38.6233 80.6534 37.7637 79.6579 36.6193 79.5538Z" fill="#A57235"/>
<path d="M37.6191 85.5263L37.6135 85.5784C37.5856 85.8909 37.8312 86.1687 38.1494 86.1976H38.1661L38.2666 85.017H38.2499C37.9261 84.9823 37.6414 85.2138 37.6191 85.5263Z" fill="#CE974E"/>
<path d="M51.4514 80.8848C50.307 80.7807 49.2911 81.6082 49.2018 82.7194L49.0957 83.9984C49.1906 82.8873 50.201 82.0597 51.3453 82.1638C52.4897 82.268 53.3549 83.2576 53.26 84.3746L53.3661 83.0956C53.4554 81.9786 52.5957 80.989 51.4514 80.8848Z" fill="#A57235"/>
<path d="M49.4924 86.6433L49.498 86.5912C49.5259 86.2786 49.2803 86.0008 48.9621 85.9719L48.9286 85.9661L48.8281 87.1468L48.8616 87.1525C49.1854 87.1873 49.4701 86.9558 49.4924 86.6433Z" fill="#CE974E"/>
<path d="M52.4619 86.8574L52.4563 86.9095C52.4284 87.222 52.6684 87.4998 52.9922 87.5287L53.0927 86.3481C52.7745 86.3192 52.4898 86.5449 52.4619 86.8574Z" fill="#CE974E"/>
<path d="M42.1792 84.6987L42.1848 84.6466C42.2127 84.3341 41.9671 84.0563 41.6489 84.0273H41.621L41.5205 85.208H41.5484C41.8666 85.2369 42.1513 85.0054 42.1792 84.6987Z" fill="#CE974E"/>
<path d="M45.1493 84.9128L45.1438 84.9649C45.1159 85.2774 45.3615 85.5552 45.6796 85.5842H45.6852L45.7857 84.4035H45.7801C45.4564 84.3688 45.1717 84.6003 45.1493 84.9128Z" fill="#CE974E"/>
<path d="M27.3314 83.3676L27.337 83.3155C27.3649 83.003 27.1249 82.7252 26.8011 82.6963H26.7899L26.6895 83.8769H26.7006C27.0188 83.9058 27.3035 83.6744 27.3314 83.3676Z" fill="#CE974E"/>
<path d="M30.3007 83.5818L30.2951 83.6339C30.2672 83.9464 30.5128 84.2242 30.831 84.2531H30.8589L30.9594 83.0725H30.9315C30.6077 83.0378 30.323 83.2693 30.3007 83.5818Z" fill="#CE974E"/>
<path d="M34.755 84.0332L34.7605 83.9811C34.7884 83.6686 34.5484 83.3908 34.2246 83.3618H34.2079L34.1074 84.5424H34.1242C34.4423 84.5714 34.727 84.3399 34.755 84.0332Z" fill="#CE974E"/>
<path d="M37.7255 84.2473L37.7199 84.2994C37.692 84.6119 37.9376 84.8897 38.2558 84.9186H38.2726L38.373 83.738H38.3563C38.0325 83.7033 37.7478 83.9348 37.7255 84.2473Z" fill="#CE974E"/>
<path d="M52.5732 85.5784L52.5676 85.6305C52.5397 85.943 52.7798 86.2208 53.1035 86.2498L53.204 85.0691C52.8802 85.0344 52.5955 85.2659 52.5732 85.5784Z" fill="#CE974E"/>
<path d="M49.5979 85.3643L49.6034 85.3122C49.6314 84.9996 49.3857 84.7219 49.0676 84.6929L49.0341 84.6871L48.9336 85.8678L48.9671 85.8735C49.2908 85.9025 49.5755 85.671 49.5979 85.3643Z" fill="#CE974E"/>
<path d="M23.5077 82.4011C23.1895 82.3722 22.9048 82.6037 22.8769 82.9162L22.8713 82.9683C22.8434 83.2808 23.0835 83.5586 23.4072 83.5875L23.4519 83.5933L23.5524 82.4127L23.5077 82.4011Z" fill="#EFB867"/>
<path d="M56.4925 85.3584L56.4367 85.3527L57.101 77.3893L55.3984 97.8417L56.3418 86.5333L56.3976 86.5391C56.7158 86.568 57.0005 86.3365 57.0284 86.024L57.034 85.9719C57.0563 85.6652 56.8163 85.3874 56.4925 85.3584Z" fill="#EFB867"/>
<path d="M53.4 57.5851C54.5443 57.6892 55.404 58.6789 55.3147 59.7958L55.404 58.7541C55.4989 57.6429 54.6337 56.6475 53.4893 56.5433C52.345 56.4392 51.329 57.2668 51.2397 58.3779L51.1504 59.4196C51.2397 58.3085 52.2501 57.4809 53.4 57.5851Z" fill="#A57235"/>
<path d="M31.1549 55.5884C32.2992 55.6926 33.1589 56.6822 33.0696 57.7992L33.1589 56.7575C33.2538 55.6463 32.3885 54.6509 31.2442 54.5467C30.0999 54.4425 29.0839 55.2701 28.9946 56.3813L28.9053 57.423C28.9946 56.3118 30.005 55.49 31.1549 55.5884Z" fill="#A57235"/>
<path d="M45.9811 56.9195C47.1254 57.0237 47.9906 58.0133 47.8957 59.1303L47.9851 58.0886C48.08 56.9774 47.2147 55.982 46.0704 55.8778C44.926 55.7736 43.9101 56.6012 43.8208 57.7124L43.7314 58.7541C43.8208 57.6429 44.8367 56.8154 45.9811 56.9195Z" fill="#A57235"/>
<path d="M38.568 56.254C39.7123 56.3582 40.572 57.3478 40.4826 58.4648L40.572 57.423C40.6669 56.3119 39.8016 55.3165 38.6573 55.2123C37.5129 55.1081 36.497 55.9357 36.4077 57.0469L36.3184 58.0886C36.4077 56.9774 37.4236 56.1498 38.568 56.254Z" fill="#A57235"/>
<path d="M47.9957 32.7459C49.14 32.85 49.9997 33.8397 49.9104 34.9566L50.0053 33.8455C50.1002 32.7343 49.2349 31.7389 48.0906 31.6347C46.9463 31.5305 45.9303 32.3581 45.841 33.4693L45.7461 34.5805C45.8354 33.4693 46.8514 32.6475 47.9957 32.7459Z" fill="#A57235"/>
<path d="M48.7998 48.308L52.0486 48.6031L48.7998 48.308Z" fill="#CE974E"/>
<path d="M55.4088 33.4114C56.5531 33.5156 57.4184 34.5052 57.3235 35.6222L57.4184 34.511C57.5133 33.3998 56.648 32.4044 55.5037 32.3002C54.3593 32.1961 53.3434 33.0237 53.2541 34.1348L53.1592 35.246C53.2541 34.1348 54.2644 33.3072 55.4088 33.4114Z" fill="#A57235"/>
<path d="M29.8038 46.6065L26.5605 46.3171L29.8038 46.6065Z" fill="#CE974E"/>
<path d="M56.2129 48.9735L59.4561 49.2629L56.2129 48.9735Z" fill="#CE974E"/>
<path d="M33.1646 31.4206C34.309 31.5247 35.1686 32.5144 35.0793 33.6313L35.1742 32.5201C35.2691 31.409 34.4039 30.4136 33.2595 30.3094C32.1152 30.2052 31.0992 31.0328 31.0099 32.144L30.915 33.2551C31.0099 32.144 32.0203 31.3164 33.1646 31.4206Z" fill="#A57235"/>
<path d="M41.3809 47.6425L44.6297 47.9376L41.3809 47.6425Z" fill="#CE974E"/>
<path d="M33.9678 46.9827L37.2166 47.272L33.9678 46.9827Z" fill="#CE974E"/>
<path d="M40.5826 32.0861C41.727 32.1903 42.5866 33.1799 42.4973 34.2968L42.5922 33.1857C42.6871 32.0745 41.8219 31.0791 40.6775 30.9749C39.5332 30.8707 38.5172 31.6983 38.4279 32.8095L38.333 33.9207C38.4223 32.8095 39.4383 31.9819 40.5826 32.0861Z" fill="#A57235"/>
<path d="M47.2764 23.7523L50.9662 24.0822L47.2764 23.7523Z" fill="#CE974E"/>
<path d="M46.0986 9.31873C47.3993 9.43448 48.3761 10.563 48.2701 11.8246L48.3538 10.8234C48.4599 9.5618 47.483 8.43327 46.1823 8.31753C44.8817 8.20178 43.7318 9.13933 43.6257 10.401L43.542 11.4022C43.6481 10.1405 44.798 9.20299 46.0986 9.31873Z" fill="#A57235"/>
<path d="M53.1601 10.3488C53.2941 10.2794 53.4337 10.2157 53.5788 10.1752C53.7239 10.1289 53.8746 10.1 54.0309 10.0826C54.1872 10.0652 54.3491 10.0652 54.511 10.0768C55.8116 10.1926 56.7885 11.3211 56.6825 12.5827L56.7662 11.5815C56.8723 10.3199 55.8954 9.19135 54.5947 9.07561C54.4329 9.05825 54.271 9.06403 54.1147 9.0814C53.9584 9.09876 53.8077 9.12769 53.6625 9.17399C53.5174 9.22029 53.3778 9.27816 53.2439 9.34761C52.5796 9.70643 52.1051 10.3662 52.0437 11.1533L51.96 12.1545C52.0214 11.3674 52.4958 10.7076 53.1601 10.3488Z" fill="#A57235"/>
<path d="M37.6855 8.56635C38.3331 8.62422 38.9024 8.93674 39.2988 9.38815C39.3993 9.50389 39.483 9.62543 39.5611 9.75275C39.7844 10.1405 39.8961 10.5977 39.857 11.0723L39.9407 10.0711C39.9798 9.59649 39.8682 9.14508 39.6449 8.75154C39.5723 8.62422 39.483 8.4969 39.3825 8.38694C38.9862 7.93553 38.4224 7.62301 37.7693 7.56514C36.9543 7.4899 36.2063 7.83136 35.7262 8.4043C35.4415 8.74575 35.2517 9.17402 35.2126 9.64858L35.1289 10.6498C35.168 10.1752 35.3522 9.74696 35.6425 9.40551C36.1225 8.83256 36.8761 8.4969 37.6855 8.56635Z" fill="#A57235"/>
<path d="M34.1415 22.5717L30.4629 22.2476L34.1415 22.5717Z" fill="#CE974E"/>
<path d="M55.6885 24.5046L59.3783 24.8345L55.6885 24.5046Z" fill="#CE974E"/>
<path d="M38.8643 22.9999L42.5541 23.3298L38.8643 22.9999Z" fill="#CE974E"/>
<path d="M53.6618 9.16821C53.5167 9.21451 53.3771 9.27239 53.2432 9.34183C53.3771 9.27817 53.5167 9.21451 53.6618 9.16821Z" fill="#EFB867"/>
<path d="M54.1143 9.07562C53.958 9.09298 53.8072 9.12192 53.6621 9.16822C53.8072 9.12771 53.958 9.09298 54.1143 9.07562Z" fill="#EFB867"/>
<path d="M35.7266 8.4043C36.201 7.83136 36.9546 7.49569 37.7696 7.56514C36.9602 7.4899 36.2066 7.83136 35.7266 8.4043Z" fill="#EFB867"/>
<path d="M57.3185 73.5986L24.6405 70.6702C23.7027 70.5834 22.8765 71.3068 22.7928 72.2791L22.7705 72.5453C22.6868 73.5176 23.3845 74.3741 24.3223 74.4609L57.0003 77.3893C57.9381 77.4761 58.7643 76.7527 58.848 75.7804L58.8703 75.5142C58.9485 74.5362 58.2563 73.6796 57.3185 73.5986Z" fill="#FFD895"/>
<path d="M59.3449 49.2571L26.6669 46.3287C25.7291 46.2419 24.9029 46.9653 24.8192 47.9376L24.7969 48.2038C24.7131 49.1761 25.4109 50.0326 26.3487 50.1194L59.0267 53.0478C59.9645 53.1346 60.7906 52.4112 60.8744 51.4389L60.8967 51.1727C60.9804 50.1947 60.2882 49.3381 59.3449 49.2571Z" fill="#FFD895"/>
<path d="M61.3654 25.0139L28.6874 22.0856C27.7496 21.9987 26.9234 22.7222 26.8397 23.6944L26.8174 23.9607C26.7336 24.9329 27.4314 25.7895 28.3692 25.8763L61.0472 28.8047C61.985 28.8915 62.8112 28.168 62.8949 27.1958L62.9172 26.9296C63.0009 25.9573 62.3088 25.1008 61.3654 25.0139Z" fill="#FFD895"/>
<path d="M61.5326 3.30571L32.1202 0.67247C31.2438 0.591448 30.4679 1.26857 30.3953 2.17718L30.3618 2.54757C30.2837 3.45618 30.9368 4.26062 31.8132 4.33585L61.2256 6.96909C62.102 7.05011 62.8779 6.37299 62.9505 5.46438L62.984 5.09399C63.0621 4.19117 62.409 3.38673 61.5326 3.30571Z" fill="#FFD895"/>
<path d="M56.28 97.9228L21.6427 94.8207C20.6491 94.7339 19.7727 95.4979 19.689 96.528L19.6666 96.8058C19.5829 97.836 20.3198 98.7446 21.3134 98.8314L55.9507 101.933C56.9443 102.02 57.8207 101.256 57.9045 100.226L57.9268 99.9483C58.0105 98.924 57.2737 98.0154 56.28 97.9228Z" fill="#FFD895"/>
<path d="M58.8705 75.491L58.8761 75.4505C58.9542 74.5072 58.2341 73.6738 57.2628 73.587L24.6965 70.6702C23.7252 70.5834 22.8767 71.2778 22.7985 72.2154L22.793 72.2559L58.8705 75.491Z" fill="#CE974E"/>
<path d="M60.8907 51.2884L60.9075 51.109C60.9856 50.1657 60.2655 49.3323 59.2942 49.2455L26.7223 46.3287C25.751 46.2419 24.9025 46.9363 24.8244 47.8739L24.8076 48.0533L60.8907 51.2884Z" fill="#CE974E"/>
<path d="M62.9066 27.0858L62.9234 26.8717C63.0015 25.9284 62.2814 25.095 61.3101 25.0082L28.7438 22.0914C27.7725 22.0046 26.924 22.699 26.8458 23.6366L26.8291 23.8507L62.9066 27.0858Z" fill="#CE974E"/>
<path d="M62.9839 5.12869L62.9895 5.04188C63.0621 4.16221 62.3866 3.38092 61.4823 3.29989L32.1759 0.672443C31.266 0.597208 30.4678 1.24539 30.3952 2.12506L30.3896 2.21187L62.9839 5.12869Z" fill="#CE974E"/>
<path d="M57.9273 99.9194V99.8905C58.011 98.895 57.2463 98.0096 56.2191 97.917L21.699 94.8265C20.6719 94.7339 19.7732 95.4689 19.6895 96.4644V96.4933L57.9273 99.9194Z" fill="#CE974E"/>
<path d="M80.1662 132.433H0.212891V136.333H80.1662V132.433Z" fill="#8AC53E"/>
</g>
<defs>
<clipPath id="clip0_1226_384">
<rect width="79.9533" height="135.667" fill="white" transform="translate(0.212891 0.666626)"/>
</clipPath>
</defs>
</svg>
