<svg width="100" height="100" viewBox="0 0 100 100" fill="none" xmlns="http://www.w3.org/2000/svg">
<g clip-path="url(#clip0_1060_1311)">
<mask id="mask0_1060_1311" style="mask-type:luminance" maskUnits="userSpaceOnUse" x="0" y="0" width="100" height="100">
<path d="M100 0H0V100H100V0Z" fill="white"/>
</mask>
<g mask="url(#mask0_1060_1311)">
<mask id="mask1_1060_1311" style="mask-type:luminance" maskUnits="userSpaceOnUse" x="0" y="5" width="100" height="100">
<path d="M0 5H100V105H0V5Z" fill="white"/>
</mask>
<g mask="url(#mask1_1060_1311)">
<path d="M19.9484 78.9879C19.9484 78.9879 10.511 78.2478 11.3252 68.0702C16.1735 68.8844 20.6145 77.8035 20.6145 77.8035L19.9484 78.9879Z" fill="white"/>
<path d="M19.9484 78.9879C19.9484 78.9879 10.511 78.2478 11.3252 68.0702C16.1735 68.8844 20.6145 77.8035 20.6145 77.8035L19.9484 78.9879Z" stroke="#754AA2" stroke-width="2" stroke-linecap="round" stroke-linejoin="round"/>
<path d="M21.7247 77.6556C21.7247 77.6556 21.0585 68.8843 24.3524 65.9976C27.165 70.8828 25.8698 76.9154 25.8698 76.9154L21.7247 77.6556Z" fill="#0F021B"/>
<path d="M21.7247 77.6556C21.7247 77.6556 21.0585 68.8843 24.3524 65.9976C27.165 70.8828 25.8698 76.9154 25.8698 76.9154L21.7247 77.6556Z" stroke="#754AA2" stroke-linecap="round" stroke-linejoin="round"/>
<path d="M25.0923 77.1559C25.0923 77.1559 26.036 73.2144 33.808 71.3825C41.58 69.5505 45.577 74.2691 45.577 74.2691L42.024 78.9878L25.0923 77.1559Z" fill="#0F021B"/>
<path d="M25.0923 77.1559C25.0923 77.1559 26.036 73.2144 33.808 71.3825C41.58 69.5505 45.577 74.2691 45.577 74.2691L42.024 78.9878L25.0923 77.1559Z" stroke="#754AA2" stroke-linecap="round" stroke-linejoin="round"/>
<path d="M28.2383 77.7666C29.284 76.8152 35.6413 71.2085 43.5601 72.6593C45.6627 73.0445 47.3986 73.8398 48.7414 74.6578C49.5062 73.8502 54.1467 69.1086 61.3986 69.2544C66.7524 69.3621 70.4258 72.0711 71.6132 73.0293C72.9594 69.6191 76.9224 68.016 80.1994 69.4765C83.4106 70.9076 84.8879 74.8014 83.3821 78.0627C65.0008 77.9639 46.6196 77.8653 28.2383 77.7666Z" fill="white"/>
<path d="M28.2383 77.7666C29.284 76.8152 35.6413 71.2085 43.5601 72.6593C45.6627 73.0445 47.3986 73.8398 48.7414 74.6578C49.5062 73.8502 54.1467 69.1086 61.3986 69.2544C66.7524 69.3621 70.4258 72.0711 71.6132 73.0293C72.9594 69.6191 76.9224 68.016 80.1994 69.4765C83.4106 70.9076 84.8879 74.8014 83.3821 78.0627C65.0008 77.9639 46.6196 77.8653 28.2383 77.7666Z" stroke="#754AA2" stroke-width="2" stroke-linecap="round" stroke-linejoin="round"/>
<path d="M19.7262 77.8035C19.7262 77.8035 14.2488 69.6246 16.8764 62.7408C22.1318 68.1812 22.6499 77.8035 22.6499 77.8035H19.7262Z" fill="white"/>
<path d="M19.7262 77.8035C19.7262 77.8035 14.2488 69.6246 16.8764 62.7408C22.1318 68.1812 22.6499 77.8035 22.6499 77.8035H19.7262Z" stroke="#754AA2" stroke-width="2" stroke-linecap="round" stroke-linejoin="round"/>
<path d="M66.9935 75.1019C59.4093 75.1019 52.6439 76.0283 48.2287 77.4763C44.108 76.8228 38.9471 76.4343 33.3456 76.4343C19.8554 76.4343 8.91943 78.6878 8.91943 81.4676C8.91943 84.2473 19.8554 86.5008 33.3456 86.5008C38.9471 86.5008 44.108 86.1123 48.2287 85.4588C52.6439 86.9068 59.4093 87.8331 66.9935 87.8331C80.2962 87.8331 91.0801 84.9832 91.0801 81.4676C91.0801 77.9519 80.2962 75.1019 66.9935 75.1019Z" fill="white"/>
<path d="M66.9935 75.1019C59.4093 75.1019 52.6439 76.0283 48.2287 77.4763C44.108 76.8228 38.9471 76.4343 33.3456 76.4343C19.8554 76.4343 8.91943 78.6878 8.91943 81.4676C8.91943 84.2473 19.8554 86.5008 33.3456 86.5008C38.9471 86.5008 44.108 86.1123 48.2287 85.4588C52.6439 86.9068 59.4093 87.8331 66.9935 87.8331C80.2962 87.8331 91.0801 84.9832 91.0801 81.4676C91.0801 77.9519 80.2962 75.1019 66.9935 75.1019Z" stroke="#754AA2" stroke-width="2" stroke-linecap="round" stroke-linejoin="round"/>
<path d="M56.5712 81.1658H43.8735C43.3 81.1658 42.835 80.7008 42.835 80.1272C42.835 79.5535 43.3 79.0885 43.8735 79.0885H56.5712C57.1449 79.0885 57.6099 79.5535 57.6099 80.1272C57.6099 80.7008 57.1449 81.1658 56.5712 81.1658Z" fill="white"/>
<path d="M56.5712 81.1658H43.8735C43.3 81.1658 42.835 80.7008 42.835 80.1272C42.835 79.5535 43.3 79.0885 43.8735 79.0885H56.5712C57.1449 79.0885 57.6099 79.5535 57.6099 80.1272C57.6099 80.7008 57.1449 81.1658 56.5712 81.1658Z" stroke="#754AA2" stroke-width="2" stroke-linecap="round" stroke-linejoin="round"/>
<path d="M50.9308 79.0886H49.5142V52.7483H50.9308V79.0886Z" fill="white"/>
<path d="M50.9308 79.0886H49.5142V52.7483H50.9308V79.0886Z" stroke="#754AA2" stroke-width="2" stroke-linecap="round" stroke-linejoin="round"/>
<path d="M60.2783 54.266H40.1658C39.3909 54.266 38.7627 53.6379 38.7627 52.863C38.7627 52.0881 39.3909 51.46 40.1658 51.46H60.2783C61.0532 51.46 61.6814 52.0881 61.6814 52.863C61.6814 53.6379 61.0532 54.266 60.2783 54.266Z" fill="white"/>
<path d="M60.2783 54.266H40.1658C39.3909 54.266 38.7627 53.6379 38.7627 52.863C38.7627 52.0881 39.3909 51.46 40.1658 51.46H60.2783C61.0532 51.46 61.6814 52.0881 61.6814 52.863C61.6814 53.6379 61.0532 54.266 60.2783 54.266Z" stroke="#754AA2" stroke-width="2" stroke-linecap="round" stroke-linejoin="round"/>
<path d="M49.6175 50.8844H42.5487L40.7954 46.0614L41.1951 45.7643H47.7186L49.6175 50.8844Z" fill="#0F021B"/>
<path d="M49.6175 50.8844H42.5487L40.7954 46.0614L41.1951 45.7643H47.7186L49.6175 50.8844Z" stroke="#754AA2" stroke-linecap="round" stroke-linejoin="round"/>
<path d="M50.1625 50.8844H43.0937L41.1948 45.7643H48.2636L50.1625 50.8844Z" fill="white"/>
<path d="M50.1625 50.8844H43.0937L41.1948 45.7643H48.2636L50.1625 50.8844Z" stroke="#754AA2" stroke-width="2" stroke-linecap="round" stroke-linejoin="round"/>
<path d="M43.3827 50.4691L41.792 46.1794H47.9747L49.5657 50.4691H43.3827Z" fill="white"/>
<path d="M43.3827 50.4691L41.792 46.1794H47.9747L49.5657 50.4691H43.3827Z" stroke="#754AA2" stroke-width="2" stroke-linecap="round" stroke-linejoin="round"/>
<path d="M49.405 51.4598H43.019V50.8713H49.405V51.4598Z" fill="#0F021B"/>
<path d="M49.405 51.4598H43.019V50.8713H49.405V51.4598Z" stroke="#754AA2" stroke-linecap="round" stroke-linejoin="round"/>
<path d="M55.0335 51.4598H48.6475V50.8713H55.0335V51.4598Z" fill="white"/>
<path d="M55.0335 51.4598H48.6475V50.8713H55.0335V51.4598Z" stroke="#754AA2" stroke-width="2" stroke-linecap="round" stroke-linejoin="round"/>
<path d="M56.125 51.4598C56.125 51.4598 56.8097 50.5463 58.0124 50.3797C59.2152 50.2132 59.6963 51.3789 59.6963 51.3789L56.125 51.4598Z" fill="white"/>
<path d="M56.125 51.4598C56.125 51.4598 56.8097 50.5463 58.0124 50.3797C59.2152 50.2132 59.6963 51.3789 59.6963 51.3789L56.125 51.4598Z" stroke="#754AA2" stroke-width="2" stroke-linecap="round" stroke-linejoin="round"/>
<path d="M58.0123 50.3798L57.9103 50.8715C57.9103 50.8715 56.4161 50.9847 56.4989 51.0788" fill="white"/>
<path d="M58.0123 50.3798L57.9103 50.8715C57.9103 50.8715 56.4161 50.9847 56.4989 51.0788" stroke="#754AA2" stroke-width="2" stroke-linecap="round" stroke-linejoin="round"/>
<path d="M83.0574 65.9185C83.0574 67.2435 81.9832 68.3177 80.6583 68.3177C79.3333 68.3177 78.2593 67.2435 78.2593 65.9185C78.2593 64.5935 79.3333 63.5193 80.6583 63.5193C81.9832 63.5193 83.0574 64.5935 83.0574 65.9185Z" fill="#0F021B"/>
<path d="M83.0574 65.9185C83.0574 67.2435 81.9832 68.3177 80.6583 68.3177C79.3333 68.3177 78.2593 67.2435 78.2593 65.9185C78.2593 64.5935 79.3333 63.5193 80.6583 63.5193C81.9832 63.5193 83.0574 64.5935 83.0574 65.9185Z" stroke="#754AA2" stroke-linecap="round" stroke-linejoin="round"/>
<path d="M57.0555 67.4497C57.0555 68.2954 56.3699 68.981 55.5243 68.981C54.6787 68.981 53.9932 68.2954 53.9932 67.4497C53.9932 66.6041 54.6787 65.9185 55.5243 65.9185C56.3699 65.9185 57.0555 66.6041 57.0555 67.4497Z" fill="#A02DFF"/>
<path d="M57.0555 67.4497C57.0555 68.2954 56.3699 68.981 55.5243 68.981C54.6787 68.981 53.9932 68.2954 53.9932 67.4497C53.9932 66.6041 54.6787 65.9185 55.5243 65.9185C56.3699 65.9185 57.0555 66.6041 57.0555 67.4497Z" stroke="black" stroke-width="2" stroke-linecap="round" stroke-linejoin="round"/>
</g>
<mask id="mask2_1060_1311" style="mask-type:luminance" maskUnits="userSpaceOnUse" x="0" y="5" width="100" height="100">
<path d="M0 5H100V105H0V5Z" fill="white"/>
</mask>
<g mask="url(#mask2_1060_1311)">
<path d="M58.4908 51.3835C58.4225 51.2135 58.2356 52.0892 58.1512 53.1731C58.0968 53.8738 59.8902 55.8972 60.2115 55.668C60.5328 55.4388 59.2753 54.0646 59.2753 54.0646C59.2629 54.0486 58.9381 53.6799 59.5777 54.1686C59.8687 54.391 60.1803 54.5384 60.4338 54.4673C60.7277 54.385 60.8715 53.8539 60.8021 53.586C60.6726 53.0872 60.2859 52.6921 60.1256 51.7768C59.8708 51.1902 58.4908 51.3835 58.4908 51.3835Z" fill="white"/>
<path d="M58.4908 51.3835C58.4225 51.2135 58.2356 52.0892 58.1512 53.1731C58.0968 53.8738 59.8902 55.8972 60.2115 55.668C60.5328 55.4388 59.2753 54.0646 59.2753 54.0646C59.2629 54.0486 58.9381 53.6799 59.5777 54.1686C59.8687 54.391 60.1803 54.5384 60.4338 54.4673C60.7277 54.385 60.8715 53.8539 60.8021 53.586C60.6726 53.0872 60.2859 52.6921 60.1256 51.7768C59.8708 51.1902 58.4908 51.3835 58.4908 51.3835Z" stroke="#754AA2" stroke-width="2" stroke-linecap="round" stroke-linejoin="round"/>
<path d="M64.8186 33.424C64.8186 33.424 61.6867 36.2153 61.1748 43.1613C60.5061 48.3698 61.549 51.6453 61.549 51.6453C61.549 51.6453 62.0831 52.137 63.2154 52.2536C64.1852 49.3488 64.0073 47.0614 64.6181 44.306C66.7913 41.4408 67.5428 38.9885 67.5428 38.9885" fill="white"/>
<path d="M64.8186 33.424C64.8186 33.424 61.6867 36.2153 61.1748 43.1613C60.5061 48.3698 61.549 51.6453 61.549 51.6453C61.549 51.6453 62.0831 52.137 63.2154 52.2536C64.1852 49.3488 64.0073 47.0614 64.6181 44.306C66.7913 41.4408 67.5428 38.9885 67.5428 38.9885" stroke="#754AA2" stroke-width="2" stroke-linecap="round" stroke-linejoin="round"/>
<path d="M68.8336 80.4673L69.0764 83.2681C69.0764 83.2681 63.9281 83.8995 63.4747 83.6243C63.0701 83.1871 63.7824 82.35 65.1423 82.0805C66.5022 81.8111 67.328 81.3739 67.328 81.3739L67.6031 80.2893" fill="white"/>
<path d="M68.8336 80.4673L69.0764 83.2681C69.0764 83.2681 63.9281 83.8995 63.4747 83.6243C63.0701 83.1871 63.7824 82.35 65.1423 82.0805C66.5022 81.8111 67.328 81.3739 67.328 81.3739L67.6031 80.2893" stroke="#754AA2" stroke-width="2" stroke-linecap="round" stroke-linejoin="round"/>
<path d="M70.9601 57.8505C71.1277 59.3075 69.0441 80.7263 69.0441 80.7263L67.2956 80.6292C63.1186 74.9466 64.1386 48.1368 64.1386 48.1368C64.1386 48.1368 66.5185 47.7482 67.1498 47.7482" fill="#A02DFF"/>
<path d="M70.9601 57.8505C71.1277 59.3075 69.0441 80.7263 69.0441 80.7263L67.2956 80.6292C63.1186 74.9466 64.1386 48.1368 64.1386 48.1368C64.1386 48.1368 66.5185 47.7482 67.1498 47.7482" stroke="black" stroke-width="2" stroke-linecap="round" stroke-linejoin="round"/>
<path d="M67.4316 81.9301C67.4316 81.9913 67.3818 82.0411 67.3206 82.0411C67.2592 82.0411 67.2095 81.9913 67.2095 81.9301C67.2095 81.8688 67.2592 81.8191 67.3206 81.8191C67.3818 81.8191 67.4316 81.8688 67.4316 81.9301Z" fill="white"/>
<path d="M67.4316 81.9301C67.4316 81.9913 67.3818 82.0411 67.3206 82.0411C67.2592 82.0411 67.2095 81.9913 67.2095 81.9301C67.2095 81.8688 67.2592 81.8191 67.3206 81.8191C67.3818 81.8191 67.4316 81.8688 67.4316 81.9301Z" stroke="#754AA2" stroke-width="2" stroke-linecap="round" stroke-linejoin="round"/>
<path d="M65.6089 82.3835C65.6089 82.4447 65.5591 82.4945 65.4978 82.4945C65.4366 82.4945 65.3867 82.4447 65.3867 82.3835C65.3867 82.3221 65.4366 82.2725 65.4978 82.2725C65.5591 82.2725 65.6089 82.3221 65.6089 82.3835Z" fill="white"/>
<path d="M65.6089 82.3835C65.6089 82.4447 65.5591 82.4945 65.4978 82.4945C65.4366 82.4945 65.3867 82.4447 65.3867 82.3835C65.3867 82.3221 65.4366 82.2725 65.4978 82.2725C65.5591 82.2725 65.6089 82.3221 65.6089 82.3835Z" stroke="#754AA2" stroke-width="2" stroke-linecap="round" stroke-linejoin="round"/>
<path d="M66.493 82.2205C66.493 82.2817 66.4432 82.3315 66.382 82.3315C66.3207 82.3315 66.271 82.2817 66.271 82.2205C66.271 82.1591 66.3207 82.1094 66.382 82.1094C66.4432 82.1094 66.493 82.1591 66.493 82.2205Z" fill="white"/>
<path d="M66.493 82.2205C66.493 82.2817 66.4432 82.3315 66.382 82.3315C66.3207 82.3315 66.271 82.2817 66.271 82.2205C66.271 82.1591 66.3207 82.1094 66.382 82.1094C66.4432 82.1094 66.493 82.1591 66.493 82.2205Z" stroke="#754AA2" stroke-width="2" stroke-linecap="round" stroke-linejoin="round"/>
<path d="M77.2685 80.1272C77.2685 80.1272 78.0132 83.0251 77.2361 83.187C76.459 83.3489 73.1726 84.1909 72.8649 83.3975C72.5573 82.6044 74.1122 82.0523 74.9244 81.8904C75.4938 81.7769 75.7588 81.3442 75.7588 81.3442L75.8115 80.1272" fill="white"/>
<path d="M77.2685 80.1272C77.2685 80.1272 78.0132 83.0251 77.2361 83.187C76.459 83.3489 73.1726 84.1909 72.8649 83.3975C72.5573 82.6044 74.1122 82.0523 74.9244 81.8904C75.4938 81.7769 75.7588 81.3442 75.7588 81.3442L75.8115 80.1272" stroke="#754AA2" stroke-width="2" stroke-linecap="round" stroke-linejoin="round"/>
<path d="M68.9955 56.7818C69.8697 61.8329 73.2209 76.0151 75.6979 80.7263C77.0092 81.6004 77.4949 80.7263 77.4949 80.7263C77.4949 80.7263 76.2464 66.1278 76.3436 57.1912C76.4407 48.2545 74.9571 47.1163 74.9571 47.1163L66.8584 48.423" fill="#A02DFF"/>
<path d="M68.9955 56.7818C69.8697 61.8329 73.2209 76.0151 75.6979 80.7263C77.0092 81.6004 77.4949 80.7263 77.4949 80.7263C77.4949 80.7263 76.2464 66.1278 76.3436 57.1912C76.4407 48.2545 74.9571 47.1163 74.9571 47.1163L66.8584 48.423" stroke="black" stroke-width="2" stroke-linecap="round" stroke-linejoin="round"/>
<path d="M74.2874 82.6333C74.2874 82.6946 74.2377 82.7443 74.1764 82.7443C74.1151 82.7443 74.0654 82.6946 74.0654 82.6333C74.0654 82.572 74.1151 82.5223 74.1764 82.5223C74.2377 82.5223 74.2874 82.572 74.2874 82.6333Z" fill="white"/>
<path d="M74.2874 82.6333C74.2874 82.6946 74.2377 82.7443 74.1764 82.7443C74.1151 82.7443 74.0654 82.6946 74.0654 82.6333C74.0654 82.572 74.1151 82.5223 74.1764 82.5223C74.2377 82.5223 74.2874 82.572 74.2874 82.6333Z" stroke="#754AA2" stroke-width="2" stroke-linecap="round" stroke-linejoin="round"/>
<path d="M74.9907 82.4113C74.9907 82.4726 74.9409 82.5224 74.8796 82.5224C74.8183 82.5224 74.7686 82.4726 74.7686 82.4113C74.7686 82.35 74.8183 82.3003 74.8796 82.3003C74.9409 82.3003 74.9907 82.35 74.9907 82.4113Z" fill="white"/>
<path d="M74.9907 82.4113C74.9907 82.4726 74.9409 82.5224 74.8796 82.5224C74.8183 82.5224 74.7686 82.4726 74.7686 82.4113C74.7686 82.35 74.8183 82.3003 74.8796 82.3003C74.9409 82.3003 74.9907 82.35 74.9907 82.4113Z" stroke="#754AA2" stroke-width="2" stroke-linecap="round" stroke-linejoin="round"/>
<path d="M75.6201 82.1429C75.6201 82.2042 75.5703 82.2539 75.509 82.2539C75.4477 82.2539 75.3979 82.2042 75.3979 82.1429C75.3979 82.0816 75.4477 82.0319 75.509 82.0319C75.5703 82.0319 75.6201 82.0816 75.6201 82.1429Z" fill="white"/>
<path d="M75.6201 82.1429C75.6201 82.2042 75.5703 82.2539 75.509 82.2539C75.4477 82.2539 75.3979 82.2042 75.3979 82.1429C75.3979 82.0816 75.4477 82.0319 75.509 82.0319C75.5703 82.0319 75.6201 82.0816 75.6201 82.1429Z" stroke="#754AA2" stroke-width="2" stroke-linecap="round" stroke-linejoin="round"/>
<path d="M71.8584 48.7906C73.3055 48.9473 74.4787 49.0492 74.8344 49.0145C75.5401 48.9185 75.5647 48.6398 75.5647 48.6398C75.5647 48.6398 64.5452 47.3954 64.5211 47.4249C64.4969 47.4543 64.1118 47.8278 64.1118 47.8278C64.1118 47.8278 66.366 48.1333 68.8179 48.4352" fill="#0F021B"/>
<path d="M71.8584 48.7906C73.3055 48.9473 74.4787 49.0492 74.8344 49.0145C75.5401 48.9185 75.5647 48.6398 75.5647 48.6398C75.5647 48.6398 64.5452 47.3954 64.5211 47.4249C64.4969 47.4543 64.1118 47.8278 64.1118 47.8278C64.1118 47.8278 66.366 48.1333 68.8179 48.4352" stroke="#754AA2" stroke-linecap="round" stroke-linejoin="round"/>
<path d="M71.6384 34.1186C71.8715 34.1578 72.1236 34.2605 72.2895 34.332C73.1657 34.5702 73.9997 35.6875 74.2284 36.9332C74.8816 40.4905 72.899 46.7352 70.7732 47.8484C69.4233 48.0877 63.9701 43.5044 63.9701 43.5044C63.9701 43.5044 65.9415 39.7677 68.1328 36.9811" fill="white"/>
<path d="M71.6384 34.1186C71.8715 34.1578 72.1236 34.2605 72.2895 34.332C73.1657 34.5702 73.9997 35.6875 74.2284 36.9332C74.8816 40.4905 72.899 46.7352 70.7732 47.8484C69.4233 48.0877 63.9701 43.5044 63.9701 43.5044C63.9701 43.5044 65.9415 39.7677 68.1328 36.9811" stroke="#754AA2" stroke-width="2" stroke-linecap="round" stroke-linejoin="round"/>
<path d="M74.3873 52.2648C74.3873 52.2648 72.7334 53.2884 72.5222 53.6466C72.311 54.0048 73.0836 53.6805 73.0836 53.6805C73.0836 53.6805 71.861 54.7642 71.5493 54.6983C71.2375 54.6323 70.3845 56.2034 71.2536 55.8471C72.1226 55.4908 73.4156 54.3667 74.259 53.2902C75.1024 52.2138 74.3873 52.2648 74.3873 52.2648Z" fill="white"/>
<path d="M74.3873 52.2648C74.3873 52.2648 72.7334 53.2884 72.5222 53.6466C72.311 54.0048 73.0836 53.6805 73.0836 53.6805C73.0836 53.6805 71.861 54.7642 71.5493 54.6983C71.2375 54.6323 70.3845 56.2034 71.2536 55.8471C72.1226 55.4908 73.4156 54.3667 74.259 53.2902C75.1024 52.2138 74.3873 52.2648 74.3873 52.2648Z" stroke="#754AA2" stroke-width="2" stroke-linecap="round" stroke-linejoin="round"/>
<path d="M76.8159 34.1185C76.8159 34.1185 78.0298 42.6835 76.6548 46.0733C75.2942 49.4262 72.3617 51.1455 72.3617 51.1455C72.3617 51.1455 72.0223 49.7356 72.2368 49.2024C74.1011 46.1917 75.4964 44.3235 75.4964 44.3235C75.4964 44.3235 75.3169 39.7161 75.6778 37.421" fill="white"/>
<path d="M76.8159 34.1185C76.8159 34.1185 78.0298 42.6835 76.6548 46.0733C75.2942 49.4262 72.3617 51.1455 72.3617 51.1455C72.3617 51.1455 72.0223 49.7356 72.2368 49.2024C74.1011 46.1917 75.4964 44.3235 75.4964 44.3235C75.4964 44.3235 75.3169 39.7161 75.6778 37.421" stroke="#754AA2" stroke-width="2" stroke-linecap="round" stroke-linejoin="round"/>
<path d="M66.9739 32.8808L67.6909 31.2537C67.6909 31.2537 67.1745 30.9081 67.0842 30.288C66.994 29.668 68.5326 25.7391 69.3612 25.7397C70.1898 25.7403 70.9327 28.1708 69.9824 29.9864C69.0321 31.8019 68.1076 34.2166 68.1076 34.2166C68.1076 34.2166 66.857 33.7058 66.9739 32.8808Z" fill="white"/>
<path d="M66.9739 32.8808L67.6909 31.2537C67.6909 31.2537 67.1745 30.9081 67.0842 30.288C66.994 29.668 68.5326 25.7391 69.3612 25.7397C70.1898 25.7403 70.9327 28.1708 69.9824 29.9864C69.0321 31.8019 68.1076 34.2166 68.1076 34.2166C68.1076 34.2166 66.857 33.7058 66.9739 32.8808Z" stroke="#754AA2" stroke-width="2" stroke-linecap="round" stroke-linejoin="round"/>
<path d="M67.3728 24.9239C67.3562 24.9884 66.7065 26.3132 68.0069 27.2363C68.3858 27.519 67.9712 28.3886 67.9712 28.3886L67.2767 29.6154L67.5596 29.7085C67.5596 29.7085 68.2508 28.4314 68.7007 28.7914C69.1507 29.1515 68.1066 29.9753 68.1066 29.9753L68.3534 30.4188C68.3534 30.4188 70.2316 30.7826 70.5594 29.6832C70.8872 28.5837 70.3305 28.0739 70.3305 28.0739C70.3305 28.0739 71.1019 28.3666 71.4954 27.4104C71.8888 26.4542 70.0655 25.8012 70.0655 25.8012C70.0655 25.8012 70.9488 24.9275 70.1168 24.4011C69.2847 23.8746 68.6719 25.0539 68.6719 25.0539C68.6719 25.0539 67.5325 24.301 67.3728 24.9239Z" fill="#0F021B"/>
<path d="M67.3728 24.9239C67.3562 24.9884 66.7065 26.3132 68.0069 27.2363C68.3858 27.519 67.9712 28.3886 67.9712 28.3886L67.2767 29.6154L67.5596 29.7085C67.5596 29.7085 68.2508 28.4314 68.7007 28.7914C69.1507 29.1515 68.1066 29.9753 68.1066 29.9753L68.3534 30.4188C68.3534 30.4188 70.2316 30.7826 70.5594 29.6832C70.8872 28.5837 70.3305 28.0739 70.3305 28.0739C70.3305 28.0739 71.1019 28.3666 71.4954 27.4104C71.8888 26.4542 70.0655 25.8012 70.0655 25.8012C70.0655 25.8012 70.9488 24.9275 70.1168 24.4011C69.2847 23.8746 68.6719 25.0539 68.6719 25.0539C68.6719 25.0539 67.5325 24.301 67.3728 24.9239Z" stroke="#754AA2" stroke-linecap="round" stroke-linejoin="round"/>
<path d="M45.8932 43.9621C45.9255 43.9034 45.8602 43.8459 45.7474 43.8336L44.181 43.6628C44.0682 43.6505 43.9505 43.688 43.9183 43.7467L43.9174 43.7483L45.8902 43.9676L45.8932 43.9621Z" fill="#0F021B"/>
<path d="M45.8932 43.9621C45.9255 43.9034 45.8602 43.8459 45.7474 43.8336L44.181 43.6628C44.0682 43.6505 43.9505 43.688 43.9183 43.7467L43.9174 43.7483L45.8902 43.9676L45.8932 43.9621Z" stroke="#754AA2" stroke-width="0.215854" stroke-linecap="round" stroke-linejoin="round"/>
<path d="M45.4567 46.2532L46.2175 44.5546L44.8988 43.9217L44.1355 45.6259C44.1311 45.6358 44.1276 45.6458 44.125 45.6559L45.4343 46.2903C45.4429 46.2791 45.4506 46.2668 45.4567 46.2532Z" fill="white"/>
<path d="M45.4567 46.2532L46.2175 44.5546L44.8988 43.9217L44.1355 45.6259C44.1311 45.6358 44.1276 45.6458 44.125 45.6559L45.4343 46.2903C45.4429 46.2791 45.4506 46.2668 45.4567 46.2532Z" stroke="#754AA2" stroke-width="0.431708" stroke-linecap="round" stroke-linejoin="round"/>
<path d="M44.4336 46.2412C44.426 46.2912 44.4904 46.3357 44.5913 46.3454L46.1772 46.4983C46.273 46.5075 46.371 46.4824 46.4184 46.44L44.4336 46.2412Z" fill="#0F021B"/>
<path d="M44.4336 46.2412C44.426 46.2912 44.4904 46.3357 44.5913 46.3454L46.1772 46.4983C46.273 46.5075 46.371 46.4824 46.4184 46.44L44.4336 46.2412Z" stroke="#754AA2" stroke-width="0.215854" stroke-linecap="round" stroke-linejoin="round"/>
<path d="M45.0508 43.5556C45.0831 43.4964 45.0453 43.4322 44.9665 43.4123C44.8876 43.3924 44.7975 43.4244 44.7652 43.4836L44.5806 43.4371L44.4864 43.61L45.1413 43.7752L45.2355 43.6022L45.0508 43.5556Z" fill="white"/>
<path d="M45.0508 43.5556C45.0831 43.4964 45.0453 43.4322 44.9665 43.4123C44.8876 43.3924 44.7975 43.4244 44.7652 43.4836L44.5806 43.4371L44.4864 43.61L45.1413 43.7752L45.2355 43.6022L45.0508 43.5556Z" stroke="#754AA2" stroke-width="0.431708" stroke-linecap="round" stroke-linejoin="round"/>
<path d="M45.797 44.2267L44.8463 44.1201L44.8732 44.0692L45.8239 44.1758L45.797 44.2267Z" fill="white"/>
<path d="M45.797 44.2267L44.8463 44.1201L44.8732 44.0692L45.8239 44.1758L45.797 44.2267Z" stroke="#754AA2" stroke-width="0.431708" stroke-linecap="round" stroke-linejoin="round"/>
<path d="M45.4337 44.4951L44.8953 44.4196L44.9242 44.3664L45.4626 44.4419L45.4337 44.4951Z" fill="white"/>
<path d="M45.4337 44.4951L44.8953 44.4196L44.9242 44.3664L45.4626 44.4419L45.4337 44.4951Z" stroke="#754AA2" stroke-width="0.431708" stroke-linecap="round" stroke-linejoin="round"/>
<path d="M45.9342 44.8631L44.9835 44.7565L45.0104 44.7055L45.9611 44.8121L45.9342 44.8631Z" fill="white"/>
<path d="M45.9342 44.8631L44.9835 44.7565L45.0104 44.7055L45.9611 44.8121L45.9342 44.8631Z" stroke="#754AA2" stroke-width="0.431708" stroke-linecap="round" stroke-linejoin="round"/>
<path d="M45.5709 45.1315L45.0325 45.056L45.0614 45.0028L45.5998 45.0783L45.5709 45.1315Z" fill="white"/>
<path d="M45.5709 45.1315L45.0325 45.056L45.0614 45.0028L45.5998 45.0783L45.5709 45.1315Z" stroke="#754AA2" stroke-width="0.431708" stroke-linecap="round" stroke-linejoin="round"/>
<path d="M46.0675 45.5091L45.1168 45.4025L45.1437 45.3515L46.0944 45.4581L46.0675 45.5091Z" fill="white"/>
<path d="M46.0675 45.5091L45.1168 45.4025L45.1437 45.3515L46.0944 45.4581L46.0675 45.5091Z" stroke="#754AA2" stroke-width="0.431708" stroke-linecap="round" stroke-linejoin="round"/>
<path d="M45.7042 45.7773L45.1658 45.7018L45.1947 45.6487L45.7331 45.7242L45.7042 45.7773Z" fill="white"/>
<path d="M45.7042 45.7773L45.1658 45.7018L45.1947 45.6487L45.7331 45.7242L45.7042 45.7773Z" stroke="#754AA2" stroke-width="0.431708" stroke-linecap="round" stroke-linejoin="round"/>
<path d="M44.5072 44.536C44.4516 44.6081 44.3515 44.6248 44.2836 44.5734C44.2157 44.5221 44.2057 44.4219 44.2612 44.3499C44.3168 44.2778 44.4169 44.261 44.4848 44.3124C44.5527 44.3638 44.5627 44.4639 44.5072 44.536Z" fill="white"/>
<path d="M44.5072 44.536C44.4516 44.6081 44.3515 44.6248 44.2836 44.5734C44.2157 44.5221 44.2057 44.4219 44.2612 44.3499C44.3168 44.2778 44.4169 44.261 44.4848 44.3124C44.5527 44.3638 44.5627 44.4639 44.5072 44.536Z" stroke="#754AA2" stroke-width="0.431708" stroke-linecap="round" stroke-linejoin="round"/>
<path d="M44.6556 45.2031C44.6 45.2752 44.4999 45.292 44.432 45.2406C44.3641 45.1892 44.3541 45.0891 44.4096 45.017C44.4652 44.9449 44.5653 44.9281 44.6332 44.9795C44.7011 45.0309 44.7112 45.131 44.6556 45.2031Z" fill="white"/>
<path d="M44.6556 45.2031C44.6 45.2752 44.4999 45.292 44.432 45.2406C44.3641 45.1892 44.3541 45.0891 44.4096 45.017C44.4652 44.9449 44.5653 44.9281 44.6332 44.9795C44.7011 45.0309 44.7112 45.131 44.6556 45.2031Z" stroke="#754AA2" stroke-width="0.431708" stroke-linecap="round" stroke-linejoin="round"/>
<path d="M44.7908 45.8417C44.7353 45.9137 44.6352 45.9305 44.5673 45.8791C44.4994 45.8277 44.4893 45.7276 44.5449 45.6555C44.6005 45.5834 44.7006 45.5667 44.7685 45.6181C44.8364 45.6695 44.8464 45.7696 44.7908 45.8417Z" fill="white"/>
<path d="M44.7908 45.8417C44.7353 45.9137 44.6352 45.9305 44.5673 45.8791C44.4994 45.8277 44.4893 45.7276 44.5449 45.6555C44.6005 45.5834 44.7006 45.5667 44.7685 45.6181C44.8364 45.6695 44.8464 45.7696 44.7908 45.8417Z" stroke="#754AA2" stroke-width="0.431708" stroke-linecap="round" stroke-linejoin="round"/>
<path d="M44.2927 44.2934L44.3332 44.4202L44.592 44.2778" stroke="#754AA2" stroke-width="0.431708" stroke-linecap="round" stroke-linejoin="round"/>
<path d="M44.4475 44.9932L44.488 45.1201L44.7468 44.9777" stroke="#754AA2" stroke-width="0.431708" stroke-linecap="round" stroke-linejoin="round"/>
<path d="M44.5847 45.6414L44.6252 45.7683L44.884 45.6259" stroke="#754AA2" stroke-width="0.431708" stroke-linecap="round" stroke-linejoin="round"/>
<path d="M30.0242 33.6409C30.0242 33.6409 28.2812 32.3842 30.0922 31.1994C31.903 30.0146 32.0298 29.8844 32.0567 28.8953C32.0836 27.906 33.1321 26.9658 34.4076 27.9086C34.7698 27.653 36.5043 27.1834 36.7155 28.5676C36.9267 29.9519 36.2758 29.7646 36.5367 30.726C36.7975 31.6873 36.94 33.7096 35.6005 34.4471C35.185 34.6855 35.0297 34.8626 35.3146 35.7582C35.5994 36.6537 35.0342 37.2687 35.0342 37.2687C35.0342 37.2687 30.4608 34.8951 30.0242 33.6409Z" fill="#0F021B"/>
<path d="M30.0242 33.6409C30.0242 33.6409 28.2812 32.3842 30.0922 31.1994C31.903 30.0146 32.0298 29.8844 32.0567 28.8953C32.0836 27.906 33.1321 26.9658 34.4076 27.9086C34.7698 27.653 36.5043 27.1834 36.7155 28.5676C36.9267 29.9519 36.2758 29.7646 36.5367 30.726C36.7975 31.6873 36.94 33.7096 35.6005 34.4471C35.185 34.6855 35.0297 34.8626 35.3146 35.7582C35.5994 36.6537 35.0342 37.2687 35.0342 37.2687C35.0342 37.2687 30.4608 34.8951 30.0242 33.6409Z" stroke="#754AA2" stroke-linecap="round" stroke-linejoin="round"/>
<path d="M31.8893 33.7171C31.8893 33.7171 31.793 34.7423 32.8703 35.0728L33.5095 35.2387L34.172 33.2372C34.172 33.2372 35.3747 33.9151 35.7462 33.4376C36.1176 32.9602 36.6435 29.1465 35.8248 28.5619C35.0062 27.9773 33.1087 27.956 32.6724 29.5145C32.2363 31.0731 32.6456 32.308 32.6456 32.308L31.8893 33.7171Z" fill="white"/>
<path d="M31.8893 33.7171C31.8893 33.7171 31.793 34.7423 32.8703 35.0728L33.5095 35.2387L34.172 33.2372C34.172 33.2372 35.3747 33.9151 35.7462 33.4376C36.1176 32.9602 36.6435 29.1465 35.8248 28.5619C35.0062 27.9773 33.1087 27.956 32.6724 29.5145C32.2363 31.0731 32.6456 32.308 32.6456 32.308L31.8893 33.7171Z" stroke="#754AA2" stroke-width="2" stroke-linecap="round" stroke-linejoin="round"/>
<path d="M32.0514 32.3959C32.0514 32.3959 32.5439 32.8409 32.8123 32.2742C33.0806 31.7074 32.5332 30.9727 33.015 30.4378C33.4967 29.9029 33.1622 31.1442 33.4646 31.1544C33.767 31.1648 33.4563 30.059 34.0334 29.6577C34.6104 29.2566 35.9455 28.9329 35.7376 28.5026C35.5297 28.0722 34.0717 27.7567 33.3772 28.0087C32.6827 28.2607 30.9814 30.8262 32.0514 32.3959Z" fill="#0F021B"/>
<path d="M41.9433 45.8678C41.9433 45.8678 39.4329 45.0896 38.4682 43.6662C36.9343 40.8937 36.9791 39.2579 36.9791 39.2579C36.9791 39.2579 38.3439 38.8876 38.7855 38.8349C39.3671 40.3426 39.5461 41.6194 40.2572 43.1385C41.9736 45.1157 42.3579 45.2251 42.3579 45.2251C42.3579 45.2251 43.5176 45.4655 43.5451 45.6104C43.577 45.8764 42.9407 45.6899 42.9407 45.6899C42.9407 45.6899 43.9003 45.9709 43.7076 46.367C43.1051 47.2627 41.9433 45.8678 41.9433 45.8678Z" fill="white"/>
<path d="M41.9433 45.8678C41.9433 45.8678 39.4329 45.0896 38.4682 43.6662C36.9343 40.8937 36.9791 39.2579 36.9791 39.2579C36.9791 39.2579 38.3439 38.8876 38.7855 38.8349C39.3671 40.3426 39.5461 41.6194 40.2572 43.1385C41.9736 45.1157 42.3579 45.2251 42.3579 45.2251C42.3579 45.2251 43.5176 45.4655 43.5451 45.6104C43.577 45.8764 42.9407 45.6899 42.9407 45.6899C42.9407 45.6899 43.9003 45.9709 43.7076 46.367C43.1051 47.2627 41.9433 45.8678 41.9433 45.8678Z" stroke="#754AA2" stroke-width="2" stroke-linecap="round" stroke-linejoin="round"/>
<path d="M35.4512 34.5763C35.4512 34.5763 36.6822 36.8109 36.8007 39.455C35.9797 40.5143 34.7409 40.4218 34.7409 40.4218L34.5964 38.446" fill="#A02DFF"/>
<path d="M35.4512 34.5763C35.4512 34.5763 36.6822 36.8109 36.8007 39.455C35.9797 40.5143 34.7409 40.4218 34.7409 40.4218L34.5964 38.446" stroke="black" stroke-width="2" stroke-linecap="round" stroke-linejoin="round"/>
<path d="M31.8469 80.2725L31.646 81.9366C31.646 81.9366 35.2324 83.6868 36.0214 82.9551C36.8104 82.2235 33.8265 81.0184 33.5827 80.6741C33.3387 80.3298 33.095 79.7417 33.095 79.7417" fill="white"/>
<path d="M31.8469 80.2725L31.646 81.9366C31.646 81.9366 35.2324 83.6868 36.0214 82.9551C36.8104 82.2235 33.8265 81.0184 33.5827 80.6741C33.3387 80.3298 33.095 79.7417 33.095 79.7417" stroke="#754AA2" stroke-width="2" stroke-linecap="round" stroke-linejoin="round"/>
<path d="M30.4268 54.8376C29.2218 58.754 31.7282 80.4446 31.7282 80.4446C32.3798 80.7051 33.0082 80.8428 33.511 80.3156C33.511 80.3156 36.3659 63.9614 37.3988 57.2476C38.4317 50.5338 35.1751 45.642 35.1751 45.642L32.4494 45.8428" fill="white"/>
<path d="M30.4268 54.8376C29.2218 58.754 31.7282 80.4446 31.7282 80.4446C32.3798 80.7051 33.0082 80.8428 33.511 80.3156C33.511 80.3156 36.3659 63.9614 37.3988 57.2476C38.4317 50.5338 35.1751 45.642 35.1751 45.642L32.4494 45.8428" stroke="#754AA2" stroke-width="2" stroke-linecap="round" stroke-linejoin="round"/>
<path d="M34.1481 80.9C34.1481 80.9 33.1858 81.0913 33.3461 81.3195C33.5066 81.5477 34.438 80.9864 34.6661 81.1099C34.8944 81.2331 34.1296 81.5415 34.3701 81.7143C34.6106 81.887 34.9376 81.2825 35.2583 81.4676C35.5791 81.6526 35.0178 81.9487 35.0178 81.9487" stroke="#754AA2" stroke-width="2" stroke-linecap="round" stroke-linejoin="round"/>
<path d="M28.7177 82.9357L30.0664 84.618C30.0664 84.618 33.5161 83.8408 33.6664 83.0695C33.8166 82.2982 30.4678 82.8115 30.4678 82.8115L29.972 82.1836" fill="white"/>
<path d="M28.7177 82.9357L30.0664 84.618C30.0664 84.618 33.5161 83.8408 33.6664 83.0695C33.8166 82.2982 30.4678 82.8115 30.4678 82.8115L29.972 82.1836" stroke="#754AA2" stroke-width="2" stroke-linecap="round" stroke-linejoin="round"/>
<path d="M30.0368 54.6534C30.3068 56.3633 33.96 73.7335 35.1647 80.3003C35.2424 81.1795 34.4506 82.0318 34.4282 81.9079C34.4282 81.9079 30.0229 69.6179 27.7742 62.0725C25.5256 54.5273 25.7837 48.8549 25.7837 48.8549L27.2198 46.1887" fill="white"/>
<path d="M30.0368 54.6534C30.3068 56.3633 33.96 73.7335 35.1647 80.3003C35.2424 81.1795 34.4506 82.0318 34.4282 81.9079C34.4282 81.9079 30.0229 69.6179 27.7742 62.0725C25.5256 54.5273 25.7837 48.8549 25.7837 48.8549L27.2198 46.1887" stroke="#754AA2" stroke-width="2" stroke-linecap="round" stroke-linejoin="round"/>
<path d="M31.3215 82.6621C31.3215 82.6621 30.5555 83.4303 30.9933 83.4805C31.431 83.5306 31.4892 82.6968 31.9009 82.6919C32.3126 82.687 31.603 83.3882 31.9882 83.3557C32.3734 83.3233 32.3079 82.6402 32.66 82.6711C33.012 82.7021 32.9275 83.1172 32.9275 83.1172" stroke="#754AA2" stroke-width="2" stroke-linecap="round" stroke-linejoin="round"/>
<path d="M30.7806 45.6962C30.2951 45.6002 29.9738 45.5366 29.9738 45.5366L29.3884 45.7318C29.3884 45.7318 28.7067 46.2009 31.0559 46.7257C33.4051 47.2506 35.3812 47.1342 35.3812 47.1342L35.3534 46.6005C35.3534 46.6005 33.5126 46.2364 31.9846 45.9343" fill="#0F021B"/>
<path d="M30.7806 45.6962C30.2951 45.6002 29.9738 45.5366 29.9738 45.5366L29.3884 45.7318C29.3884 45.7318 28.7067 46.2009 31.0559 46.7257C33.4051 47.2506 35.3812 47.1342 35.3812 47.1342L35.3534 46.6005C35.3534 46.6005 33.5126 46.2364 31.9846 45.9343" stroke="#754AA2" stroke-linecap="round" stroke-linejoin="round"/>
<path d="M35.6347 36.5373C35.577 36.238 35.479 35.9706 35.3339 35.7436C34.3296 34.3503 33.9436 34.6729 33.9436 34.6729C33.9436 34.6729 28.4461 40.2354 29.0065 43.6671C30.4375 46.1492 32.1989 46.7192 32.1989 46.7192C32.1989 46.7192 34.5298 42.7286 35.3878 39.3891" fill="#A02DFF"/>
<path d="M35.6347 36.5373C35.577 36.238 35.479 35.9706 35.3339 35.7436C34.3296 34.3503 33.9436 34.6729 33.9436 34.6729C33.9436 34.6729 28.4461 40.2354 29.0065 43.6671C30.4375 46.1492 32.1989 46.7192 32.1989 46.7192C32.1989 46.7192 34.5298 42.7286 35.3878 39.3891" stroke="black" stroke-width="2" stroke-linecap="round" stroke-linejoin="round"/>
<path d="M26.7156 55.7623C26.2374 56.2926 25.7128 55.6288 25.7492 55.3614C25.7857 55.0936 26.0435 54.8934 26.2785 54.4676C26.5136 54.0415 26.726 52.6515 26.726 52.6515C26.726 52.6515 26.4533 50.7304 27.3023 46.8656C28.151 43.0004 30.1967 40.593 30.1967 40.593L30.8748 43.0751C30.861 43.2351 29.7482 43.6335 28.8546 45.5961C28.0163 47.4364 27.5234 52.2723 27.4656 52.8653L27.4658 52.8656C27.4877 54.9533 27.1939 55.2324 26.7156 55.7623Z" fill="white"/>
<path d="M26.7156 55.7623C26.2374 56.2926 25.7128 55.6288 25.7492 55.3614C25.7857 55.0936 26.0435 54.8934 26.2785 54.4676C26.5136 54.0415 26.726 52.6515 26.726 52.6515C26.726 52.6515 26.4533 50.7304 27.3023 46.8656C28.151 43.0004 30.1967 40.593 30.1967 40.593L30.8748 43.0751C30.861 43.2351 29.7482 43.6335 28.8546 45.5961C28.0163 47.4364 27.5234 52.2723 27.4656 52.8653L27.4658 52.8656C27.4877 54.9533 27.1939 55.2324 26.7156 55.7623Z" stroke="#754AA2" stroke-width="2" stroke-linecap="round" stroke-linejoin="round"/>
<path d="M30.9693 36.0122C30.1962 35.4557 27.908 37.6721 27.2349 38.9634C26.9574 41.0088 27.9241 41.9683 27.9241 41.9683C27.9241 41.9683 28.3392 41.6646 28.5345 41.1631" fill="#A02DFF"/>
<path d="M30.9693 36.0122C30.1962 35.4557 27.908 37.6721 27.2349 38.9634C26.9574 41.0088 27.9241 41.9683 27.9241 41.9683C27.9241 41.9683 28.3392 41.6646 28.5345 41.1631" stroke="black" stroke-width="2" stroke-linecap="round" stroke-linejoin="round"/>
</g>
</g>
</g>
<defs>
<clipPath id="clip0_1060_1311">
<rect width="100" height="100" fill="white"/>
</clipPath>
</defs>
</svg>
