<svg width="61" height="137" viewBox="0 0 61 137" fill="none" xmlns="http://www.w3.org/2000/svg">
<g clip-path="url(#clip0_1226_156)">
<path d="M30.0139 0.666687C29.8805 0.666687 29.7749 0.77754 29.7749 0.917565V9.51743C29.7749 9.65746 29.8805 9.76831 30.0139 9.76831C30.1472 9.76831 30.2528 9.65746 30.2528 9.51743V0.917565C30.2528 0.77754 30.1472 0.666687 30.0139 0.666687Z" fill="#FFC000"/>
<path d="M30.0139 0.666687C29.9861 0.666687 29.9583 0.672521 29.9361 0.68419C30.0805 0.800878 30.175 1.0926 30.1639 1.36098C30.1417 2.02026 30.1695 6.05765 30.0805 7.62709C30.0639 7.93048 29.8638 7.90714 29.7749 7.89548V9.5116C29.7749 9.65162 29.8805 9.76248 30.0139 9.76248C30.1472 9.76248 30.2528 9.65162 30.2528 9.5116V0.917565C30.2528 0.77754 30.1472 0.666687 30.0139 0.666687Z" fill="#FFD143"/>
<path d="M33.0423 9.77417H27.124V12.9656H33.0423V9.77417Z" fill="#FFD143"/>
<path d="M32.6645 9.90836C31.6642 10.836 30.5861 11.1744 29.2691 11.1744C28.5244 11.1744 27.8464 11.3028 27.124 11.1744V12.9656H33.0423V9.77417H32.7812C32.7367 9.81501 32.7089 9.86752 32.6645 9.90836Z" fill="#FFC000"/>
<path d="M34.8316 61.8459L34.7816 61.7876C33.6313 50.7489 32.4699 35.2062 32.2976 16.3495L32.292 16.0344H27.8019L27.7963 16.3495C27.4407 55.1481 22.9172 79.9733 22.8672 80.2184L23.3673 80.3642C23.3729 80.3467 23.4062 80.1425 23.4674 79.7983L25.8903 77.8438L27.8241 79.81C27.8075 80.09 27.7963 80.2417 27.7963 80.265L28.3076 80.3117C28.3076 80.2884 28.3243 80.0842 28.3409 79.7225L30.0581 77.7329L31.753 79.845C31.7697 80.1309 31.7808 80.2942 31.7808 80.3117L32.292 80.2592C32.292 80.2417 32.2809 80.125 32.2698 79.9267L34.2759 77.7913L36.6155 79.7225C36.6822 80.1134 36.7211 80.3351 36.7266 80.3584L37.2267 80.2125C37.2045 80.0842 35.9986 73.4913 34.7872 61.8868L34.8316 61.8459ZM34.6872 65.6616L33.2423 64.0338L34.3371 62.5169C34.4593 63.6137 34.576 64.6581 34.6872 65.6616ZM33.7647 72.8204L32.1809 71.2801H35.1151L33.7647 72.8204ZM33.7813 73.4155L35.5818 75.1658H32.2476L33.7813 73.4155ZM32.0586 70.7142L33.3923 68.9464L35.0873 70.7142H32.0586ZM33.359 68.3221L31.8308 66.7235H34.5593L33.359 68.3221ZM31.7085 66.1517L33.02 64.3372L34.626 66.1517H31.7085ZM25.0567 70.7142L26.7294 68.923L28.0909 70.7142H25.0567ZM28.1242 71.2801L26.4682 72.8262L25.0511 71.2801H28.1242ZM25.5568 66.7235H28.2242L26.7516 68.2987L25.5568 66.7235ZM25.5735 66.1517L27.0961 64.3489L28.3465 66.1517H25.5735ZM29.6969 20.2994L29.0189 21.7696L28.4243 20.2994H29.6969ZM28.3187 19.7276L29.0078 18.3507L29.6858 19.7276H28.3187ZM31.0806 21.8338L30.3804 20.2935H31.7419L31.0806 21.8338ZM31.0806 22.2889L31.753 23.7708H30.4471L31.0806 22.2889ZM30.3026 19.7276L31.0417 18.304L31.8197 19.7276H30.3026ZM30.9806 22.0613L30.2637 23.73C30.2526 22.6331 30.247 21.5362 30.2415 20.4394L30.9806 22.0613ZM30.2693 24.3309H30.2748H30.2693C30.2693 24.3367 30.2693 24.3367 30.2693 24.3309ZM31.4807 61.5659L32.6421 59.7164L34.1314 61.5659H31.4807ZM34.1703 62.1376L32.9978 63.7538L31.5641 62.1376H34.1703ZM28.9522 70.7142L30.0525 68.8764L31.1917 70.7142H28.9522ZM31.1417 71.2801L30.1137 72.6745L29.1634 71.2801H31.1417ZM29.5913 52.0617L30.0081 50.1305L30.4137 52.0967C30.4137 52.155 30.4193 52.2134 30.4193 52.2776H29.5857C29.5913 52.2075 29.5913 52.1317 29.5913 52.0617ZM28.9522 31.0988L29.6357 29.6752C29.6191 30.6554 29.608 31.6355 29.5913 32.6099L28.9522 31.0988ZM30.4415 52.8493C30.4415 52.8785 30.4415 52.9077 30.4471 52.931L30.0081 54.2671L29.5635 52.931C29.5635 52.9018 29.5635 52.8727 29.5691 52.8435H30.4415V52.8493ZM30.4693 53.5728C30.4971 54.3779 30.5304 55.1656 30.5638 55.9474L30.1248 54.623L30.4693 53.5728ZM30.0081 54.9847L30.5971 56.7584C30.5971 56.8167 30.6027 56.8809 30.6027 56.9392H29.419C29.419 56.8809 29.4246 56.8167 29.4246 56.7584L30.0081 54.9847ZM30.6527 58.1878C30.686 58.9871 30.7194 59.7689 30.7527 60.5332L30.2081 59.2555L30.6527 58.1878ZM30.0192 58.8121L29.4635 57.5052H30.5582L30.0192 58.8121ZM29.8358 59.2613L29.2745 60.6207C29.3079 59.8214 29.3412 59.0046 29.3746 58.1703L29.8358 59.2613ZM30.0247 59.7105L30.7972 61.525C30.7972 61.5367 30.7972 61.5542 30.7972 61.5659H29.2523L30.0247 59.7105ZM30.8527 62.6919C30.8972 63.6371 30.9361 64.5589 30.9806 65.4516L30.2137 63.9288L30.8527 62.6919ZM30.8083 48.6952L31.8641 50.2239L30.9194 51.8925C30.8805 50.8365 30.8472 49.7746 30.8083 48.6952ZM30.9694 53.2169L32.1364 54.798L31.0973 56.5308C31.0528 55.4515 31.0139 54.3429 30.9694 53.2169ZM30.7416 62.1376L30.0192 63.5437L29.3134 62.1376H30.7416ZM30.9417 66.1517H29.0634L30.0136 64.3139L30.9417 66.1517ZM30.8861 66.7235L30.047 68.1237L29.1745 66.7235H30.8861ZM29.8191 68.5029L28.8522 70.1249C28.8966 69.1914 28.9411 68.2054 28.9911 67.1669L29.8191 68.5029ZM30.2748 68.4971L31.0639 67.1785C31.1139 68.1646 31.1584 69.1039 31.2028 69.9907L30.2748 68.4971ZM31.1528 57.8669L32.4087 59.4247L31.2973 61.1925C31.2473 60.1131 31.2028 59.0104 31.1528 57.8669ZM32.6144 59.0979L31.3307 57.5052H33.6146L32.6144 59.0979ZM31.2195 56.9334L32.3365 55.0664L33.7091 56.9334H31.2195ZM32.3143 54.5063L31.0917 52.8493H33.3034L32.3143 54.5063ZM30.9972 52.2776L32.0309 50.4572L33.2923 52.2776H30.9972ZM32.0142 49.9613L30.8861 48.3394H32.9311L32.0142 49.9613ZM30.7694 47.5109C30.7305 46.2682 30.6916 45.0079 30.6527 43.7302L31.7085 45.5038L30.7694 47.5109ZM30.6138 42.3533C30.5805 41.2448 30.5527 40.1187 30.5249 38.9869L31.464 40.6321L30.6138 42.3533ZM30.5027 37.9833L31.3973 36.0697L32.3476 37.9833H30.5027ZM30.486 37.4816C30.4582 36.3555 30.436 35.2237 30.4137 34.0801L31.2695 35.8071L30.486 37.4816ZM30.386 32.7849C30.3637 31.7056 30.3471 30.6145 30.3304 29.5235L31.1084 31.163L30.386 32.7849ZM31.2362 31.4372L32.0753 33.205H30.4471L31.2362 31.4372ZM31.2362 30.8946L30.4249 29.1851H32.0031L31.2362 30.8946ZM30.3915 28.6133L31.1862 26.6647L32.0253 28.6133H30.3915ZM30.3137 28.3216C30.297 27.0731 30.2804 25.8128 30.2693 24.5526L31.0806 26.4313L30.3137 28.3216ZM30.297 48.8119C30.3248 49.6229 30.3526 50.4222 30.3804 51.2157L30.0859 49.7804L30.297 48.8119ZM30.0192 49.4245L29.7969 48.3394H30.2526L30.0192 49.4245ZM29.9414 49.7746L29.6246 51.239C29.6524 50.3814 29.6802 49.5121 29.708 48.6369L29.9414 49.7746ZM29.658 27.8549L29.08 26.3613L29.6858 24.9727C29.6802 25.9354 29.6691 26.898 29.658 27.8549ZM29.7024 23.4557L29.1134 22.003L29.7191 20.6844C29.7135 21.6063 29.708 22.5339 29.7024 23.4557ZM29.6302 23.765H28.2965L29.0078 22.2247L29.6302 23.765ZM29.6969 24.3309C29.6969 24.3892 29.6969 24.4534 29.6969 24.5118L28.9911 26.1221L28.302 24.3367H29.6969V24.3309ZM29.6524 28.3391C29.6524 28.4325 29.6524 28.52 29.6469 28.6133H28.0964L28.98 26.6005L29.6524 28.3391ZM29.6135 29.1793L28.83 30.8129L28.1353 29.1793H29.6135ZM29.5802 33.1641C29.5802 33.1758 29.5802 33.1933 29.5802 33.205H27.9408L28.8188 31.373L29.5802 33.1641ZM29.5413 53.5728L29.8914 54.623L29.4579 55.9474C29.4857 55.1714 29.5135 54.3779 29.5413 53.5728ZM29.4913 37.4407L28.741 35.7429L29.5579 34.0918C29.5413 35.2178 29.519 36.3322 29.4913 37.4407ZM29.369 42.5166L28.5966 40.638L29.4524 39.0277C29.4301 40.2062 29.4023 41.3673 29.369 42.5166ZM28.4854 40.3579L27.7463 38.5493H29.4524L28.4854 40.3579ZM29.2356 42.7792H27.4629L28.4632 40.9005L29.2356 42.7792ZM29.319 43.3451L28.2798 45.183L27.4351 43.3451H29.319ZM29.3357 43.7885C29.3023 44.9613 29.269 46.1223 29.2356 47.2658L28.3965 45.4455L29.3357 43.7885ZM29.8191 63.9288L29.0745 65.3757C29.1134 64.5064 29.1523 63.6079 29.1912 62.6802L29.8191 63.9288ZM29.0856 51.875L28.1631 50.2355L29.1856 48.7069C29.1578 49.7804 29.1245 50.8365 29.0856 51.875ZM28.0186 49.973L27.1017 48.3335H29.1189L28.0186 49.973ZM29.0133 52.2776H26.7961L28.002 50.4806L29.0133 52.2776ZM28.9189 52.8493L27.7297 54.4654L26.7905 52.8493H28.9189ZM29.0411 53.2169C29.0022 54.3371 28.9633 55.4398 28.9244 56.5133L27.9075 54.763L29.0411 53.2169ZM28.7466 60.9066L27.7297 59.3663C28.052 58.9462 28.4299 58.462 28.8633 57.8961C28.83 58.9229 28.7911 59.9264 28.7466 60.9066ZM27.5185 59.0338L26.5126 57.5052H28.7021C28.3354 57.9836 27.9242 58.5145 27.5185 59.0338ZM28.7244 61.5192C28.7244 61.5367 28.7244 61.5484 28.7244 61.5659H25.9681C26.2348 61.2683 26.6905 60.7024 27.5018 59.658L28.7244 61.5192ZM28.4854 62.1376L27.1239 63.7479L26.007 62.1376H28.4854ZM27.3407 64.063L28.6799 62.476C28.6299 63.6254 28.5855 64.7281 28.5354 65.79L27.3407 64.063ZM28.7855 71.4318L29.8691 73.0188L28.6188 74.7166C28.6744 73.7305 28.7299 72.6337 28.7855 71.4318ZM30.1081 73.363L31.3362 75.1658H28.7799L30.1081 73.363ZM30.3526 73.0246L31.2973 71.741C31.3529 72.7912 31.4085 73.7597 31.4529 74.6349L30.3526 73.0246ZM31.3529 62.4527L32.7755 64.0572L31.5085 65.8075C31.4585 64.7398 31.4029 63.6196 31.3529 62.4527ZM34.187 61.0525L32.8477 59.3955L33.8647 57.7794C33.9758 58.9054 34.0814 59.9964 34.187 61.0525ZM33.7424 56.4491L32.5088 54.7747L33.459 53.1936C33.5535 54.3079 33.648 55.3989 33.7424 56.4491ZM33.3534 51.8925L32.1809 50.2005L33.0978 48.5844C33.1812 49.7163 33.2645 50.8131 33.3534 51.8925ZM33.0367 47.7676H30.8972L31.8475 45.7372L33.0367 47.7384C33.0367 47.7501 33.0367 47.7618 33.0367 47.7676ZM33.0034 47.225L31.9697 45.4863L32.7755 43.771C32.8422 44.9437 32.92 46.099 33.0034 47.225ZM31.8252 45.2471L30.6916 43.3451H32.7144L31.8252 45.2471ZM30.6583 42.7792L31.5974 40.8772L32.681 42.7792H30.6583ZM32.681 42.3066L31.7252 40.6205L32.4977 39.051C32.5532 40.1537 32.6144 41.2389 32.681 42.3066ZM32.4699 38.5843L31.5863 40.3813L30.5416 38.5493H32.4699C32.4699 38.5609 32.4699 38.5726 32.4699 38.5843ZM32.4199 37.6099L31.5196 35.8013L32.2587 34.226C32.3087 35.3754 32.3643 36.5014 32.4199 37.6099ZM31.3918 35.5446L30.5138 33.7768H32.2198L31.3918 35.5446ZM32.2031 32.9366L31.3584 31.163L32.0753 29.5643C32.1142 30.702 32.1587 31.8281 32.2031 32.9366ZM32.0309 28.1583L31.2806 26.4254L31.9364 24.821C31.9642 25.9529 31.992 27.0614 32.0309 28.1583ZM31.9197 24.3776L31.1806 26.1979L30.3748 24.3367H31.9197C31.9197 24.3484 31.9197 24.3601 31.9197 24.3776ZM31.903 23.6541L31.1806 22.0613L31.8419 20.5211C31.8586 21.5712 31.8808 22.6214 31.903 23.6541ZM31.8252 19.3542L31.1417 18.1056L31.7919 16.8454C31.7975 17.6914 31.8141 18.5257 31.8252 19.3542ZM31.6752 16.6704L31.0306 17.9131L30.3471 16.6704H31.6752ZM30.9305 18.1115L30.2415 19.4475C30.2359 18.584 30.2359 17.7147 30.2359 16.8512L30.9305 18.1115ZM29.9803 38.5493H30.0025C30.0359 39.9729 30.0748 41.3848 30.1137 42.7734H29.8803C29.9136 41.3848 29.9469 39.9787 29.9803 38.5493ZM29.8636 43.3451H30.1303C30.1748 44.8446 30.2192 46.3207 30.2693 47.7676H29.7358C29.7802 46.3207 29.8191 44.8446 29.8636 43.3451ZM29.7247 19.3892L29.1134 18.1465L29.7247 16.9212C29.7247 17.7381 29.7247 18.5665 29.7247 19.3892ZM29.6413 16.6704L29.0078 17.9364L28.3854 16.6704H29.6413ZM28.3076 16.9154L28.9078 18.1406L28.2743 19.4067C28.2854 18.584 28.2965 17.7556 28.3076 16.9154ZM28.2576 20.3869L28.9133 21.9913L28.1965 23.5433C28.2187 22.5047 28.2409 21.4546 28.2576 20.3869ZM28.1742 24.3309H28.202L28.1742 24.3484C28.1742 24.3426 28.1742 24.3367 28.1742 24.3309ZM28.1742 24.5059L28.8911 26.3554L28.0686 28.2283C28.1075 27.003 28.1409 25.7662 28.1742 24.5059ZM28.0242 29.4943L28.7021 31.0871L27.9019 32.7499C27.9464 31.6822 27.9853 30.597 28.0242 29.4943ZM29.4635 33.7709L28.6188 35.4687L27.8686 33.7709H29.4635ZM27.8408 34.261L28.491 35.7371L27.6963 37.3416C27.7463 36.3322 27.7908 35.3054 27.8408 34.261ZM27.663 37.9192L28.6132 36.0055L29.4857 37.9717C29.4857 37.9717 29.4857 37.9717 29.4857 37.9775H27.663C27.663 37.96 27.663 37.9425 27.663 37.9192ZM27.6185 38.8293L28.3521 40.6205L27.4185 42.3708C27.4851 41.2156 27.5518 40.0312 27.6185 38.8293ZM27.3351 43.6719L28.1409 45.428L27.0961 47.2775C27.1795 46.1048 27.2573 44.9029 27.3351 43.6719ZM28.2631 45.6905L29.219 47.7676H27.0906L28.2631 45.6905ZM26.9961 48.6836L27.8575 50.218L26.7516 51.8691C26.8294 50.8306 26.9128 49.7746 26.9961 48.6836ZM26.6405 53.2052L27.5296 54.7338L26.3682 56.3149C26.4571 55.3114 26.5515 54.2671 26.6405 53.2052ZM26.3126 56.9334L27.7019 55.0372L28.8077 56.9392L26.3126 56.9334ZM26.2348 57.7385L27.2851 59.3371C26.7405 60.0314 26.2404 60.6674 25.9125 61.07C26.0181 59.9964 26.1292 58.8821 26.2348 57.7385ZM25.768 62.4294L26.8794 64.0338L25.3957 65.79C25.5235 64.7223 25.6457 63.6021 25.768 62.4294ZM25.2623 66.9918L26.4793 68.5963L24.8511 70.3408C24.9844 69.2964 25.1234 68.1762 25.2623 66.9918ZM24.701 71.496L26.1737 73.1004L24.2342 74.9091C24.3732 73.9056 24.5343 72.7679 24.701 71.496ZM23.5785 79.174C23.7008 78.4447 23.873 77.3712 24.0731 75.9943L25.5957 77.5462L23.5785 79.174ZM24.3898 75.7317H27.8464L25.918 77.2837L24.3898 75.7317ZM27.8575 79.2615L26.2126 77.5871L28.0353 76.1226C27.9631 77.4937 27.9019 78.5556 27.8575 79.2615ZM24.5677 75.1658L26.446 73.4097L28.052 75.1658H24.5677ZM28.1131 74.6232L26.746 73.1296L28.2631 71.7177C28.2076 72.7737 28.1576 73.7422 28.1131 74.6232ZM28.3243 70.3699L27.0017 68.6313L28.4799 67.0502C28.4299 68.2171 28.3743 69.3256 28.3243 70.3699ZM28.3854 79.0632C28.4299 78.3105 28.491 77.2312 28.5632 75.8659L29.808 77.4179L28.3854 79.0632ZM28.9689 75.7317H31.2584L30.0748 77.1087L28.9689 75.7317ZM30.3248 77.4295L31.5252 76.0351C31.603 77.377 31.6641 78.4331 31.7085 79.1565L30.3248 77.4295ZM31.7419 70.475C31.6863 69.4014 31.6252 68.2521 31.5696 67.0385L33.1145 68.6546L31.7419 70.475ZM31.7919 71.4726L33.4924 73.1296L31.9753 74.8566C31.9197 73.8531 31.8586 72.7212 31.7919 71.4726ZM32.242 79.3724C32.1976 78.6431 32.1253 77.4762 32.042 75.9418L33.9703 77.5346L32.242 79.3724ZM34.2537 77.2312L32.4421 75.7317H35.6596L34.2537 77.2312ZM36.5154 79.0982L34.5649 77.4879L36.0209 75.9359C36.2265 77.2953 36.3932 78.3572 36.5154 79.0982ZM35.8653 74.8682L34.0536 73.1063L35.4096 71.5602C35.5763 72.7854 35.7263 73.8881 35.8653 74.8682ZM34.8428 67.0093C34.9817 68.1704 35.115 69.2731 35.2429 70.2941L33.6369 68.6138L34.8428 67.0093Z" fill="#FFC000"/>
<path d="M49.3079 122.173C45.9514 114.122 44.5511 109.729 44.5399 109.682L44.4677 109.449H44.4343V104.087H43.234L43.1562 103.795C41.2335 96.432 38.1326 82.9255 38.0993 82.7913L38.0937 82.7796V81.006H38.6494V80.2883C36.2043 80.7667 33.7258 80.8134 31.2362 80.6617C28.0075 81.0351 24.7789 81.1285 21.528 80.5159V81.0001H22.2782V83.1413H22.3115C21.8058 85.3292 19.0828 97.0972 17.3379 103.789L17.2601 104.081H16.1542V109.513L16.1042 109.676C16.0875 109.723 14.6927 114.11 11.3362 122.167C8.34649 129.338 4.85107 135.697 4.81773 135.762L4.50098 136.327H18.2437L18.1992 135.913C18.1937 135.861 17.6935 130.785 19.7608 125.761L19.7219 125.738C19.7219 125.738 19.7219 125.732 19.7274 125.726L19.7719 125.75C19.7997 125.674 22.7727 118.002 30.3249 117.932C37.8714 118.002 40.85 125.674 40.8778 125.75L40.9223 125.726C40.9223 125.732 40.9223 125.732 40.9223 125.738L40.8834 125.761C42.945 130.779 42.4505 135.867 42.4449 135.913L42.4005 136.327H56.1432L55.832 135.762C55.7875 135.703 52.2921 129.344 49.3079 122.173ZM48.7689 122.506C49.069 123.229 49.3746 123.947 49.6858 124.647L44.7289 121.181L46.9739 118.078C47.4963 119.402 48.0909 120.878 48.7689 122.506ZM38.4549 99.8393L35.1373 97.0972H40.5666L38.4549 99.8393ZM38.5216 100.58L42.1615 103.597H36.2043L38.5216 100.58ZM35.2151 96.5254L37.3713 94.0108L40.5833 96.5254H35.2151ZM37.3101 93.2873L34.6538 91.2103H39.0884L37.3101 93.2873ZM34.5705 90.6385L36.3932 89.0107L38.8217 90.6385H34.5705ZM36.3599 88.3398L33.9703 86.7353L38.1215 86.7645L36.3599 88.3398ZM33.6591 85.6326L35.5319 84.5999L37.8714 85.6326H33.6591ZM35.9431 88.7073L33.9425 90.4927C33.7758 89.2966 33.6091 88.1297 33.4646 87.0445L35.9431 88.7073ZM36.9656 93.6957L34.7705 96.2512C34.5427 94.7109 34.3093 93.0598 34.0759 91.432L36.9656 93.6957ZM38.127 100.259L35.8042 103.276C35.6597 102.319 35.3429 100.213 34.9706 97.6456L38.127 100.259ZM36.2043 109.816L33.9592 112.628L30.9139 109.816H36.2043ZM36.4932 110.505C36.6989 111.421 37.1712 113.393 38.0048 116.356L34.4427 113.072L36.4932 110.505ZM37.1434 110.61L41.0945 113.544L38.7439 116.724C37.8936 113.737 37.3879 111.677 37.1434 110.61ZM41.6169 113.929L46.0348 117.208H39.194L41.6169 113.929ZM46.2738 117.938L44.1954 120.808L40.0776 117.938H46.2738ZM44.3232 121.747L49.3302 125.242H41.7947L44.3232 121.747ZM49.6747 125.971L47.8742 129.875L42.5727 125.971H49.6747ZM46.4016 116.619L42.0281 113.375L44.1565 110.499C44.4677 111.421 45.1846 113.492 46.4016 116.619ZM43.5786 110.184L41.5002 112.99L37.7214 110.184H43.5786ZM42.4949 103.182L38.8439 100.16L41.0334 97.3189C41.5447 99.4017 42.0448 101.432 42.4949 103.182ZM40.7055 95.9478L37.7158 93.6082L39.6163 91.3911C39.9609 92.8497 40.3276 94.3958 40.7055 95.9478ZM39.3718 90.3585L36.81 88.6431L38.5938 87.0504C38.8217 88.0364 39.0884 89.1566 39.3718 90.3585ZM38.1937 85.3467L35.9598 84.3607L37.738 83.3747C37.8325 83.7831 37.9881 84.4657 38.1937 85.3467ZM37.3324 83.1588L35.5096 84.1624L33.2312 83.1588H37.3324ZM35.0762 84.4016L33.2479 85.4109C33.159 84.705 33.0756 84.0632 33.0034 83.4856L35.0762 84.4016ZM32.7922 85.5568L30.6527 84.4366L32.5255 83.4389C32.5977 84.0632 32.6866 84.7808 32.7922 85.5568ZM32.092 85.6326H28.4077L30.2304 84.6641L32.092 85.6326ZM32.2421 83.1472L30.2304 84.2207L28.1798 83.1472H32.2421ZM27.9575 83.4739L29.8136 84.4424L27.6963 85.5684C27.7908 84.8041 27.8797 84.0923 27.9575 83.4739ZM11.314 125.242L16.3209 121.747L18.8439 125.242H11.314ZM18.0659 125.971L12.7588 129.875L10.9583 125.971H18.0659ZM14.3648 117.938H20.5555L16.4432 120.808L14.3648 117.938ZM14.6038 117.208L19.0161 113.929L21.439 117.208H14.6038ZM19.5441 113.538L23.4952 110.604C23.2451 111.677 22.745 113.731 21.8892 116.712L19.5441 113.538ZM26.5127 86.7353L24.1231 88.3398L22.3615 86.7645L26.5127 86.7353ZM22.6116 85.6326L24.9178 84.6116L26.7572 85.6326H22.6116ZM25.907 90.6385H21.6558L24.0842 89.0107L25.907 90.6385ZM25.8236 91.2103L23.1673 93.2873L21.389 91.2103H25.8236ZM25.2679 96.5254H19.9053L23.1173 94.0108L25.2679 96.5254ZM25.3457 97.0913L22.0281 99.8335L19.9164 97.0913H25.3457ZM24.2787 103.597H18.3159L21.9559 100.58L24.2787 103.597ZM24.1842 110.312L26.3626 113.043L22.5949 116.467C23.5174 113.212 24.0064 111.135 24.1842 110.312ZM24.6288 109.816H29.9136L26.8517 112.599L24.6288 109.816ZM22.3504 100.259L25.5068 97.6456C25.129 100.213 24.8178 102.319 24.6733 103.276L22.3504 100.259ZM23.5174 93.6957L26.4015 91.4378C26.1737 93.0656 25.9347 94.7167 25.7069 96.257L23.5174 93.6957ZM24.5399 88.7073L27.0184 87.0445C26.8739 88.1356 26.7127 89.3024 26.5405 90.4927L24.5399 88.7073ZM25.3679 84.4191L27.4741 83.4914C27.4018 84.0748 27.3185 84.7341 27.224 85.4459L25.3679 84.4191ZM27.2518 83.1588L24.9345 84.1799L23.0839 83.1588H27.2518ZM22.7338 83.4039L24.4843 84.3724L22.2837 85.3467C22.4838 84.4891 22.6394 83.8181 22.7338 83.4039ZM21.8892 87.0504L23.673 88.6431L21.1112 90.3585C21.3946 89.1566 21.6558 88.0364 21.8892 87.0504ZM20.8667 91.3853L22.7672 93.6024L19.7775 95.942C20.1553 94.3958 20.5221 92.8497 20.8667 91.3853ZM19.444 97.3189L21.6335 100.16L17.9825 103.182C18.4326 101.432 18.9383 99.4017 19.444 97.3189ZM22.9117 110.184L19.1328 112.99L17.06 110.184H22.9117ZM16.4821 110.499L18.6105 113.375L14.237 116.619C15.4485 113.492 16.1709 111.421 16.4821 110.499ZM11.8697 122.506C12.5477 120.878 13.1423 119.402 13.6646 118.078L15.9097 121.181L10.9528 124.647C11.2584 123.947 11.5641 123.229 11.8697 122.506ZM10.3137 126.071L12.242 130.254L6.02918 134.828C6.9461 133.095 8.60768 129.857 10.3137 126.071ZM6.14032 135.604L12.5421 130.896L14.7094 135.604H6.14032ZM17.5657 135.604H15.7541C16.1264 134.834 16.8489 133.276 17.7602 131.018C17.4713 133.148 17.5213 134.851 17.5657 135.604ZM15.2318 135.242L13.0534 130.516L18.905 126.211C17.2379 130.954 15.7986 134.07 15.2318 135.242ZM19.3718 124.863L16.8489 121.374L21.4779 118.142C21.0723 119.519 20.6055 121.059 20.0609 122.763C19.8275 123.492 19.5996 124.186 19.3718 124.863ZM20.7166 122.733C21.2779 120.954 21.7614 119.355 22.1781 117.938H26.4738C23.7452 119.005 21.8725 121.047 20.7166 122.733ZM22.7894 117.208L26.7905 113.573L29.6913 117.208H22.7894ZM30.1137 116.689L27.2684 113.13L30.1137 110.545V116.689ZM25.0289 104.093L25.0512 103.935C25.0678 103.807 26.6183 93.5382 27.5352 86.7236L30.2415 86.7061L32.9478 86.7236C33.8647 93.5382 35.4096 103.807 35.4318 103.935L35.4541 104.093H25.0289ZM30.7194 110.557L33.5424 113.159L30.7194 116.695V110.557ZM34.0203 113.603L37.927 117.208H31.1473L34.0203 113.603ZM34.1648 117.938H38.4605C38.8717 119.355 39.3552 120.954 39.922 122.733C38.7661 121.047 36.8934 119.005 34.1648 117.938ZM40.5777 122.763C40.0387 121.059 39.5663 119.519 39.1607 118.142L43.7897 121.374L41.2668 124.863C41.039 124.186 40.8111 123.492 40.5777 122.763ZM43.0673 135.604C43.1118 134.851 43.1618 133.148 42.8784 131.018C43.7842 133.276 44.5122 134.834 44.8845 135.604H43.0673ZM41.7336 126.211L47.5852 130.516L45.4068 135.242C44.8345 134.07 43.4007 130.954 41.7336 126.211ZM45.9292 135.604L48.0965 130.896L54.4927 135.604H45.9292ZM48.391 130.254L50.3193 126.071C52.0309 129.857 53.6925 133.095 54.6039 134.828L48.391 130.254Z" fill="#FFC000"/>
<path d="M38.5161 86.7645L38.5387 86.7998C38.5387 86.7881 38.533 86.7763 38.5274 86.7645H38.5161Z" fill="#FFC000"/>
<path d="M21.9448 86.7998L21.9674 86.7645H21.9561C21.9561 86.7763 21.9505 86.7881 21.9448 86.7998Z" fill="#FFC000"/>
<path d="M30.7918 109.361H30.0972V117.512H30.7918V109.361Z" fill="#FFD143"/>
<path d="M13.9037 109.629C13.8871 109.676 12.2755 114.064 8.39109 122.121C4.94569 129.285 0.905669 135.645 0.861212 135.709L0.5 136.281H13.0813L13.1869 136.112C13.2147 136.065 16.0655 131.298 19.133 122.973C22.2672 114.449 23.3397 109.898 23.3508 109.851L23.4564 109.396H13.9927L13.9037 109.629ZM22.5617 110.125C22.2172 111.461 21.0391 115.756 18.4828 122.704C15.7654 130.085 13.2258 134.636 12.6979 135.546H1.80036C2.86733 133.819 6.14602 128.41 9.01905 122.448C12.4144 115.4 14.0871 111.135 14.4706 110.125H22.5617Z" fill="#FFD143"/>
<path d="M33.1442 82.8878L33.0112 83.2717L39.8476 85.8821L39.9805 85.4982L33.1442 82.8878Z" fill="#FFD143"/>
<path d="M38.8676 82.8934L33.4478 85.489L33.6092 85.8606L39.0291 83.265L38.8676 82.8934Z" fill="#FFD143"/>
<path d="M27.4507 82.9086L27.2969 83.2837L33.4474 86.0635L33.6013 85.6884L27.4507 82.9086Z" fill="#FFD143"/>
<path d="M32.9532 82.9019L26.9277 85.6916L27.0847 86.0653L33.1101 83.2756L32.9532 82.9019Z" fill="#FFD143"/>
<path d="M39.322 82.733L39.2665 82.5229H32.7646L32.8091 82.8497C33.5649 88.5265 36.2101 103.725 36.2378 103.877L36.2767 104.11H45.2737L45.1626 103.737C42.9397 96.3796 39.3554 82.873 39.322 82.733ZM36.7324 103.544C36.399 101.631 34.1428 88.5907 33.3926 83.1005H38.8497C39.3054 84.8159 42.4507 96.6188 44.529 103.544H36.7324Z" fill="#FFD143"/>
<path d="M40.9009 90.7155L35.3354 96.3397L35.7093 96.7474L41.2747 91.1233L40.9009 90.7155Z" fill="#FFD143"/>
<path d="M34.5703 90.632L34.2749 91.1123L42.6456 96.7864L42.941 96.306L34.5703 90.632Z" fill="#FFD143"/>
<path d="M39.6452 86.4787L34.2661 90.6367L34.589 91.0971L39.9681 86.9391L39.6452 86.4787Z" fill="#FFD143"/>
<path d="M33.8118 86.2502L33.5508 86.7454L40.9612 91.0507L41.2222 90.5555L33.8118 86.2502Z" fill="#FFD143"/>
<path d="M41.2782 90.5861H34.4263V91.152H41.2782V90.5861Z" fill="#FFD143"/>
<path d="M42.9507 96.4671H35.293V97.0389H42.9507V96.4671Z" fill="#FFD143"/>
<path d="M42.5994 96.5596L36.3008 103.627L36.6985 104.018L42.997 96.9502L42.5994 96.5596Z" fill="#FFD143"/>
<path d="M35.1763 97.2081L44.7456 104.063L45.0513 103.591L35.4819 96.7355L35.1763 97.2081Z" fill="#FFD143"/>
<path d="M29.7749 85.5801V86.6478L40.3723 86.712L40.0667 85.5801H29.7749Z" fill="#FFC000"/>
<path d="M21.167 82.733C21.1337 82.8672 17.5493 96.3738 15.3265 103.737L15.2153 104.11H24.2123L24.2512 103.877C24.279 103.725 26.9242 88.5265 27.6799 82.8497L27.7244 82.5229H21.2226L21.167 82.733ZM27.0964 83.1005C26.3462 88.5849 24.0845 101.631 23.7566 103.544H15.96C18.0328 96.6188 21.1837 84.8159 21.6393 83.1005H27.0964Z" fill="#FFD143"/>
<path d="M19.5877 90.7167L19.2139 91.1245L24.7793 96.7486L25.1531 96.3408L19.5877 90.7167Z" fill="#FFD143"/>
<path d="M25.9167 90.6387L17.5381 96.3002L17.8298 96.7761L26.2085 91.1146L25.9167 90.6387Z" fill="#FFD143"/>
<path d="M20.8475 86.4816L20.5244 86.9419L25.9015 91.1026L26.2246 90.6424L20.8475 86.4816Z" fill="#FFD143"/>
<path d="M26.6746 86.2437L19.2676 90.5543L19.5289 91.0493L26.9359 86.7386L26.6746 86.2437Z" fill="#FFD143"/>
<path d="M26.0628 90.5861H19.2109V91.152H26.0628V90.5861Z" fill="#FFD143"/>
<path d="M25.196 96.4671H17.5327V97.0389H25.196V96.4671Z" fill="#FFD143"/>
<path d="M17.8882 96.563L17.4941 96.9492L23.7853 104.025L24.1794 103.639L17.8882 96.563Z" fill="#FFD143"/>
<path d="M25.0018 96.7303L15.4336 103.59L15.7407 104.062L25.3089 97.2024L25.0018 96.7303Z" fill="#FFD143"/>
<path d="M20.8336 117.15H11.1309V117.879H20.8336V117.15Z" fill="#FFD143"/>
<path d="M14.4932 109.515L13.9761 110.002L20.3628 117.476L20.8799 116.989L14.4932 109.515Z" fill="#FFD143"/>
<path d="M22.8243 109.45L10.751 117.205L11.1135 117.827L23.1868 110.072L22.8243 109.45Z" fill="#FFD143"/>
<path d="M23.5216 109.506L23.0225 110.013L30.0789 117.669L30.578 117.162L23.5216 109.506Z" fill="#FFD143"/>
<path d="M30.2362 109.464L20.7168 116.957L21.1334 117.54L30.6528 110.048L30.2362 109.464Z" fill="#FFD143"/>
<path d="M37.3712 109.498L30.3198 117.159L30.8193 117.665L37.8707 110.004L37.3712 109.498Z" fill="#FFD143"/>
<path d="M30.6593 109.464L30.2388 110.045L39.6197 117.536L40.0403 116.956L30.6593 109.464Z" fill="#FFD143"/>
<path d="M17.8214 125.184H7.06836V125.913H17.8214V125.184Z" fill="#FFD143"/>
<path d="M11.3974 117.28L10.875 117.76L17.3433 125.51L17.8657 125.029L11.3974 117.28Z" fill="#FFD143"/>
<path d="M20.1816 117.212L6.88721 125.23L7.23321 125.862L20.5276 117.844L20.1816 117.212Z" fill="#FFD143"/>
<path d="M7.67966 125.374L7.07324 125.729L12.5896 136.094L13.1961 135.739L7.67966 125.374Z" fill="#FFD143"/>
<path d="M17.2299 125.217L0.977539 135.616L1.33903 136.239L17.5914 125.84L17.2299 125.217Z" fill="#FFD143"/>
<path d="M52.2702 122.121C48.3914 114.069 46.7742 109.676 46.7576 109.629L46.6742 109.396H37.2104L37.316 109.851C37.3271 109.898 38.3997 114.449 41.5339 122.973C44.6014 131.304 47.4522 136.065 47.48 136.112L47.58 136.281H59.5111H60.1613L59.8001 135.709C59.7612 135.645 55.7212 129.285 52.2702 122.121ZM47.969 135.546C47.4411 134.63 44.9015 130.085 42.1841 122.704C39.6278 115.75 38.4497 111.461 38.1051 110.125H46.2018C46.5853 111.141 48.258 115.4 51.6534 122.448C54.5264 128.41 57.8051 133.825 58.8721 135.546H47.969Z" fill="#FFD143"/>
<path d="M49.5303 117.15H39.8276V117.879H49.5303V117.15Z" fill="#FFD143"/>
<path d="M46.1739 109.516L39.79 116.992L40.3073 117.479L46.6911 110.003L46.1739 109.516Z" fill="#FFD143"/>
<path d="M37.8411 109.452L37.4785 110.074L49.5518 117.831L49.9144 117.209L37.8411 109.452Z" fill="#FFD143"/>
<path d="M53.5928 125.184H42.8398V125.913H53.5928V125.184Z" fill="#FFD143"/>
<path d="M49.2711 117.287L42.7891 125.023L43.3106 125.505L49.7926 117.769L49.2711 117.287Z" fill="#FFD143"/>
<path d="M40.4868 117.205L40.1401 117.837L53.4269 125.871L53.7736 125.239L40.4868 117.205Z" fill="#FFD143"/>
<path d="M52.9834 125.369L47.4795 135.741L48.0863 136.096L53.5903 125.724L52.9834 125.369Z" fill="#FFD143"/>
<path d="M43.4189 125.239L43.0586 125.862L59.3252 136.224L59.6855 135.601L43.4189 125.239Z" fill="#FFD143"/>
<path d="M27.308 82.9066L20.4717 85.517L20.6046 85.9008L27.441 83.2904L27.308 82.9066Z" fill="#FFD143"/>
<path d="M21.5807 82.9018L21.4194 83.2735L26.8405 85.8666L27.0018 85.4949L21.5807 82.9018Z" fill="#FFD143"/>
<path d="M39.9612 79.7516H20.1724V80.9476H39.9612V79.7516Z" fill="#FFD143"/>
<path d="M39.3164 80.9535H21.0391V83.0947H39.3164V80.9535Z" fill="#FFD143"/>
<path d="M21.0391 83.0947H21.5003L22.395 81.6595L39.3164 81.3969V80.9535H21.0391V83.0947Z" fill="#FFC000"/>
<path d="M46.6351 104.034H13.9648V106.899H46.6351V104.034Z" fill="#FFD143"/>
<path d="M46.6351 106.899H13.9648V109.764H46.6351V106.899Z" fill="#FFD143"/>
<path d="M20.1108 86.712L30.7138 86.6478V85.5801H20.422L20.1108 86.712Z" fill="#FFC000"/>
<path d="M14.3818 106.689H14.7819L15.7989 105.4L46.1185 104.682V104.431H14.3818V106.689Z" fill="#FFC000"/>
<path d="M14.3818 109.361H14.7819L15.7989 108.072L46.1185 107.348V107.103H14.3818V109.361Z" fill="#FFC000"/>
<path d="M46.6351 106.689H13.9648V107.103H46.6351V106.689Z" fill="#FFC000"/>
<path d="M40.3055 117.15H20.3555V117.879H40.3055V117.15Z" fill="#FFD143"/>
<path d="M17.5049 125.4L18.1384 125.703C18.1717 125.627 21.6394 117.885 30.4474 117.879V117.15C21.1837 117.15 17.5438 125.318 17.5049 125.4Z" fill="#FFD143"/>
<path d="M30.2192 117.15V117.879C39.0273 117.885 42.4893 125.627 42.5227 125.703L43.1562 125.4C43.1228 125.318 39.4829 117.15 30.2192 117.15Z" fill="#FFD143"/>
<path d="M17.5161 125.388C15.4044 129.828 15.51 134.204 15.6044 135.552H12.8926V136.281H16.3824L16.3324 135.867C16.3269 135.814 15.7489 130.738 18.1385 125.709L17.5161 125.388Z" fill="#FFD143"/>
<path d="M43.1507 125.388L42.5283 125.715C44.9123 130.732 44.3399 135.82 44.3344 135.872L44.2844 136.287H47.7742V135.557H45.0624C45.1624 134.204 45.268 129.828 43.1507 125.388Z" fill="#FFD143"/>
<path d="M35.7543 61.8459L35.6987 61.7876C34.3317 50.7489 32.9591 35.2062 32.7535 16.3495L32.7479 16.0344H27.4242L27.4186 16.3495C26.9963 55.1481 21.6337 79.9733 21.5781 80.2184L22.1727 80.3642C22.1783 80.3467 22.2227 80.1425 22.2894 79.7983L25.1625 77.8438L27.4575 79.81C27.4353 80.09 27.4298 80.2417 27.4242 80.265L28.0299 80.3117C28.0299 80.2884 28.0466 80.0842 28.0688 79.7225L30.1027 77.7329L32.1144 79.845C32.1366 80.1309 32.1477 80.2942 32.1477 80.3117L32.7535 80.2592C32.7535 80.2417 32.7424 80.125 32.7312 79.9267L35.1097 77.7913L37.8827 79.7225C37.9605 80.1134 38.0105 80.3351 38.016 80.3584L38.6051 80.2125C38.5773 80.0842 37.1491 73.4913 35.7098 61.8868L35.7543 61.8459ZM35.5876 65.6616L33.876 64.0338L35.1764 62.5169C35.3097 63.6137 35.4487 64.6581 35.5876 65.6616ZM34.4928 72.8204L32.6145 71.2801H36.0988L34.4928 72.8204ZM34.5151 73.4155L36.6434 75.1658H32.6923L34.5151 73.4155ZM32.4701 70.7142L34.0483 68.9464L36.0544 70.7142H32.4701ZM34.0094 68.3221L32.1978 66.7235H35.4375L34.0094 68.3221ZM32.0533 66.1517L33.6093 64.3372L35.5153 66.1517H32.0533ZM24.1677 70.7142L26.1516 68.923L27.7632 70.7142H24.1677ZM27.8021 71.2801L25.8404 72.8262L24.1622 71.2801H27.8021ZM24.7623 66.7235H27.9243L26.1794 68.2987L24.7623 66.7235ZM24.7846 66.1517L26.5906 64.3489L28.0744 66.1517H24.7846ZM29.6637 20.2994L28.8579 21.7696L28.1466 20.2994H29.6637ZM28.0355 19.7276L28.8524 18.3507L29.6582 19.7276H28.0355ZM31.3031 21.8338L30.4751 20.2935H32.0866L31.3031 21.8338ZM31.3086 22.2889L32.1088 23.7708H30.5584L31.3086 22.2889ZM30.3861 19.7276L31.2586 18.304L32.1866 19.7276H30.3861ZM31.1919 22.0613L30.3417 23.73C30.3306 22.6331 30.3195 21.5362 30.3195 20.4394L31.1919 22.0613ZM30.3472 24.3309H30.3528H30.3472C30.3472 24.3367 30.3472 24.3367 30.3472 24.3309ZM31.781 61.5659L33.1591 59.7164L34.9263 61.5659H31.781ZM34.9707 62.1376L33.5815 63.7538L31.8866 62.1376H34.9707ZM28.7857 70.7142L30.0861 68.8764L31.4364 70.7142H28.7857ZM31.3809 71.2801L30.1639 72.6745L29.0302 71.2801H31.3809ZM29.547 52.0617L30.0416 50.1305L30.5195 52.0967C30.5251 52.155 30.5251 52.2134 30.5251 52.2776H29.5359C29.5415 52.2075 29.5415 52.1317 29.547 52.0617ZM28.7801 31.0988L29.5915 29.6752C29.5748 30.6554 29.5581 31.6355 29.5359 32.6099L28.7801 31.0988ZM30.5529 52.8493C30.5529 52.8785 30.5584 52.9077 30.5584 52.931L30.036 54.2671L29.5081 52.931C29.5081 52.9018 29.5137 52.8727 29.5137 52.8435H30.5529V52.8493ZM30.5862 53.5728C30.6195 54.3779 30.6584 55.1656 30.6973 55.9474L30.175 54.623L30.5862 53.5728ZM30.036 54.9847L30.7307 56.7584C30.7362 56.8167 30.7362 56.8809 30.7418 56.9392H29.3358C29.3358 56.8809 29.3414 56.8167 29.347 56.7584L30.036 54.9847ZM30.8029 58.1878C30.8418 58.9871 30.8807 59.7689 30.9196 60.5332L30.275 59.2555L30.8029 58.1878ZM30.0527 58.8121L29.3914 57.5052H30.6918L30.0527 58.8121ZM29.8304 59.2613L29.1636 60.6207C29.2025 59.8214 29.2414 59.0046 29.2803 58.1703L29.8304 59.2613ZM30.0583 59.7105L30.9752 61.525C30.9752 61.5367 30.9752 61.5542 30.9752 61.5659H29.1469L30.0583 59.7105ZM31.0363 62.6919C31.0863 63.6371 31.1363 64.5589 31.1864 65.4516L30.2806 63.9288L31.0363 62.6919ZM30.9863 48.6952L32.2422 50.2239L31.1197 51.8925C31.0752 50.8365 31.0308 49.7746 30.9863 48.6952ZM31.1752 53.2169L32.559 54.798L31.3308 56.5308C31.2808 55.4515 31.2253 54.3429 31.1752 53.2169ZM30.9029 62.1376L30.0472 63.5437L29.208 62.1376H30.9029ZM31.1419 66.1517H28.9191L30.0416 64.3139L31.1419 66.1517ZM31.0752 66.7235L30.0805 68.1237L29.0469 66.7235H31.0752ZM29.8138 68.5029L28.6634 70.1249C28.719 69.1914 28.7746 68.2054 28.8301 67.1669L29.8138 68.5029ZM30.3528 68.4971L31.2864 67.1785C31.342 68.1646 31.4031 69.1039 31.4531 69.9907L30.3528 68.4971ZM31.3975 57.8669L32.8813 59.4247L31.5642 61.1925C31.5087 60.1131 31.4531 59.0104 31.3975 57.8669ZM33.1258 59.0979L31.6087 57.5052H34.315L33.1258 59.0979ZM31.4698 56.9334L32.7924 55.0664L34.4206 56.9334H31.4698ZM32.7701 54.5063L31.3197 52.8493H33.9427L32.7701 54.5063ZM31.2086 52.2776L32.4367 50.4572L33.9371 52.2776H31.2086ZM32.4145 49.9613L31.0808 48.3394H33.5092L32.4145 49.9613ZM30.9418 47.5109C30.8918 46.2682 30.8474 45.0079 30.8029 43.7302L32.0533 45.5038L30.9418 47.5109ZM30.7529 42.3533C30.714 41.2448 30.6807 40.1187 30.6473 38.9869L31.7587 40.6321L30.7529 42.3533ZM30.6251 37.9833L31.6809 36.0697L32.8035 37.9833H30.6251ZM30.6029 37.4816C30.5695 36.3555 30.5417 35.2237 30.514 34.0801L31.5309 35.8071L30.6029 37.4816ZM30.4862 32.7849C30.4639 31.7056 30.4417 30.6145 30.4195 29.5235L31.342 31.163L30.4862 32.7849ZM31.4976 31.4372L32.4923 33.205H30.564L31.4976 31.4372ZM31.492 30.8946L30.5306 29.1851H32.4034L31.492 30.8946ZM30.4917 28.6133L31.4309 26.6647L32.4312 28.6133H30.4917ZM30.3973 28.3216C30.375 27.0731 30.3584 25.8128 30.3472 24.5526L31.3086 26.4313L30.3973 28.3216ZM30.3806 48.8119C30.4139 49.6229 30.4473 50.4222 30.4806 51.2157L30.1305 49.7804L30.3806 48.8119ZM30.0472 49.4245L29.786 48.3394H30.3306L30.0472 49.4245ZM29.9582 49.7746L29.5804 51.239C29.6137 50.3814 29.647 49.5121 29.6804 48.6369L29.9582 49.7746ZM29.6248 27.8549L28.9413 26.3613L29.6582 24.9727C29.647 25.9354 29.6359 26.898 29.6248 27.8549ZM29.6748 23.4557L28.9746 22.003L29.6971 20.6844C29.6859 21.6063 29.6804 22.5339 29.6748 23.4557ZM29.5915 23.765H28.0077L28.8468 22.2247L29.5915 23.765ZM29.6637 24.3309C29.6637 24.3892 29.6637 24.4534 29.6637 24.5118L28.8301 26.1221L28.0133 24.3367H29.6637V24.3309ZM29.6137 28.3391C29.6137 28.4325 29.6081 28.52 29.6081 28.6133H27.7687L28.8135 26.6005L29.6137 28.3391ZM29.5692 29.1793L28.6357 30.8129L27.8132 29.1793H29.5692ZM29.5248 33.1641C29.5248 33.1758 29.5248 33.1933 29.5248 33.205H27.5798L28.6245 31.373L29.5248 33.1641ZM29.4859 53.5728L29.8971 54.623L29.3803 55.9474C29.4136 55.1714 29.447 54.3779 29.4859 53.5728ZM29.4248 37.4407L28.5356 35.7429L29.5081 34.0918C29.4803 35.2178 29.4581 36.3322 29.4248 37.4407ZM29.2803 42.5166L28.3689 40.638L29.3859 39.0277C29.3525 40.2062 29.3192 41.3673 29.2803 42.5166ZM28.2355 40.3579L27.3575 38.5493H29.3803L28.2355 40.3579ZM29.1191 42.7792H27.0185L28.2022 40.9005L29.1191 42.7792ZM29.2247 43.3451L27.991 45.183L26.9907 43.3451H29.2247ZM29.2414 43.7885C29.2025 44.9613 29.1636 46.1223 29.1247 47.2658L28.1355 45.4455L29.2414 43.7885ZM29.8082 63.9288L28.9246 65.3757C28.9691 64.5064 29.0191 63.6079 29.0635 62.6802L29.8082 63.9288ZM28.9468 51.875L27.8577 50.2355L29.0747 48.7069C29.0302 49.7804 28.9857 50.8365 28.9468 51.875ZM27.6798 49.973L26.5906 48.3335H28.9857L27.6798 49.973ZM28.8579 52.2776H26.2294L27.6632 50.4806L28.8579 52.2776ZM28.7468 52.8493L27.3408 54.4654L26.2239 52.8493H28.7468ZM28.8913 53.2169C28.8468 54.3371 28.7968 55.4398 28.7468 56.5133L27.5409 54.763L28.8913 53.2169ZM28.5412 60.9066L27.3408 59.3663C27.7243 58.9462 28.1689 58.462 28.6857 57.8961C28.6412 58.9229 28.5912 59.9264 28.5412 60.9066ZM27.0852 59.0338L25.8904 57.5052H28.4856C28.0522 57.9836 27.5687 58.5145 27.0852 59.0338ZM28.5134 61.5192C28.5134 61.5367 28.5134 61.5484 28.5134 61.5659H25.2514C25.5626 61.2683 26.1072 60.7024 27.0685 59.658L28.5134 61.5192ZM28.2355 62.1376L26.6184 63.7479L25.2958 62.1376H28.2355ZM26.8796 64.063L28.4689 62.476C28.4134 63.6254 28.3522 64.7281 28.2967 65.79L26.8796 64.063ZM28.5912 71.4318L29.8749 73.0188L28.3967 74.7166C28.4523 73.7305 28.5189 72.6337 28.5912 71.4318ZM30.1527 73.363L31.6087 75.1658H28.5801L30.1527 73.363ZM30.4473 73.0246L31.5642 71.741C31.6309 72.7912 31.6921 73.7597 31.7476 74.6349L30.4473 73.0246ZM31.6309 62.4527L33.3203 64.0572L31.8199 65.8075C31.7532 64.7398 31.6921 63.6196 31.6309 62.4527ZM34.993 61.0525L33.4092 59.3955L34.6151 57.7794C34.7374 58.9054 34.8652 59.9964 34.993 61.0525ZM34.4651 56.4491L33.0035 54.7747L34.1316 53.1936C34.2372 54.3079 34.3539 55.3989 34.4651 56.4491ZM34.0038 51.8925L32.609 50.2005L33.6982 48.5844C33.7982 49.7163 33.8982 50.8131 34.0038 51.8925ZM33.6315 47.7676H31.0974L32.22 45.7372L33.6315 47.7384C33.6315 47.7501 33.6315 47.7618 33.6315 47.7676ZM33.587 47.225L32.3589 45.4863L33.3092 43.771C33.3981 44.9437 33.4926 46.099 33.587 47.225ZM32.1922 45.2471L30.8529 43.3451H33.248L32.1922 45.2471ZM30.8085 42.7792L31.9199 40.8772L33.2036 42.7792H30.8085ZM33.2036 42.3066L32.0644 40.6205L32.9813 39.051C33.0535 40.1537 33.1258 41.2389 33.2036 42.3066ZM32.9535 38.5843L31.9032 40.3813L30.6696 38.5493H32.9535C32.9535 38.5609 32.9535 38.5726 32.9535 38.5843ZM32.8924 37.6099L31.831 35.8013L32.7035 34.226C32.7646 35.3754 32.8257 36.5014 32.8924 37.6099ZM31.6809 35.5446L30.6418 33.7768H32.6646L31.6809 35.5446ZM32.6423 32.9366L31.642 31.163L32.4923 29.5643C32.5367 30.702 32.5868 31.8281 32.6423 32.9366ZM32.4312 28.1583L31.542 26.4254L32.3145 24.821C32.3534 25.9529 32.3923 27.0614 32.4312 28.1583ZM32.3033 24.3776L31.4253 26.1979L30.4695 24.3367H32.3033C32.3033 24.3484 32.3033 24.3601 32.3033 24.3776ZM32.2867 23.6541L31.4253 22.0613L32.2089 20.5211C32.2311 21.5712 32.2533 22.6214 32.2867 23.6541ZM32.1922 19.3542L31.3809 18.1056L32.1533 16.8454C32.1589 17.6914 32.1755 18.5257 32.1922 19.3542ZM32.0144 16.6704L31.253 17.9131L30.4417 16.6704H32.0144ZM31.1308 18.1115L30.3139 19.4475C30.3083 18.584 30.3083 17.7147 30.3083 16.8512L31.1308 18.1115ZM30.0027 38.5493H30.0249C30.0638 39.9729 30.1083 41.3848 30.1583 42.7734H29.8804C29.9249 41.3848 29.9638 39.9787 30.0027 38.5493ZM29.8638 43.3451H30.1805C30.2305 44.8446 30.2861 46.3207 30.3417 47.7676H29.7137C29.7637 46.3207 29.8138 44.8446 29.8638 43.3451ZM29.6971 19.3892L28.9746 18.1465L29.7026 16.9212C29.7026 17.7381 29.6971 18.5665 29.6971 19.3892ZM29.6026 16.6704L28.8524 17.9364L28.1188 16.6704H29.6026ZM28.0188 16.9154L28.7301 18.1406L27.9799 19.4067C27.9966 18.584 28.0077 17.7556 28.0188 16.9154ZM27.9632 20.3869L28.7357 21.9913L27.8854 23.5433C27.9188 22.5047 27.941 21.4546 27.9632 20.3869ZM27.8688 24.3309H27.8966L27.8632 24.3484C27.8632 24.3426 27.8632 24.3367 27.8688 24.3309ZM27.8632 24.5059L28.7079 26.3554L27.7354 28.2283C27.7799 27.003 27.8243 25.7662 27.8632 24.5059ZM27.6854 29.4943L28.4856 31.0871L27.5409 32.7499C27.5909 31.6822 27.6409 30.597 27.6854 29.4943ZM29.3914 33.7709L28.3911 35.4687L27.4964 33.7709H29.3914ZM27.4631 34.261L28.2355 35.7371L27.2908 37.3416C27.352 36.3322 27.4131 35.3054 27.4631 34.261ZM27.2575 37.9192L28.38 36.0055L29.4136 37.9717C29.4136 37.9717 29.4136 37.9717 29.4136 37.9775H27.2575C27.2575 37.96 27.2575 37.9425 27.2575 37.9192ZM27.2019 38.8293L28.0688 40.6205L26.963 42.3708C27.0463 41.2156 27.1241 40.0312 27.2019 38.8293ZM26.8685 43.6719L27.8243 45.428L26.5851 47.2775C26.6795 46.1048 26.7796 44.9029 26.8685 43.6719ZM27.9688 45.6905L29.1024 47.7676H26.5795L27.9688 45.6905ZM26.4628 48.6836L27.4853 50.218L26.1739 51.8691C26.2739 50.8306 26.3684 49.7746 26.4628 48.6836ZM26.0405 53.2052L27.0963 54.7338L25.7182 56.3149C25.8293 55.3114 25.9405 54.2671 26.0405 53.2052ZM25.657 56.9334L27.3075 55.0372L28.619 56.9392L25.657 56.9334ZM25.5681 57.7385L26.8129 59.3371C26.1683 60.0314 25.5737 60.6674 25.1847 61.07C25.3069 59.9964 25.4403 58.8821 25.5681 57.7385ZM25.0124 62.4294L26.335 64.0338L24.579 65.79C24.7179 64.7223 24.8679 63.6021 25.0124 62.4294ZM24.4122 66.9918L25.8571 68.5963L23.9288 70.3408C24.0788 69.2964 24.2455 68.1762 24.4122 66.9918ZM23.7454 71.496L25.4903 73.1004L23.1897 74.9091C23.362 73.9056 23.5453 72.7679 23.7454 71.496ZM22.4117 79.174C22.5562 78.4447 22.7562 77.3712 23.0007 75.9943L24.8068 77.5462L22.4117 79.174ZM23.3786 75.7317H27.4798L25.1902 77.2837L23.3786 75.7317ZM27.4909 79.2615L25.5403 77.5871L27.6965 76.1226C27.6076 77.4937 27.5409 78.5556 27.4909 79.2615ZM23.5898 75.1658L25.8182 73.4097L27.7243 75.1658H23.5898ZM27.791 74.6232L26.1683 73.1296L27.9632 71.7177C27.9021 72.7737 27.8465 73.7422 27.791 74.6232ZM28.041 70.3699L26.4739 68.6313L28.2244 67.0502C28.1633 68.2171 28.1022 69.3256 28.041 70.3699ZM28.1133 79.0632C28.1633 78.3105 28.2355 77.2312 28.3245 75.8659L29.7971 77.4179L28.1133 79.0632ZM28.8024 75.7317H31.5142L30.1083 77.1087L28.8024 75.7317ZM30.4139 77.4295L31.8365 76.0351C31.9255 77.377 32.0033 78.4331 32.0533 79.1565L30.4139 77.4295ZM32.0922 70.475C32.0255 69.4014 31.9588 68.2521 31.8866 67.0385L33.7148 68.6546L32.0922 70.475ZM32.1533 71.4726L34.1705 73.1296L32.37 74.8566C32.3033 73.8531 32.2311 72.7212 32.1533 71.4726ZM32.6812 79.3724C32.6257 78.6431 32.5423 77.4762 32.4423 75.9418L34.7318 77.5346L32.6812 79.3724ZM35.0708 77.2312L32.9202 75.7317H36.7379L35.0708 77.2312ZM37.7549 79.0982L35.4487 77.4879L37.1714 75.9359C37.4048 77.2953 37.6104 78.3572 37.7549 79.0982ZM36.9824 74.8682L34.8318 73.1063L36.4378 71.5602C36.6379 72.7854 36.8157 73.8881 36.9824 74.8682ZM35.771 67.0093C35.9321 68.1704 36.0933 69.2731 36.2489 70.2941L34.3428 68.6138L35.771 67.0093Z" fill="#FFD143"/>
<path d="M27.8077 14.2491H25.9683L27.4298 16.3553H27.841H32.3311H32.7424L34.1983 14.2491H32.3645H27.8077Z" fill="#FFD143"/>
<path opacity="0.4" d="M29.508 15.7719C28.202 15.6377 26.9128 15.3051 26.0681 14.2491H25.9736L27.4352 16.3495H32.7422L33.5091 15.2468C33.3035 15.3693 33.0812 15.4801 32.8478 15.556C31.7586 15.8944 30.6249 15.8885 29.508 15.7719Z" fill="#FFC000"/>
<path d="M26.2072 14.5875C26.3628 14.5583 27.0352 14.4591 28.3745 14.4708C30.1139 14.4883 31.6365 14.3541 32.4979 15.2993C32.9035 15.7427 32.2589 16.3495 32.2589 16.3495H32.7424L34.2039 14.2491H25.9683L26.2072 14.5875Z" fill="#FFC000"/>
<path d="M27.7521 11.682H25.9683V14.2491H27.7521H32.4201H34.1983V11.682H32.4201H27.7521Z" fill="#FFD143"/>
<path d="M26.2239 13.4907C26.135 13.4848 26.0516 13.4731 25.9683 13.4615V14.2491H34.1983V12.5338C31.6587 13.409 28.8468 13.6423 26.2239 13.4907Z" fill="#FFC000"/>
<path d="M31.8031 8.02966H30.2304H29.9359H28.3633C27.2852 8.50808 27.124 9.85582 27.124 9.85582H29.9415H30.236H33.0535C33.0423 9.85582 32.8812 8.50808 31.8031 8.02966Z" fill="#FFD143"/>
<path d="M27.2239 9.40076C27.1406 9.6633 27.1128 9.85584 27.1128 9.85584H33.0422C33.0422 9.85584 33.0033 9.53495 32.8366 9.14404C31.1862 9.6633 28.9411 10.0309 27.2239 9.40076Z" fill="#FFC000"/>
</g>
<defs>
<clipPath id="clip0_1226_156">
<rect width="59.6667" height="135.667" fill="white" transform="translate(0.5 0.666687)"/>
</clipPath>
</defs>
</svg>
