<svg width="65" height="109" viewBox="0 0 65 109" fill="none" xmlns="http://www.w3.org/2000/svg">
<path d="M63.8162 38.2441H1.53613V94.2499H63.8162V38.2441Z" fill="#ABB2B6"/>
<path d="M11.5845 96.6056C10.6656 96.6056 9.92578 97.3826 9.92578 98.3199V107.693C9.92578 108.211 10.3434 108.643 10.8446 108.643H12.3363C12.8375 108.643 13.2552 108.211 13.2552 107.693V98.3199C13.2552 97.3826 12.5034 96.6056 11.5845 96.6056Z" fill="#142023"/>
<path d="M53.5064 96.6056C52.5875 96.6056 51.8477 97.3826 51.8477 98.3199V107.693C51.8477 108.211 52.2653 108.643 52.7665 108.643H54.2582C54.7594 108.643 55.1771 108.211 55.1771 107.693V98.3199C55.1651 97.3826 54.4253 96.6056 53.5064 96.6056Z" fill="#142023"/>
<path d="M32.6819 25.3682C15.486 25.3682 1.54785 31.0785 1.54785 38.1085C1.54785 38.1578 1.55978 38.1948 1.55978 38.2442H63.816C63.816 38.1948 63.8279 38.1578 63.8279 38.1085C63.816 31.0662 49.8779 25.3682 32.6819 25.3682Z" fill="#5E6B73"/>
<path d="M57.9455 38.1085H7.26465V98.0733H57.9455V38.1085Z" fill="#E0E0D6"/>
<path d="M57.9455 70.0396H7.26465V94.2499H57.9455V70.0396Z" fill="#F9AB2C"/>
<path d="M57.9455 94.1143H7.26465V99.0599H57.9455V94.1143Z" fill="#2E0000"/>
<path d="M15.3912 42.3759C11.5367 42.3759 8.41016 42.9062 8.41016 43.5722V68.7446H22.3722V43.5722C22.3722 42.9062 19.2456 42.3759 15.3912 42.3759Z" fill="#142023"/>
<path d="M49.854 42.4375C46.1189 42.4375 43.0878 42.9432 42.8969 43.5722H42.873V68.7445H56.835V43.5722H56.8112C56.6322 42.9432 53.5892 42.4375 49.854 42.4375Z" fill="#142023"/>
<path d="M32.9924 42.4375C28.3981 42.4375 24.6629 42.9432 24.4243 43.5722H24.4004V68.7445H41.5844V43.5722H41.5605C41.3338 42.9432 37.5867 42.4375 32.9924 42.4375Z" fill="#142023"/>
<path d="M19.4358 98.7639L14.1016 105.917H51.1068L46.0471 98.7639H19.4358Z" fill="#2E0000"/>
<path d="M46.7388 99.0229H18.4688V99.9849H46.7388V99.0229Z" fill="#6A2700"/>
<path d="M47.921 100.996H17.2881V101.958H47.921V100.996Z" fill="#6A2700"/>
<path d="M49.4597 102.982H15.748V103.944H49.4597V102.982Z" fill="#6A2700"/>
<path d="M51.1068 104.955H14.1016V105.917H51.1068V104.955Z" fill="#6A2700"/>
<path d="M7.26413 67.2645H1.53613V94.2499H7.26413V67.2645Z" fill="#CD7C00"/>
<path d="M63.6733 67.2645H57.9453V94.2499H63.6733V67.2645Z" fill="#CD7C00"/>
<path d="M64.3533 37.5781H0.987305V38.2441H64.3533V37.5781Z" fill="#142023"/>
<path d="M57.9575 88.7122H7.26465V94.1142H57.9575V88.7122Z" fill="#FAC438"/>
<path opacity="0.2" d="M36.5006 42.5361L24.4121 55.0421V64.6498L41.5961 46.8898V43.5721H41.5603C41.3932 43.1035 39.3646 42.7211 36.5006 42.5361Z" fill="white"/>
<path opacity="0.2" d="M24.4121 68.7445H26.393L41.5842 53.0318V50.2321L24.4121 67.9798V68.7445Z" fill="white"/>
<path opacity="0.2" d="M20.2838 42.7212L8.41016 54.9929V61.3199L22.3722 46.8899V43.5722C22.3722 43.2392 21.5726 42.9309 20.2838 42.7212Z" fill="white"/>
<path opacity="0.2" d="M8.41016 68.6952H10.3911L22.3722 56.3125V49.1345L8.41016 63.5522V68.6952Z" fill="white"/>
<path opacity="0.2" d="M54.7467 42.8075L42.873 55.0668V62.4915L56.835 48.0615V43.6462C56.835 43.3132 56.0355 43.0172 54.7467 42.8075Z" fill="white"/>
<path opacity="0.2" d="M42.873 68.7815H44.854L56.835 56.3989V53.5869L42.873 68.0169V68.7815Z" fill="white"/>
<path d="M57.957 94.1142H60.2482V42.0428L63.8163 38.2441H57.957V94.1142Z" fill="#DBDEE0"/>
<path d="M5.0327 42.0428V94.1142H7.3239V38.2441H1.47656L5.0327 42.0428Z" fill="#DBDEE0"/>
<path d="M33.386 80.4982C31.1545 80.4982 29.3525 82.3606 29.3525 84.6669C29.3525 86.9732 31.1545 88.8356 33.386 88.8356C35.6175 88.8356 37.4195 86.9732 37.4195 84.6669C37.4195 82.3606 35.6056 80.4982 33.386 80.4982Z" fill="#2E0000"/>
<path d="M33.3862 81.3246C31.632 81.3246 30.2119 82.7922 30.2119 84.6053C30.2119 86.4183 31.632 87.8859 33.3862 87.8859C35.1404 87.8859 36.5604 86.4183 36.5604 84.6053C36.5604 82.7922 35.1404 81.3246 33.3862 81.3246Z" fill="#E0E0D6"/>
<path d="M14.7583 89.9456H12.5745C12.0255 89.9456 11.584 90.4019 11.584 90.9692C11.584 91.5366 12.0255 91.9929 12.5745 91.9929H14.7463C15.2953 91.9929 15.7368 91.5366 15.7368 90.9692C15.7487 90.4019 15.2953 89.9456 14.7583 89.9456Z" fill="#B20009"/>
<path d="M52.5159 89.9456H50.344C49.7951 89.9456 49.3535 90.4019 49.3535 90.9692C49.3535 91.5366 49.7951 91.9929 50.344 91.9929H52.5159C53.0648 91.9929 53.5063 91.5366 53.5063 90.9692C53.5063 90.4019 53.0648 89.9456 52.5159 89.9456Z" fill="#B20009"/>
<path d="M1.53613 38.1085C1.53613 38.1578 1.54807 38.1948 1.54807 38.2442H10.1043C10.1043 38.1948 10.0923 38.1578 10.0923 38.1085C10.0923 31.6705 21.787 26.3425 36.9543 25.4915C35.5581 25.4175 34.1261 25.3682 32.6821 25.3682C15.4743 25.3682 1.53613 31.0662 1.53613 38.1085Z" fill="#DBDEE0"/>
<path opacity="0.2" d="M32.6227 25.3682C31.1669 25.3682 29.7468 25.4175 28.3506 25.4915C43.5179 26.3425 55.2125 31.6705 55.2125 38.1085C55.2125 38.1578 55.2006 38.1948 55.2006 38.2442H63.7568C63.7568 38.1948 63.7687 38.1578 63.7687 38.1085C63.7568 31.0662 49.8187 25.3682 32.6227 25.3682Z" fill="white"/>
<path d="M38.7571 11.0615H26.251V13.6638H38.7571V11.0615Z" fill="#142023"/>
<path d="M18.2312 1.12428L17.376 2.01947L27.6255 12.4786L28.4807 11.5834L18.2312 1.12428Z" fill="#142023"/>
<path d="M46.8092 1.12774L36.5625 11.5884L37.4178 12.4833L47.6645 2.02268L46.8092 1.12774Z" fill="#142023"/>
<path d="M50.4156 0.80011L48.721 0.812443V0.80011H15.4151H13.9473C13.5416 0.80011 13.1597 0.886443 12.8017 1.04678L7.75391 3.37778L8.26704 4.52478L12.921 2.32945C13.279 2.15678 13.6848 2.07044 14.0786 2.07044H15.976V2.05811H48.4943L50.0695 2.07044C50.4633 2.07044 50.8452 2.16911 51.2032 2.32945L55.881 4.53711L56.3942 3.39011L51.6328 1.08378C51.239 0.898777 50.8332 0.80011 50.4156 0.80011Z" fill="#142023"/>
<path d="M33.7569 12.3564H31.5254V20.0401H33.7569V12.3564Z" fill="#142023"/>
<path d="M50.9764 17.9928H14.9258V27.7361H50.9764V17.9928Z" fill="#5E6B73"/>
<path d="M37.4203 20.0031H17.0859V25.4668H37.4203V20.0031Z" fill="#142023"/>
<path d="M48.9958 20.0031H39.0195V25.4668H48.9958V20.0031Z" fill="#142023"/>
<path opacity="0.2" d="M46.048 38.1208H18.8877V93.9046H46.048V38.1208Z" fill="white"/>
</svg>
